<svg id="svg" version="1.1" xmlns="http://www.w3.org/2000/svg" xmlns:xlink="http://www.w3.org/1999/xlink" width="400" height="61.7399438727783" viewBox="0, 0, 400,61.7399438727783"><g id="svgg"><path id="path0" d="M26.333 7.488 C 26.333 7.573,26.595 7.630,26.916 7.613 C 27.675 7.574,27.676 7.333,26.917 7.333 C 26.596 7.333,26.333 7.403,26.333 7.488 M24.625 8.307 C 24.373 8.459,24.167 8.634,24.167 8.696 C 24.167 8.839,25.129 8.363,25.257 8.156 C 25.396 7.931,25.152 7.989,24.625 8.307 M28.596 8.222 C 28.643 8.344,28.783 8.444,28.908 8.444 C 29.033 8.444,29.097 8.344,29.050 8.222 C 29.003 8.100,28.862 8.000,28.737 8.000 C 28.613 8.000,28.549 8.100,28.596 8.222 M22.678 9.404 C 22.516 9.598,22.542 9.624,22.824 9.551 C 23.012 9.501,23.167 9.395,23.167 9.314 C 23.167 9.089,22.898 9.138,22.678 9.404 M34.544 11.282 C 34.699 11.437,34.881 11.508,34.950 11.439 C 35.018 11.371,34.963 11.245,34.829 11.160 C 34.423 10.904,34.242 10.981,34.544 11.282 M40.586 14.337 C 40.697 14.516,41.333 14.658,41.333 14.504 C 41.333 14.431,41.148 14.337,40.922 14.294 C 40.695 14.250,40.544 14.270,40.586 14.337 M10.333 15.655 C 10.333 15.740,10.170 15.834,9.971 15.863 C 9.550 15.925,9.346 16.333,9.736 16.333 C 9.881 16.333,10.000 16.272,10.000 16.197 C 10.000 16.122,10.244 15.939,10.542 15.791 C 11.012 15.557,11.034 15.520,10.708 15.511 C 10.502 15.505,10.333 15.570,10.333 15.655 M7.262 17.254 C 6.776 17.621,7.014 17.664,7.583 17.311 C 7.858 17.141,7.971 17.004,7.833 17.006 C 7.696 17.009,7.439 17.120,7.262 17.254 M46.333 17.250 C 46.447 17.387,46.644 17.500,46.770 17.500 C 46.897 17.500,47.000 17.575,47.000 17.667 C 47.000 17.758,47.084 17.833,47.187 17.833 C 47.316 17.833,47.310 17.756,47.167 17.583 C 47.053 17.446,46.856 17.333,46.730 17.333 C 46.603 17.333,46.500 17.258,46.500 17.167 C 46.500 17.075,46.416 17.000,46.313 17.000 C 46.184 17.000,46.190 17.077,46.333 17.250 M49.145 18.708 C 49.271 18.869,49.534 18.991,49.729 18.981 C 50.066 18.962,50.067 18.957,49.750 18.879 C 49.567 18.834,49.304 18.712,49.167 18.607 C 48.949 18.441,48.946 18.455,49.145 18.708 M4.000 18.982 C 4.000 19.064,3.813 19.178,3.583 19.235 C 3.354 19.293,3.167 19.428,3.167 19.537 C 3.167 19.686,3.215 19.685,3.367 19.533 C 3.477 19.423,3.670 19.333,3.795 19.333 C 3.921 19.333,4.136 19.221,4.274 19.083 C 4.496 18.861,4.495 18.833,4.262 18.833 C 4.118 18.833,4.000 18.900,4.000 18.982 M1.000 20.583 C 1.000 20.721,1.067 20.833,1.149 20.833 C 1.231 20.833,1.341 20.721,1.394 20.583 C 1.452 20.431,1.394 20.333,1.245 20.333 C 1.110 20.333,1.000 20.446,1.000 20.583 M0.374 20.792 C 0.215 20.845,0.167 21.989,0.167 25.681 L 0.167 30.500 0.569 30.500 C 0.791 30.500,0.997 30.556,1.028 30.625 C 1.058 30.694,1.458 30.937,1.917 31.166 C 2.375 31.394,2.849 31.676,2.970 31.791 C 3.091 31.906,3.298 32.000,3.429 32.000 C 3.560 32.000,3.667 32.059,3.667 32.130 C 3.667 32.202,4.004 32.360,4.415 32.482 C 4.827 32.603,5.123 32.770,5.072 32.851 C 5.022 32.933,5.172 33.000,5.407 33.000 C 5.682 33.000,5.833 33.092,5.833 33.260 C 5.833 33.403,5.897 33.480,5.975 33.432 C 6.054 33.384,6.260 33.452,6.434 33.583 C 6.608 33.715,6.881 33.825,7.042 33.828 C 7.202 33.831,7.333 33.908,7.333 34.000 C 7.333 34.092,7.483 34.167,7.667 34.167 C 7.850 34.167,8.000 34.242,8.000 34.333 C 8.000 34.425,8.188 34.500,8.417 34.500 C 8.685 34.500,8.833 34.594,8.833 34.763 C 8.833 34.966,8.943 35.002,9.309 34.922 C 9.841 34.805,10.424 35.089,19.333 39.795 C 20.112 40.207,21.762 41.069,23.000 41.711 C 24.238 42.353,25.571 43.056,25.964 43.273 C 26.357 43.489,26.796 43.667,26.939 43.667 C 27.168 43.667,31.114 41.687,32.917 40.667 C 33.283 40.460,34.746 39.691,36.167 38.958 C 37.587 38.225,38.825 37.567,38.917 37.496 C 39.808 36.806,44.041 34.836,44.470 34.911 C 44.816 34.972,44.994 34.923,45.061 34.749 C 45.113 34.612,45.309 34.500,45.495 34.500 C 45.681 34.500,45.833 34.425,45.833 34.333 C 45.833 34.242,45.983 34.167,46.167 34.167 C 46.350 34.167,46.500 34.092,46.500 34.000 C 46.500 33.908,46.601 33.833,46.724 33.833 C 47.059 33.833,48.000 33.332,48.000 33.154 C 48.000 33.070,48.192 33.000,48.427 33.000 C 48.668 33.000,48.808 32.928,48.750 32.833 C 48.660 32.688,48.998 32.587,49.375 32.647 C 49.444 32.658,49.500 32.592,49.500 32.500 C 49.500 32.408,49.614 32.333,49.752 32.333 C 50.072 32.333,50.709 31.981,50.883 31.708 C 50.957 31.594,51.105 31.500,51.213 31.500 C 51.322 31.500,51.917 31.256,52.536 30.958 L 53.662 30.417 53.623 25.597 C 53.589 21.477,53.547 20.768,53.333 20.709 C 53.111 20.649,53.111 20.662,53.333 20.824 C 53.550 20.982,53.540 21.033,53.256 21.211 C 52.486 21.694,51.241 22.368,48.500 23.787 C 44.946 25.626,42.832 26.729,40.796 27.805 C 39.946 28.254,38.294 29.119,37.125 29.727 C 31.714 32.544,30.640 33.104,29.054 33.940 C 26.771 35.143,27.588 35.354,20.917 31.831 C 20.092 31.395,18.317 30.470,16.972 29.776 C 15.628 29.082,13.903 28.184,13.139 27.780 C 10.743 26.515,8.349 25.263,5.417 23.740 C 3.858 22.931,2.209 22.073,1.751 21.834 C 1.293 21.596,0.842 21.248,0.749 21.062 C 0.657 20.875,0.488 20.754,0.374 20.792 M8.083 35.167 C 8.027 35.258,7.835 35.333,7.657 35.333 C 7.479 35.333,7.333 35.416,7.333 35.518 C 7.333 35.628,7.451 35.654,7.625 35.582 C 7.785 35.516,8.048 35.424,8.208 35.378 C 8.369 35.332,8.500 35.228,8.500 35.147 C 8.500 34.947,8.211 34.961,8.083 35.167 M6.778 35.778 C 6.618 35.937,6.641 36.167,6.816 36.167 C 6.897 36.167,7.008 36.054,7.060 35.917 C 7.158 35.663,6.980 35.575,6.778 35.778 M6.000 36.250 C 5.830 36.455,5.841 36.500,6.063 36.500 C 6.212 36.500,6.333 36.387,6.333 36.250 C 6.333 36.112,6.305 36.000,6.270 36.000 C 6.236 36.000,6.114 36.112,6.000 36.250 M49.500 37.316 C 49.500 37.397,49.612 37.508,49.750 37.560 C 49.902 37.619,50.000 37.561,50.000 37.411 C 50.000 37.277,49.887 37.167,49.750 37.167 C 49.612 37.167,49.500 37.234,49.500 37.316 M51.000 38.167 C 51.000 38.258,51.112 38.333,51.250 38.333 C 51.387 38.333,51.500 38.258,51.500 38.167 C 51.500 38.075,51.387 38.000,51.250 38.000 C 51.112 38.000,51.000 38.075,51.000 38.167 M1.000 38.822 C 1.000 38.907,0.831 39.001,0.625 39.030 L 0.250 39.083 0.206 43.839 L 0.162 48.594 1.123 49.089 C 1.651 49.361,2.108 49.640,2.139 49.708 C 2.169 49.777,2.332 49.833,2.500 49.833 C 2.668 49.833,2.831 49.894,2.861 49.968 C 2.935 50.147,4.669 51.000,4.959 51.000 C 5.084 51.000,5.140 51.075,5.083 51.167 C 5.025 51.261,5.165 51.333,5.407 51.333 C 5.641 51.333,5.833 51.403,5.833 51.488 C 5.833 51.666,6.775 52.167,7.109 52.167 C 7.232 52.167,7.333 52.242,7.333 52.333 C 7.333 52.425,7.483 52.500,7.667 52.500 C 7.850 52.500,8.000 52.575,8.000 52.667 C 8.000 52.758,8.188 52.833,8.417 52.833 C 8.676 52.833,8.833 52.928,8.833 53.083 C 8.833 53.222,8.981 53.333,9.167 53.333 C 9.350 53.333,9.500 53.408,9.500 53.500 C 9.500 53.592,9.576 53.667,9.668 53.667 C 9.882 53.667,11.389 54.360,11.500 54.510 C 11.546 54.571,11.752 54.674,11.958 54.739 C 12.165 54.803,12.333 54.926,12.333 55.011 C 12.333 55.097,12.483 55.167,12.667 55.167 C 12.850 55.167,13.000 55.242,13.000 55.333 C 13.000 55.425,13.146 55.500,13.323 55.500 C 13.501 55.500,13.693 55.575,13.750 55.667 C 13.807 55.758,13.999 55.833,14.177 55.833 C 14.354 55.833,14.500 55.908,14.500 56.000 C 14.500 56.092,14.650 56.167,14.833 56.167 C 15.019 56.167,15.167 56.278,15.167 56.417 C 15.167 56.554,15.312 56.667,15.490 56.667 C 15.668 56.667,15.860 56.742,15.917 56.833 C 15.973 56.925,16.165 57.000,16.343 57.000 C 16.521 57.000,16.667 57.075,16.667 57.167 C 16.667 57.258,16.817 57.333,17.000 57.333 C 17.183 57.333,17.333 57.408,17.333 57.500 C 17.333 57.592,17.521 57.667,17.750 57.667 C 18.009 57.667,18.167 57.761,18.167 57.917 C 18.167 58.056,18.315 58.167,18.500 58.167 C 18.683 58.167,18.834 58.223,18.835 58.292 C 18.836 58.441,19.643 58.833,19.950 58.833 C 20.069 58.833,20.167 58.908,20.167 59.000 C 20.167 59.092,20.317 59.167,20.500 59.167 C 20.683 59.167,20.834 59.223,20.834 59.292 C 20.836 59.459,21.799 60.000,22.097 60.000 C 22.227 60.000,22.333 60.079,22.333 60.177 C 22.333 60.274,22.402 60.310,22.487 60.258 C 22.571 60.206,22.753 60.277,22.891 60.415 C 23.030 60.553,23.298 60.667,23.488 60.667 C 23.684 60.667,23.833 60.775,23.833 60.917 C 23.833 61.054,23.968 61.167,24.133 61.167 C 24.298 61.167,24.527 61.260,24.641 61.375 C 24.901 61.635,28.950 61.670,29.131 61.414 C 29.196 61.321,29.568 61.096,29.956 60.914 C 30.345 60.732,30.664 60.527,30.665 60.458 C 30.666 60.390,30.764 60.333,30.883 60.333 C 31.190 60.333,31.997 59.941,31.999 59.792 C 31.999 59.723,32.150 59.667,32.333 59.667 C 32.519 59.667,32.667 59.556,32.667 59.417 C 32.667 59.261,32.824 59.167,33.083 59.167 C 33.313 59.167,33.500 59.092,33.500 59.000 C 33.500 58.908,33.650 58.833,33.833 58.833 C 34.017 58.833,34.167 58.758,34.167 58.667 C 34.167 58.575,34.354 58.500,34.583 58.500 C 34.813 58.500,35.000 58.425,35.000 58.333 C 35.000 58.242,35.150 58.167,35.333 58.167 C 35.519 58.167,35.667 58.056,35.667 57.917 C 35.667 57.761,35.824 57.667,36.083 57.667 C 36.313 57.667,36.500 57.592,36.500 57.500 C 36.500 57.408,36.650 57.333,36.833 57.333 C 37.017 57.333,37.167 57.258,37.167 57.167 C 37.167 57.075,37.359 57.000,37.593 57.000 C 37.835 57.000,37.975 56.928,37.917 56.833 C 37.858 56.739,37.998 56.667,38.240 56.667 C 38.508 56.667,38.667 56.574,38.667 56.417 C 38.667 56.261,38.824 56.167,39.083 56.167 C 39.313 56.167,39.500 56.092,39.500 56.000 C 39.500 55.908,39.650 55.833,39.833 55.833 C 40.017 55.833,40.167 55.758,40.167 55.667 C 40.167 55.575,40.277 55.500,40.412 55.500 C 40.686 55.500,41.775 54.925,42.180 54.566 C 42.325 54.438,42.516 54.333,42.605 54.333 C 42.869 54.333,43.664 53.927,43.665 53.792 C 43.666 53.723,43.817 53.667,44.000 53.667 C 44.183 53.667,44.333 53.592,44.333 53.500 C 44.333 53.408,44.437 53.333,44.563 53.333 C 44.689 53.333,44.886 53.221,45.000 53.083 C 45.114 52.946,45.348 52.833,45.520 52.833 C 45.693 52.833,45.833 52.758,45.833 52.667 C 45.833 52.575,45.943 52.500,46.077 52.500 C 46.212 52.500,46.652 52.315,47.056 52.090 C 47.460 51.864,47.838 51.727,47.895 51.784 C 47.953 51.842,48.000 51.764,48.000 51.611 C 48.000 51.447,48.133 51.333,48.323 51.333 C 48.501 51.333,48.693 51.258,48.750 51.167 C 48.807 51.075,48.999 51.000,49.177 51.000 C 49.354 51.000,49.500 50.925,49.500 50.833 C 49.500 50.742,49.601 50.667,49.724 50.667 C 50.059 50.667,51.000 50.166,51.000 49.988 C 51.000 49.903,51.188 49.833,51.417 49.833 C 51.646 49.833,51.833 49.758,51.833 49.667 C 51.833 49.575,51.983 49.500,52.167 49.500 C 52.350 49.500,52.500 49.425,52.500 49.333 C 52.500 49.242,52.654 49.167,52.843 49.167 C 53.032 49.167,53.140 49.092,53.083 49.000 C 53.027 48.908,53.135 48.833,53.323 48.833 C 53.662 48.833,53.667 48.769,53.667 43.917 C 53.667 39.111,53.659 39.000,53.333 39.000 C 53.150 39.000,53.000 38.925,53.000 38.833 C 53.000 38.742,52.869 38.668,52.708 38.669 C 52.510 38.671,52.592 38.785,52.966 39.024 L 53.514 39.375 53.132 39.646 C 52.922 39.794,52.450 40.071,52.083 40.259 C 50.183 41.238,42.314 45.342,40.745 46.173 C 39.272 46.953,36.480 48.409,33.250 50.082 C 31.875 50.793,29.912 51.817,28.888 52.357 L 27.025 53.337 24.554 52.063 C 23.195 51.362,21.446 50.455,20.667 50.046 C 19.887 49.638,18.125 48.719,16.750 48.005 C 15.375 47.290,13.762 46.445,13.167 46.127 C 12.571 45.808,10.733 44.852,9.083 44.003 C 7.433 43.154,5.483 42.138,4.750 41.746 C 4.017 41.355,2.916 40.775,2.305 40.459 C 1.280 39.929,0.540 39.384,0.688 39.270 C 0.722 39.244,0.935 39.098,1.162 38.945 C 1.480 38.730,1.509 38.667,1.287 38.667 C 1.129 38.667,1.000 38.736,1.000 38.822 " stroke="none" fill="#dc2424" fill-rule="evenodd"></path><path id="path1" d="M85.167 3.000 L 85.167 5.833 87.750 5.833 L 90.333 5.833 90.333 15.167 C 90.333 20.300,90.297 24.500,90.253 24.500 C 90.209 24.500,89.902 24.238,89.572 23.917 C 89.242 23.596,88.865 23.333,88.736 23.333 C 88.606 23.333,88.500 23.258,88.500 23.167 C 88.500 23.075,88.388 23.000,88.250 23.000 C 88.112 23.000,88.000 22.925,88.000 22.833 C 88.000 22.742,87.856 22.667,87.681 22.667 C 87.505 22.667,87.336 22.590,87.304 22.496 C 87.273 22.403,87.023 22.286,86.749 22.236 C 86.474 22.187,86.225 22.076,86.194 21.990 C 86.164 21.904,85.920 21.833,85.653 21.833 C 85.385 21.833,85.167 21.758,85.167 21.667 C 85.167 21.575,84.909 21.500,84.593 21.500 C 84.278 21.500,83.973 21.425,83.917 21.333 C 83.860 21.241,83.114 21.167,82.254 21.167 C 81.229 21.167,80.673 21.101,80.631 20.975 C 80.549 20.729,78.176 20.716,78.024 20.961 C 77.964 21.058,77.353 21.177,76.666 21.225 C 74.990 21.342,74.017 21.504,73.906 21.684 C 73.855 21.766,73.625 21.833,73.395 21.833 C 73.165 21.833,72.863 21.947,72.725 22.085 C 72.586 22.223,72.404 22.293,72.319 22.241 C 72.234 22.188,72.119 22.263,72.064 22.406 C 72.009 22.549,71.827 22.667,71.659 22.667 C 71.491 22.667,71.307 22.742,71.250 22.833 C 71.193 22.925,71.001 23.000,70.823 23.000 C 70.646 23.000,70.500 23.075,70.500 23.167 C 70.500 23.258,70.368 23.333,70.206 23.333 C 70.045 23.333,69.772 23.521,69.600 23.750 C 69.427 23.979,69.185 24.167,69.060 24.167 C 68.935 24.167,68.833 24.242,68.833 24.333 C 68.833 24.425,68.753 24.500,68.655 24.500 C 68.424 24.500,68.000 24.924,68.000 25.155 C 68.000 25.253,67.942 25.315,67.870 25.292 C 67.632 25.215,66.500 26.484,66.500 26.828 C 66.500 27.014,66.415 27.167,66.311 27.167 C 66.036 27.167,65.334 28.034,65.334 28.375 C 65.333 28.535,65.258 28.667,65.167 28.667 C 65.075 28.667,65.000 28.817,65.000 29.000 C 65.000 29.185,64.889 29.333,64.750 29.333 C 64.594 29.333,64.500 29.491,64.500 29.750 C 64.500 29.979,64.425 30.167,64.333 30.167 C 64.242 30.167,64.167 30.317,64.167 30.500 C 64.167 30.683,64.092 30.833,64.000 30.833 C 63.908 30.833,63.833 31.096,63.833 31.417 C 63.833 31.738,63.758 32.000,63.667 32.000 C 63.575 32.000,63.500 32.230,63.500 32.512 C 63.500 32.793,63.387 33.136,63.250 33.274 C 63.103 33.421,63.000 33.828,63.000 34.262 C 63.000 34.668,62.925 35.000,62.833 35.000 C 62.726 35.000,62.667 36.583,62.667 39.417 C 62.667 42.250,62.726 43.833,62.833 43.833 C 62.925 43.833,63.000 44.248,63.000 44.755 C 63.000 45.421,63.069 45.704,63.250 45.773 C 63.413 45.836,63.500 46.095,63.500 46.518 C 63.500 46.875,63.575 47.167,63.667 47.167 C 63.758 47.167,63.833 47.354,63.833 47.583 C 63.833 47.813,63.908 48.000,64.000 48.000 C 64.092 48.000,64.167 48.262,64.167 48.583 C 64.167 48.904,64.242 49.167,64.333 49.167 C 64.425 49.167,64.500 49.317,64.500 49.500 C 64.500 49.685,64.611 49.833,64.750 49.833 C 64.899 49.833,65.000 49.987,65.000 50.213 C 65.000 50.422,65.150 50.701,65.333 50.833 C 65.517 50.965,65.669 51.188,65.672 51.328 C 65.679 51.658,66.066 52.167,66.310 52.167 C 66.415 52.167,66.500 52.276,66.500 52.409 C 66.500 52.785,68.948 55.167,69.335 55.167 C 69.426 55.167,69.500 55.242,69.500 55.333 C 69.500 55.425,69.616 55.500,69.757 55.500 C 69.898 55.500,70.175 55.650,70.372 55.833 C 70.569 56.017,70.857 56.167,71.014 56.167 C 71.170 56.167,71.341 56.279,71.394 56.417 C 71.446 56.554,71.637 56.667,71.818 56.667 C 71.999 56.667,72.193 56.742,72.250 56.833 C 72.307 56.925,72.536 57.000,72.760 57.000 C 72.984 57.000,73.167 57.075,73.167 57.167 C 73.167 57.258,73.504 57.333,73.917 57.333 C 74.329 57.333,74.667 57.408,74.667 57.500 C 74.667 57.592,75.071 57.667,75.566 57.667 C 76.211 57.667,76.491 57.737,76.560 57.917 C 76.703 58.288,81.584 58.288,81.727 57.917 C 81.796 57.737,82.078 57.667,82.735 57.667 C 83.237 57.667,83.693 57.592,83.750 57.500 C 83.807 57.408,84.107 57.333,84.417 57.333 C 84.727 57.333,85.027 57.258,85.083 57.167 C 85.140 57.075,85.332 57.000,85.510 57.000 C 85.688 57.000,85.833 56.925,85.833 56.833 C 85.833 56.742,86.021 56.667,86.250 56.667 C 86.509 56.667,86.667 56.572,86.667 56.417 C 86.667 56.278,86.815 56.167,87.000 56.167 C 87.183 56.167,87.333 56.092,87.333 56.000 C 87.333 55.908,87.469 55.833,87.634 55.833 C 87.800 55.833,88.221 55.571,88.572 55.250 C 88.922 54.929,89.259 54.667,89.322 54.667 C 89.509 54.667,90.667 53.551,90.667 53.370 C 90.667 53.278,90.779 53.159,90.917 53.106 C 91.097 53.037,91.167 53.125,91.167 53.422 C 91.167 53.648,91.242 53.833,91.333 53.833 C 91.429 53.833,91.500 54.333,91.500 55.000 C 91.500 55.667,91.571 56.167,91.667 56.167 C 91.758 56.167,91.833 56.429,91.833 56.750 L 91.833 57.333 97.083 57.333 L 102.333 57.333 102.333 54.750 L 102.333 52.167 99.750 52.167 L 97.167 52.167 97.167 26.429 C 97.167 3.253,97.141 0.664,96.905 0.429 C 96.677 0.201,95.899 0.167,90.905 0.167 L 85.167 0.167 85.167 3.000 M202.240 0.383 C 202.194 0.501,202.178 1.683,202.204 3.008 L 202.250 5.417 204.875 5.463 L 207.500 5.508 207.500 31.425 L 207.500 57.342 210.042 57.296 L 212.583 57.250 212.633 56.022 C 212.665 55.227,212.767 54.709,212.924 54.552 C 213.063 54.413,213.167 53.995,213.167 53.571 C 213.167 53.165,213.242 52.833,213.333 52.833 C 213.425 52.833,213.500 52.912,213.500 53.008 C 213.500 53.200,214.251 54.000,214.431 54.000 C 214.575 54.000,215.333 54.875,215.333 55.042 C 215.333 55.110,215.446 55.167,215.583 55.167 C 215.721 55.167,215.833 55.242,215.833 55.333 C 215.833 55.425,215.983 55.500,216.167 55.500 C 216.350 55.500,216.500 55.575,216.500 55.667 C 216.500 55.758,216.612 55.833,216.750 55.833 C 216.887 55.833,217.000 55.908,217.000 56.000 C 217.000 56.092,217.150 56.167,217.333 56.167 C 217.517 56.167,217.667 56.227,217.667 56.301 C 217.667 56.469,218.848 57.000,219.223 57.000 C 219.375 57.000,219.500 57.075,219.500 57.167 C 219.500 57.258,219.762 57.333,220.083 57.333 C 220.404 57.333,220.667 57.408,220.667 57.500 C 220.667 57.594,221.133 57.667,221.732 57.667 C 222.526 57.667,222.822 57.731,222.894 57.917 C 222.973 58.123,223.413 58.167,225.417 58.167 C 227.420 58.167,227.861 58.123,227.940 57.917 C 228.010 57.734,228.299 57.667,229.018 57.667 C 229.561 57.667,230.000 57.592,230.000 57.500 C 230.000 57.408,230.300 57.333,230.667 57.333 C 231.033 57.333,231.333 57.258,231.333 57.167 C 231.333 57.075,231.554 57.000,231.823 57.000 C 232.093 57.000,232.360 56.925,232.417 56.833 C 232.473 56.742,232.668 56.667,232.848 56.667 C 233.029 56.667,233.220 56.554,233.273 56.417 C 233.326 56.279,233.511 56.167,233.684 56.167 C 233.858 56.167,234.000 56.092,234.000 56.000 C 234.000 55.908,234.112 55.833,234.250 55.833 C 234.387 55.833,234.500 55.758,234.500 55.667 C 234.500 55.575,234.616 55.500,234.758 55.500 C 234.899 55.500,235.196 55.331,235.416 55.125 C 236.015 54.565,236.308 54.333,236.417 54.333 C 236.566 54.333,237.200 53.662,237.754 52.917 C 238.027 52.550,238.381 52.105,238.542 51.927 C 238.702 51.749,238.833 51.468,238.833 51.302 C 238.833 51.136,238.919 51.000,239.023 51.000 C 239.279 51.000,239.655 50.485,239.661 50.125 C 239.664 49.965,239.742 49.833,239.833 49.833 C 239.925 49.833,240.000 49.683,240.000 49.500 C 240.000 49.317,240.075 49.167,240.167 49.167 C 240.258 49.167,240.333 48.939,240.333 48.661 C 240.333 48.366,240.437 48.116,240.583 48.060 C 240.721 48.008,240.833 47.789,240.833 47.575 C 240.833 47.361,240.908 47.140,241.000 47.083 C 241.092 47.027,241.167 46.722,241.167 46.407 C 241.167 46.091,241.242 45.833,241.333 45.833 C 241.426 45.833,241.500 45.389,241.500 44.833 C 241.500 44.278,241.574 43.833,241.667 43.833 C 241.774 43.833,241.833 42.250,241.833 39.417 C 241.833 36.583,241.774 35.000,241.667 35.000 C 241.575 35.000,241.500 34.667,241.500 34.260 C 241.500 33.853,241.425 33.473,241.333 33.417 C 241.242 33.360,241.167 33.060,241.167 32.750 C 241.167 32.440,241.092 32.140,241.000 32.083 C 240.908 32.027,240.833 31.805,240.833 31.591 C 240.833 31.377,240.721 31.159,240.583 31.106 C 240.446 31.054,240.333 30.821,240.333 30.589 C 240.333 30.357,240.258 30.167,240.167 30.167 C 240.075 30.167,240.000 29.979,240.000 29.750 C 240.000 29.521,239.925 29.333,239.833 29.333 C 239.742 29.333,239.667 29.183,239.667 29.000 C 239.667 28.817,239.592 28.667,239.500 28.667 C 239.408 28.667,239.333 28.554,239.333 28.417 C 239.333 28.279,239.221 28.167,239.083 28.167 C 238.946 28.167,238.833 28.033,238.833 27.870 C 238.833 27.707,238.683 27.465,238.500 27.333 C 238.317 27.201,238.167 27.035,238.167 26.964 C 238.167 26.672,236.112 24.500,235.835 24.500 C 235.746 24.500,235.402 24.238,235.072 23.917 C 234.742 23.596,234.365 23.333,234.236 23.333 C 234.106 23.333,234.000 23.258,234.000 23.167 C 234.000 23.075,233.850 23.000,233.667 23.000 C 233.483 23.000,233.333 22.925,233.333 22.833 C 233.333 22.742,233.146 22.667,232.917 22.667 C 232.657 22.667,232.500 22.572,232.500 22.417 C 232.500 22.279,232.354 22.167,232.177 22.167 C 231.999 22.167,231.807 22.092,231.750 22.000 C 231.693 21.908,231.426 21.833,231.157 21.833 C 230.887 21.833,230.667 21.758,230.667 21.667 C 230.667 21.575,230.329 21.500,229.917 21.500 C 229.504 21.500,229.167 21.425,229.167 21.333 C 229.167 21.236,228.616 21.167,227.847 21.167 C 226.976 21.167,226.505 21.099,226.462 20.969 C 226.375 20.707,224.122 20.717,224.035 20.979 C 223.995 21.099,223.438 21.167,222.486 21.167 C 221.606 21.167,221.000 21.235,221.000 21.333 C 221.000 21.425,220.662 21.500,220.250 21.500 C 219.838 21.500,219.500 21.575,219.500 21.667 C 219.500 21.758,219.237 21.833,218.917 21.833 C 218.596 21.833,218.333 21.908,218.333 22.000 C 218.333 22.092,218.183 22.167,218.000 22.167 C 217.815 22.167,217.667 22.278,217.667 22.417 C 217.667 22.572,217.509 22.667,217.250 22.667 C 217.021 22.667,216.833 22.742,216.833 22.833 C 216.833 22.925,216.683 23.000,216.500 23.000 C 216.317 23.000,216.167 23.075,216.167 23.167 C 216.167 23.258,216.061 23.333,215.931 23.333 C 215.801 23.333,215.425 23.596,215.095 23.917 C 214.764 24.238,214.420 24.500,214.330 24.500 C 214.240 24.500,214.167 24.575,214.167 24.667 C 214.167 24.758,214.092 24.833,214.000 24.833 C 213.890 24.833,213.833 20.611,213.833 12.500 L 213.833 0.167 208.078 0.167 C 203.519 0.167,202.306 0.212,202.240 0.383 M326.611 0.278 C 326.550 0.339,326.500 1.614,326.500 3.111 L 326.500 5.833 329.333 5.833 L 332.167 5.833 332.167 29.000 L 332.167 52.167 329.333 52.167 L 326.500 52.167 326.500 54.750 L 326.500 57.333 334.917 57.333 L 343.333 57.333 343.333 54.750 L 343.333 52.167 340.917 52.167 L 338.500 52.167 338.500 46.750 L 338.500 41.333 342.174 41.333 L 345.848 41.333 346.258 41.742 C 346.483 41.967,346.667 42.196,346.667 42.249 C 346.667 42.368,346.919 42.678,347.596 43.391 C 347.877 43.687,348.214 44.171,348.345 44.465 C 348.475 44.759,348.643 45.000,348.719 45.000 C 348.917 45.000,349.333 45.444,349.333 45.655 C 349.333 45.753,349.408 45.833,349.500 45.833 C 349.592 45.833,349.667 45.951,349.667 46.095 C 349.667 46.395,350.056 46.833,350.321 46.833 C 350.420 46.833,350.500 46.946,350.500 47.083 C 350.500 47.221,350.562 47.333,350.639 47.333 C 350.715 47.333,350.882 47.540,351.011 47.792 C 351.140 48.044,351.490 48.489,351.789 48.780 C 352.089 49.072,352.333 49.396,352.333 49.501 C 352.333 49.605,352.427 49.787,352.542 49.905 C 352.656 50.024,352.975 50.401,353.250 50.744 C 353.525 51.087,353.844 51.467,353.958 51.588 C 354.073 51.710,354.167 51.858,354.167 51.917 C 354.167 52.094,354.629 52.500,354.831 52.500 C 354.935 52.500,354.977 52.569,354.925 52.653 C 354.873 52.738,354.943 52.920,355.082 53.058 C 355.220 53.196,355.333 53.356,355.333 53.412 C 355.333 53.469,355.502 53.696,355.708 53.916 C 356.279 54.526,356.500 54.809,356.500 54.926 C 356.500 54.985,356.725 55.243,357.000 55.500 C 357.275 55.757,357.500 56.055,357.500 56.163 C 357.500 56.271,357.719 56.578,357.987 56.846 L 358.474 57.333 363.071 57.333 L 367.667 57.333 367.667 54.750 L 367.667 52.167 364.913 52.167 C 362.210 52.167,362.156 52.160,362.013 51.792 C 361.847 51.361,361.272 50.667,361.082 50.667 C 360.901 50.667,360.512 50.127,360.505 49.867 C 360.499 49.630,359.762 48.833,359.548 48.833 C 359.475 48.833,359.307 48.590,359.176 48.292 C 359.045 47.994,358.689 47.508,358.386 47.211 C 358.082 46.915,357.833 46.596,357.833 46.503 C 357.833 46.410,357.758 46.333,357.667 46.333 C 357.575 46.333,357.500 46.221,357.500 46.083 C 357.500 45.946,357.438 45.833,357.361 45.833 C 357.285 45.833,357.123 45.646,357.000 45.417 C 356.877 45.187,356.677 45.000,356.555 45.000 C 356.433 45.000,356.333 44.902,356.333 44.781 C 356.333 44.661,356.183 44.402,356.000 44.205 C 355.817 44.008,355.667 43.801,355.667 43.745 C 355.667 43.576,355.203 43.167,355.012 43.167 C 354.914 43.167,354.833 43.017,354.833 42.833 C 354.833 42.650,354.758 42.500,354.667 42.500 C 354.575 42.500,354.500 42.422,354.500 42.326 C 354.500 42.100,353.734 41.333,353.508 41.333 C 353.412 41.333,353.333 41.183,353.333 41.000 C 353.333 40.817,353.258 40.667,353.167 40.667 C 353.075 40.667,353.000 40.584,353.000 40.484 C 353.000 40.383,352.788 40.102,352.530 39.859 C 351.747 39.123,351.653 38.834,352.061 38.410 C 352.664 37.786,353.000 37.337,353.000 37.159 C 353.000 37.065,353.337 36.660,353.750 36.259 C 354.162 35.858,354.500 35.448,354.500 35.348 C 354.500 35.248,354.575 35.167,354.667 35.167 C 354.758 35.167,354.833 35.017,354.833 34.833 C 354.833 34.650,354.917 34.500,355.019 34.500 C 355.248 34.500,356.333 33.336,356.333 33.091 C 356.333 32.993,356.594 32.689,356.913 32.415 C 357.232 32.141,357.494 31.857,357.496 31.784 C 357.498 31.711,357.669 31.468,357.875 31.244 C 358.812 30.226,359.000 30.006,359.000 29.926 C 359.000 29.878,359.262 29.569,359.583 29.239 C 359.904 28.908,360.167 28.569,360.167 28.484 C 360.167 28.399,360.543 27.955,361.002 27.498 L 361.838 26.667 364.499 26.667 C 367.652 26.667,367.369 26.961,367.298 23.750 L 367.250 21.583 358.875 21.540 L 350.500 21.497 350.500 24.082 L 350.500 26.667 352.333 26.667 C 354.395 26.667,354.529 26.765,353.580 27.582 C 353.261 27.856,353.000 28.163,353.000 28.265 C 353.000 28.367,352.775 28.686,352.500 28.974 C 352.225 29.262,352.000 29.573,352.000 29.665 C 352.000 29.758,351.944 29.815,351.875 29.792 C 351.806 29.769,351.733 29.808,351.712 29.878 C 351.668 30.025,351.413 30.341,350.875 30.917 C 350.669 31.138,350.500 31.397,350.500 31.492 C 350.500 31.588,350.400 31.667,350.278 31.667 C 350.156 31.667,349.950 31.873,349.820 32.125 C 349.690 32.377,349.452 32.729,349.292 32.906 C 349.131 33.084,349.000 33.290,349.000 33.365 C 349.000 33.439,348.894 33.500,348.764 33.500 C 348.634 33.500,348.428 33.725,348.307 34.000 C 348.185 34.275,348.029 34.500,347.959 34.500 C 347.890 34.500,347.833 34.580,347.833 34.679 C 347.833 34.890,347.417 35.333,347.219 35.333 C 347.142 35.333,346.987 35.483,346.872 35.667 C 346.673 35.985,346.483 36.000,342.582 36.000 L 338.500 36.000 338.500 18.347 C 338.500 8.638,338.454 0.575,338.399 0.430 C 338.293 0.155,326.881 0.008,326.611 0.278 M280.583 6.333 C 280.527 6.425,280.340 6.500,280.169 6.500 C 279.998 6.500,279.710 6.688,279.530 6.917 C 279.350 7.146,279.087 7.333,278.946 7.333 C 278.805 7.333,278.642 7.483,278.583 7.667 C 278.525 7.850,278.408 8.000,278.322 8.000 C 278.237 8.000,278.167 8.112,278.167 8.250 C 278.167 8.387,278.092 8.500,278.000 8.500 C 277.908 8.500,277.833 8.683,277.833 8.907 C 277.833 9.131,277.758 9.360,277.667 9.417 C 277.575 9.473,277.500 10.190,277.500 11.010 C 277.500 11.892,277.568 12.500,277.667 12.500 C 277.758 12.500,277.833 12.688,277.833 12.917 C 277.833 13.146,277.908 13.333,278.000 13.333 C 278.092 13.333,278.167 13.451,278.167 13.595 C 278.167 13.895,278.556 14.333,278.821 14.333 C 278.920 14.333,279.000 14.414,279.000 14.512 C 279.000 14.873,279.951 15.500,280.498 15.500 C 280.682 15.500,280.833 15.575,280.833 15.667 C 280.833 15.764,281.386 15.833,282.157 15.833 C 282.885 15.833,283.527 15.758,283.583 15.667 C 283.640 15.575,283.869 15.500,284.093 15.500 C 284.317 15.500,284.500 15.425,284.500 15.333 C 284.500 15.242,284.655 15.167,284.845 15.167 C 285.194 15.167,285.667 14.811,285.667 14.549 C 285.667 14.471,285.821 14.297,286.010 14.162 C 286.199 14.027,286.468 13.654,286.608 13.333 C 286.747 13.012,286.930 12.620,287.014 12.461 C 287.223 12.064,287.211 9.500,287.000 9.500 C 286.908 9.500,286.833 9.275,286.833 9.000 C 286.833 8.725,286.758 8.500,286.667 8.500 C 286.575 8.500,286.500 8.387,286.500 8.250 C 286.500 8.112,286.426 8.000,286.336 8.000 C 286.246 8.000,285.820 7.662,285.390 7.250 C 284.922 6.801,284.452 6.500,284.220 6.500 C 284.007 6.500,283.833 6.425,283.833 6.333 C 283.833 6.234,283.198 6.167,282.260 6.167 C 281.391 6.167,280.640 6.241,280.583 6.333 M146.500 13.000 C 146.500 13.667,146.429 14.167,146.333 14.167 C 146.232 14.167,146.167 14.884,146.167 15.986 C 146.167 17.293,146.108 17.825,145.958 17.875 C 145.823 17.920,145.743 18.321,145.731 19.014 C 145.721 19.602,145.702 20.327,145.689 20.625 L 145.667 21.167 142.917 21.167 L 140.167 21.167 140.167 23.917 L 140.167 26.667 142.750 26.667 L 145.333 26.667 145.333 36.344 C 145.333 42.120,145.397 46.141,145.491 46.317 C 145.578 46.479,145.680 47.314,145.717 48.173 C 145.759 49.144,145.857 49.758,145.975 49.797 C 146.081 49.832,146.167 50.150,146.167 50.504 C 146.167 50.858,146.242 51.193,146.333 51.250 C 146.425 51.307,146.500 51.536,146.500 51.760 C 146.500 51.984,146.575 52.167,146.667 52.167 C 146.758 52.167,146.833 52.317,146.833 52.500 C 146.833 52.683,146.908 52.833,147.000 52.833 C 147.092 52.833,147.167 52.942,147.167 53.076 C 147.167 53.209,147.354 53.506,147.583 53.735 C 147.813 53.964,148.000 54.241,148.000 54.351 C 148.000 54.614,149.325 55.833,149.611 55.833 C 149.733 55.833,149.833 55.908,149.833 56.000 C 149.833 56.092,149.938 56.167,150.066 56.167 C 150.193 56.167,150.341 56.279,150.394 56.417 C 150.446 56.554,150.604 56.667,150.745 56.667 C 150.885 56.667,151.000 56.742,151.000 56.833 C 151.000 56.925,151.183 57.000,151.407 57.000 C 151.631 57.000,151.860 57.075,151.917 57.167 C 151.973 57.258,152.273 57.333,152.583 57.333 C 152.893 57.333,153.193 57.408,153.250 57.500 C 153.390 57.727,161.000 57.727,161.000 57.500 C 161.000 57.408,161.371 57.333,161.823 57.333 C 162.276 57.333,162.693 57.258,162.750 57.167 C 162.807 57.075,163.111 57.000,163.427 57.000 C 163.742 57.000,164.000 56.925,164.000 56.833 C 164.000 56.742,164.112 56.667,164.250 56.667 C 164.588 56.667,164.630 51.344,164.292 51.316 C 163.606 51.261,162.892 51.388,162.732 51.595 C 162.630 51.726,162.311 51.833,162.023 51.833 C 161.735 51.833,161.500 51.908,161.500 52.000 C 161.500 52.097,160.944 52.167,160.167 52.167 C 159.389 52.167,158.833 52.236,158.833 52.333 C 158.833 52.425,158.421 52.500,157.917 52.500 C 157.412 52.500,157.000 52.425,157.000 52.333 C 157.000 52.242,156.736 52.167,156.414 52.167 C 155.131 52.167,152.833 50.036,152.833 48.845 C 152.833 48.666,152.758 48.473,152.667 48.417 C 152.575 48.360,152.500 47.760,152.500 47.083 C 152.500 46.407,152.425 45.807,152.333 45.750 C 152.225 45.683,152.167 42.304,152.167 36.157 L 152.167 26.667 157.750 26.667 L 163.333 26.667 163.333 23.917 L 163.333 21.167 157.750 21.167 L 152.167 21.167 152.167 16.500 L 152.167 11.833 149.333 11.833 L 146.500 11.833 146.500 13.000 M119.708 20.784 C 119.410 20.823,119.167 20.925,119.167 21.011 C 119.167 21.097,118.425 21.167,117.500 21.167 C 116.500 21.167,115.833 21.233,115.833 21.333 C 115.833 21.425,115.496 21.500,115.083 21.500 C 114.671 21.500,114.333 21.575,114.333 21.667 C 114.333 21.758,114.071 21.833,113.750 21.833 C 113.429 21.833,113.167 21.908,113.167 22.000 C 113.167 22.092,113.022 22.167,112.845 22.167 C 112.668 22.167,112.411 22.279,112.274 22.417 C 112.136 22.554,111.868 22.667,111.679 22.667 C 111.489 22.667,111.333 22.742,111.333 22.833 C 111.333 22.925,111.183 23.000,111.000 23.000 C 110.817 23.000,110.667 23.075,110.667 23.167 C 110.667 23.258,110.586 23.333,110.488 23.333 C 110.390 23.333,110.211 23.427,110.090 23.542 C 109.969 23.656,109.663 23.900,109.409 24.083 C 108.795 24.528,108.000 25.274,108.000 25.407 C 108.000 25.525,107.779 25.807,107.208 26.417 C 107.002 26.638,106.833 26.972,106.833 27.159 C 106.833 27.347,106.758 27.500,106.667 27.500 C 106.575 27.500,106.500 27.650,106.500 27.833 C 106.500 28.017,106.428 28.167,106.341 28.167 C 106.253 28.167,106.132 28.430,106.072 28.752 C 106.012 29.074,105.896 29.378,105.814 29.428 C 105.733 29.479,105.667 30.490,105.667 31.677 L 105.667 33.833 108.667 33.833 L 111.667 33.833 111.667 32.333 C 111.667 31.444,111.735 30.833,111.833 30.833 C 111.925 30.833,112.000 30.691,112.000 30.518 C 112.000 30.344,112.112 30.159,112.250 30.106 C 112.388 30.054,112.500 29.888,112.500 29.739 C 112.500 29.589,112.725 29.257,113.000 29.000 C 113.275 28.743,113.500 28.451,113.500 28.350 C 113.500 28.249,113.612 28.167,113.750 28.167 C 113.888 28.167,114.000 28.092,114.000 28.000 C 114.000 27.908,114.082 27.833,114.183 27.833 C 114.283 27.833,114.564 27.694,114.808 27.524 C 115.051 27.354,115.456 27.165,115.708 27.104 C 115.960 27.044,116.167 26.920,116.167 26.830 C 116.167 26.740,116.429 26.667,116.750 26.667 C 117.071 26.667,117.333 26.592,117.333 26.500 C 117.333 26.395,118.500 26.333,120.500 26.333 C 122.500 26.333,123.667 26.395,123.667 26.500 C 123.667 26.592,123.996 26.667,124.399 26.667 C 124.896 26.667,125.162 26.747,125.227 26.917 C 125.280 27.054,125.475 27.167,125.661 27.167 C 125.848 27.167,126.000 27.242,126.000 27.333 C 126.000 27.425,126.150 27.500,126.333 27.500 C 126.517 27.500,126.667 27.560,126.667 27.633 C 126.667 27.706,126.929 27.861,127.250 27.977 C 127.571 28.093,127.833 28.279,127.833 28.391 C 127.833 28.502,127.983 28.701,128.167 28.833 C 128.350 28.965,128.500 29.207,128.500 29.370 C 128.500 29.533,128.556 29.667,128.625 29.668 C 128.793 29.669,129.333 30.633,129.333 30.930 C 129.333 31.060,129.408 31.167,129.500 31.167 C 129.592 31.167,129.667 31.500,129.667 31.907 C 129.667 32.314,129.742 32.693,129.833 32.750 C 129.931 32.810,130.000 33.752,130.000 35.010 L 130.000 37.167 123.156 37.167 C 119.176 37.167,116.188 37.233,116.017 37.324 C 115.855 37.411,115.365 37.500,114.927 37.523 C 114.459 37.547,114.097 37.654,114.048 37.782 C 113.997 37.916,113.681 38.000,113.232 38.000 C 112.829 38.000,112.500 38.075,112.500 38.167 C 112.500 38.258,112.237 38.333,111.917 38.333 C 111.596 38.333,111.333 38.408,111.333 38.500 C 111.333 38.592,111.188 38.667,111.010 38.667 C 110.832 38.667,110.640 38.742,110.583 38.833 C 110.527 38.925,110.335 39.000,110.157 39.000 C 109.979 39.000,109.833 39.112,109.833 39.250 C 109.833 39.387,109.697 39.500,109.531 39.500 C 109.365 39.500,109.069 39.650,108.872 39.833 C 108.675 40.017,108.437 40.167,108.343 40.167 C 108.135 40.167,106.500 41.770,106.500 41.973 C 106.500 42.053,106.313 42.320,106.083 42.568 C 105.854 42.815,105.667 43.126,105.667 43.259 C 105.667 43.391,105.592 43.500,105.500 43.500 C 105.408 43.500,105.333 43.762,105.333 44.083 C 105.333 44.404,105.258 44.667,105.167 44.667 C 105.062 44.667,105.000 45.694,105.000 47.417 C 105.000 49.139,105.062 50.167,105.167 50.167 C 105.258 50.167,105.333 50.429,105.333 50.750 C 105.333 51.071,105.408 51.333,105.500 51.333 C 105.592 51.333,105.667 51.474,105.667 51.646 C 105.667 51.818,105.779 52.053,105.917 52.167 C 106.054 52.281,106.167 52.477,106.167 52.604 C 106.167 52.730,106.242 52.833,106.333 52.833 C 106.425 52.833,106.500 52.929,106.500 53.047 C 106.500 53.164,106.650 53.368,106.833 53.500 C 107.017 53.632,107.167 53.818,107.167 53.913 C 107.167 54.009,107.434 54.311,107.760 54.585 C 108.087 54.859,108.457 55.177,108.582 55.292 C 108.707 55.406,108.890 55.500,108.988 55.500 C 109.086 55.500,109.167 55.575,109.167 55.667 C 109.167 55.758,109.317 55.833,109.500 55.833 C 109.683 55.833,109.833 55.908,109.833 56.000 C 109.833 56.092,109.937 56.167,110.063 56.167 C 110.189 56.167,110.386 56.279,110.500 56.417 C 110.614 56.554,110.848 56.667,111.020 56.667 C 111.193 56.667,111.333 56.742,111.333 56.833 C 111.333 56.925,111.516 57.000,111.740 57.000 C 111.964 57.000,112.193 57.075,112.250 57.167 C 112.307 57.258,112.649 57.333,113.010 57.333 C 113.371 57.333,113.667 57.408,113.667 57.500 C 113.667 57.727,121.276 57.727,121.417 57.500 C 121.473 57.408,121.848 57.333,122.250 57.333 C 122.652 57.333,123.027 57.258,123.083 57.167 C 123.140 57.075,123.444 57.000,123.760 57.000 C 124.075 57.000,124.333 56.925,124.333 56.833 C 124.333 56.742,124.521 56.667,124.750 56.667 C 125.009 56.667,125.167 56.572,125.167 56.417 C 125.167 56.278,125.315 56.167,125.500 56.167 C 125.683 56.167,125.833 56.092,125.833 56.000 C 125.833 55.908,126.021 55.833,126.250 55.833 C 126.479 55.833,126.667 55.758,126.667 55.667 C 126.667 55.575,126.817 55.500,127.000 55.500 C 127.183 55.500,127.333 55.425,127.333 55.333 C 127.333 55.242,127.411 55.167,127.507 55.167 C 127.689 55.167,127.915 55.000,128.584 54.375 C 128.804 54.169,129.031 54.000,129.088 54.000 C 129.241 54.000,129.667 53.545,129.667 53.382 C 129.667 53.304,129.817 53.132,130.000 53.000 C 130.183 52.868,130.333 52.626,130.333 52.463 C 130.333 52.300,130.446 52.167,130.583 52.167 C 130.721 52.167,130.833 52.054,130.833 51.917 C 130.833 51.779,130.908 51.667,131.000 51.667 C 131.100 51.667,131.167 52.333,131.167 53.333 C 131.167 54.333,131.233 55.000,131.333 55.000 C 131.429 55.000,131.500 55.500,131.500 56.167 L 131.500 57.333 136.000 57.333 L 140.500 57.333 140.500 54.750 L 140.500 52.167 138.417 52.167 L 136.333 52.167 136.333 41.677 C 136.333 34.863,136.275 31.150,136.167 31.083 C 136.075 31.027,136.000 30.689,136.000 30.333 C 136.000 29.977,135.925 29.640,135.833 29.583 C 135.742 29.527,135.667 29.297,135.667 29.073 C 135.667 28.850,135.592 28.667,135.500 28.667 C 135.408 28.667,135.333 28.497,135.333 28.290 C 135.333 28.083,135.146 27.711,134.917 27.464 C 134.688 27.217,134.500 26.895,134.500 26.750 C 134.500 26.604,134.331 26.304,134.125 26.084 C 133.532 25.450,133.333 25.191,133.331 25.049 C 133.329 24.889,132.240 24.167,132.002 24.167 C 131.909 24.167,131.833 24.086,131.833 23.988 C 131.833 23.723,131.395 23.333,131.095 23.333 C 130.951 23.333,130.833 23.277,130.832 23.208 C 130.830 23.043,130.010 22.667,129.651 22.667 C 129.496 22.667,129.324 22.549,129.269 22.406 C 129.214 22.263,129.100 22.188,129.015 22.241 C 128.930 22.293,128.747 22.223,128.609 22.085 C 128.470 21.947,128.127 21.833,127.845 21.833 C 127.564 21.833,127.333 21.758,127.333 21.667 C 127.333 21.575,126.921 21.500,126.417 21.500 C 125.912 21.500,125.500 21.425,125.500 21.333 C 125.500 21.233,124.838 21.167,123.847 21.167 C 122.938 21.167,122.169 21.102,122.139 21.022 C 122.071 20.846,120.453 20.687,119.708 20.784 M181.958 20.785 C 181.615 20.823,181.333 20.924,181.333 21.010 C 181.333 21.097,180.595 21.167,179.667 21.167 C 178.667 21.167,178.000 21.233,178.000 21.333 C 178.000 21.425,177.662 21.500,177.250 21.500 C 176.838 21.500,176.500 21.575,176.500 21.667 C 176.500 21.758,176.270 21.833,175.988 21.833 C 175.707 21.833,175.363 21.947,175.225 22.085 C 175.086 22.223,174.904 22.293,174.819 22.241 C 174.734 22.188,174.619 22.263,174.564 22.406 C 174.509 22.549,174.327 22.667,174.159 22.667 C 173.991 22.667,173.807 22.742,173.750 22.833 C 173.693 22.925,173.501 23.000,173.323 23.000 C 173.146 23.000,173.000 23.075,173.000 23.167 C 173.000 23.258,172.850 23.333,172.667 23.333 C 172.476 23.333,172.333 23.444,172.333 23.593 C 172.333 23.736,172.258 23.807,172.167 23.750 C 172.075 23.693,172.000 23.764,172.000 23.907 C 172.000 24.050,171.913 24.167,171.807 24.167 C 171.519 24.167,170.500 24.987,170.500 25.218 C 170.500 25.329,170.239 25.644,169.920 25.918 C 169.583 26.209,169.339 26.573,169.337 26.792 C 169.335 26.998,169.258 27.167,169.167 27.167 C 169.075 27.167,169.000 27.282,169.000 27.422 C 169.000 27.562,168.887 27.720,168.750 27.773 C 168.612 27.826,168.500 28.048,168.500 28.268 C 168.500 28.487,168.425 28.667,168.333 28.667 C 168.242 28.667,168.167 29.004,168.167 29.417 C 168.167 29.829,168.092 30.167,168.000 30.167 C 167.899 30.167,167.833 30.889,167.833 32.000 L 167.833 33.833 171.000 33.833 L 174.167 33.833 174.167 32.333 C 174.167 31.444,174.235 30.833,174.333 30.833 C 174.425 30.833,174.500 30.693,174.500 30.520 C 174.500 30.348,174.612 30.114,174.750 30.000 C 174.887 29.886,175.000 29.726,175.000 29.645 C 175.000 29.563,175.225 29.262,175.500 28.974 C 175.775 28.686,176.000 28.387,176.000 28.309 C 176.000 28.231,176.112 28.167,176.250 28.167 C 176.387 28.167,176.500 28.092,176.500 28.000 C 176.500 27.908,176.598 27.833,176.719 27.833 C 176.839 27.833,177.098 27.683,177.295 27.500 C 177.492 27.317,177.801 27.167,177.981 27.167 C 178.162 27.167,178.422 27.054,178.560 26.917 C 178.697 26.779,179.040 26.667,179.321 26.667 C 179.603 26.667,179.833 26.592,179.833 26.500 C 179.833 26.395,181.000 26.333,183.000 26.333 C 185.000 26.333,186.167 26.395,186.167 26.500 C 186.167 26.592,186.496 26.667,186.899 26.667 C 187.396 26.667,187.662 26.747,187.727 26.917 C 187.780 27.054,187.975 27.167,188.161 27.167 C 188.348 27.167,188.500 27.242,188.500 27.333 C 188.500 27.425,188.616 27.500,188.757 27.500 C 188.898 27.500,189.175 27.650,189.372 27.833 C 189.569 28.017,189.865 28.167,190.031 28.167 C 190.197 28.167,190.333 28.279,190.333 28.417 C 190.333 28.554,190.408 28.667,190.500 28.667 C 190.592 28.667,190.667 28.765,190.667 28.885 C 190.667 29.005,190.807 29.255,190.980 29.440 C 191.152 29.624,191.344 29.939,191.408 30.138 C 191.471 30.337,191.592 30.500,191.678 30.500 C 191.763 30.500,191.833 30.650,191.833 30.833 C 191.833 31.017,191.908 31.167,192.000 31.167 C 192.092 31.167,192.167 31.579,192.167 32.083 C 192.167 32.587,192.242 33.000,192.333 33.000 C 192.436 33.000,192.500 33.806,192.500 35.083 L 192.500 37.167 185.533 37.167 C 181.387 37.167,178.503 37.230,178.408 37.324 C 178.321 37.411,177.886 37.500,177.441 37.523 C 176.961 37.547,176.598 37.653,176.548 37.782 C 176.497 37.916,176.181 38.000,175.732 38.000 C 175.329 38.000,175.000 38.075,175.000 38.167 C 175.000 38.258,174.737 38.333,174.417 38.333 C 174.096 38.333,173.833 38.408,173.833 38.500 C 173.833 38.592,173.688 38.667,173.510 38.667 C 173.332 38.667,173.140 38.742,173.083 38.833 C 173.027 38.925,172.835 39.000,172.657 39.000 C 172.479 39.000,172.333 39.112,172.333 39.250 C 172.333 39.406,172.176 39.500,171.917 39.500 C 171.688 39.500,171.500 39.562,171.500 39.639 C 171.500 39.715,171.295 39.883,171.044 40.014 C 170.396 40.350,170.003 40.704,170.102 40.863 C 170.148 40.938,170.104 41.000,170.002 41.000 C 169.769 41.000,169.000 41.761,169.000 41.992 C 169.000 42.088,168.925 42.167,168.833 42.167 C 168.742 42.167,168.667 42.282,168.667 42.422 C 168.667 42.562,168.554 42.720,168.417 42.773 C 168.279 42.826,168.167 43.011,168.167 43.184 C 168.167 43.358,168.092 43.500,168.000 43.500 C 167.908 43.500,167.833 43.762,167.833 44.083 C 167.833 44.404,167.758 44.667,167.667 44.667 C 167.562 44.667,167.500 45.694,167.500 47.417 C 167.500 49.139,167.562 50.167,167.667 50.167 C 167.758 50.167,167.833 50.429,167.833 50.750 C 167.833 51.071,167.908 51.333,168.000 51.333 C 168.092 51.333,168.167 51.521,168.167 51.750 C 168.167 51.979,168.242 52.167,168.333 52.167 C 168.425 52.167,168.500 52.282,168.500 52.422 C 168.500 52.562,168.612 52.720,168.750 52.773 C 168.887 52.826,169.000 52.939,169.000 53.025 C 169.000 53.110,169.150 53.342,169.333 53.538 C 169.517 53.735,169.667 53.995,169.667 54.115 C 169.667 54.235,169.745 54.333,169.841 54.333 C 169.937 54.333,170.198 54.502,170.422 54.708 C 170.646 54.915,171.015 55.252,171.242 55.458 C 171.469 55.665,171.807 55.833,171.994 55.833 C 172.181 55.833,172.333 55.908,172.333 56.000 C 172.333 56.092,172.438 56.167,172.566 56.167 C 172.693 56.167,172.841 56.279,172.894 56.417 C 172.946 56.554,173.179 56.667,173.411 56.667 C 173.643 56.667,173.833 56.742,173.833 56.833 C 173.833 56.925,174.016 57.000,174.240 57.000 C 174.464 57.000,174.693 57.075,174.750 57.167 C 174.807 57.258,175.149 57.333,175.510 57.333 C 175.871 57.333,176.167 57.408,176.167 57.500 C 176.167 57.606,177.556 57.667,180.000 57.667 C 182.444 57.667,183.833 57.606,183.833 57.500 C 183.833 57.408,184.166 57.333,184.573 57.333 C 184.981 57.333,185.360 57.258,185.417 57.167 C 185.473 57.075,185.773 57.000,186.083 57.000 C 186.393 57.000,186.693 56.925,186.750 56.833 C 186.807 56.742,187.036 56.667,187.260 56.667 C 187.510 56.667,187.667 56.571,187.667 56.417 C 187.667 56.278,187.815 56.167,188.000 56.167 C 188.183 56.167,188.333 56.092,188.333 56.000 C 188.333 55.908,188.521 55.833,188.750 55.833 C 188.979 55.833,189.167 55.758,189.167 55.667 C 189.167 55.575,189.278 55.500,189.415 55.500 C 189.656 55.500,190.059 55.224,190.692 54.625 C 190.861 54.465,191.075 54.333,191.167 54.333 C 191.258 54.333,191.333 54.271,191.333 54.195 C 191.333 54.119,191.521 53.956,191.750 53.833 C 191.979 53.711,192.167 53.543,192.167 53.460 C 192.167 53.068,192.649 52.820,192.994 53.035 C 193.288 53.219,193.333 53.419,193.333 54.540 C 193.333 55.291,193.403 55.833,193.500 55.833 C 193.592 55.833,193.667 56.171,193.667 56.583 L 193.667 57.333 198.333 57.333 L 203.000 57.333 203.000 54.750 L 203.000 52.167 200.917 52.167 L 198.833 52.167 198.833 42.510 C 198.833 36.252,198.775 32.817,198.667 32.750 C 198.575 32.693,198.500 32.164,198.500 31.573 C 198.500 30.969,198.427 30.500,198.333 30.500 C 198.242 30.500,198.167 30.204,198.167 29.843 C 198.167 29.482,198.092 29.140,198.000 29.083 C 197.908 29.027,197.833 28.832,197.833 28.652 C 197.833 28.471,197.721 28.280,197.583 28.227 C 197.446 28.174,197.333 27.989,197.333 27.816 C 197.333 27.642,197.258 27.500,197.167 27.500 C 197.075 27.500,197.000 27.351,197.000 27.168 C 197.000 26.873,196.691 26.412,196.042 25.740 C 195.927 25.621,195.833 25.439,195.833 25.335 C 195.833 25.232,195.758 25.193,195.667 25.250 C 195.575 25.307,195.500 25.254,195.500 25.133 C 195.500 25.012,195.300 24.763,195.056 24.581 C 194.812 24.399,194.517 24.156,194.401 24.042 C 194.285 23.927,194.108 23.833,194.007 23.833 C 193.906 23.833,193.780 23.721,193.727 23.583 C 193.674 23.446,193.527 23.333,193.399 23.333 C 193.271 23.333,193.167 23.258,193.167 23.167 C 193.167 23.075,193.017 23.000,192.833 23.000 C 192.650 23.000,192.500 22.925,192.500 22.833 C 192.500 22.742,192.345 22.667,192.155 22.667 C 191.965 22.667,191.697 22.554,191.560 22.417 C 191.422 22.279,191.165 22.167,190.988 22.167 C 190.811 22.167,190.667 22.092,190.667 22.000 C 190.667 21.908,190.404 21.833,190.083 21.833 C 189.762 21.833,189.500 21.758,189.500 21.667 C 189.500 21.575,189.162 21.500,188.750 21.500 C 188.338 21.500,188.000 21.425,188.000 21.333 C 188.000 21.234,187.344 21.167,186.367 21.167 C 185.468 21.167,184.662 21.100,184.575 21.019 C 184.378 20.835,182.794 20.693,181.958 20.785 M264.958 20.791 C 264.706 20.826,264.500 20.925,264.500 21.011 C 264.500 21.097,263.900 21.167,263.167 21.167 C 262.389 21.167,261.833 21.236,261.833 21.333 C 261.833 21.425,261.645 21.500,261.414 21.500 C 261.184 21.500,260.865 21.564,260.706 21.643 C 259.662 22.158,259.217 22.430,258.980 22.696 C 258.832 22.863,258.607 23.000,258.480 23.000 C 258.187 23.000,257.333 23.728,257.333 23.978 C 257.333 24.082,257.248 24.167,257.144 24.167 C 256.885 24.167,256.167 25.025,256.167 25.335 C 256.167 25.474,255.979 25.728,255.750 25.900 C 255.521 26.073,255.333 26.315,255.333 26.440 C 255.333 26.565,255.258 26.667,255.167 26.667 C 255.075 26.667,255.000 26.854,255.000 27.083 C 255.000 27.313,254.925 27.500,254.833 27.500 C 254.742 27.500,254.667 27.618,254.667 27.762 C 254.667 27.906,254.554 28.136,254.417 28.274 C 254.194 28.496,254.167 28.495,254.167 28.262 C 254.167 28.118,254.092 28.000,254.000 28.000 C 253.896 28.000,253.833 26.976,253.833 25.260 C 253.833 23.613,253.767 22.479,253.667 22.417 C 253.575 22.360,253.500 22.131,253.500 21.907 L 253.500 21.500 248.432 21.500 L 243.364 21.500 243.342 24.083 L 243.320 26.667 245.993 26.667 L 248.667 26.667 248.667 39.417 L 248.667 52.167 246.000 52.167 L 243.333 52.167 243.333 54.750 L 243.333 57.333 252.171 57.333 L 261.009 57.333 260.963 54.792 L 260.917 52.250 257.958 52.204 L 255.000 52.159 255.000 44.423 C 255.000 39.445,255.059 36.650,255.167 36.583 C 255.258 36.527,255.333 36.230,255.333 35.925 C 255.333 35.584,255.430 35.332,255.583 35.273 C 255.729 35.217,255.833 34.967,255.833 34.672 C 255.833 34.394,255.908 34.167,256.000 34.167 C 256.092 34.167,256.167 34.021,256.167 33.843 C 256.167 33.665,256.242 33.473,256.333 33.417 C 256.425 33.360,256.500 33.168,256.500 32.990 C 256.500 32.812,256.575 32.667,256.667 32.667 C 256.758 32.667,256.833 32.517,256.833 32.333 C 256.833 32.150,256.908 32.000,257.000 32.000 C 257.092 32.000,257.167 31.922,257.167 31.826 C 257.167 31.645,257.333 31.418,257.958 30.750 C 258.165 30.529,258.333 30.300,258.333 30.241 C 258.333 30.114,259.097 29.388,259.724 28.919 C 259.968 28.737,260.167 28.493,260.167 28.377 C 260.167 28.261,260.354 28.167,260.583 28.167 C 260.813 28.167,261.000 28.092,261.000 28.000 C 261.000 27.908,261.150 27.833,261.333 27.833 C 261.517 27.833,261.667 27.758,261.667 27.667 C 261.667 27.575,261.854 27.500,262.083 27.500 C 262.313 27.500,262.500 27.425,262.500 27.333 C 262.500 27.242,262.757 27.167,263.071 27.167 C 263.386 27.167,263.755 27.054,263.893 26.917 C 264.070 26.739,264.503 26.667,265.387 26.667 C 266.339 26.667,266.654 26.725,266.727 26.917 C 266.795 27.093,267.070 27.167,267.661 27.167 C 268.143 27.167,268.500 27.242,268.500 27.344 C 268.500 27.443,268.737 27.498,269.042 27.469 L 269.583 27.417 269.631 24.667 C 269.695 20.966,269.774 21.167,268.261 21.167 C 267.583 21.167,267.003 21.103,266.972 21.026 C 266.905 20.854,265.592 20.701,264.958 20.791 M308.917 20.783 C 308.642 20.825,308.345 20.928,308.258 21.013 C 308.171 21.097,307.365 21.167,306.467 21.167 C 305.489 21.167,304.833 21.234,304.833 21.333 C 304.833 21.425,304.496 21.500,304.083 21.500 C 303.671 21.500,303.333 21.575,303.333 21.667 C 303.333 21.758,303.086 21.833,302.783 21.833 C 302.481 21.833,302.157 21.910,302.063 22.004 C 301.969 22.098,301.710 22.209,301.488 22.252 C 301.266 22.295,301.059 22.406,301.028 22.498 C 300.997 22.591,300.828 22.667,300.653 22.667 C 300.477 22.667,300.333 22.742,300.333 22.833 C 300.333 22.925,300.146 23.000,299.917 23.000 C 299.688 23.000,299.500 23.075,299.500 23.167 C 299.500 23.258,299.377 23.333,299.227 23.333 C 299.078 23.333,298.781 23.521,298.569 23.750 C 298.356 23.979,298.105 24.167,298.009 24.167 C 297.786 24.167,295.500 26.443,295.500 26.666 C 295.500 26.758,295.412 26.833,295.306 26.833 C 295.199 26.833,295.155 26.878,295.209 26.932 C 295.263 26.986,295.088 27.259,294.821 27.540 C 294.553 27.820,294.333 28.188,294.333 28.358 C 294.333 28.528,294.258 28.667,294.167 28.667 C 294.075 28.667,294.000 28.809,294.000 28.982 C 294.000 29.156,293.903 29.335,293.785 29.380 C 293.667 29.425,293.466 29.846,293.338 30.315 C 293.211 30.783,293.045 31.167,292.970 31.167 C 292.895 31.167,292.833 31.425,292.833 31.740 C 292.833 32.056,292.758 32.360,292.667 32.417 C 292.575 32.473,292.500 32.882,292.500 33.325 C 292.500 33.888,292.425 34.160,292.250 34.227 C 292.050 34.304,292.000 34.671,292.000 36.068 C 292.000 37.052,291.927 37.859,291.833 37.917 C 291.742 37.973,291.667 38.611,291.667 39.333 C 291.667 40.056,291.742 40.693,291.833 40.750 C 291.926 40.808,292.000 41.587,292.000 42.515 C 292.000 43.839,292.051 44.197,292.250 44.273 C 292.420 44.338,292.500 44.604,292.500 45.101 C 292.500 45.504,292.575 45.833,292.667 45.833 C 292.758 45.833,292.833 46.058,292.833 46.333 C 292.833 46.608,292.908 46.833,293.000 46.833 C 293.092 46.833,293.167 47.096,293.167 47.417 C 293.167 47.737,293.242 48.000,293.333 48.000 C 293.425 48.000,293.500 48.152,293.500 48.339 C 293.500 48.525,293.612 48.720,293.750 48.773 C 293.887 48.826,294.000 49.011,294.000 49.184 C 294.000 49.358,294.075 49.500,294.167 49.500 C 294.258 49.500,294.333 49.688,294.333 49.917 C 294.333 50.146,294.390 50.333,294.459 50.333 C 294.529 50.333,294.685 50.558,294.807 50.833 C 294.928 51.108,295.134 51.333,295.264 51.333 C 295.394 51.333,295.500 51.446,295.500 51.583 C 295.500 51.721,295.575 51.833,295.667 51.833 C 295.758 51.833,295.833 51.950,295.833 52.094 C 295.833 52.364,297.767 54.333,298.032 54.333 C 298.115 54.333,298.356 54.521,298.569 54.750 C 298.781 54.979,299.078 55.167,299.227 55.167 C 299.377 55.167,299.500 55.242,299.500 55.333 C 299.500 55.425,299.612 55.500,299.750 55.500 C 299.887 55.500,300.000 55.575,300.000 55.667 C 300.000 55.758,300.150 55.833,300.333 55.833 C 300.517 55.833,300.667 55.908,300.667 56.000 C 300.667 56.092,300.846 56.167,301.066 56.167 C 301.285 56.167,301.508 56.279,301.560 56.417 C 301.613 56.554,301.846 56.667,302.078 56.667 C 302.310 56.667,302.500 56.742,302.500 56.833 C 302.500 56.925,302.762 57.000,303.083 57.000 C 303.404 57.000,303.667 57.075,303.667 57.167 C 303.667 57.258,303.925 57.333,304.240 57.333 C 304.556 57.333,304.860 57.408,304.917 57.500 C 304.973 57.592,305.471 57.667,306.022 57.667 C 306.690 57.667,307.107 57.750,307.274 57.917 C 307.646 58.289,313.333 58.289,313.333 57.917 C 313.333 57.715,313.593 57.667,314.667 57.667 C 315.444 57.667,316.000 57.597,316.000 57.500 C 316.000 57.408,316.337 57.333,316.750 57.333 C 317.162 57.333,317.500 57.258,317.500 57.167 C 317.500 57.075,317.762 57.000,318.083 57.000 C 318.404 57.000,318.667 56.925,318.667 56.833 C 318.667 56.742,318.892 56.667,319.167 56.667 C 319.500 56.667,319.667 56.583,319.667 56.417 C 319.667 56.279,319.814 56.167,319.995 56.167 C 320.175 56.167,320.590 56.017,320.917 55.833 C 321.243 55.650,321.620 55.500,321.755 55.500 C 321.890 55.500,322.000 55.425,322.000 55.333 C 322.000 55.242,322.123 55.167,322.273 55.167 C 322.422 55.167,322.719 54.979,322.931 54.750 C 323.144 54.521,323.403 54.333,323.509 54.333 C 324.165 54.333,324.825 52.887,324.313 52.571 C 324.233 52.521,324.167 52.335,324.167 52.157 C 324.167 51.979,324.092 51.833,324.000 51.833 C 323.908 51.833,323.833 51.646,323.833 51.417 C 323.833 51.188,323.758 51.000,323.667 51.000 C 323.575 51.000,323.500 50.850,323.500 50.667 C 323.500 50.483,323.425 50.333,323.333 50.333 C 323.242 50.333,323.167 50.181,323.167 49.995 C 323.167 49.809,323.054 49.613,322.917 49.560 C 322.779 49.508,322.667 49.322,322.667 49.149 C 322.667 48.892,322.543 48.833,322.000 48.833 C 321.633 48.833,321.333 48.908,321.333 49.000 C 321.333 49.092,321.237 49.167,321.120 49.167 C 321.003 49.167,320.799 49.317,320.667 49.500 C 320.535 49.683,320.293 49.833,320.130 49.833 C 319.967 49.833,319.833 49.903,319.833 49.988 C 319.833 50.166,318.892 50.667,318.558 50.667 C 318.434 50.667,318.333 50.742,318.333 50.833 C 318.333 50.925,318.146 51.000,317.917 51.000 C 317.688 51.000,317.500 51.075,317.500 51.167 C 317.500 51.258,317.273 51.333,316.995 51.333 C 316.699 51.333,316.450 51.437,316.394 51.583 C 316.329 51.752,316.064 51.833,315.575 51.833 C 315.178 51.833,314.807 51.908,314.750 52.000 C 314.693 52.092,314.056 52.167,313.333 52.167 C 312.611 52.167,311.973 52.242,311.917 52.333 C 311.860 52.425,311.335 52.500,310.750 52.500 C 310.165 52.500,309.640 52.425,309.583 52.333 C 309.527 52.242,308.997 52.167,308.407 52.167 C 307.802 52.167,307.333 52.094,307.333 52.000 C 307.333 51.908,306.996 51.833,306.583 51.833 C 306.028 51.833,305.833 51.769,305.833 51.583 C 305.833 51.446,305.688 51.333,305.510 51.333 C 305.332 51.333,305.140 51.258,305.083 51.167 C 305.027 51.075,304.835 51.000,304.657 51.000 C 304.479 51.000,304.333 50.925,304.333 50.833 C 304.333 50.742,304.183 50.667,304.000 50.667 C 303.817 50.667,303.667 50.592,303.667 50.500 C 303.667 50.408,303.589 50.333,303.493 50.333 C 303.297 50.333,303.066 50.155,302.246 49.375 C 301.934 49.077,301.600 48.833,301.506 48.833 C 301.411 48.833,301.333 48.716,301.333 48.573 C 301.333 48.431,301.258 48.360,301.167 48.417 C 301.075 48.473,301.000 48.403,301.000 48.260 C 301.000 48.117,300.925 48.000,300.833 48.000 C 300.742 48.000,300.667 47.888,300.667 47.752 C 300.667 47.432,300.149 46.825,299.970 46.935 C 299.895 46.982,299.833 46.828,299.833 46.593 C 299.833 46.359,299.758 46.167,299.667 46.167 C 299.575 46.167,299.500 46.021,299.500 45.843 C 299.500 45.665,299.425 45.473,299.333 45.417 C 299.242 45.360,299.167 45.093,299.167 44.823 C 299.167 44.554,299.092 44.333,299.000 44.333 C 298.908 44.333,298.833 44.106,298.833 43.828 C 298.833 43.533,298.729 43.283,298.583 43.227 C 298.397 43.156,298.333 42.859,298.333 42.066 C 298.333 41.466,298.260 41.000,298.167 41.000 C 298.066 41.000,298.000 40.306,298.000 39.250 C 298.000 38.194,298.066 37.500,298.167 37.500 C 298.263 37.500,298.333 36.978,298.333 36.268 C 298.333 35.326,298.392 35.013,298.583 34.940 C 298.748 34.876,298.833 34.615,298.833 34.172 C 298.833 33.802,298.908 33.500,299.000 33.500 C 299.092 33.500,299.167 33.313,299.167 33.083 C 299.167 32.854,299.242 32.667,299.333 32.667 C 299.425 32.667,299.500 32.479,299.500 32.250 C 299.500 32.021,299.575 31.833,299.667 31.833 C 299.758 31.833,299.833 31.691,299.833 31.518 C 299.833 31.344,299.946 31.159,300.083 31.106 C 300.221 31.054,300.333 30.934,300.333 30.840 C 300.333 30.553,301.737 29.000,301.997 29.000 C 302.059 29.000,302.211 28.813,302.333 28.583 C 302.456 28.354,302.694 28.167,302.861 28.167 C 303.029 28.167,303.167 28.092,303.167 28.000 C 303.167 27.908,303.279 27.833,303.417 27.833 C 303.554 27.833,303.667 27.758,303.667 27.667 C 303.667 27.575,303.817 27.500,304.000 27.500 C 304.183 27.500,304.333 27.425,304.333 27.333 C 304.333 27.242,304.561 27.167,304.839 27.167 C 305.134 27.167,305.384 27.063,305.440 26.917 C 305.505 26.747,305.771 26.667,306.268 26.667 C 306.671 26.667,307.000 26.592,307.000 26.500 C 307.000 26.395,308.111 26.333,310.000 26.333 C 311.889 26.333,313.000 26.395,313.000 26.500 C 313.000 26.592,313.230 26.667,313.512 26.667 C 313.793 26.667,314.136 26.779,314.274 26.917 C 314.411 27.054,314.706 27.167,314.929 27.167 C 315.151 27.167,315.333 27.242,315.333 27.333 C 315.333 27.425,315.432 27.500,315.552 27.500 C 315.672 27.500,315.931 27.650,316.128 27.833 C 316.325 28.017,316.546 28.167,316.620 28.167 C 316.694 28.167,316.903 28.368,317.085 28.613 C 317.268 28.859,317.602 29.247,317.828 29.475 C 318.054 29.704,318.256 30.007,318.277 30.150 C 318.298 30.294,318.394 30.437,318.491 30.469 C 318.588 30.501,318.667 30.672,318.667 30.847 C 318.667 31.023,318.742 31.167,318.833 31.167 C 318.925 31.167,319.000 31.504,319.000 31.917 C 319.000 32.329,319.075 32.667,319.167 32.667 C 319.267 32.667,319.333 33.333,319.333 34.333 L 319.333 36.000 322.343 36.000 L 325.352 36.000 325.268 33.958 C 325.156 31.237,325.003 29.833,324.819 29.833 C 324.735 29.833,324.667 29.651,324.667 29.429 C 324.667 29.206,324.554 28.911,324.417 28.774 C 324.279 28.636,324.167 28.368,324.167 28.179 C 324.167 27.989,324.092 27.833,324.000 27.833 C 323.908 27.833,323.833 27.683,323.833 27.500 C 323.833 27.317,323.772 27.167,323.698 27.167 C 323.623 27.167,323.459 26.904,323.333 26.583 C 323.207 26.262,323.038 26.000,322.957 26.000 C 322.789 26.000,322.333 25.577,322.333 25.421 C 322.333 25.287,321.546 24.500,321.412 24.500 C 321.257 24.500,320.833 24.044,320.833 23.876 C 320.833 23.795,320.571 23.626,320.250 23.500 C 319.929 23.374,319.667 23.210,319.667 23.136 C 319.667 23.061,319.517 23.000,319.333 23.000 C 319.150 23.000,319.000 22.925,319.000 22.833 C 319.000 22.742,318.813 22.667,318.583 22.667 C 318.324 22.667,318.167 22.572,318.167 22.417 C 318.167 22.279,318.021 22.167,317.843 22.167 C 317.665 22.167,317.473 22.092,317.417 22.000 C 317.360 21.908,317.098 21.833,316.833 21.833 C 316.569 21.833,316.307 21.758,316.250 21.667 C 316.193 21.575,315.776 21.500,315.323 21.500 C 314.871 21.500,314.500 21.425,314.500 21.333 C 314.500 21.233,313.838 21.167,312.847 21.167 C 311.938 21.167,311.169 21.100,311.139 21.019 C 311.070 20.837,309.594 20.680,308.917 20.783 M381.125 20.789 C 380.965 20.827,380.833 20.927,380.833 21.012 C 380.833 21.097,380.425 21.167,379.927 21.167 C 379.428 21.167,378.973 21.242,378.917 21.333 C 378.860 21.425,378.598 21.500,378.333 21.500 C 378.069 21.500,377.807 21.575,377.750 21.667 C 377.693 21.758,377.527 21.833,377.380 21.833 C 377.013 21.833,375.833 22.366,375.833 22.532 C 375.833 22.606,375.683 22.667,375.500 22.667 C 375.317 22.667,375.167 22.730,375.167 22.807 C 375.167 22.884,374.829 23.121,374.417 23.333 C 374.004 23.545,373.667 23.820,373.667 23.943 C 373.667 24.066,373.610 24.168,373.542 24.171 C 373.331 24.177,372.167 25.289,372.167 25.484 C 372.167 25.584,372.092 25.667,372.000 25.667 C 371.908 25.667,371.833 25.817,371.833 26.000 C 371.833 26.185,371.722 26.333,371.583 26.333 C 371.428 26.333,371.333 26.491,371.333 26.750 C 371.333 26.979,371.258 27.167,371.167 27.167 C 371.075 27.167,371.000 27.392,371.000 27.667 C 371.000 27.942,370.925 28.167,370.833 28.167 C 370.728 28.167,370.667 29.278,370.667 31.167 C 370.667 33.056,370.728 34.167,370.833 34.167 C 370.925 34.167,371.000 34.343,371.000 34.558 C 371.000 35.023,371.460 36.000,371.679 36.000 C 371.764 36.000,371.833 36.112,371.833 36.250 C 371.833 36.387,371.908 36.500,372.000 36.500 C 372.092 36.500,372.167 36.615,372.167 36.757 C 372.167 37.069,373.245 38.162,373.875 38.486 C 374.127 38.617,374.333 38.785,374.333 38.861 C 374.333 38.938,374.521 39.000,374.750 39.000 C 374.979 39.000,375.167 39.094,375.168 39.208 C 375.169 39.445,375.915 39.833,376.367 39.833 C 376.532 39.833,376.667 39.908,376.667 40.000 C 376.667 40.092,376.812 40.167,376.990 40.167 C 377.168 40.167,377.360 40.242,377.417 40.333 C 377.473 40.425,377.740 40.500,378.010 40.500 C 378.279 40.500,378.500 40.572,378.500 40.659 C 378.500 40.747,378.781 40.863,379.125 40.918 C 379.469 40.973,379.880 41.089,380.039 41.176 C 380.199 41.262,380.592 41.333,380.914 41.333 C 381.236 41.333,381.500 41.408,381.500 41.500 C 381.500 41.592,381.912 41.667,382.417 41.667 C 382.921 41.667,383.333 41.742,383.333 41.833 C 383.333 41.925,383.731 42.000,384.217 42.000 C 384.703 42.000,385.186 42.086,385.292 42.192 C 385.465 42.365,386.016 42.504,387.627 42.778 C 387.925 42.829,388.211 42.937,388.261 43.018 C 388.312 43.100,388.569 43.167,388.833 43.167 C 389.098 43.167,389.360 43.242,389.417 43.333 C 389.473 43.425,389.740 43.500,390.010 43.500 C 390.279 43.500,390.500 43.575,390.500 43.667 C 390.500 43.758,390.650 43.833,390.833 43.833 C 391.017 43.833,391.167 43.928,391.167 44.043 C 391.167 44.158,391.409 44.359,391.705 44.490 C 392.359 44.780,392.920 45.319,393.075 45.806 C 393.138 46.004,393.259 46.167,393.345 46.167 C 393.430 46.167,393.500 46.767,393.500 47.500 C 393.500 48.233,393.441 48.833,393.369 48.833 C 393.296 48.833,393.021 49.246,392.757 49.750 C 392.442 50.353,392.173 50.667,391.972 50.667 C 391.804 50.667,391.667 50.742,391.667 50.833 C 391.667 50.925,391.554 51.000,391.417 51.000 C 391.279 51.000,391.167 51.075,391.167 51.167 C 391.167 51.258,391.017 51.333,390.833 51.333 C 390.648 51.333,390.500 51.444,390.500 51.583 C 390.500 51.758,390.324 51.833,389.917 51.833 C 389.596 51.833,389.333 51.908,389.333 52.000 C 389.333 52.092,388.996 52.167,388.583 52.167 C 388.171 52.167,387.833 52.242,387.833 52.333 C 387.833 52.438,386.722 52.500,384.833 52.500 C 382.944 52.500,381.833 52.438,381.833 52.333 C 381.833 52.242,381.496 52.167,381.083 52.167 C 380.671 52.167,380.333 52.092,380.333 52.000 C 380.333 51.908,380.146 51.833,379.917 51.833 C 379.688 51.833,379.500 51.770,379.500 51.693 C 379.500 51.617,379.201 51.410,378.835 51.235 C 378.470 51.060,378.170 50.860,378.169 50.792 C 378.168 50.723,378.083 50.667,377.981 50.667 C 377.776 50.667,376.667 49.514,376.667 49.301 C 376.667 49.227,376.554 49.167,376.417 49.167 C 376.261 49.167,376.167 49.009,376.167 48.750 C 376.167 48.521,376.092 48.333,376.000 48.333 C 375.908 48.333,375.833 48.108,375.833 47.833 C 375.833 47.558,375.762 47.333,375.674 47.333 C 375.587 47.333,375.493 46.827,375.466 46.208 L 375.417 45.083 372.458 45.038 L 369.500 44.992 369.500 46.829 C 369.500 47.943,369.566 48.667,369.667 48.667 C 369.758 48.667,369.833 49.036,369.833 49.488 C 369.833 49.996,369.929 50.405,370.083 50.560 C 370.221 50.697,370.333 50.927,370.333 51.071 C 370.333 51.215,370.408 51.333,370.500 51.333 C 370.592 51.333,370.667 51.521,370.667 51.750 C 370.667 51.979,370.742 52.167,370.833 52.167 C 370.925 52.167,371.000 52.282,371.000 52.423 C 371.000 52.736,372.906 54.659,373.542 54.986 C 373.794 55.117,374.000 55.285,374.000 55.361 C 374.000 55.438,374.146 55.500,374.323 55.500 C 374.501 55.500,374.693 55.575,374.750 55.667 C 374.807 55.758,374.999 55.833,375.177 55.833 C 375.354 55.833,375.500 55.908,375.500 56.000 C 375.500 56.092,375.679 56.167,375.899 56.167 C 376.118 56.167,376.341 56.279,376.394 56.417 C 376.450 56.563,376.699 56.667,376.995 56.667 C 377.273 56.667,377.500 56.742,377.500 56.833 C 377.500 56.925,377.833 57.000,378.240 57.000 C 378.647 57.000,379.027 57.075,379.083 57.167 C 379.140 57.258,379.782 57.333,380.510 57.333 C 381.281 57.333,381.833 57.403,381.833 57.500 C 381.833 57.605,383.000 57.667,385.000 57.667 C 387.000 57.667,388.167 57.605,388.167 57.500 C 388.167 57.403,388.722 57.333,389.500 57.333 C 390.278 57.333,390.833 57.264,390.833 57.167 C 390.833 57.075,391.171 57.000,391.583 57.000 C 391.996 57.000,392.333 56.925,392.333 56.833 C 392.333 56.742,392.588 56.667,392.899 56.667 C 393.248 56.667,393.501 56.571,393.560 56.417 C 393.613 56.279,393.846 56.167,394.078 56.167 C 394.310 56.167,394.500 56.092,394.500 56.000 C 394.500 55.908,394.688 55.833,394.917 55.833 C 395.146 55.833,395.333 55.758,395.333 55.667 C 395.333 55.575,395.477 55.500,395.653 55.500 C 395.828 55.500,395.997 55.444,396.028 55.375 C 396.058 55.306,396.383 55.026,396.750 54.753 C 397.877 53.913,398.179 53.608,398.447 53.044 C 398.589 52.745,398.771 52.500,398.852 52.500 C 398.934 52.500,399.000 52.358,399.000 52.184 C 399.000 52.011,399.113 51.826,399.250 51.773 C 399.387 51.720,399.500 51.531,399.500 51.352 C 399.500 51.174,399.594 50.997,399.708 50.958 C 400.406 50.726,399.842 42.500,399.129 42.500 C 399.058 42.500,399.000 42.387,399.000 42.250 C 399.000 42.112,398.925 42.000,398.833 42.000 C 398.742 42.000,398.667 41.885,398.667 41.743 C 398.667 41.431,397.588 40.338,396.958 40.014 C 396.706 39.883,396.500 39.715,396.500 39.639 C 396.500 39.562,396.405 39.500,396.290 39.500 C 396.174 39.500,395.878 39.313,395.631 39.083 C 395.383 38.854,395.028 38.667,394.841 38.667 C 394.653 38.667,394.500 38.592,394.500 38.500 C 394.500 38.408,394.275 38.333,394.000 38.333 C 393.725 38.333,393.500 38.258,393.500 38.167 C 393.500 38.075,393.322 38.000,393.104 38.000 C 392.886 38.000,392.614 37.887,392.500 37.750 C 392.386 37.612,392.039 37.500,391.730 37.500 C 391.420 37.500,391.167 37.425,391.167 37.333 C 391.167 37.242,390.829 37.167,390.417 37.167 C 390.004 37.167,389.667 37.092,389.667 37.000 C 389.667 36.908,389.334 36.833,388.927 36.833 C 388.519 36.833,388.140 36.758,388.083 36.667 C 388.027 36.575,387.567 36.500,387.062 36.500 C 386.515 36.500,386.052 36.409,385.919 36.276 C 385.792 36.149,385.275 36.039,384.723 36.021 C 384.188 36.004,383.725 35.917,383.694 35.828 C 383.664 35.739,383.308 35.667,382.903 35.667 C 382.498 35.667,382.167 35.592,382.167 35.500 C 382.167 35.408,381.904 35.333,381.583 35.333 C 381.262 35.333,381.000 35.258,381.000 35.167 C 381.000 35.075,380.775 35.000,380.500 35.000 C 380.225 35.000,380.000 34.926,380.000 34.837 C 380.000 34.747,379.813 34.626,379.583 34.568 C 379.354 34.511,379.167 34.397,379.167 34.315 C 379.167 34.234,379.068 34.167,378.948 34.167 C 378.828 34.167,378.569 34.017,378.372 33.833 C 378.175 33.650,377.936 33.500,377.840 33.500 C 377.745 33.500,377.667 33.354,377.667 33.177 C 377.667 32.999,377.592 32.807,377.500 32.750 C 377.408 32.693,377.333 32.501,377.333 32.323 C 377.333 32.146,377.258 32.000,377.167 32.000 C 377.074 32.000,377.000 31.556,377.000 31.000 C 377.000 30.444,377.074 30.000,377.167 30.000 C 377.258 30.000,377.333 29.807,377.333 29.571 C 377.333 29.050,378.739 27.592,379.581 27.240 C 379.890 27.111,380.191 26.929,380.248 26.836 C 380.306 26.743,380.536 26.667,380.760 26.667 C 380.984 26.667,381.167 26.592,381.167 26.500 C 381.167 26.408,381.579 26.333,382.083 26.333 C 382.587 26.333,383.000 26.258,383.000 26.167 C 383.000 26.064,383.806 26.000,385.083 26.000 C 386.361 26.000,387.167 26.064,387.167 26.167 C 387.167 26.258,387.579 26.333,388.083 26.333 C 388.587 26.333,389.000 26.408,389.000 26.500 C 389.000 26.592,389.262 26.667,389.583 26.667 C 389.991 26.667,390.167 26.742,390.167 26.917 C 390.167 27.054,390.300 27.167,390.463 27.167 C 390.626 27.167,390.868 27.317,391.000 27.500 C 391.132 27.683,391.302 27.833,391.378 27.833 C 391.576 27.833,392.333 28.620,392.333 28.826 C 392.333 28.922,392.408 29.000,392.500 29.000 C 392.592 29.000,392.667 29.117,392.667 29.261 C 392.667 29.404,392.756 29.686,392.865 29.886 C 392.983 30.103,393.045 30.768,393.018 31.533 C 392.942 33.644,392.717 33.500,396.095 33.500 L 399.000 33.500 399.000 30.833 C 399.000 29.167,398.938 28.167,398.833 28.167 C 398.742 28.167,398.667 27.942,398.667 27.667 C 398.667 27.392,398.592 27.167,398.500 27.167 C 398.408 27.167,398.333 26.979,398.333 26.750 C 398.333 26.521,398.258 26.333,398.167 26.333 C 398.075 26.333,398.000 26.183,398.000 26.000 C 398.000 25.815,397.889 25.667,397.750 25.667 C 397.613 25.667,397.500 25.524,397.500 25.350 C 397.500 25.038,396.434 23.833,396.158 23.833 C 396.079 23.833,395.828 23.646,395.598 23.417 C 395.369 23.188,395.080 23.000,394.956 23.000 C 394.831 23.000,394.563 22.845,394.359 22.655 C 394.155 22.465,393.784 22.273,393.536 22.228 C 393.287 22.184,393.058 22.076,393.028 21.990 C 392.997 21.904,392.753 21.833,392.486 21.833 C 392.219 21.833,392.000 21.758,392.000 21.667 C 392.000 21.575,391.738 21.500,391.417 21.500 C 391.096 21.500,390.833 21.425,390.833 21.333 C 390.833 21.239,390.357 21.167,389.738 21.167 C 389.015 21.167,388.563 21.086,388.406 20.930 C 388.181 20.705,381.996 20.585,381.125 20.789 M274.167 24.083 L 274.167 26.667 276.750 26.667 L 279.333 26.667 279.333 39.417 L 279.333 52.167 276.750 52.167 L 274.167 52.167 274.167 54.750 L 274.167 57.333 282.479 57.333 L 290.792 57.333 290.896 56.813 C 291.029 56.144,291.032 52.777,290.899 52.430 C 290.813 52.206,290.418 52.167,288.232 52.167 L 285.667 52.167 285.667 36.833 L 285.667 21.500 279.917 21.500 L 274.167 21.500 274.167 24.083 M82.167 26.500 C 82.167 26.592,82.571 26.667,83.066 26.667 C 83.711 26.667,83.991 26.737,84.060 26.917 C 84.116 27.063,84.366 27.167,84.661 27.167 C 84.939 27.167,85.167 27.242,85.167 27.333 C 85.167 27.425,85.312 27.500,85.490 27.500 C 85.668 27.500,85.860 27.575,85.917 27.667 C 85.973 27.758,86.165 27.833,86.343 27.833 C 86.521 27.833,86.667 27.908,86.667 28.000 C 86.667 28.092,86.783 28.167,86.925 28.167 C 87.067 28.167,87.356 28.354,87.569 28.583 C 87.781 28.813,88.040 29.000,88.144 29.000 C 88.248 29.000,88.783 29.450,89.333 30.000 L 90.333 31.000 90.333 39.130 C 90.333 47.069,90.325 47.265,90.000 47.500 C 89.817 47.632,89.667 47.802,89.667 47.877 C 89.667 48.032,89.508 48.232,88.638 49.172 C 88.302 49.536,87.963 49.833,87.886 49.833 C 87.809 49.833,87.544 50.021,87.297 50.250 C 87.050 50.479,86.732 50.667,86.591 50.667 C 86.449 50.667,86.333 50.742,86.333 50.833 C 86.333 50.925,86.188 51.000,86.010 51.000 C 85.832 51.000,85.640 51.075,85.583 51.167 C 85.527 51.258,85.335 51.333,85.157 51.333 C 84.979 51.333,84.833 51.446,84.833 51.583 C 84.833 51.758,84.657 51.833,84.250 51.833 C 83.929 51.833,83.667 51.908,83.667 52.000 C 83.667 52.092,83.254 52.167,82.750 52.167 C 82.246 52.167,81.833 52.242,81.833 52.333 C 81.833 52.430,81.309 52.500,80.593 52.500 C 79.911 52.500,79.307 52.425,79.250 52.333 C 79.193 52.242,78.701 52.167,78.157 52.167 C 77.608 52.167,77.167 52.092,77.167 52.000 C 77.167 51.908,76.951 51.833,76.687 51.833 C 76.423 51.833,76.114 51.721,76.000 51.583 C 75.886 51.446,75.614 51.333,75.396 51.333 C 75.178 51.333,75.000 51.258,75.000 51.167 C 75.000 51.075,74.850 51.000,74.667 51.000 C 74.483 51.000,74.333 50.925,74.333 50.833 C 74.333 50.742,74.221 50.667,74.083 50.667 C 73.946 50.667,73.833 50.592,73.833 50.500 C 73.833 50.408,73.683 50.333,73.500 50.333 C 73.317 50.333,73.167 50.253,73.167 50.155 C 73.167 49.963,72.757 49.500,72.588 49.500 C 72.410 49.500,71.667 48.691,71.667 48.498 C 71.667 48.396,71.592 48.360,71.500 48.417 C 71.408 48.473,71.333 48.406,71.333 48.267 C 71.333 48.129,71.146 47.828,70.917 47.598 C 70.688 47.369,70.500 47.028,70.500 46.841 C 70.500 46.653,70.425 46.500,70.333 46.500 C 70.242 46.500,70.167 46.350,70.167 46.167 C 70.167 45.983,70.092 45.833,70.000 45.833 C 69.908 45.833,69.833 45.681,69.833 45.495 C 69.833 45.309,69.721 45.113,69.583 45.060 C 69.441 45.006,69.333 44.757,69.333 44.482 C 69.333 44.217,69.258 44.000,69.167 44.000 C 69.074 44.000,69.000 43.556,69.000 43.000 C 69.000 42.444,68.926 42.000,68.833 42.000 C 68.730 42.000,68.667 41.087,68.667 39.593 C 68.667 38.168,68.735 37.144,68.833 37.083 C 68.925 37.027,69.000 36.610,69.000 36.157 C 69.000 35.704,69.075 35.333,69.167 35.333 C 69.258 35.333,69.333 35.079,69.333 34.768 C 69.333 34.419,69.429 34.166,69.583 34.106 C 69.721 34.054,69.833 33.825,69.833 33.598 C 69.833 33.372,69.908 33.140,70.000 33.083 C 70.092 33.027,70.167 32.869,70.167 32.733 C 70.167 32.597,70.317 32.325,70.500 32.128 C 70.683 31.931,70.833 31.635,70.833 31.469 C 70.833 31.303,70.928 31.167,71.044 31.167 C 71.160 31.167,71.403 30.968,71.585 30.724 C 72.055 30.097,72.781 29.333,72.908 29.333 C 73.084 29.333,73.833 28.529,73.833 28.341 C 73.833 28.245,74.021 28.167,74.250 28.167 C 74.479 28.167,74.667 28.092,74.667 28.000 C 74.667 27.908,74.817 27.833,75.000 27.833 C 75.183 27.833,75.333 27.758,75.333 27.667 C 75.333 27.575,75.521 27.500,75.750 27.500 C 75.979 27.500,76.167 27.425,76.167 27.333 C 76.167 27.242,76.302 27.167,76.468 27.167 C 76.634 27.167,76.915 27.057,77.093 26.922 C 77.271 26.787,77.693 26.675,78.032 26.672 C 78.370 26.669,78.693 26.592,78.750 26.500 C 78.807 26.407,79.585 26.333,80.510 26.333 C 81.503 26.333,82.167 26.400,82.167 26.500 M225.500 26.500 C 225.500 26.592,225.877 26.667,226.339 26.667 C 226.930 26.667,227.205 26.740,227.273 26.917 C 227.326 27.054,227.512 27.167,227.687 27.167 C 227.862 27.167,228.135 27.237,228.294 27.322 C 228.453 27.408,228.827 27.576,229.125 27.696 C 229.423 27.816,229.667 27.971,229.667 28.041 C 229.667 28.110,229.769 28.167,229.893 28.167 C 230.018 28.167,230.398 28.429,230.739 28.750 C 231.079 29.071,231.432 29.333,231.524 29.333 C 231.738 29.333,232.167 29.760,232.167 29.974 C 232.167 30.064,232.429 30.408,232.750 30.739 C 233.071 31.069,233.333 31.451,233.333 31.586 C 233.333 31.722,233.408 31.833,233.500 31.833 C 233.592 31.833,233.667 31.946,233.667 32.083 C 233.667 32.221,233.742 32.333,233.833 32.333 C 233.925 32.333,234.000 32.483,234.000 32.667 C 234.000 32.852,234.111 33.000,234.250 33.000 C 234.425 33.000,234.500 33.176,234.500 33.583 C 234.500 33.904,234.575 34.167,234.667 34.167 C 234.758 34.167,234.833 34.429,234.833 34.750 C 234.833 35.071,234.908 35.333,235.000 35.333 C 235.092 35.333,235.167 35.746,235.167 36.250 C 235.167 36.754,235.242 37.167,235.333 37.167 C 235.436 37.167,235.500 38.028,235.500 39.417 C 235.500 40.806,235.436 41.667,235.333 41.667 C 235.242 41.667,235.167 42.075,235.167 42.573 C 235.167 43.072,235.092 43.527,235.000 43.583 C 234.908 43.640,234.833 43.907,234.833 44.177 C 234.833 44.446,234.758 44.667,234.667 44.667 C 234.575 44.667,234.500 44.929,234.500 45.250 C 234.500 45.657,234.425 45.833,234.250 45.833 C 234.111 45.833,234.000 45.981,234.000 46.167 C 234.000 46.350,233.925 46.500,233.833 46.500 C 233.742 46.500,233.667 46.671,233.667 46.880 C 233.667 47.089,233.517 47.368,233.333 47.500 C 233.150 47.632,233.000 47.836,233.000 47.953 C 233.000 48.071,232.923 48.167,232.828 48.167 C 232.734 48.167,232.606 48.296,232.546 48.455 C 232.407 48.817,231.400 49.833,231.180 49.833 C 231.089 49.833,230.828 50.021,230.598 50.250 C 230.369 50.479,230.106 50.667,230.013 50.667 C 229.920 50.667,229.576 50.817,229.250 51.000 C 228.924 51.183,228.554 51.333,228.429 51.333 C 228.305 51.333,228.159 51.446,228.106 51.583 C 228.050 51.729,227.801 51.833,227.505 51.833 C 227.227 51.833,227.000 51.908,227.000 52.000 C 227.000 52.094,226.528 52.167,225.917 52.167 C 225.306 52.167,224.833 52.239,224.833 52.333 C 224.833 52.425,224.458 52.500,224.000 52.500 C 223.542 52.500,223.167 52.425,223.167 52.333 C 223.167 52.239,222.698 52.167,222.093 52.167 C 221.503 52.167,220.973 52.092,220.917 52.000 C 220.860 51.908,220.553 51.833,220.235 51.833 C 219.874 51.833,219.620 51.739,219.560 51.583 C 219.508 51.446,219.285 51.333,219.066 51.333 C 218.846 51.333,218.667 51.258,218.667 51.167 C 218.667 51.075,218.517 51.000,218.333 51.000 C 218.150 51.000,218.000 50.925,218.000 50.833 C 218.000 50.742,217.847 50.667,217.659 50.667 C 217.472 50.667,217.131 50.479,216.902 50.250 C 216.672 50.021,216.428 49.833,216.358 49.833 C 216.145 49.833,215.000 48.717,215.000 48.509 C 215.000 48.402,214.925 48.360,214.833 48.417 C 214.742 48.473,214.667 48.406,214.667 48.267 C 214.667 48.129,214.479 47.828,214.250 47.598 L 213.833 47.182 213.833 39.102 L 213.833 31.023 214.835 30.011 C 215.386 29.455,215.943 29.000,216.073 29.000 C 216.203 29.000,216.457 28.813,216.637 28.583 C 216.817 28.354,217.085 28.167,217.232 28.167 C 217.380 28.167,217.500 28.092,217.500 28.000 C 217.500 27.908,217.688 27.833,217.917 27.833 C 218.146 27.833,218.333 27.758,218.333 27.667 C 218.333 27.575,218.483 27.500,218.667 27.500 C 218.850 27.500,219.000 27.425,219.000 27.333 C 219.000 27.242,219.227 27.167,219.505 27.167 C 219.801 27.167,220.050 27.063,220.106 26.917 C 220.177 26.734,220.464 26.667,221.175 26.667 C 221.709 26.667,222.193 26.592,222.250 26.500 C 222.307 26.408,223.057 26.333,223.927 26.333 C 224.864 26.333,225.500 26.401,225.500 26.500 M129.667 44.383 C 129.667 46.706,129.496 47.662,129.081 47.665 C 128.988 47.666,128.763 47.868,128.581 48.113 C 128.164 48.676,127.719 49.116,126.925 49.750 C 126.581 50.025,126.213 50.330,126.108 50.427 C 126.003 50.524,125.673 50.711,125.375 50.843 C 125.077 50.974,124.833 51.138,124.833 51.207 C 124.833 51.277,124.654 51.333,124.434 51.333 C 124.215 51.333,123.992 51.446,123.940 51.583 C 123.887 51.721,123.654 51.833,123.422 51.833 C 123.190 51.833,123.000 51.908,123.000 52.000 C 123.000 52.092,122.737 52.167,122.417 52.167 C 122.096 52.167,121.833 52.242,121.833 52.333 C 121.833 52.427,121.361 52.500,120.750 52.500 C 120.139 52.500,119.667 52.573,119.667 52.667 C 119.667 52.762,119.170 52.833,118.510 52.833 C 117.874 52.833,117.307 52.758,117.250 52.667 C 117.193 52.575,116.739 52.500,116.240 52.500 C 115.741 52.500,115.333 52.425,115.333 52.333 C 115.333 52.242,115.108 52.167,114.833 52.167 C 114.558 52.167,114.333 52.092,114.333 52.000 C 114.333 51.908,114.146 51.833,113.917 51.833 C 113.668 51.833,113.500 51.738,113.500 51.597 C 113.500 51.467,113.275 51.262,113.000 51.140 C 112.725 51.018,112.500 50.862,112.500 50.793 C 112.500 50.723,112.388 50.667,112.250 50.667 C 112.111 50.667,112.000 50.519,112.000 50.333 C 112.000 50.150,111.925 50.000,111.833 50.000 C 111.742 50.000,111.667 49.887,111.667 49.750 C 111.667 49.612,111.592 49.500,111.500 49.500 C 111.408 49.500,111.333 49.275,111.333 49.000 C 111.333 48.725,111.258 48.500,111.167 48.500 C 111.074 48.500,111.000 48.059,111.000 47.510 C 111.000 46.965,111.075 46.473,111.167 46.417 C 111.258 46.360,111.333 46.122,111.333 45.888 C 111.333 45.490,112.350 44.333,112.699 44.333 C 112.773 44.333,112.833 44.235,112.833 44.114 C 112.833 43.994,113.096 43.793,113.417 43.667 C 113.737 43.541,114.000 43.377,114.000 43.302 C 114.000 43.228,114.225 43.167,114.500 43.167 C 114.775 43.167,115.000 43.092,115.000 43.000 C 115.000 42.908,115.221 42.833,115.490 42.833 C 115.760 42.833,116.027 42.758,116.083 42.667 C 116.140 42.575,116.516 42.500,116.920 42.500 C 117.354 42.500,117.741 42.401,117.868 42.256 C 118.049 42.052,119.009 42.012,123.875 42.006 L 129.667 42.000 129.667 44.383 M192.167 44.500 C 192.167 46.056,192.104 47.000,192.000 47.000 C 191.908 47.000,191.833 47.150,191.833 47.333 C 191.833 47.517,191.755 47.667,191.659 47.667 C 191.473 47.667,190.667 48.415,190.667 48.588 C 190.667 48.721,190.221 49.167,190.088 49.167 C 190.031 49.167,189.804 49.335,189.584 49.542 C 188.915 50.167,188.689 50.333,188.507 50.333 C 188.411 50.333,188.333 50.408,188.333 50.500 C 188.333 50.592,188.235 50.667,188.115 50.667 C 187.995 50.667,187.735 50.817,187.538 51.000 C 187.342 51.183,187.025 51.333,186.835 51.333 C 186.645 51.333,186.446 51.446,186.394 51.583 C 186.341 51.721,186.123 51.833,185.909 51.833 C 185.695 51.833,185.473 51.908,185.417 52.000 C 185.360 52.092,185.093 52.167,184.823 52.167 C 184.554 52.167,184.333 52.242,184.333 52.333 C 184.333 52.427,183.864 52.500,183.260 52.500 C 182.669 52.500,182.140 52.575,182.083 52.667 C 182.027 52.758,181.502 52.833,180.917 52.833 C 180.332 52.833,179.807 52.758,179.750 52.667 C 179.693 52.575,179.239 52.500,178.740 52.500 C 178.241 52.500,177.833 52.425,177.833 52.333 C 177.833 52.242,177.608 52.167,177.333 52.167 C 177.058 52.167,176.833 52.092,176.833 52.000 C 176.833 51.908,176.646 51.833,176.417 51.833 C 176.168 51.833,176.000 51.738,176.000 51.597 C 176.000 51.467,175.775 51.262,175.500 51.140 C 175.225 51.018,175.000 50.862,175.000 50.793 C 175.000 50.723,174.887 50.667,174.750 50.667 C 174.611 50.667,174.500 50.519,174.500 50.333 C 174.500 50.150,174.425 50.000,174.333 50.000 C 174.242 50.000,174.167 49.887,174.167 49.750 C 174.167 49.612,174.092 49.500,174.000 49.500 C 173.908 49.500,173.833 49.317,173.833 49.093 C 173.833 48.869,173.758 48.640,173.667 48.583 C 173.575 48.527,173.500 47.960,173.500 47.323 C 173.500 46.663,173.572 46.167,173.667 46.167 C 173.758 46.167,173.833 46.015,173.833 45.830 C 173.833 45.396,175.734 43.500,176.170 43.500 C 176.351 43.500,176.500 43.425,176.500 43.333 C 176.500 43.242,176.683 43.167,176.907 43.167 C 177.131 43.167,177.360 43.092,177.417 43.000 C 177.473 42.908,177.736 42.833,178.000 42.833 C 178.264 42.833,178.521 42.768,178.570 42.688 C 178.619 42.608,179.052 42.505,179.531 42.459 C 180.010 42.413,180.431 42.291,180.465 42.188 C 180.510 42.053,182.179 42.000,186.347 42.000 L 192.167 42.000 192.167 44.500 " stroke="none" fill="#444444" fill-rule="evenodd"></path><path id="path2" d="M26.667 7.609 C 26.285 7.734,25.613 8.022,25.333 8.179 C 25.196 8.257,24.671 8.526,24.167 8.777 C 23.662 9.029,23.206 9.298,23.152 9.375 C 23.098 9.453,22.891 9.529,22.693 9.544 C 22.495 9.559,22.333 9.675,22.333 9.803 C 22.333 9.939,22.232 9.997,22.089 9.942 C 21.954 9.890,21.801 9.918,21.748 10.003 C 21.657 10.151,21.221 10.369,20.042 10.857 C 19.744 10.981,19.500 11.138,19.500 11.207 C 19.500 11.277,19.308 11.333,19.073 11.333 C 18.830 11.333,18.691 11.405,18.751 11.501 C 18.808 11.593,18.718 11.714,18.552 11.769 C 18.021 11.943,16.754 12.578,16.648 12.723 C 16.592 12.799,16.498 12.855,16.440 12.848 C 15.959 12.783,15.667 12.872,15.667 13.083 C 15.667 13.221,15.554 13.333,15.417 13.333 C 15.279 13.333,15.167 13.408,15.167 13.500 C 15.167 13.592,15.066 13.667,14.942 13.667 C 14.642 13.667,13.615 14.178,13.461 14.404 C 13.394 14.502,13.337 14.518,13.336 14.439 C 13.334 14.360,13.148 14.416,12.923 14.564 C 12.697 14.712,12.411 14.833,12.287 14.833 C 12.164 14.833,11.917 14.966,11.740 15.127 C 11.562 15.289,11.098 15.563,10.708 15.736 C 10.319 15.909,10.000 16.114,10.000 16.192 C 10.000 16.270,9.813 16.333,9.583 16.333 C 9.354 16.333,9.167 16.408,9.167 16.500 C 9.167 16.592,9.017 16.667,8.833 16.667 C 8.650 16.667,8.500 16.742,8.500 16.833 C 8.500 16.925,8.398 17.000,8.273 17.000 C 8.149 17.000,7.770 17.188,7.433 17.417 C 7.095 17.646,6.667 17.833,6.483 17.833 C 6.298 17.833,6.193 17.908,6.250 18.000 C 6.307 18.092,6.199 18.167,6.010 18.167 C 5.821 18.167,5.666 18.223,5.666 18.292 C 5.666 18.360,5.328 18.555,4.916 18.725 C 4.504 18.894,4.167 19.101,4.167 19.183 C 4.167 19.266,4.069 19.333,3.950 19.333 C 3.643 19.333,2.836 19.725,2.835 19.875 C 2.834 19.944,2.732 20.000,2.609 20.000 C 2.264 20.000,1.333 20.504,1.333 20.690 C 1.333 20.781,1.183 20.808,1.000 20.750 C 0.772 20.678,0.667 20.720,0.667 20.885 C 0.667 21.209,0.950 21.424,2.285 22.115 C 6.010 24.043,10.488 26.381,13.139 27.780 C 13.903 28.184,15.628 29.082,16.972 29.776 C 18.317 30.470,20.092 31.395,20.917 31.831 C 27.588 35.354,26.771 35.143,29.054 33.940 C 30.651 33.098,32.199 32.290,37.167 29.706 C 38.313 29.109,39.946 28.254,40.796 27.805 C 42.848 26.720,45.001 25.598,48.333 23.876 C 52.447 21.749,53.500 21.160,53.500 20.984 C 53.500 20.839,51.852 20.000,51.568 20.000 C 51.439 20.000,51.333 19.925,51.333 19.833 C 51.333 19.742,51.236 19.667,51.117 19.667 C 50.810 19.667,50.003 19.275,50.001 19.125 C 50.001 19.056,49.854 19.000,49.677 19.000 C 49.499 19.000,49.310 18.930,49.257 18.844 C 49.130 18.639,48.178 18.167,47.891 18.167 C 47.768 18.167,47.667 18.092,47.667 18.000 C 47.667 17.908,47.517 17.833,47.333 17.833 C 47.150 17.833,47.000 17.758,47.000 17.667 C 47.000 17.575,46.897 17.500,46.770 17.500 C 46.644 17.500,46.447 17.387,46.333 17.250 C 46.219 17.112,46.004 16.998,45.855 16.996 C 45.705 16.994,45.396 16.846,45.167 16.667 C 44.938 16.487,44.619 16.339,44.458 16.337 C 44.298 16.335,44.167 16.277,44.167 16.208 C 44.167 16.140,43.680 15.858,43.085 15.583 C 42.491 15.308,42.003 15.027,42.002 14.958 C 42.001 14.890,41.899 14.833,41.776 14.833 C 41.477 14.833,40.500 14.341,40.500 14.190 C 40.500 14.124,40.332 14.058,40.127 14.043 C 39.923 14.027,39.729 13.936,39.697 13.841 C 39.665 13.745,39.532 13.667,39.401 13.667 C 39.093 13.667,38.455 13.310,38.283 13.042 C 38.210 12.927,38.004 12.833,37.825 12.833 C 37.646 12.833,37.500 12.754,37.500 12.657 C 37.500 12.560,37.436 12.520,37.358 12.568 C 37.280 12.616,37.073 12.548,36.900 12.417 C 36.726 12.285,36.448 12.175,36.282 12.172 C 36.116 12.169,36.027 12.092,36.083 12.000 C 36.142 11.905,36.002 11.833,35.760 11.833 C 35.484 11.833,35.333 11.741,35.333 11.572 C 35.333 11.393,35.236 11.342,35.024 11.409 C 34.845 11.466,34.625 11.400,34.503 11.254 C 34.387 11.114,34.189 11.000,34.063 11.000 C 33.937 11.000,33.833 10.925,33.833 10.833 C 33.833 10.742,33.702 10.661,33.542 10.654 C 33.381 10.648,33.025 10.501,32.750 10.329 C 32.475 10.156,31.988 9.884,31.667 9.724 C 31.346 9.565,31.046 9.393,31.000 9.342 C 30.954 9.291,30.767 9.224,30.583 9.192 C 30.400 9.160,30.206 9.062,30.152 8.975 C 30.098 8.888,29.891 8.804,29.693 8.790 C 29.495 8.775,29.333 8.670,29.333 8.557 C 29.333 8.442,29.187 8.381,29.000 8.417 C 28.817 8.452,28.667 8.407,28.667 8.316 C 28.667 8.147,27.384 7.500,27.083 7.517 C 26.992 7.522,26.804 7.563,26.667 7.609 M8.958 34.953 C 8.706 34.991,8.500 35.080,8.500 35.151 C 8.500 35.222,8.192 35.382,7.816 35.506 C 7.439 35.630,7.093 35.832,7.046 35.954 C 6.995 36.086,6.833 36.136,6.647 36.077 C 6.431 36.009,6.333 36.059,6.333 36.239 C 6.333 36.406,6.184 36.500,5.917 36.500 C 5.688 36.500,5.500 36.575,5.500 36.667 C 5.500 36.758,5.388 36.833,5.250 36.833 C 5.112 36.833,5.000 36.908,5.000 37.000 C 5.000 37.092,4.854 37.167,4.677 37.167 C 4.499 37.167,4.307 37.242,4.250 37.333 C 4.193 37.425,3.964 37.500,3.740 37.500 C 3.516 37.500,3.333 37.594,3.333 37.708 C 3.333 37.823,2.864 38.127,2.291 38.384 C 0.284 39.284,0.285 39.414,2.305 40.459 C 2.916 40.775,4.017 41.355,4.750 41.746 C 5.483 42.138,7.433 43.154,9.083 44.003 C 10.733 44.852,12.571 45.808,13.167 46.127 C 13.762 46.445,15.375 47.290,16.750 48.005 C 18.125 48.719,19.887 49.638,20.667 50.046 C 21.446 50.455,23.195 51.362,24.554 52.063 L 27.025 53.337 28.888 52.357 C 29.912 51.817,31.875 50.793,33.250 50.082 C 36.480 48.409,39.272 46.953,40.745 46.173 C 42.314 45.342,50.183 41.238,52.083 40.259 C 52.450 40.071,52.923 39.794,53.134 39.644 L 53.519 39.372 52.948 39.019 C 52.634 38.825,52.259 38.667,52.115 38.667 C 51.971 38.667,51.807 38.592,51.750 38.500 C 51.693 38.408,51.501 38.333,51.323 38.333 C 51.146 38.333,51.000 38.258,51.000 38.167 C 51.000 38.075,50.852 38.000,50.672 38.000 C 50.435 38.000,50.373 37.923,50.450 37.723 C 50.534 37.503,50.482 37.466,50.192 37.542 C 49.991 37.594,49.732 37.550,49.616 37.443 C 49.237 37.097,48.679 36.833,48.326 36.833 C 48.136 36.833,48.027 36.758,48.083 36.667 C 48.140 36.575,48.067 36.500,47.921 36.500 C 47.775 36.500,47.613 36.387,47.560 36.250 C 47.508 36.112,47.362 36.000,47.237 36.000 C 46.986 36.000,45.466 35.315,45.333 35.142 C 44.879 34.551,40.776 36.057,38.917 37.496 C 38.825 37.567,37.587 38.225,36.167 38.958 C 34.746 39.691,33.283 40.460,32.917 40.667 C 31.114 41.687,27.168 43.667,26.939 43.667 C 26.796 43.667,26.357 43.489,25.964 43.273 C 25.571 43.056,24.238 42.353,23.000 41.711 C 21.762 41.069,20.112 40.207,19.333 39.795 C 12.147 35.999,9.846 34.830,9.617 34.858 C 9.507 34.872,9.210 34.915,8.958 34.953 " stroke="none" fill="#f3532c" fill-rule="evenodd"></path><path id="path3" d="" stroke="none" fill="#743c34" fill-rule="evenodd"></path><path id="path4" d="" stroke="none" fill="#445034" fill-rule="evenodd"></path></g></svg>