<?xml version="1.0" standalone="no"?>
<!DOCTYPE svg PUBLIC "-//W3C//DTD SVG 20010904//EN"
 "http://www.w3.org/TR/2001/REC-SVG-20010904/DTD/svg10.dtd">
<svg version="1.0" xmlns="http://www.w3.org/2000/svg"
 width="1069.000000pt" height="165.000000pt" viewBox="0 0 1069.000000 165.000000"
 preserveAspectRatio="xMidYMid meet">

<g transform="translate(0.000000,165.000000) scale(0.100000,-0.100000)"
fill="#000000" stroke="none">
<path d="M2290 1570 l0 -60 70 0 70 0 0 -278 0 -279 -39 38 c-102 96 -320 116
-471 42 -105 -51 -188 -162 -221 -293 -20 -79 -17 -241 5 -315 48 -161 132
-251 274 -295 83 -26 191 -26 271 -1 62 19 154 79 172 112 17 33 26 21 35 -49
l9 -67 128 -3 127 -3 0 61 0 60 -70 0 -70 0 0 695 0 695 -145 0 -145 0 0 -60z
m12 -648 c25 -11 64 -37 87 -57 l41 -37 0 -218 0 -218 -32 -43 c-18 -23 -58
-56 -88 -73 -52 -29 -61 -31 -160 -31 -95 0 -110 3 -156 27 -96 50 -154 145
-169 274 -8 74 8 171 40 234 28 54 101 125 153 147 83 34 200 33 284 -5z"/>
<path d="M5420 1575 l0 -55 65 0 65 0 0 -695 0 -695 59 0 60 0 6 48 c12 89 11
88 71 33 70 -65 143 -92 256 -99 274 -15 451 173 452 478 1 254 -128 434 -342
479 -135 28 -283 -5 -369 -82 l-38 -35 3 339 4 339 -146 0 -146 0 0 -55z m701
-650 c100 -51 160 -140 179 -261 29 -184 -51 -349 -196 -404 -124 -46 -290 -9
-369 82 l-35 42 0 222 0 222 41 37 c23 20 62 46 88 58 85 38 220 38 292 2z"/>
<path d="M8740 1570 l0 -60 70 0 70 0 0 -630 0 -630 -70 0 -70 0 0 -65 0 -65
215 0 215 0 0 65 0 65 -70 0 -71 0 3 153 3 152 110 0 109 0 170 -218 169 -217
113 0 114 0 0 60 0 60 -72 0 -73 1 -147 185 -147 186 67 82 c37 45 99 120 137
168 l70 87 73 0 72 1 0 55 0 55 -210 0 -210 0 0 -55 0 -55 56 0 c31 0 54 -4
52 -8 -1 -5 -50 -68 -108 -140 l-105 -131 -122 0 -123 -1 0 480 0 480 -145 0
-145 0 0 -60z"/>
<path d="M7464 1436 c-29 -29 -34 -41 -34 -81 0 -40 5 -52 34 -81 27 -27 42
-34 73 -34 46 0 100 31 113 66 20 52 12 94 -24 130 -29 29 -41 34 -81 34 -40
0 -52 -5 -81 -34z"/>
<path d="M370 1262 l-345 -178 -3 -120 -3 -119 98 -48 c167 -83 164 -69 27
-142 l-119 -62 -3 -119 -2 -119 334 -173 c229 -118 343 -172 365 -172 22 0
138 54 367 173 l334 172 -2 120 -3 120 -117 60 c-65 33 -118 62 -118 65 0 3
54 32 120 65 l121 60 -3 119 -3 119 -344 179 c-189 98 -346 178 -350 178 -3 0
-161 -80 -351 -178z"/>
<path d="M3926 1293 c-2 -16 -7 -55 -11 -88 -3 -33 -8 -77 -11 -97 l-6 -38
-69 0 -69 0 0 -60 0 -60 69 0 69 0 4 -312 c4 -336 6 -346 60 -425 19 -28 46
-50 85 -70 50 -24 70 -28 143 -28 47 1 109 7 138 14 l52 13 0 60 c0 58 -1 60
-22 54 -13 -4 -61 -9 -108 -12 -74 -5 -89 -3 -118 16 -19 11 -42 39 -52 63
-18 38 -20 68 -20 335 l0 292 150 0 150 0 0 60 0 60 -150 0 -150 0 0 125 0
125 -64 0 c-62 0 -65 -1 -70 -27z"/>
<path d="M3094 1066 c-156 -36 -242 -122 -259 -259 l-7 -57 71 0 71 0 0 29 c0
100 82 168 214 178 138 11 247 -34 278 -113 9 -22 19 -73 23 -115 l7 -76 -193
-6 c-202 -5 -268 -16 -352 -58 -91 -46 -131 -109 -131 -209 0 -187 190 -304
417 -257 103 21 161 50 220 110 26 27 51 47 54 44 3 -3 7 -28 10 -54 9 -100
-1 -93 123 -93 l110 0 0 60 0 60 -54 0 -54 0 -4 283 c-4 262 -6 286 -26 337
-36 89 -98 146 -198 181 -77 27 -235 34 -320 15z m386 -601 c0 -74 -1 -76 -41
-120 -24 -26 -70 -59 -108 -78 -60 -29 -74 -32 -161 -32 -121 0 -164 19 -198
88 -27 52 -24 89 10 132 48 61 137 83 346 84 l152 1 0 -75z"/>
<path d="M4760 1067 c-161 -37 -260 -141 -260 -274 l0 -43 70 0 70 0 0 29 c0
65 36 117 105 154 33 18 57 22 145 22 90 0 112 -3 153 -24 75 -37 101 -84 105
-191 l4 -87 -189 -6 c-128 -3 -207 -10 -248 -21 -161 -44 -230 -118 -229 -246
1 -189 192 -305 423 -256 98 21 156 50 212 107 l46 48 9 -72 9 -72 113 -3 112
-3 0 61 0 60 -55 0 -55 0 0 263 c0 290 -8 350 -58 422 -34 49 -107 100 -175
121 -69 21 -237 27 -307 11z m390 -602 c0 -74 -1 -76 -41 -120 -24 -26 -70
-59 -108 -78 -61 -30 -73 -32 -166 -32 -87 0 -105 3 -136 23 -100 62 -99 178
2 237 54 31 133 43 297 44 l152 1 0 -75z"/>
<path d="M6992 1061 c-79 -27 -121 -67 -167 -156 l-40 -78 -9 116 -9 117 -129
0 -129 0 3 -57 3 -58 68 -3 67 -3 0 -349 0 -350 -70 0 -71 0 3 -57 3 -58 223
-3 222 -2 0 59 0 60 -77 3 -78 3 -3 200 c-3 231 10 297 75 382 71 93 123 117
237 111 l76 -3 0 66 c0 61 -2 67 -22 73 -43 11 -123 5 -176 -13z"/>
<path d="M8143 1066 c-176 -41 -280 -148 -317 -329 -52 -248 36 -482 214 -572
178 -90 448 -69 604 47 18 14 17 16 -8 66 -15 29 -28 52 -31 52 -2 0 -20 -11
-40 -24 -67 -46 -130 -61 -255 -61 -106 0 -120 2 -172 28 -65 32 -121 89 -152
156 -18 40 -21 64 -21 176 0 114 3 136 23 181 29 63 82 116 147 146 71 32 231
33 291 1 77 -41 124 -122 124 -213 0 -18 7 -20 66 -20 l67 0 -5 68 c-10 137
-86 239 -211 282 -81 28 -237 35 -324 16z"/>
<path d="M10137 1069 c-85 -20 -165 -77 -200 -143 -33 -62 -30 -167 5 -227 48
-82 107 -111 328 -161 197 -44 245 -71 257 -142 12 -76 -32 -125 -138 -152
-172 -44 -343 23 -356 140 l-6 46 -68 0 -69 0 0 -44 c0 -83 40 -157 108 -200
68 -42 131 -58 257 -63 180 -8 292 24 369 103 91 94 78 269 -26 345 -57 41
-127 64 -294 98 -167 34 -215 58 -234 116 -22 65 15 127 95 161 63 26 203 22
263 -8 60 -29 92 -77 92 -134 l0 -44 66 0 66 0 -3 78 c-3 65 -9 86 -31 120
-55 82 -167 123 -338 121 -58 -1 -122 -5 -143 -10z"/>
<path d="M7340 1000 l0 -60 65 0 65 0 0 -345 0 -345 -65 0 -65 0 0 -60 0 -60
210 0 210 0 0 60 0 60 -65 0 -65 0 0 405 0 405 -145 0 -145 0 0 -60z"/>
</g>
</svg>
