<svg id="SvgjsSvg1022" width="288" height="288" xmlns="http://www.w3.org/2000/svg" version="1.1" xmlns:xlink="http://www.w3.org/1999/xlink" xmlns:svgjs="http://svgjs.com/svgjs"><defs id="SvgjsDefs1023"></defs><g id="SvgjsG1024"><svg xmlns="http://www.w3.org/2000/svg" width="288" height="288" viewBox="0 0 400 400"><path fill="#f5f5f5" fill-rule="evenodd" d="M302.600 35.577 C 297.095 36.484,295.578 38.480,295.691 44.670 C 295.769 48.903,295.172 50.506,292.945 52.038 C 291.011 53.369,290.400 54.471,290.400 56.632 C 290.400 57.431,289.887 58.922,289.180 60.173 C 288.184 61.938,287.869 63.138,287.461 66.713 C 287.038 70.424,286.804 71.280,285.926 72.323 C 284.840 73.614,284.000 77.119,284.000 80.359 C 284.000 82.249,283.559 83.309,282.140 84.833 C 281.400 85.628,281.056 86.690,280.644 89.448 C 280.117 92.972,279.567 94.422,278.005 96.400 C 277.523 97.011,277.117 98.334,276.961 99.800 C 276.765 101.655,276.341 102.772,275.095 104.718 C 271.187 110.821,270.259 119.376,273.418 120.169 C 274.880 120.536,275.353 121.744,274.602 123.196 C 273.863 124.624,273.974 124.607,272.000 123.600 C 270.000 122.580,270.179 122.533,269.005 124.392 C 267.859 126.207,267.635 129.689,268.482 132.515 L 268.964 134.124 267.246 135.648 C 265.802 136.929,265.327 137.763,264.264 140.886 C 263.568 142.929,262.686 145.041,262.305 145.581 C 261.923 146.120,261.226 147.740,260.755 149.181 C 260.284 150.621,259.498 152.340,259.008 153.000 C 258.518 153.660,257.988 155.100,257.830 156.200 C 256.874 162.846,256.334 163.120,243.548 163.447 C 237.108 163.611,232.345 163.910,231.318 164.214 C 229.624 164.714,227.761 163.954,226.776 162.361 C 225.882 160.915,218.900 160.439,215.600 161.600 C 212.997 162.516,210.220 162.612,208.349 161.852 C 206.658 161.165,198.626 160.738,196.551 161.225 C 191.676 162.369,190.057 162.445,188.415 161.608 C 186.381 160.570,185.900 160.590,184.083 161.793 C 183.257 162.339,181.253 163.238,179.628 163.790 C 178.004 164.343,176.034 165.173,175.252 165.634 L 173.829 166.474 171.822 164.370 C 168.783 161.183,165.141 160.449,162.300 162.450 C 161.695 162.876,160.388 163.376,159.397 163.561 C 158.405 163.746,156.879 164.371,156.005 164.949 C 153.553 166.572,150.935 165.811,148.791 162.852 C 147.384 160.909,146.650 160.540,143.510 160.196 C 139.674 159.776,138.949 158.483,138.834 151.861 C 138.803 150.066,138.656 149.793,136.863 148.181 C 135.509 146.963,134.668 145.764,134.067 144.195 L 133.209 141.951 134.004 140.392 C 135.341 137.772,134.250 134.592,130.914 131.385 C 128.795 129.347,128.000 127.466,128.000 124.485 C 128.000 120.582,127.078 118.229,124.982 116.787 C 121.856 114.637,120.865 111.537,122.122 107.846 L 122.747 106.014 121.180 103.163 C 120.219 101.416,118.411 99.100,116.506 97.179 L 113.400 94.046 113.368 91.723 C 113.327 88.735,112.001 85.140,110.205 83.153 C 108.576 81.350,108.334 79.111,109.421 75.919 C 110.294 73.359,108.804 68.585,106.236 65.715 C 103.814 63.007,103.630 62.527,103.175 57.731 C 102.952 55.374,102.612 53.255,102.419 53.022 C 102.226 52.790,101.327 50.890,100.421 48.800 C 98.579 44.551,96.349 41.923,92.251 39.172 C 87.498 35.982,84.260 36.884,80.498 42.448 C 79.782 43.507,78.837 44.566,78.398 44.801 C 76.943 45.580,74.127 52.364,73.252 57.200 C 72.738 60.040,71.934 61.864,70.435 63.586 C 69.772 64.348,68.765 66.223,68.199 67.751 C 67.632 69.279,66.663 71.106,66.045 71.810 C 65.001 72.999,64.905 73.400,64.700 77.408 C 64.498 81.375,64.362 81.951,63.036 84.491 C 61.198 88.008,60.860 89.449,60.410 95.687 C 60.050 100.663,59.781 101.762,58.646 102.897 C 58.338 103.205,57.626 104.364,57.065 105.472 C 56.503 106.581,55.404 108.008,54.623 108.644 C 53.267 109.748,53.168 110.004,52.439 114.323 C 51.874 117.671,51.401 119.262,50.615 120.449 C 49.612 121.964,49.579 122.170,50.002 124.207 C 50.949 128.772,48.733 137.577,45.926 140.398 C 44.867 141.463,44.000 142.528,44.000 142.766 C 44.000 143.003,43.378 143.887,42.617 144.729 C 41.026 146.489,40.641 147.376,39.747 151.333 C 39.390 152.910,38.516 155.370,37.804 156.800 C 36.630 159.157,34.858 164.815,34.171 168.400 C 34.023 169.170,33.539 170.518,33.095 171.395 C 32.650 172.272,31.982 174.999,31.608 177.454 C 31.055 181.094,30.702 182.262,29.696 183.780 C 29.018 184.804,28.349 186.397,28.210 187.321 C 27.696 190.735,27.498 191.289,26.305 192.647 C 24.969 194.169,24.017 197.398,24.006 200.444 C 24.001 202.039,23.771 202.548,22.300 204.219 L 20.600 206.150 20.600 210.496 L 20.600 214.842 18.866 216.283 L 17.131 217.723 17.396 220.562 C 17.564 222.370,17.940 223.793,18.430 224.484 C 19.434 225.897,19.571 225.692,16.614 227.193 C 12.552 229.254,12.617 229.112,12.502 236.226 C 12.348 245.765,13.716 248.000,19.711 248.000 C 22.737 248.000,23.377 248.382,24.583 250.910 C 26.023 253.928,28.835 255.600,32.468 255.600 C 34.365 255.600,35.387 256.843,36.024 259.924 C 36.879 264.058,41.250 267.476,45.800 267.570 C 50.771 267.672,52.886 268.918,55.859 273.497 C 56.632 274.687,57.865 275.949,58.711 276.414 C 62.731 278.625,66.216 282.046,67.952 285.487 C 68.986 287.537,69.488 287.817,72.767 288.175 C 74.179 288.329,76.159 288.725,77.167 289.055 C 81.962 290.625,82.417 290.886,83.453 292.655 C 84.012 293.608,85.218 294.975,86.134 295.693 C 87.050 296.412,88.239 297.517,88.776 298.148 C 90.234 299.862,93.212 299.500,95.893 297.281 C 96.942 296.414,98.364 295.599,99.053 295.471 C 99.743 295.343,100.753 295.127,101.298 294.990 C 102.176 294.769,102.368 294.938,102.978 296.462 L 103.667 298.184 102.534 299.110 C 99.285 301.765,99.485 301.414,99.794 303.910 C 100.124 306.577,100.388 306.974,102.573 308.086 C 103.468 308.542,104.945 309.563,105.856 310.357 C 106.766 311.151,109.073 312.610,110.983 313.600 C 114.494 315.420,117.900 318.616,119.796 321.869 C 120.203 322.566,120.910 323.320,121.368 323.543 C 123.698 324.678,126.081 325.534,128.685 326.172 C 131.508 326.864,133.600 328.240,133.600 329.406 C 133.600 329.679,133.900 330.149,134.266 330.451 C 134.633 330.753,135.532 331.936,136.266 333.080 C 137.588 335.143,137.620 335.162,140.100 335.437 C 142.822 335.739,145.769 338.174,147.589 341.627 C 148.719 343.769,150.139 344.394,158.510 346.435 C 160.260 346.861,162.000 348.269,162.000 349.258 C 162.000 349.854,165.327 354.566,166.187 355.189 C 166.634 355.513,167.722 356.440,168.603 357.251 C 169.795 358.346,170.771 358.830,172.403 359.139 C 176.931 359.994,178.641 361.091,183.879 366.500 C 184.891 367.545,185.937 368.400,186.204 368.400 C 186.470 368.400,187.351 368.850,188.162 369.400 C 189.260 370.145,190.158 370.400,191.686 370.400 C 193.689 370.400,197.140 371.487,200.600 373.207 C 204.123 374.958,209.479 373.887,211.495 371.029 C 212.189 370.044,213.481 368.869,214.367 368.417 C 215.253 367.965,216.572 367.073,217.299 366.435 C 218.026 365.797,219.567 364.965,220.725 364.587 C 222.265 364.083,223.201 363.446,224.210 362.214 C 225.102 361.126,226.139 360.365,227.141 360.065 C 229.595 359.330,230.813 358.080,232.444 354.622 C 234.807 349.612,235.977 348.644,240.266 348.142 C 242.991 347.823,246.845 344.612,248.430 341.339 C 248.896 340.375,249.636 339.395,250.074 339.160 C 250.512 338.926,251.558 338.113,252.398 337.354 L 253.926 335.974 255.767 336.869 L 257.608 337.763 259.904 336.624 C 261.167 335.997,262.941 334.745,263.846 333.842 C 264.751 332.939,267.350 330.490,269.621 328.400 C 271.892 326.310,274.698 323.648,275.857 322.483 C 277.729 320.601,278.198 320.339,280.081 320.116 C 281.939 319.897,282.425 319.632,284.027 317.971 C 285.211 316.743,286.460 315.894,287.574 315.561 C 289.452 314.998,291.110 313.543,292.740 311.026 C 294.002 309.077,294.109 308.992,296.400 308.132 C 297.390 307.760,299.047 306.678,300.083 305.728 C 301.118 304.778,302.157 304.000,302.392 304.000 C 302.626 304.000,303.587 303.291,304.528 302.424 C 305.813 301.239,306.961 300.647,309.156 300.039 C 310.761 299.594,312.642 298.864,313.337 298.416 C 314.032 297.969,315.554 297.134,316.720 296.563 C 318.032 295.919,319.210 294.967,319.811 294.062 C 320.346 293.258,321.403 292.108,322.161 291.507 C 323.179 290.700,323.714 289.813,324.208 288.113 C 325.308 284.331,325.751 283.745,328.092 282.985 C 329.252 282.608,330.560 281.985,331.000 281.600 C 331.440 281.215,332.732 280.598,333.871 280.228 C 336.289 279.442,338.040 278.210,341.543 274.828 C 342.941 273.478,344.741 272.038,345.543 271.629 C 346.344 271.220,347.360 270.485,347.800 269.996 C 348.240 269.507,349.542 268.689,350.694 268.178 C 351.990 267.603,353.896 266.161,355.694 264.396 C 359.121 261.030,360.579 260.203,363.767 259.814 C 365.795 259.567,366.311 259.325,367.367 258.125 C 368.045 257.354,369.266 256.382,370.080 255.964 C 370.893 255.546,371.883 254.733,372.280 254.157 C 374.037 251.603,376.340 249.440,378.420 248.390 C 384.039 245.553,385.381 241.923,382.816 236.499 C 381.697 234.132,381.693 234.104,382.426 232.946 C 384.370 229.876,384.099 222.323,382.004 221.202 C 380.895 220.608,379.339 217.703,379.036 215.658 C 378.893 214.701,378.345 213.350,377.816 212.657 C 376.403 210.805,376.053 209.610,375.643 205.249 C 375.366 202.310,375.005 200.789,374.214 199.227 C 373.631 198.077,372.786 195.936,372.336 194.468 C 371.704 192.407,371.131 191.436,369.817 190.200 C 367.316 187.847,366.775 186.592,367.291 184.338 C 367.864 181.837,367.474 180.641,365.408 178.544 C 363.022 176.124,362.570 174.652,363.419 172.059 C 364.297 169.374,363.709 166.363,361.952 164.551 C 360.610 163.166,360.192 161.760,359.780 157.239 C 359.388 152.947,355.986 148.400,353.166 148.400 C 351.581 148.400,351.310 147.803,350.805 143.198 C 350.355 139.096,349.515 134.650,347.973 128.200 C 347.218 125.043,346.328 123.695,344.219 122.515 C 343.636 122.188,343.611 121.909,344.022 120.280 C 344.404 118.760,344.375 117.920,343.863 115.709 C 343.518 114.219,343.121 112.370,342.980 111.600 C 342.840 110.830,342.302 109.570,341.784 108.800 C 340.374 106.700,338.800 101.953,338.800 99.799 C 338.800 98.576,338.506 97.419,337.978 96.564 C 337.526 95.833,336.738 93.714,336.227 91.856 C 335.715 89.998,334.649 87.425,333.858 86.139 C 333.066 84.853,332.071 82.810,331.647 81.600 C 331.222 80.390,330.598 78.661,330.259 77.758 C 329.921 76.855,329.520 74.749,329.369 73.077 C 329.048 69.537,328.671 69.044,324.887 67.211 C 322.376 65.994,322.407 66.037,321.795 63.030 C 321.709 62.607,321.971 61.257,322.378 60.030 C 322.785 58.804,323.240 56.883,323.388 55.762 L 323.658 53.723 321.715 52.097 C 320.647 51.202,319.537 50.030,319.249 49.491 C 318.961 48.953,318.067 48.203,317.262 47.825 C 316.458 47.447,315.398 46.879,314.906 46.563 L 314.011 45.989 314.839 45.161 C 316.904 43.096,317.112 38.242,315.197 36.797 C 313.640 35.623,306.510 34.932,302.600 35.577 M312.000 46.000 C 311.212 46.509,309.600 46.509,309.600 46.000 C 309.600 45.780,310.275 45.603,311.100 45.606 C 312.216 45.611,312.446 45.712,312.000 46.000 M79.978 69.578 C 81.049 70.256,80.549 73.996,79.205 75.361 C 77.095 77.505,74.567 75.477,75.275 72.208 C 75.817 69.703,78.130 68.409,79.978 69.578 M315.326 77.254 C 315.807 77.504,316.252 77.751,316.315 77.803 C 316.485 77.942,313.411 82.358,311.928 84.105 L 310.651 85.611 311.184 87.705 C 312.073 91.200,312.844 92.450,314.560 93.179 L 316.120 93.843 316.034 99.691 C 315.943 105.915,316.171 106.946,318.003 108.601 C 320.518 110.873,321.946 115.847,321.207 119.763 L 320.734 122.270 322.594 125.635 C 324.716 129.475,325.677 130.632,327.026 130.971 C 328.516 131.345,328.933 132.655,329.126 137.558 C 329.287 141.654,329.417 142.303,330.412 143.958 C 331.021 144.971,331.887 146.970,332.337 148.400 C 332.788 149.830,333.706 152.718,334.378 154.818 C 335.050 156.917,335.601 158.897,335.602 159.218 C 335.604 159.538,335.878 160.323,336.212 160.963 C 337.700 163.817,332.762 165.259,328.009 163.357 C 325.854 162.494,322.751 162.840,319.841 164.268 C 317.209 165.558,315.695 165.169,314.212 162.819 C 312.182 159.604,307.442 159.240,303.303 161.981 C 302.291 162.651,301.089 163.201,300.631 163.202 C 299.143 163.206,296.927 163.989,295.347 165.070 C 293.721 166.182,287.581 167.845,283.538 168.269 C 280.178 168.621,279.606 167.235,280.259 160.322 C 280.492 157.847,280.644 157.508,282.256 155.849 C 283.745 154.317,284.000 153.813,284.000 152.398 C 284.000 151.487,284.431 149.449,284.959 147.871 C 286.976 141.828,286.976 141.085,284.952 138.769 C 284.329 138.055,285.098 135.107,286.405 133.200 C 286.782 132.650,287.485 131.300,287.966 130.200 C 288.447 129.100,289.369 127.654,290.015 126.987 C 291.144 125.820,291.928 123.432,292.598 119.121 C 292.730 118.273,293.420 116.934,294.214 115.983 C 295.408 114.554,295.600 114.034,295.600 112.229 C 295.600 108.556,296.353 105.864,297.830 104.251 C 299.213 102.741,299.747 101.281,300.195 97.780 C 300.337 96.669,300.887 95.049,301.418 94.180 C 303.359 91.003,303.692 89.861,303.908 85.653 C 304.177 80.378,304.481 79.981,309.619 78.192 C 313.977 76.675,314.156 76.646,315.326 77.254 M91.013 84.954 C 91.448 85.258,92.501 86.520,93.353 87.758 L 94.903 90.008 93.852 91.526 C 91.460 94.977,92.738 97.571,99.713 103.428 C 100.333 103.948,100.397 104.483,100.197 107.513 C 99.912 111.835,100.521 113.360,103.394 115.524 C 106.009 117.492,106.387 118.348,106.394 122.314 C 106.399 125.256,106.966 128.520,108.443 134.121 C 108.664 134.958,109.727 136.943,110.806 138.533 C 112.920 141.648,114.387 145.614,114.395 148.235 C 114.400 149.838,115.682 152.085,118.672 155.731 C 122.331 160.190,114.533 164.176,107.600 161.391 C 104.680 160.218,98.696 160.351,94.200 161.689 C 92.220 162.278,89.471 162.973,88.092 163.233 L 85.584 163.707 82.261 162.054 C 78.289 160.077,74.995 159.825,71.012 161.196 C 64.105 163.572,61.443 163.247,59.638 159.808 L 58.675 157.975 59.956 156.287 C 63.024 152.246,63.537 151.203,63.803 148.466 C 64.157 144.819,64.589 143.602,66.316 141.386 C 67.710 139.598,67.803 139.299,67.854 136.472 L 67.907 133.462 69.854 131.774 L 71.800 130.087 71.908 124.543 C 72.041 117.700,72.053 117.650,73.964 115.442 C 75.021 114.221,75.612 113.087,75.801 111.920 C 76.187 109.537,77.362 106.976,78.847 105.286 C 79.536 104.501,80.355 103.215,80.667 102.429 C 80.978 101.643,81.605 100.312,82.059 99.471 L 82.884 97.942 81.663 95.979 L 80.443 94.016 81.122 92.034 C 82.493 88.027,88.877 83.458,91.013 84.954 M339.678 120.675 C 341.094 122.031,341.085 122.142,339.452 123.387 C 337.184 125.117,335.333 123.304,336.878 120.865 C 337.854 119.322,338.239 119.296,339.678 120.675 M350.400 150.080 C 350.400 150.726,350.282 150.842,349.955 150.515 C 349.710 150.270,349.631 149.874,349.778 149.635 C 350.192 148.965,350.400 149.114,350.400 150.080 M110.545 173.400 C 111.130 174.925,109.997 175.626,108.624 174.587 C 107.855 174.006,107.855 173.994,108.624 173.413 C 109.626 172.654,110.257 172.650,110.545 173.400 M123.558 177.645 C 125.046 178.164,124.996 178.837,123.428 179.391 C 122.205 179.823,121.048 178.860,121.470 177.761 C 121.730 177.084,121.918 177.074,123.558 177.645 M128.153 185.444 C 128.679 186.570,129.747 187.976,130.533 188.576 C 132.465 190.050,132.946 191.752,132.990 197.275 L 133.027 201.951 134.517 203.398 C 135.336 204.194,136.364 205.544,136.800 206.399 C 137.236 207.254,138.013 208.573,138.527 209.330 C 139.041 210.088,139.773 211.763,140.154 213.054 C 140.536 214.344,141.098 215.972,141.404 216.672 C 141.809 217.597,141.857 218.305,141.580 219.269 C 140.865 221.763,141.108 225.947,142.044 227.261 C 142.508 227.913,143.215 229.528,143.615 230.850 C 144.969 235.320,145.560 235.767,147.991 234.159 C 150.642 232.404,153.826 233.014,156.204 235.733 C 158.482 238.337,158.547 238.129,154.900 239.935 L 151.800 241.470 151.887 244.130 C 151.939 245.695,152.254 247.328,152.654 248.095 C 153.608 249.929,154.353 253.781,154.107 255.613 C 153.718 258.514,155.080 262.225,157.489 264.826 C 159.691 267.205,160.532 269.046,160.995 272.499 C 161.286 274.675,161.934 275.200,164.327 275.200 C 166.197 275.200,166.386 275.607,166.395 279.648 C 166.398 281.105,166.855 284.255,167.411 286.648 C 167.968 289.042,168.524 292.620,168.647 294.600 L 168.871 298.200 167.406 299.123 C 164.640 300.866,163.840 300.109,163.600 295.519 C 163.422 292.124,163.274 291.530,162.264 290.151 C 161.640 289.298,160.589 287.745,159.930 286.700 C 159.271 285.655,158.522 284.777,158.266 284.749 C 158.010 284.720,156.003 284.675,153.807 284.649 L 149.814 284.600 149.594 283.400 C 149.464 282.693,149.678 281.388,150.114 280.224 L 150.854 278.249 149.784 276.024 C 149.196 274.801,148.509 273.365,148.257 272.833 C 147.467 271.164,145.678 269.690,143.603 269.001 C 142.144 268.517,141.202 267.849,140.129 266.540 C 139.320 265.552,138.002 264.409,137.201 264.001 C 134.927 262.840,133.004 260.417,132.026 257.477 C 130.884 254.047,130.127 253.146,127.322 251.884 C 124.390 250.564,121.173 247.334,119.808 244.340 C 116.962 238.097,111.738 235.100,107.382 237.209 C 104.552 238.579,103.300 236.002,104.894 232.092 L 105.754 229.984 104.875 227.492 C 104.326 225.934,103.593 224.700,102.922 224.200 C 102.331 223.760,101.004 222.545,99.973 221.500 C 98.943 220.455,97.903 219.600,97.663 219.600 C 97.423 219.600,96.566 218.939,95.758 218.132 C 94.629 217.003,93.824 216.590,92.277 216.345 C 89.826 215.957,89.614 215.656,89.606 212.548 C 89.600 209.917,87.933 206.376,85.865 204.600 C 85.353 204.160,84.423 203.113,83.799 202.274 C 83.175 201.434,82.019 200.418,81.230 200.015 C 80.440 199.612,78.856 198.229,77.708 196.941 C 74.993 193.894,74.028 192.912,70.300 189.406 C 66.889 186.197,66.788 185.976,68.116 184.648 C 69.325 183.439,75.578 183.007,82.544 183.652 C 85.215 183.899,89.852 184.000,92.850 183.875 C 96.979 183.703,98.764 183.788,100.214 184.224 C 102.641 184.955,104.815 184.947,107.600 184.200 C 110.621 183.389,112.787 183.452,115.709 184.437 C 119.151 185.596,125.560 183.501,125.592 181.206 C 125.601 180.531,126.746 182.426,128.153 185.444 M156.379 183.985 C 158.537 185.522,161.608 186.019,163.366 185.116 C 165.999 183.766,173.400 182.639,176.246 183.156 C 179.488 183.744,181.352 183.710,183.973 183.012 C 185.946 182.487,186.513 182.505,190.116 183.203 C 193.353 183.831,194.457 183.894,196.092 183.543 C 197.194 183.306,199.290 183.226,200.748 183.365 C 206.828 183.943,214.203 184.082,216.168 183.657 C 217.909 183.280,218.747 183.348,222.018 184.132 C 224.870 184.816,226.136 184.952,227.018 184.672 C 228.190 184.299,237.931 183.584,243.492 183.463 C 248.924 183.345,250.248 187.863,246.400 193.390 C 245.783 194.275,245.162 195.720,245.020 196.600 C 244.509 199.756,243.564 201.971,242.364 202.826 C 240.726 203.992,240.001 205.602,239.996 208.080 C 239.993 209.529,239.662 210.897,238.950 212.400 C 237.717 215.001,236.811 218.126,236.804 219.800 C 236.802 220.460,236.263 222.133,235.608 223.519 C 234.499 225.862,234.447 226.178,234.851 228.063 C 235.235 229.854,235.195 230.210,234.508 231.144 C 233.391 232.661,230.936 238.333,230.623 240.120 C 230.476 240.956,229.916 242.468,229.378 243.480 C 228.840 244.491,228.399 245.517,228.398 245.760 C 228.391 247.170,227.367 249.420,226.031 250.964 C 224.685 252.520,222.800 257.065,222.800 258.756 C 222.800 258.994,222.170 261.071,221.400 263.372 C 220.630 265.674,219.998 268.062,219.996 268.678 C 219.992 269.791,218.730 272.657,217.194 275.042 C 216.754 275.725,216.211 277.345,215.987 278.642 C 215.320 282.494,215.262 282.650,213.851 284.339 C 212.787 285.613,212.440 286.455,212.231 288.280 C 211.722 292.725,211.099 294.985,209.555 297.983 C 208.011 300.982,208.002 301.028,208.001 305.686 C 208.000 310.281,207.978 310.398,206.845 311.687 C 206.210 312.410,205.025 314.138,204.211 315.527 C 202.204 318.951,201.961 318.974,199.209 316.010 C 197.007 313.638,196.877 313.382,196.681 311.054 C 196.373 307.387,195.332 303.249,194.151 301.000 C 190.367 293.794,189.092 291.075,188.335 288.600 C 187.864 287.060,186.967 285.050,186.343 284.133 C 184.722 281.754,184.000 278.524,184.000 273.652 L 184.000 269.473 182.163 267.786 C 180.492 266.252,180.276 265.838,179.775 263.207 C 179.472 261.616,178.860 259.749,178.415 259.057 C 176.883 256.677,176.288 254.993,175.990 252.200 C 175.618 248.716,175.508 248.439,173.118 244.984 L 171.170 242.167 171.560 238.016 C 172.005 233.296,171.853 232.848,169.339 231.438 C 166.714 229.966,165.341 227.037,164.402 220.910 C 163.426 214.543,163.466 214.657,161.377 212.309 C 159.950 210.706,159.654 210.068,159.427 208.109 C 158.742 202.196,158.657 201.821,157.829 201.020 C 155.786 199.043,153.457 197.200,153.002 197.200 C 151.077 197.200,149.923 194.699,149.194 188.950 C 148.744 185.406,148.961 184.905,151.700 183.140 C 152.745 182.467,153.601 181.620,153.601 181.258 C 153.602 180.852,153.894 181.076,154.362 181.845 C 154.779 182.529,155.687 183.492,156.379 183.985 M286.215 183.810 C 289.805 184.268,292.798 184.355,298.200 184.159 C 304.374 183.935,305.753 183.998,307.878 184.595 C 310.554 185.349,313.199 185.301,319.052 184.393 C 322.588 183.845,323.807 183.992,325.221 185.136 L 326.142 185.883 325.030 189.841 C 323.818 194.157,323.013 195.330,320.094 197.041 C 319.142 197.599,317.426 198.990,316.281 200.132 C 315.137 201.274,313.163 203.168,311.895 204.340 C 310.489 205.642,309.272 207.215,308.772 208.376 C 308.218 209.665,307.390 210.676,306.204 211.512 C 305.242 212.190,304.139 213.253,303.754 213.873 C 303.369 214.493,302.647 215.450,302.150 216.000 C 301.652 216.550,300.829 218.170,300.320 219.600 C 299.405 222.175,299.366 222.216,296.398 223.800 C 293.611 225.288,293.302 225.586,292.000 228.054 C 291.230 229.514,289.880 231.430,289.000 232.310 C 285.785 235.529,284.884 236.640,283.883 238.625 C 282.814 240.746,280.828 242.779,278.307 244.335 C 276.641 245.364,275.854 247.307,275.369 251.592 C 275.055 254.372,274.671 254.791,271.400 255.940 C 270.007 256.429,268.751 257.164,268.406 257.691 C 268.079 258.191,267.062 259.320,266.145 260.200 C 264.651 261.634,264.452 262.050,264.230 264.200 C 264.094 265.520,263.505 268.272,262.921 270.315 L 261.858 274.031 259.106 275.477 C 257.227 276.465,255.992 277.443,255.213 278.562 C 254.586 279.463,252.841 281.505,251.336 283.099 C 249.831 284.693,247.430 287.266,246.000 288.817 C 244.570 290.367,242.895 291.942,242.278 292.317 C 241.661 292.692,240.624 293.827,239.974 294.840 C 238.410 297.278,234.253 299.625,233.260 298.631 C 232.695 298.066,232.754 297.885,233.894 296.704 C 235.106 295.447,235.168 295.212,235.616 290.200 C 236.097 284.804,236.579 283.021,237.919 281.681 C 238.353 281.247,239.101 279.836,239.580 278.546 C 240.060 277.256,240.775 275.648,241.170 274.972 C 242.410 272.852,243.246 269.744,243.149 267.618 C 243.059 265.648,243.132 265.493,245.097 263.486 C 246.585 261.966,247.321 260.803,247.812 259.200 C 248.182 257.990,248.744 256.279,249.059 255.398 C 249.930 252.970,249.038 250.776,246.100 248.121 L 243.800 246.042 246.800 243.328 C 252.852 237.852,255.065 235.065,255.395 232.501 C 255.867 228.834,256.452 226.980,257.867 224.664 C 259.277 222.354,259.289 222.301,258.834 220.064 C 257.791 214.929,259.647 208.831,263.797 203.758 C 265.146 202.109,266.034 198.603,265.737 196.096 C 265.556 194.572,265.669 193.866,266.232 193.008 C 266.632 192.396,267.509 190.526,268.180 188.853 C 269.844 184.702,271.221 183.896,277.200 183.573 C 279.510 183.449,281.407 183.314,281.415 183.273 C 281.424 183.233,283.584 183.475,286.215 183.810 M347.836 196.709 C 349.417 198.016,351.649 203.679,352.208 207.800 C 352.555 210.361,352.938 211.044,354.472 211.837 C 355.839 212.544,357.461 214.188,359.051 216.476 L 360.076 217.952 358.981 219.963 L 357.887 221.974 359.392 224.887 C 360.220 226.489,361.317 228.237,361.830 228.772 L 362.763 229.744 361.481 231.206 C 360.777 232.010,359.898 233.230,359.529 233.917 C 359.154 234.613,358.250 235.419,357.484 235.739 C 355.658 236.502,352.576 239.764,351.569 242.000 C 349.707 246.132,350.374 245.659,343.680 247.599 C 340.932 248.396,340.543 248.661,337.093 252.085 C 334.632 254.527,332.721 256.047,331.284 256.705 C 330.106 257.244,329.043 257.943,328.923 258.257 C 328.541 259.252,326.518 260.000,324.208 260.000 C 321.827 260.000,321.769 260.038,316.907 264.909 C 316.298 265.520,315.170 266.638,314.400 267.395 C 312.333 269.428,312.096 269.679,310.897 271.098 C 310.231 271.886,307.992 273.311,305.200 274.722 C 301.103 276.794,300.491 277.242,299.600 278.824 C 298.294 281.143,295.610 284.800,295.214 284.800 C 295.043 284.800,293.593 286.142,291.991 287.783 C 290.091 289.728,288.139 291.259,286.378 292.184 C 284.576 293.131,283.413 294.050,282.884 294.948 C 282.109 296.260,282.016 296.296,278.945 296.475 C 275.202 296.693,273.563 297.382,273.159 298.905 C 272.998 299.513,272.492 300.785,272.033 301.731 C 271.575 302.678,271.200 303.811,271.200 304.250 C 271.200 305.048,270.182 306.774,269.933 306.399 C 269.860 306.290,269.527 305.660,269.194 305.000 C 268.861 304.340,267.916 303.470,267.094 303.067 C 265.456 302.264,265.002 300.017,266.106 298.176 C 268.023 294.981,269.194 293.297,270.500 291.858 C 271.325 290.948,272.000 290.092,272.000 289.955 C 272.000 289.818,272.719 289.231,273.598 288.649 C 274.476 288.068,275.621 286.918,276.141 286.094 C 276.661 285.270,277.556 284.345,278.130 284.037 C 278.704 283.730,279.653 282.755,280.238 281.870 C 280.824 280.986,281.807 279.838,282.423 279.320 C 283.126 278.727,283.862 277.418,284.402 275.793 C 284.875 274.372,285.435 273.102,285.646 272.971 C 285.858 272.841,286.577 271.765,287.246 270.581 C 287.914 269.397,289.032 268.073,289.730 267.640 C 290.429 267.207,291.332 266.232,291.737 265.474 C 292.143 264.716,292.998 263.708,293.637 263.236 C 295.301 262.006,295.285 259.520,293.600 257.400 C 292.940 256.569,292.400 255.749,292.400 255.578 C 292.400 255.406,292.296 254.994,292.169 254.662 C 291.733 253.528,293.803 252.579,295.000 253.363 C 295.550 253.724,296.000 254.278,296.000 254.595 C 296.000 256.530,298.038 256.154,299.251 253.995 C 299.740 253.126,300.828 251.958,301.670 251.401 C 302.993 250.526,303.200 250.185,303.200 248.883 C 303.200 247.243,304.110 245.600,305.018 245.600 C 305.332 245.600,306.030 244.902,306.569 244.050 C 307.107 243.197,308.054 242.121,308.674 241.659 C 310.610 240.213,311.058 239.643,311.632 237.896 C 312.397 235.571,314.561 233.296,317.060 232.190 C 318.736 231.449,319.322 230.923,320.019 229.533 C 320.497 228.580,321.290 227.350,321.781 226.800 C 322.272 226.250,323.000 224.540,323.399 223.000 C 324.291 219.549,326.727 216.774,329.523 216.021 C 332.444 215.234,335.353 212.019,336.152 208.694 C 338.079 200.682,344.577 194.015,347.836 196.709 M52.595 200.969 C 53.394 201.723,54.508 202.641,55.072 203.010 C 55.635 203.379,56.360 204.354,56.683 205.175 C 57.006 205.997,57.779 206.970,58.402 207.338 C 59.025 207.705,60.025 208.590,60.625 209.303 C 61.225 210.016,62.185 210.885,62.758 211.234 C 63.331 211.584,64.061 212.394,64.380 213.035 C 64.699 213.676,65.348 214.740,65.822 215.400 C 66.296 216.060,67.071 217.359,67.543 218.286 C 68.885 220.920,74.130 226.968,76.282 228.363 C 77.353 229.056,78.992 230.601,79.924 231.794 C 81.414 233.702,81.909 234.045,84.028 234.640 C 87.055 235.489,88.585 237.155,88.964 240.015 C 89.586 244.703,92.381 248.190,95.867 248.626 C 98.279 248.927,98.278 248.926,100.968 252.400 C 103.628 255.836,105.937 259.418,107.556 262.618 C 108.863 265.202,109.687 266.252,111.743 267.953 C 114.421 270.168,114.865 270.779,115.694 273.392 C 116.033 274.459,116.637 275.251,117.525 275.792 C 118.254 276.236,119.604 277.146,120.525 277.813 C 121.446 278.480,123.033 279.342,124.051 279.728 C 126.251 280.561,126.929 281.262,127.603 283.400 C 128.445 286.074,129.153 287.156,130.507 287.839 C 131.218 288.198,132.296 288.955,132.902 289.522 L 134.004 290.553 135.102 289.757 C 135.706 289.320,136.550 288.217,136.978 287.307 C 138.030 285.070,142.019 284.215,143.929 285.817 C 144.176 286.024,141.121 290.345,140.581 290.552 C 140.282 290.667,139.562 291.479,138.981 292.357 L 137.925 293.953 138.723 294.810 C 139.163 295.281,139.723 296.465,139.969 297.441 C 140.214 298.416,141.019 299.886,141.756 300.707 C 142.494 301.528,143.643 303.280,144.309 304.600 C 145.061 306.089,145.987 307.271,146.748 307.715 C 150.399 309.844,153.253 313.636,152.134 314.873 C 151.037 316.085,149.389 315.798,148.117 314.171 C 147.503 313.385,146.337 312.398,145.526 311.977 C 144.716 311.555,143.593 310.784,143.031 310.264 C 141.879 309.197,139.536 309.183,135.884 310.221 C 133.711 310.839,133.200 310.301,133.200 307.397 C 133.200 306.293,132.897 305.802,131.549 304.723 C 129.932 303.427,125.622 299.236,123.559 296.952 C 122.987 296.318,122.087 295.421,121.559 294.958 C 121.032 294.495,119.622 292.928,118.427 291.476 C 116.184 288.753,115.753 288.483,111.952 287.430 C 110.716 287.088,109.468 286.523,109.179 286.175 C 108.060 284.826,105.653 284.019,101.612 283.639 C 96.502 283.158,96.274 282.984,96.614 279.812 C 96.995 276.247,95.400 274.149,91.600 273.217 C 88.521 272.463,88.143 272.254,87.268 270.820 C 86.602 269.730,83.497 266.995,79.063 263.593 C 77.777 262.607,76.330 261.478,75.846 261.084 C 75.361 260.690,73.912 260.092,72.624 259.756 C 69.159 258.851,64.999 256.238,64.177 254.450 C 62.794 251.442,58.909 248.062,56.229 247.535 C 53.798 247.056,52.829 246.295,48.372 241.366 C 47.957 240.907,46.849 240.308,45.909 240.034 C 38.496 237.876,34.791 232.334,38.049 228.279 C 41.412 224.095,39.998 217.835,35.981 219.119 C 34.014 219.748,31.200 219.147,31.200 218.098 C 31.200 217.689,34.300 216.104,35.635 215.830 C 36.204 215.713,36.834 215.282,37.035 214.872 C 37.236 214.463,39.020 212.652,41.000 210.848 C 45.109 207.105,47.472 204.286,47.817 202.719 C 48.502 199.610,50.412 198.910,52.595 200.969 M366.700 245.062 C 368.597 245.736,368.843 246.214,367.500 246.614 C 367.005 246.762,365.557 247.342,364.283 247.904 L 361.966 248.924 360.599 247.599 C 359.094 246.140,359.122 245.879,360.895 244.801 C 362.236 243.985,363.881 244.059,366.700 245.062 M239.344 264.635 C 240.693 266.257,240.395 266.942,238.057 267.591 C 232.796 269.052,230.840 265.991,235.800 264.060 C 238.322 263.078,238.009 263.028,239.344 264.635 M123.111 265.023 C 124.930 266.296,122.861 268.066,120.799 267.000 C 119.320 266.235,119.306 265.968,120.700 265.103 C 122.057 264.262,122.026 264.263,123.111 265.023 M330.390 268.924 C 330.377 272.379,329.850 274.293,328.532 275.679 C 326.622 277.686,326.127 277.797,324.401 276.601 C 321.506 274.595,321.317 274.187,322.729 272.998 C 323.404 272.431,324.339 271.346,324.807 270.589 C 325.335 269.735,326.344 268.908,327.465 268.413 C 328.514 267.949,329.359 267.277,329.481 266.811 C 329.884 265.270,330.400 266.468,330.390 268.924 M171.024 269.368 C 171.784 269.924,171.780 269.957,170.831 270.967 C 169.861 272.000,168.400 271.588,168.400 270.282 C 168.400 269.176,169.999 268.619,171.024 269.368 M162.583 301.572 C 162.879 302.051,162.126 302.525,161.593 302.196 C 161.146 301.919,161.440 301.200,162.000 301.200 C 162.194 301.200,162.456 301.368,162.583 301.572 M242.994 308.387 C 243.664 309.871,243.667 310.038,243.046 310.987 C 241.661 313.099,240.093 310.946,241.117 308.338 C 241.875 306.410,242.105 306.416,242.994 308.387 M162.643 321.429 C 163.029 322.967,162.334 323.393,160.766 322.582 L 159.440 321.897 160.364 321.148 C 161.631 320.123,162.337 320.210,162.643 321.429 " class="color282828 svgShape"></path></svg></g></svg>