<svg id="SvgjsSvg1027" width="288" height="288" xmlns="http://www.w3.org/2000/svg" version="1.1" xmlns:xlink="http://www.w3.org/1999/xlink" xmlns:svgjs="http://svgjs.com/svgjs"><defs id="SvgjsDefs1028"></defs><g id="SvgjsG1029"><svg xmlns="http://www.w3.org/2000/svg" width="288" height="288" viewBox="0 0 400 400"><path fill="#f5f5f5" fill-rule="evenodd" d="M296.000 16.423 C 295.010 16.596,292.220 16.641,289.800 16.524 C 285.528 16.318,285.359 16.342,284.000 17.353 C 281.721 19.047,280.112 19.623,276.522 20.031 C 274.654 20.243,272.425 20.756,271.568 21.170 C 270.040 21.908,269.953 21.908,267.105 21.154 C 263.310 20.150,248.453 19.772,240.000 20.464 C 236.810 20.725,231.860 20.953,229.000 20.970 C 225.688 20.989,223.490 21.178,222.947 21.489 C 222.266 21.879,221.539 21.860,219.347 21.396 C 215.652 20.613,214.426 20.652,211.798 21.635 C 210.073 22.281,209.113 22.408,207.572 22.196 C 204.914 21.831,203.600 22.626,203.600 24.602 C 203.600 26.138,202.531 26.720,200.600 26.236 C 199.406 25.936,199.359 25.443,200.341 23.516 C 201.076 22.074,201.075 22.061,200.241 21.837 C 198.563 21.386,197.187 21.607,196.496 22.437 C 195.303 23.870,194.186 24.068,191.989 23.233 C 190.895 22.817,189.907 22.626,189.794 22.809 C 188.848 24.341,185.598 24.147,183.437 22.429 C 182.480 21.669,181.266 21.149,180.070 20.988 C 179.042 20.849,177.390 20.492,176.400 20.194 C 171.723 18.785,170.255 18.699,167.951 19.696 C 165.847 20.607,165.708 20.616,161.600 20.092 C 154.021 19.126,148.940 19.796,146.854 22.034 L 146.085 22.860 144.428 22.014 C 141.372 20.455,138.149 19.650,136.500 20.033 C 134.187 20.570,130.370 20.465,126.300 19.752 C 119.565 18.573,108.345 19.538,106.773 21.432 C 105.530 22.930,102.348 24.095,100.027 23.901 C 98.581 23.781,97.519 23.899,97.000 24.237 C 96.560 24.525,94.580 25.294,92.600 25.946 C 85.097 28.421,84.400 28.951,84.400 32.194 C 84.400 37.288,80.050 38.384,75.797 34.361 C 73.234 31.938,70.707 31.593,67.540 33.235 C 61.643 36.294,59.979 37.352,59.809 38.152 C 59.711 38.619,59.459 40.170,59.250 41.600 C 58.611 45.979,58.416 46.251,55.203 47.226 C 52.125 48.161,46.559 52.655,45.142 55.349 C 44.779 56.038,44.104 56.944,43.642 57.362 C 43.179 57.781,42.800 58.524,42.800 59.012 C 42.800 61.699,42.382 62.349,40.107 63.200 C 37.621 64.131,36.744 65.019,35.766 67.600 C 34.705 70.399,31.620 76.064,30.395 77.463 C 29.786 78.158,28.975 79.688,28.591 80.863 C 28.208 82.039,27.293 83.990,26.557 85.200 C 25.222 87.397,25.073 87.767,23.776 92.107 L 23.086 94.414 24.675 96.307 L 26.263 98.200 25.781 101.034 C 25.179 104.571,24.756 105.365,22.826 106.584 C 19.624 108.605,19.657 108.442,20.066 120.200 C 20.386 129.415,20.353 130.795,19.776 132.312 C 19.308 133.541,19.193 134.671,19.369 136.312 C 20.009 142.308,20.315 150.342,19.971 152.164 C 19.647 153.881,19.726 154.404,20.600 156.313 C 21.810 158.956,21.877 161.302,20.809 163.656 C 19.792 165.897,19.693 173.940,20.629 178.200 C 20.968 179.740,21.502 182.642,21.815 184.648 C 22.129 186.655,22.488 188.565,22.615 188.894 C 22.741 189.222,22.469 190.211,22.010 191.090 C 20.775 193.461,19.851 198.907,20.193 201.800 C 20.350 203.120,20.614 205.720,20.780 207.578 L 21.082 210.956 22.927 212.578 C 25.403 214.754,25.652 217.218,23.684 220.078 C 20.833 224.222,19.136 237.022,21.133 239.319 C 21.477 239.714,22.461 240.433,23.320 240.915 L 24.881 241.793 24.613 244.167 C 24.465 245.473,23.973 247.269,23.519 248.159 C 22.785 249.597,22.723 250.202,22.965 253.589 C 23.664 263.370,23.412 269.441,22.233 271.222 C 19.633 275.151,20.063 280.336,23.284 283.893 C 25.668 286.525,25.724 288.017,23.640 293.276 C 21.466 298.761,21.255 299.403,20.428 303.074 C 18.946 309.647,19.146 310.605,22.860 314.717 C 24.738 316.796,25.593 318.727,25.598 320.896 C 25.604 324.126,28.419 328.786,32.277 331.956 C 34.341 333.651,34.899 334.389,35.625 336.380 C 36.356 338.384,36.955 339.170,39.348 341.261 C 40.917 342.632,43.010 344.595,44.000 345.623 C 46.578 348.299,49.506 348.704,50.771 346.560 C 51.833 344.759,53.503 344.051,55.849 344.407 C 58.376 344.791,59.210 345.673,57.980 346.663 C 53.393 350.353,54.208 355.574,59.976 359.458 C 62.304 361.026,64.695 360.989,66.927 359.348 C 69.988 357.099,70.628 356.803,72.438 356.801 C 76.014 356.799,77.204 360.592,74.654 363.865 C 72.887 366.133,72.891 365.956,74.551 368.550 C 76.506 371.607,77.145 371.784,84.248 371.237 C 91.093 370.709,90.309 370.425,95.212 375.207 C 100.333 380.200,99.455 379.995,115.024 379.830 C 128.152 379.692,128.211 379.687,131.116 378.621 L 134.032 377.551 137.292 378.376 C 141.744 379.501,142.490 379.449,144.037 377.900 C 144.752 377.185,145.889 376.420,146.563 376.200 C 147.255 375.975,148.016 375.330,148.306 374.724 C 149.557 372.109,152.144 373.043,151.936 376.034 C 151.765 378.504,153.732 379.069,154.721 376.834 C 156.206 373.479,161.472 373.412,163.163 376.727 C 164.176 378.712,165.331 379.145,169.600 379.138 C 171.470 379.135,173.810 379.323,174.800 379.556 C 177.385 380.165,181.139 380.096,185.464 379.359 C 188.952 378.764,189.556 378.767,193.731 379.398 C 198.470 380.114,201.723 379.754,204.846 378.167 C 205.749 377.708,206.166 377.740,207.911 378.403 C 211.781 379.874,214.370 379.005,217.200 375.286 C 218.452 373.640,221.868 372.994,223.155 374.160 C 223.957 374.885,226.630 375.475,230.862 375.860 C 233.506 376.100,233.535 376.092,234.942 374.684 C 236.621 373.006,237.673 372.597,238.785 373.192 C 240.048 373.868,239.291 376.295,237.522 377.242 C 234.856 378.668,241.202 379.772,247.222 378.929 C 249.127 378.662,251.705 378.629,254.193 378.839 C 256.550 379.038,258.822 379.019,259.831 378.793 C 260.761 378.585,263.474 378.524,265.861 378.659 C 269.374 378.857,270.495 378.779,271.749 378.252 C 273.809 377.385,276.447 377.437,279.536 378.405 C 282.329 379.281,284.564 379.392,287.000 378.777 C 287.880 378.554,290.220 378.210,292.200 378.011 C 302.290 376.997,306.201 375.710,308.549 372.631 C 309.548 371.321,309.812 371.200,311.672 371.200 C 313.181 371.200,314.229 370.900,315.751 370.033 C 318.196 368.640,321.978 367.603,324.658 367.591 C 326.844 367.581,329.404 366.558,330.599 365.216 C 331.764 363.907,333.111 363.319,335.671 362.999 C 338.117 362.693,340.438 360.576,344.544 354.905 C 345.378 353.753,346.772 352.201,347.643 351.456 C 349.017 350.280,349.259 349.818,349.479 347.951 C 349.701 346.055,349.978 345.543,351.809 343.634 L 353.887 341.468 355.638 342.169 C 358.977 343.504,361.511 342.547,363.874 339.057 C 367.122 334.258,367.094 334.342,366.893 330.049 L 366.713 326.200 368.277 323.639 C 369.714 321.287,370.001 321.038,371.795 320.582 C 375.030 319.761,375.541 318.342,373.578 315.633 L 372.356 313.946 373.725 312.430 C 375.830 310.100,377.912 306.264,378.230 304.127 C 378.387 303.067,378.850 301.227,379.258 300.037 C 379.666 298.848,380.000 296.835,380.000 295.563 C 380.000 294.292,380.177 292.786,380.394 292.216 C 381.293 289.852,381.620 286.146,381.053 284.749 C 380.293 282.875,379.743 270.663,379.911 259.372 L 380.000 253.344 381.391 251.719 C 383.099 249.723,383.578 246.841,382.682 243.949 C 382.340 242.848,382.188 241.264,382.306 240.038 C 382.449 238.547,382.337 237.788,381.900 237.289 C 380.484 235.673,379.960 233.888,379.727 229.886 C 379.503 226.038,379.023 224.266,377.805 222.800 C 377.532 222.470,377.187 221.692,377.039 221.071 C 376.835 220.214,376.316 219.744,374.885 219.119 C 372.494 218.075,372.583 218.191,373.319 217.068 C 373.785 216.356,374.425 216.056,375.808 215.900 C 379.110 215.528,380.332 211.388,378.070 208.238 C 376.491 206.039,376.490 206.046,378.244 203.948 L 379.688 202.220 379.445 198.410 C 379.044 192.108,378.851 188.446,378.652 183.400 C 378.548 180.760,378.351 177.569,378.213 176.309 C 378.044 174.763,378.150 173.462,378.540 172.309 C 379.247 170.220,380.172 161.817,379.799 160.879 C 378.705 158.127,379.861 145.854,381.439 143.469 L 382.464 141.920 381.632 139.986 C 381.174 138.922,380.796 137.275,380.792 136.326 C 380.766 130.983,379.348 128.186,376.454 127.767 C 373.319 127.314,372.858 126.378,374.700 124.212 C 375.305 123.500,376.115 122.397,376.500 121.759 C 376.886 121.122,377.639 120.006,378.174 119.280 C 379.739 117.158,379.934 114.091,378.668 111.499 C 377.241 108.574,376.826 106.414,377.252 104.131 C 377.566 102.453,377.454 101.799,376.342 98.809 C 375.233 95.825,375.061 94.826,374.967 90.800 C 374.872 86.747,374.707 85.796,373.576 82.800 C 372.573 80.144,372.275 78.699,372.214 76.200 C 372.122 72.413,371.582 71.124,367.795 65.662 C 365.788 62.768,364.972 61.142,364.181 58.462 C 362.546 52.916,363.014 53.382,358.577 52.878 C 355.947 52.580,354.018 52.111,352.641 51.437 C 351.518 50.887,350.330 50.328,350.000 50.194 C 343.780 47.674,342.357 45.734,343.050 40.719 C 343.302 38.899,343.290 37.757,343.013 37.273 C 341.912 35.342,339.621 33.023,338.000 32.199 C 337.010 31.696,335.660 30.805,335.000 30.218 C 330.108 25.871,321.960 23.265,315.939 24.122 C 314.179 24.372,313.337 24.297,312.139 23.783 C 311.293 23.419,309.635 22.782,308.456 22.367 C 306.964 21.842,305.844 21.081,304.771 19.862 C 302.477 17.256,299.014 15.898,296.000 16.423 M159.094 25.011 C 161.062 26.389,158.765 27.770,155.900 26.932 C 153.608 26.261,153.527 25.882,155.500 25.063 C 157.417 24.268,158.021 24.259,159.094 25.011 M315.659 36.195 C 317.217 37.086,317.855 37.191,321.733 37.195 C 328.356 37.203,326.631 38.643,319.854 38.765 C 318.291 38.793,317.531 39.076,316.000 40.200 C 313.960 41.697,313.229 41.847,311.280 41.168 C 309.994 40.719,308.846 38.497,309.421 37.567 C 309.624 37.238,313.386 35.235,313.859 35.204 C 313.892 35.202,314.702 35.648,315.659 36.195 M136.110 43.822 C 136.716 44.383,137.731 45.990,138.367 47.391 C 140.259 51.563,144.722 52.334,153.596 50.020 C 157.228 49.072,158.299 49.094,162.472 50.195 C 165.963 51.117,166.823 50.857,168.398 48.403 C 169.796 46.224,170.041 46.085,170.822 47.026 C 172.250 48.748,173.529 49.005,180.102 48.891 C 186.175 48.787,186.474 48.820,188.299 49.791 C 190.529 50.979,193.735 51.140,196.400 50.200 C 197.335 49.870,198.705 49.600,199.443 49.600 C 200.181 49.600,202.021 49.388,203.531 49.129 C 206.132 48.683,206.355 48.707,207.773 49.583 C 211.501 51.888,215.258 52.177,217.482 50.332 C 217.785 50.081,218.921 49.463,220.006 48.961 L 221.980 48.046 223.090 49.368 C 225.772 52.563,227.419 52.056,228.766 47.620 C 229.816 44.163,230.076 44.126,231.005 47.300 C 232.204 51.399,233.485 52.231,236.766 51.045 C 237.886 50.641,238.499 50.659,240.166 51.146 C 241.630 51.574,244.328 51.749,249.800 51.770 C 258.938 51.806,259.715 51.571,261.239 48.317 C 262.958 44.647,266.100 43.917,267.435 46.878 C 269.073 50.510,271.122 51.237,276.149 49.971 C 277.581 49.611,278.246 49.675,280.314 50.371 C 284.310 51.717,293.488 50.686,296.657 48.535 C 297.704 47.825,298.585 47.600,300.320 47.600 C 301.577 47.600,303.234 47.406,304.003 47.170 C 309.768 45.396,310.965 45.650,311.805 48.824 C 311.947 49.361,313.302 51.143,314.817 52.785 L 317.570 55.771 321.021 55.785 C 324.252 55.799,324.528 55.734,325.336 54.766 C 325.811 54.197,327.098 53.241,328.196 52.641 L 330.192 51.549 330.896 52.419 C 331.787 53.520,331.778 53.918,330.814 56.168 C 329.279 59.748,329.312 61.616,330.946 63.757 C 331.735 64.790,332.519 65.861,332.690 66.137 C 332.860 66.414,333.630 67.064,334.400 67.582 C 337.017 69.343,343.423 75.646,343.980 77.008 C 344.161 77.452,344.607 79.882,344.970 82.408 C 345.332 84.933,346.093 88.598,346.659 90.552 C 347.581 93.730,347.643 94.337,347.245 96.318 C 345.994 102.548,347.980 112.739,350.644 113.761 C 351.263 113.999,351.263 114.068,350.638 114.758 C 348.496 117.125,348.001 123.220,349.568 127.935 C 350.087 129.496,350.256 130.838,350.114 132.253 C 349.863 134.741,350.495 136.824,352.028 138.571 C 354.505 141.392,353.844 147.032,350.411 152.384 C 347.915 156.272,347.855 167.984,350.311 171.696 C 351.527 173.534,351.614 176.764,350.490 178.336 C 348.571 181.018,348.404 181.450,348.402 183.733 C 348.401 185.403,348.745 186.929,349.615 189.100 C 351.149 192.933,351.172 193.871,349.820 197.782 C 348.351 202.035,348.456 205.836,350.112 208.339 C 351.813 210.909,352.312 213.619,351.360 215.120 C 348.017 220.396,348.211 219.805,348.058 225.133 C 347.835 232.870,348.113 234.261,350.288 236.295 L 352.101 237.991 350.701 239.541 C 348.244 242.260,347.830 244.330,348.209 251.982 C 348.526 258.398,348.541 259.540,348.400 266.809 C 348.352 269.314,348.535 270.748,349.092 272.213 C 349.767 273.989,349.793 274.428,349.333 276.204 C 348.476 279.509,348.648 282.270,349.836 284.297 L 350.871 286.064 350.036 288.006 C 348.975 290.470,349.318 291.492,351.771 293.180 C 355.094 295.466,355.495 297.714,352.828 299.114 C 350.593 300.287,350.095 300.959,349.801 303.200 C 349.010 309.239,347.312 312.971,343.796 316.400 C 342.176 317.979,340.776 319.786,340.230 321.003 C 339.711 322.157,338.707 323.481,337.860 324.127 C 337.052 324.743,336.131 325.871,335.812 326.632 C 334.209 330.470,329.119 333.950,322.927 335.443 C 321.296 335.836,317.962 337.542,316.800 338.578 C 316.250 339.068,314.970 339.942,313.955 340.519 C 312.809 341.171,311.917 342.036,311.600 342.800 C 311.320 343.477,310.743 344.217,310.318 344.444 C 309.893 344.671,308.827 345.969,307.948 347.329 C 306.092 350.200,306.409 350.106,303.600 348.623 C 301.018 347.260,298.891 347.122,293.400 347.962 C 290.543 348.399,287.447 348.442,278.400 348.169 C 260.714 347.637,261.215 347.618,259.278 348.900 C 258.055 349.710,257.114 350.002,255.709 350.006 C 254.534 350.010,254.002 350.141,254.326 350.346 C 254.993 350.769,254.804 354.071,254.100 354.302 C 253.755 354.416,253.600 353.959,253.600 352.825 C 253.600 350.565,252.557 350.085,249.046 350.732 C 245.655 351.357,245.813 351.386,244.272 349.846 C 243.184 348.758,242.493 348.441,240.759 348.236 C 239.572 348.095,237.250 347.784,235.600 347.544 C 232.740 347.128,226.567 347.388,217.000 348.326 C 215.460 348.476,213.030 348.456,211.600 348.280 C 206.633 347.669,200.013 348.762,199.028 350.355 C 198.584 351.073,197.273 350.885,192.193 349.375 C 187.518 347.985,187.285 347.957,182.753 348.216 C 178.334 348.469,178.004 348.433,176.011 347.479 C 173.930 346.483,173.907 346.482,172.650 347.224 C 171.953 347.635,170.582 348.253,169.603 348.599 C 168.624 348.944,167.435 349.591,166.962 350.036 L 166.101 350.844 164.644 349.856 C 160.692 347.174,142.107 347.763,136.119 350.759 C 134.268 351.685,132.248 351.803,128.600 351.196 C 124.679 350.544,122.204 351.235,119.994 353.599 L 118.187 355.532 116.210 355.162 C 113.767 354.706,113.250 354.257,114.081 353.309 C 114.423 352.919,114.996 352.023,115.353 351.318 L 116.002 350.036 114.542 348.918 C 113.739 348.303,112.410 347.213,111.587 346.495 L 110.092 345.190 107.963 346.295 C 105.914 347.358,105.606 347.400,99.817 347.400 C 92.343 347.400,91.500 347.134,88.615 343.868 C 86.880 341.904,85.920 341.197,83.917 340.406 C 82.533 339.860,80.669 338.743,79.775 337.925 C 78.712 336.951,77.494 336.290,76.249 336.011 C 73.785 335.459,68.321 332.185,67.512 330.776 C 67.115 330.084,65.581 328.997,63.342 327.821 C 59.156 325.623,56.133 322.385,57.555 321.624 C 58.601 321.064,59.600 318.346,59.600 316.062 C 59.600 313.573,58.998 313.032,53.547 310.620 C 47.013 307.730,46.980 307.593,50.985 300.000 C 53.363 295.493,53.680 290.343,51.909 285.000 C 51.005 282.274,51.110 279.054,52.201 276.000 C 52.883 274.093,52.580 270.999,51.373 267.541 C 50.845 266.026,51.067 263.848,52.615 255.400 C 53.362 251.320,53.351 250.107,52.549 247.950 C 52.044 246.593,51.926 245.077,52.025 241.200 C 52.095 238.450,52.079 234.490,51.990 232.400 C 51.799 227.910,51.821 219.808,52.039 214.179 C 52.209 209.813,51.736 208.372,49.879 207.596 C 49.395 207.395,48.292 206.948,47.426 206.604 L 45.853 205.979 47.115 205.090 C 50.640 202.606,52.069 199.151,52.044 193.183 C 52.017 186.774,51.455 184.411,49.356 181.888 C 47.672 179.863,47.672 178.170,49.355 176.446 C 51.826 173.916,52.358 170.029,50.591 167.425 C 47.907 163.470,47.552 162.285,48.163 159.317 C 48.471 157.823,48.850 154.567,49.006 152.082 C 49.204 148.930,49.520 147.088,50.052 145.987 C 51.080 143.859,51.292 141.712,50.916 137.233 L 50.600 133.466 49.200 132.696 C 46.396 131.154,45.600 130.063,45.600 127.763 L 45.600 125.676 48.164 124.176 C 51.473 122.240,51.718 121.673,51.917 115.488 C 52.103 109.677,52.016 109.125,50.577 107.004 C 48.980 104.651,50.358 97.592,53.191 93.613 C 53.619 93.012,54.137 91.818,54.343 90.960 C 55.658 85.466,58.121 80.500,60.327 78.892 C 65.791 74.909,74.485 65.767,75.308 63.139 C 75.712 61.849,76.979 59.560,78.257 57.810 C 79.489 56.123,80.893 53.993,81.378 53.077 C 82.613 50.742,84.382 50.093,87.733 50.749 C 89.767 51.147,90.551 51.131,92.200 50.654 C 95.541 49.688,97.649 49.559,99.957 50.179 C 101.955 50.715,102.225 50.701,103.609 49.996 C 104.430 49.576,106.274 48.939,107.705 48.580 L 110.308 47.926 113.454 49.451 C 119.419 52.342,122.762 51.811,128.115 47.126 C 133.313 42.575,134.318 42.160,136.110 43.822 M58.643 69.769 C 59.065 70.868,58.068 71.946,56.508 72.076 C 55.404 72.168,54.895 72.449,54.541 73.163 C 54.168 73.915,53.422 74.288,51.132 74.867 C 49.519 75.274,47.722 75.959,47.137 76.388 C 45.936 77.271,45.600 76.928,45.600 74.816 L 45.600 73.698 49.164 73.527 C 52.977 73.345,54.000 72.895,54.000 71.400 C 54.000 69.682,58.063 68.255,58.643 69.769 M294.967 80.740 C 294.510 80.883,292.798 82.230,291.163 83.733 C 289.415 85.341,286.876 87.153,284.996 88.133 C 281.880 89.758,281.777 89.860,280.861 92.200 C 280.344 93.520,279.317 95.384,278.579 96.342 C 276.135 99.515,276.213 103.707,278.780 107.124 C 279.760 108.428,280.496 109.965,280.778 111.294 C 281.918 116.665,285.117 121.642,288.057 122.619 C 290.155 123.316,290.849 123.250,295.500 121.916 L 298.401 121.083 302.300 123.031 C 304.445 124.102,306.380 124.922,306.600 124.853 C 306.820 124.784,308.679 124.408,310.732 124.018 C 316.708 122.881,318.827 118.133,314.594 115.360 C 313.174 114.429,313.364 113.694,315.148 113.214 C 318.150 112.406,319.000 111.324,321.444 105.203 C 324.502 97.542,322.828 93.425,315.800 91.319 C 313.453 90.616,313.369 90.541,312.000 87.934 C 309.790 83.725,306.745 81.218,303.302 80.775 C 300.206 80.375,296.187 80.359,294.967 80.740 M314.235 104.103 C 313.993 105.719,312.146 107.704,309.938 108.721 C 309.794 108.787,309.468 108.213,309.215 107.445 C 308.600 105.581,309.526 103.600,311.013 103.600 C 311.574 103.600,312.385 103.164,312.878 102.596 C 314.033 101.268,314.571 101.866,314.235 104.103 M295.969 104.636 C 297.562 105.976,297.526 106.183,295.553 106.972 C 292.905 108.031,291.171 106.562,292.623 104.489 C 293.441 103.321,294.460 103.366,295.969 104.636 M207.400 107.019 C 205.062 107.680,201.570 107.765,199.626 107.208 C 198.632 106.923,197.647 106.972,196.029 107.388 C 194.803 107.703,191.518 108.155,188.730 108.393 C 181.423 109.016,176.802 110.746,175.000 113.532 C 173.952 115.152,173.965 115.156,172.035 112.600 C 171.122 111.390,170.245 110.410,170.087 110.423 C 169.173 110.495,166.167 115.024,164.399 118.994 C 162.409 123.461,161.501 123.805,156.161 122.119 L 154.122 121.476 150.674 122.957 C 147.923 124.138,144.056 125.181,142.364 125.198 C 142.234 125.199,141.388 125.875,140.485 126.700 C 139.581 127.525,138.306 128.650,137.651 129.200 L 136.459 130.200 137.016 132.200 C 137.676 134.568,137.518 135.557,135.803 139.800 C 133.076 146.547,131.536 148.175,124.600 151.645 C 117.004 155.444,116.581 155.966,116.197 162.000 C 115.850 167.453,115.201 169.622,113.253 171.835 C 110.863 174.550,110.522 179.938,112.458 184.393 C 113.511 186.817,112.741 189.001,109.889 191.675 L 107.889 193.551 108.084 196.279 C 108.192 197.779,108.581 199.590,108.950 200.302 C 109.540 201.445,109.588 202.562,109.350 209.714 C 109.040 219.047,109.041 219.052,112.133 220.797 C 115.148 222.499,116.000 224.397,116.000 229.414 L 116.000 233.207 118.324 237.718 C 121.089 243.084,121.675 245.006,121.518 248.184 L 121.400 250.568 125.737 251.988 C 128.793 252.988,130.422 253.755,131.254 254.587 C 133.108 256.442,136.705 262.435,137.022 264.200 C 137.754 268.271,139.308 270.266,142.493 271.222 C 144.092 271.703,146.428 272.441,147.684 272.863 C 150.231 273.720,155.762 273.045,157.302 271.689 C 158.357 270.762,158.597 271.346,158.634 274.933 C 158.724 283.610,159.905 284.640,168.038 283.135 C 170.058 282.761,170.447 282.810,172.038 283.642 C 176.146 285.789,177.957 286.341,179.921 286.043 C 181.403 285.818,182.129 285.925,183.357 286.549 C 184.445 287.102,186.496 287.487,190.157 287.827 C 193.041 288.094,196.188 288.602,197.150 288.956 C 199.369 289.772,201.855 289.775,204.241 288.965 C 206.059 288.348,206.144 288.356,207.355 289.255 C 210.525 291.609,215.997 290.355,220.257 286.296 L 221.914 284.718 224.118 285.359 C 225.494 285.759,227.841 286.000,230.360 286.000 L 234.398 286.000 236.051 284.500 C 236.960 283.675,238.625 282.358,239.752 281.573 C 240.878 280.788,242.392 279.348,243.116 278.373 C 246.133 274.306,245.992 274.408,248.128 274.762 C 250.990 275.237,253.970 274.410,256.413 272.465 C 257.525 271.580,258.966 270.739,259.617 270.596 C 260.952 270.303,261.018 270.122,260.187 269.024 C 259.185 267.699,259.469 265.833,260.972 263.864 C 262.323 262.094,262.340 262.022,262.114 259.036 L 261.885 256.004 263.042 256.581 C 265.294 257.702,270.482 257.517,272.402 256.246 C 274.656 254.755,276.264 250.589,276.392 245.910 C 276.409 245.294,278.842 244.400,280.502 244.400 C 286.903 244.400,289.436 236.876,284.746 231.788 L 283.143 230.049 284.755 228.983 C 286.447 227.863,286.723 227.304,288.310 221.800 C 289.857 216.436,291.122 213.923,293.242 212.000 C 296.350 209.182,296.572 205.842,293.936 201.558 C 292.193 198.725,291.988 197.474,291.976 189.600 L 291.965 182.600 290.544 179.049 C 289.762 177.096,288.882 174.036,288.587 172.249 C 287.600 166.268,287.153 165.513,283.329 163.375 C 281.929 162.592,280.872 161.807,280.981 161.630 C 281.769 160.356,281.952 154.051,281.245 152.567 C 280.834 151.705,280.199 149.958,279.833 148.684 C 279.006 145.802,278.220 145.003,275.411 144.186 C 274.190 143.831,272.667 143.100,272.026 142.561 C 271.386 142.022,270.043 141.000,269.042 140.290 C 268.042 139.581,265.706 137.701,263.851 136.113 C 261.997 134.526,259.640 132.660,258.613 131.967 C 257.218 131.025,256.434 130.072,255.506 128.190 C 254.417 125.983,254.016 125.558,252.244 124.737 C 251.132 124.221,249.408 123.245,248.411 122.568 C 242.346 118.441,235.687 119.256,234.421 124.281 L 233.941 126.187 233.298 125.126 C 232.944 124.543,231.990 123.692,231.178 123.236 C 228.458 121.707,226.671 118.512,227.128 115.996 C 227.508 113.907,226.556 112.000,225.134 112.000 C 224.941 112.000,224.023 111.517,223.092 110.928 C 222.161 110.338,220.500 109.627,219.400 109.348 C 218.300 109.068,215.870 108.371,214.000 107.798 C 212.130 107.225,210.330 106.688,210.000 106.605 C 209.670 106.522,208.500 106.708,207.400 107.019 M219.054 126.974 C 218.209 128.263,217.706 128.271,217.128 127.002 C 216.407 125.419,217.790 124.012,218.938 125.160 C 219.686 125.908,219.692 126.001,219.054 126.974 M34.400 126.000 C 34.400 126.220,33.410 126.400,32.200 126.400 C 30.990 126.400,30.000 126.220,30.000 126.000 C 30.000 125.780,30.990 125.600,32.200 125.600 C 33.410 125.600,34.400 125.780,34.400 126.000 M206.951 132.705 C 207.265 133.313,207.818 134.828,208.180 136.072 C 209.265 139.803,212.578 140.587,217.358 138.243 C 220.562 136.672,230.069 137.075,229.216 138.745 C 229.032 139.105,228.680 140.930,228.434 142.800 L 227.985 146.200 229.353 147.400 C 233.881 151.373,237.531 152.186,246.089 151.126 C 250.426 150.589,250.154 150.515,250.973 152.473 C 251.563 153.886,251.551 153.931,250.140 155.743 C 248.667 157.634,248.569 158.593,249.703 160.030 C 250.601 161.167,254.471 163.600,255.383 163.600 C 256.715 163.600,257.545 164.786,258.064 167.431 C 258.368 168.978,258.920 170.253,259.657 171.105 C 261.526 173.269,262.030 174.661,262.268 178.321 C 262.512 182.072,262.688 182.498,265.206 185.408 C 267.164 187.670,267.538 188.531,268.068 192.000 C 268.304 193.541,268.875 195.231,269.472 196.150 C 271.532 199.325,272.036 201.631,271.201 204.066 C 270.799 205.239,270.082 207.910,269.607 210.000 C 269.133 212.090,268.413 214.430,268.008 215.200 C 267.603 215.970,266.962 217.680,266.582 219.000 C 265.331 223.357,264.241 225.324,262.072 227.140 C 259.941 228.924,259.207 230.460,259.202 233.141 C 259.198 235.675,255.075 240.209,249.200 244.141 C 242.953 248.322,242.135 250.161,244.054 255.714 L 244.853 258.029 243.927 258.811 C 242.924 259.658,242.309 259.850,239.699 260.137 C 237.396 260.390,236.400 259.199,236.400 256.189 C 236.400 253.520,235.150 252.898,233.157 254.575 C 232.501 255.127,231.199 255.917,230.264 256.331 C 228.170 257.257,223.780 260.553,222.947 261.825 C 222.554 262.424,221.517 263.000,220.075 263.419 C 218.833 263.780,217.340 264.415,216.757 264.830 C 214.760 266.252,210.841 270.220,210.486 271.179 C 210.181 272.003,209.899 271.469,208.467 267.368 C 206.148 260.726,206.943 261.468,201.000 260.411 C 199.452 260.136,197.230 259.377,196.031 258.714 C 193.440 257.282,190.946 257.382,188.541 259.014 C 186.906 260.124,187.008 260.107,182.500 260.006 C 179.221 259.933,179.200 259.938,179.200 260.939 C 179.200 262.064,174.477 264.958,173.348 264.525 C 171.945 263.986,171.522 262.121,172.409 260.383 C 173.446 258.349,173.820 258.213,176.172 259.011 C 177.218 259.366,178.328 259.560,178.637 259.441 C 179.974 258.928,178.745 257.132,176.731 256.654 C 175.973 256.474,175.532 256.006,175.215 255.045 C 174.714 253.526,171.570 252.400,167.833 252.400 C 165.461 252.400,162.234 251.149,160.000 249.363 C 158.209 247.930,157.116 247.752,154.436 248.453 C 153.546 248.685,150.914 244.504,149.996 241.400 C 147.238 232.075,146.853 231.413,144.004 231.075 C 141.338 230.759,141.328 230.750,140.786 228.093 C 140.303 225.723,139.346 223.830,137.771 222.131 C 136.311 220.556,136.163 218.441,137.350 216.099 C 138.225 214.372,138.285 214.014,137.813 213.340 C 135.436 209.946,135.382 202.536,137.709 199.157 C 140.844 194.606,139.987 189.867,135.788 188.544 C 131.568 187.213,131.542 185.914,135.634 180.836 C 136.687 179.529,138.023 177.457,138.604 176.229 C 139.348 174.655,140.181 173.639,141.429 172.780 C 145.096 170.257,145.683 166.415,142.826 163.637 C 141.206 162.062,138.811 158.180,139.254 157.850 C 139.334 157.790,139.970 157.347,140.667 156.867 L 141.934 155.992 143.904 157.216 C 145.501 158.209,146.055 158.369,146.837 158.061 C 147.366 157.851,148.520 157.485,149.400 157.246 C 150.280 157.008,151.900 156.095,153.000 155.219 C 156.123 152.732,157.720 152.000,160.024 152.000 C 163.421 152.000,166.144 149.999,168.196 145.995 C 168.589 145.228,169.381 144.028,169.955 143.328 C 170.530 142.628,171.603 141.217,172.340 140.192 C 173.440 138.661,173.834 138.377,174.540 138.603 C 177.843 139.662,182.391 139.273,184.654 137.738 C 186.089 136.764,186.306 136.727,188.034 137.170 C 190.506 137.803,199.600 135.659,199.600 134.444 C 199.600 131.926,205.791 130.462,206.951 132.705 M47.750 137.920 C 47.858 138.093,47.598 139.012,47.173 139.961 C 46.000 142.581,46.270 144.171,48.147 145.691 C 48.988 146.372,48.976 146.382,47.354 146.391 C 44.582 146.406,42.421 149.273,42.394 152.973 C 42.383 154.406,41.902 154.761,40.396 154.449 C 39.185 154.199,39.096 154.106,39.727 153.749 C 40.909 153.081,41.258 150.559,40.548 147.809 C 39.418 143.431,40.304 140.436,42.923 139.782 C 43.541 139.628,44.346 139.029,44.714 138.451 C 45.761 136.803,46.933 136.598,47.750 137.920 M275.481 184.478 C 277.091 186.039,277.100 186.179,275.638 186.784 C 272.953 187.896,271.238 186.481,272.831 184.468 C 274.035 182.948,273.901 182.947,275.481 184.478 M375.774 185.190 C 377.141 185.710,377.068 186.228,375.554 186.756 C 374.131 187.252,373.600 187.059,373.600 186.043 C 373.600 184.767,374.122 184.562,375.774 185.190 M135.406 237.206 C 136.752 238.694,133.893 239.927,132.176 238.600 C 131.414 238.011,131.418 237.985,132.344 237.200 C 133.544 236.184,134.482 236.186,135.406 237.206 M367.226 237.214 C 368.286 237.781,368.196 238.335,366.995 238.637 C 365.704 238.961,364.588 238.138,365.244 237.347 C 365.788 236.692,366.199 236.664,367.226 237.214 M339.199 337.914 C 339.197 338.265,337.906 340.289,336.925 341.479 C 335.887 342.739,334.078 343.351,333.251 342.722 C 332.893 342.449,332.542 342.193,332.472 342.152 C 332.207 341.997,333.946 338.973,334.657 338.352 C 336.203 337.004,339.205 336.715,339.199 337.914 M66.000 337.975 C 66.000 338.440,62.619 338.983,62.022 338.614 C 61.783 338.466,61.691 338.177,61.817 337.972 C 62.119 337.484,66.000 337.487,66.000 337.975 " class="color1a1a1a svgShape"></path></svg></g></svg>