<svg id="svg" version="1.1" xmlns="http://www.w3.org/2000/svg" xmlns:xlink="http://www.w3.org/1999/xlink" width="400" height="400" viewBox="0, 0, 400,400"><g id="svgg"><path id="path0" d="M328.200 23.610 C 324.473 24.159,320.672 24.324,311.200 24.348 C 304.490 24.364,297.830 24.383,296.400 24.390 C 294.071 24.401,293.391 24.613,289.872 26.428 L 285.944 28.454 283.872 26.866 C 280.277 24.111,272.348 23.470,268.156 25.594 C 265.507 26.937,264.695 26.915,260.600 25.383 C 258.590 24.631,257.851 24.541,256.054 24.826 C 254.820 25.022,252.694 25.009,251.054 24.796 C 246.973 24.265,242.407 24.337,237.800 25.005 C 233.232 25.667,229.691 25.741,227.455 25.222 C 226.192 24.929,225.190 25.084,221.964 26.069 L 218.018 27.274 214.309 25.967 C 210.679 24.688,210.435 24.657,202.800 24.536 C 198.217 24.463,193.955 24.187,192.467 23.867 C 187.953 22.896,179.667 24.182,176.036 26.416 L 173.988 27.676 172.002 26.401 C 168.153 23.932,165.371 23.647,162.600 25.438 C 160.845 26.573,157.959 26.898,157.042 26.065 C 154.395 23.660,149.964 23.484,146.753 25.657 C 142.534 28.513,142.686 28.481,135.890 28.000 C 126.746 27.353,123.586 26.890,120.345 25.719 C 117.962 24.858,116.522 24.627,112.800 24.507 C 107.810 24.345,107.903 24.319,103.850 27.053 C 99.938 29.691,84.423 30.083,79.660 27.662 C 73.003 24.279,67.544 23.961,64.016 26.750 C 62.868 27.657,61.606 28.400,61.212 28.400 C 60.817 28.400,59.957 28.950,59.300 29.622 C 56.538 32.447,52.061 32.305,50.310 29.337 C 48.111 25.611,41.387 26.396,36.412 30.961 C 34.831 32.413,33.367 33.600,33.159 33.600 C 32.950 33.600,32.609 34.050,32.400 34.600 C 32.178 35.183,31.702 35.600,31.259 35.600 C 30.096 35.600,29.664 36.397,29.030 39.706 C 28.711 41.377,28.167 43.290,27.822 43.957 C 26.056 47.373,23.817 63.105,24.200 69.411 C 24.420 73.031,24.338 74.287,23.746 76.411 C 23.185 78.427,23.044 80.220,23.111 84.516 C 23.182 89.011,23.058 90.454,22.444 92.316 C 21.525 95.100,21.798 97.828,23.232 100.200 C 25.325 103.660,24.508 114.226,21.929 117.051 C 19.456 119.761,20.783 124.437,24.305 125.422 C 28.690 126.648,30.024 127.286,30.622 128.443 C 31.928 130.968,30.912 132.841,27.933 133.402 C 25.998 133.766,25.726 133.951,25.000 135.402 C 23.897 137.605,23.838 148.939,24.911 152.462 C 25.760 155.248,25.787 157.454,24.996 159.347 C 23.022 164.073,23.544 171.542,26.214 176.747 C 26.966 178.212,27.050 177.689,24.897 185.000 C 23.970 188.148,23.956 208.995,24.879 212.000 C 26.059 215.842,26.133 217.884,25.229 221.715 C 24.313 225.600,24.140 230.952,24.818 234.445 C 25.795 239.479,25.909 241.743,25.269 243.400 C 24.497 245.400,24.083 264.833,24.747 267.928 C 25.067 269.420,25.030 270.365,24.586 272.033 C 23.716 275.303,23.814 281.997,24.766 284.326 C 25.850 286.975,26.066 289.520,25.397 291.742 C 23.876 296.797,24.792 312.895,26.772 315.883 C 28.673 318.753,28.841 321.610,27.232 323.730 C 24.366 327.506,23.805 331.739,25.613 335.941 L 26.505 338.015 25.752 340.307 C 24.410 344.398,24.686 348.496,26.500 351.408 C 27.660 353.271,28.000 354.228,28.000 355.634 C 28.000 359.471,28.761 362.094,30.369 363.800 C 31.198 364.680,32.295 366.101,32.806 366.957 C 33.556 368.214,34.364 368.805,36.986 370.016 C 40.338 371.564,41.384 372.542,44.338 376.887 C 45.331 378.348,45.986 378.873,47.234 379.209 C 50.001 379.954,57.986 380.800,62.252 380.800 C 65.493 380.800,66.732 380.971,68.267 381.629 C 71.735 383.116,73.756 383.300,76.329 382.362 C 77.578 381.906,80.359 381.111,82.509 380.596 C 84.660 380.081,87.222 379.352,88.204 378.977 L 89.989 378.295 92.095 379.723 C 94.727 381.509,97.078 381.905,99.962 381.048 L 102.058 380.426 105.353 382.164 C 110.160 384.699,113.717 385.250,116.224 383.849 C 117.231 383.286,118.717 382.707,119.527 382.562 C 120.337 382.417,122.071 381.853,123.381 381.310 C 125.303 380.512,126.380 380.333,128.981 380.378 C 130.751 380.409,133.010 380.448,134.000 380.466 C 134.990 380.483,139.018 380.391,142.952 380.261 C 150.559 380.009,151.059 379.883,153.108 377.706 C 153.983 376.776,154.186 376.746,158.708 376.871 C 163.108 376.992,163.482 376.941,164.726 376.054 L 166.051 375.109 167.126 376.050 C 167.717 376.568,168.380 377.174,168.600 377.396 C 168.820 377.618,170.087 378.549,171.414 379.466 L 173.829 381.131 178.814 380.566 C 181.557 380.256,185.254 379.820,187.032 379.599 C 188.810 379.378,191.060 379.296,192.032 379.418 C 193.662 379.623,203.683 379.960,212.800 380.116 C 216.902 380.186,218.925 379.705,220.710 378.233 C 221.310 377.738,222.778 377.019,223.973 376.635 L 226.146 375.936 227.373 377.365 C 230.094 380.535,239.207 381.237,246.591 378.847 C 249.403 377.937,250.394 377.773,251.188 378.085 C 251.745 378.304,253.820 378.640,255.800 378.830 C 257.780 379.021,260.930 379.351,262.800 379.563 C 272.884 380.709,281.796 379.936,284.424 377.687 L 286.108 376.245 287.954 376.954 C 291.695 378.391,293.414 378.527,296.098 377.598 C 298.198 376.871,299.637 376.734,306.201 376.634 C 313.326 376.526,314.005 376.451,316.006 375.543 L 318.156 374.567 321.378 375.407 C 324.257 376.158,325.579 376.239,333.800 376.166 C 342.368 376.090,343.116 376.141,344.690 376.908 C 347.851 378.449,359.438 376.261,362.938 373.462 C 363.852 372.732,365.258 371.740,366.062 371.258 C 367.256 370.542,367.611 370.020,367.997 368.410 C 368.258 367.326,368.739 366.216,369.068 365.944 C 369.799 365.337,371.709 361.576,372.392 359.400 C 372.668 358.520,373.481 357.170,374.200 356.400 C 375.910 354.566,376.195 353.933,376.809 350.610 C 377.093 349.076,377.659 347.063,378.068 346.138 C 379.820 342.178,379.769 335.067,377.962 331.526 C 377.201 330.033,377.190 329.836,377.772 328.071 C 379.221 323.682,379.303 322.019,378.184 319.731 C 376.811 316.925,376.715 311.412,377.989 308.531 C 380.016 303.949,380.730 293.871,379.525 286.842 C 379.179 284.829,379.161 283.212,379.458 280.935 C 379.717 278.951,379.735 276.625,379.509 274.600 C 379.312 272.840,379.168 269.240,379.188 266.600 C 379.209 263.960,379.059 260.922,378.855 259.848 C 378.576 258.381,378.624 257.561,379.050 256.543 C 379.415 255.669,379.598 253.877,379.567 251.494 C 379.497 246.208,379.496 244.592,379.562 241.100 C 379.621 237.987,379.147 236.362,377.695 234.706 C 376.887 233.784,377.278 230.336,378.344 228.980 C 380.217 226.600,380.444 220.880,378.853 216.159 C 377.773 212.950,377.007 203.059,377.613 200.138 C 377.961 198.459,377.925 197.643,377.425 195.960 C 376.816 193.908,376.823 193.836,377.832 192.035 C 379.710 188.679,379.643 185.337,377.657 183.353 C 377.023 182.719,376.190 181.237,375.806 180.060 L 375.109 177.920 376.914 176.060 C 380.125 172.752,380.250 167.053,377.303 158.321 L 375.859 154.042 377.293 151.883 C 378.865 149.515,380.154 146.179,379.827 145.326 C 379.712 145.027,379.426 142.403,379.191 139.494 C 378.619 132.405,378.410 132.152,372.520 131.397 C 370.121 131.090,369.172 130.307,369.935 129.266 C 370.203 128.900,370.733 128.060,371.111 127.400 C 371.490 126.740,372.629 125.390,373.642 124.400 C 379.179 118.989,381.442 106.428,378.018 100.107 C 376.918 98.075,376.799 97.508,376.794 94.229 C 376.790 92.233,376.535 89.526,376.226 88.213 C 375.598 85.543,375.709 85.158,377.815 82.683 C 379.531 80.666,380.180 78.231,379.838 75.090 C 379.690 73.721,379.411 70.461,379.219 67.846 L 378.871 63.091 376.769 60.046 C 375.613 58.371,374.067 56.436,373.333 55.746 C 372.101 54.587,371.998 54.300,371.976 51.946 C 371.938 47.859,371.423 45.513,370.418 44.845 C 369.932 44.523,368.927 43.310,368.185 42.150 C 367.110 40.469,366.523 39.956,365.295 39.625 C 363.785 39.219,361.377 37.531,357.369 34.071 C 356.267 33.120,354.203 31.770,352.783 31.071 C 350.401 29.899,350.144 29.644,349.486 27.800 C 348.263 24.375,347.368 23.924,342.400 24.225 C 338.701 24.449,337.948 24.379,336.085 23.640 C 334.922 23.178,333.752 22.823,333.485 22.851 C 333.218 22.879,330.840 23.220,328.200 23.610 M34.327 37.331 C 34.417 38.096,34.272 38.400,33.814 38.400 C 33.057 38.400,32.616 37.457,32.957 36.567 C 33.319 35.625,34.182 36.106,34.327 37.331 M78.400 38.024 C 78.400 38.859,77.419 39.053,76.412 38.416 C 75.770 38.010,75.814 37.926,76.991 37.292 C 77.960 36.771,78.400 37.000,78.400 38.024 M322.300 40.901 C 322.913 41.388,322.934 42.077,322.369 43.281 C 320.430 47.420,309.275 47.692,305.100 43.702 C 303.322 42.002,303.740 41.463,307.600 40.473 C 309.382 40.017,321.634 40.373,322.300 40.901 M246.891 41.100 C 247.551 41.850,248.800 45.798,248.800 47.132 C 248.800 47.611,249.249 48.172,249.900 48.507 C 250.505 48.818,251.687 49.486,252.526 49.991 L 254.051 50.909 256.133 48.655 C 260.574 43.844,263.993 45.991,264.398 53.845 C 264.601 57.769,264.649 57.937,266.004 59.479 C 266.772 60.353,267.710 61.643,268.088 62.346 C 268.467 63.049,269.339 63.933,270.026 64.312 C 270.714 64.690,271.914 65.495,272.693 66.100 C 273.783 66.946,274.548 67.200,276.006 67.200 C 277.769 67.200,277.941 67.292,278.441 68.500 C 279.570 71.226,281.498 73.894,284.150 76.401 C 289.163 81.140,292.992 85.442,293.404 86.800 C 293.809 88.133,294.277 88.387,296.347 88.394 C 297.713 88.399,298.393 88.662,299.461 89.600 C 301.235 91.157,305.083 91.315,307.909 89.947 C 311.992 87.971,314.426 91.127,312.382 95.747 L 311.553 97.621 312.577 100.179 C 313.140 101.585,313.600 102.915,313.600 103.133 C 313.600 103.596,316.764 105.200,317.677 105.200 C 318.021 105.200,318.549 105.498,318.851 105.862 C 319.153 106.225,320.480 107.008,321.800 107.600 C 323.120 108.192,324.399 108.930,324.643 109.238 C 325.060 109.766,326.400 113.414,326.400 114.020 C 326.400 114.557,322.167 114.719,318.900 114.308 L 315.600 113.893 315.600 111.720 C 315.600 109.341,315.284 108.520,313.791 107.027 C 313.246 106.482,312.800 105.688,312.800 105.262 C 312.800 104.267,312.095 104.105,306.270 103.759 C 300.399 103.411,300.120 103.228,299.639 99.400 C 299.015 94.428,297.172 91.121,294.726 90.584 C 294.087 90.443,293.258 90.010,292.882 89.620 C 292.464 89.186,291.293 88.809,289.858 88.647 C 287.146 88.341,286.000 87.833,286.000 86.934 C 286.000 86.584,285.415 85.610,284.700 84.770 C 283.985 83.930,283.005 82.722,282.523 82.086 C 281.989 81.382,279.841 80.021,277.035 78.609 C 272.340 76.247,271.775 75.821,270.829 73.926 C 270.534 73.336,269.772 72.637,269.136 72.374 C 268.500 72.110,267.612 71.378,267.162 70.747 C 266.421 69.706,266.127 69.600,263.988 69.600 C 260.597 69.600,260.171 69.029,258.986 62.893 C 258.806 61.963,258.368 61.398,257.467 60.935 C 254.331 59.323,251.240 55.854,251.214 53.919 C 251.196 52.555,247.583 48.802,246.281 48.795 C 241.732 48.771,239.045 46.716,239.932 43.941 C 240.719 41.481,241.654 40.928,245.838 40.450 C 246.079 40.423,246.553 40.715,246.891 41.100 M112.885 42.588 C 114.488 43.352,116.762 44.613,117.938 45.390 C 120.911 47.356,121.325 47.391,125.488 46.017 C 128.260 45.103,129.913 44.800,132.140 44.800 C 133.893 44.800,135.700 44.550,136.566 44.188 C 137.891 43.635,138.160 43.638,139.397 44.225 C 142.257 45.582,142.048 46.600,138.481 48.691 C 136.825 49.662,134.000 52.851,134.000 53.751 C 134.000 56.882,136.746 58.998,142.147 60.028 C 146.813 60.917,147.703 61.425,146.418 62.466 C 144.594 63.943,144.526 66.376,146.246 68.673 C 146.771 69.374,147.200 70.132,147.200 70.359 C 147.200 71.117,148.565 71.504,153.000 72.003 C 158.488 72.621,158.995 72.918,159.636 75.889 C 160.145 78.251,162.051 82.537,162.797 82.998 C 163.510 83.439,164.665 86.162,164.495 87.000 C 164.184 88.531,163.264 88.800,158.344 88.800 L 153.641 88.800 152.620 87.462 C 151.808 86.398,151.600 85.669,151.600 83.893 C 151.600 81.958,151.414 81.417,150.200 79.827 C 149.430 78.818,148.800 77.886,148.800 77.755 C 148.800 77.623,148.260 76.716,147.600 75.738 C 146.940 74.760,146.400 73.813,146.400 73.634 C 146.400 72.944,144.283 71.238,143.106 70.979 C 142.427 70.830,141.427 70.181,140.885 69.537 C 140.343 68.892,139.212 68.014,138.372 67.586 C 135.678 66.211,132.307 63.648,131.359 62.254 C 130.595 61.130,129.976 60.778,127.719 60.184 C 122.433 58.793,120.469 57.213,119.169 53.305 C 117.819 49.249,117.224 48.775,113.194 48.537 C 106.676 48.154,105.500 46.486,108.793 42.300 C 109.846 40.961,109.402 40.930,112.885 42.588 M187.337 42.100 C 188.091 42.595,189.264 43.304,189.942 43.675 C 190.621 44.046,191.716 45.227,192.376 46.299 C 194.010 48.955,197.081 50.932,199.987 51.199 L 202.174 51.400 204.126 54.559 C 205.200 56.296,206.568 58.130,207.167 58.634 C 207.766 59.138,208.577 60.261,208.969 61.130 C 209.580 62.486,209.905 62.747,211.256 62.963 C 212.843 63.216,212.942 63.325,213.367 65.271 C 213.578 66.239,213.822 66.368,215.900 66.607 C 221.157 67.211,222.061 67.819,223.627 71.800 C 224.947 75.154,228.026 79.245,230.100 80.399 C 231.035 80.920,232.254 81.676,232.809 82.081 C 233.364 82.485,234.774 82.929,235.941 83.068 C 238.419 83.361,239.291 84.265,240.596 87.890 C 241.483 90.355,241.573 90.429,244.983 91.471 C 247.003 92.089,247.521 92.450,248.383 93.841 C 252.474 100.441,255.633 103.403,259.200 103.983 C 260.260 104.156,260.631 104.429,260.728 105.110 C 260.800 105.610,261.358 106.268,261.987 106.594 C 262.635 106.928,263.498 107.963,264.007 109.014 C 264.589 110.218,265.465 111.203,266.548 111.873 C 267.457 112.436,268.650 113.312,269.200 113.819 C 270.101 114.651,270.392 114.706,272.136 114.377 C 275.472 113.746,277.209 115.202,278.612 119.803 C 280.689 126.610,285.784 128.167,292.162 123.942 C 293.864 122.815,294.181 122.742,296.328 122.992 C 299.820 123.397,300.560 122.111,297.683 120.637 C 296.049 119.799,295.481 118.461,296.058 116.807 C 296.699 114.966,297.688 114.616,298.826 115.828 C 299.341 116.376,300.761 117.115,301.981 117.469 C 303.202 117.824,304.588 118.368,305.062 118.678 C 305.827 119.179,305.986 119.159,306.462 118.506 C 307.331 117.316,309.936 116.000,311.423 116.000 C 312.279 116.000,313.111 115.689,313.622 115.178 L 314.443 114.357 314.322 116.468 L 314.200 118.580 311.600 119.901 C 310.170 120.627,308.307 121.797,307.460 122.501 C 306.614 123.204,304.994 124.014,303.860 124.301 C 302.727 124.587,301.620 125.055,301.400 125.340 C 301.180 125.625,300.004 126.493,298.786 127.269 C 294.295 130.132,293.165 132.700,294.954 135.986 C 296.759 139.304,295.415 140.326,291.707 138.454 C 289.340 137.259,285.850 136.409,283.227 136.389 C 282.442 136.383,280.360 135.860,278.600 135.228 C 275.747 134.203,274.334 133.702,270.269 132.275 C 268.608 131.691,268.074 130.576,267.644 126.793 C 267.095 121.970,266.783 121.331,264.718 120.793 C 263.773 120.547,262.307 120.166,261.460 119.947 C 259.858 119.532,257.730 117.578,255.618 114.586 C 253.235 111.207,247.783 110.847,244.031 113.819 C 241.967 115.454,241.568 115.422,240.923 113.570 C 240.067 111.116,240.275 109.371,241.600 107.861 C 243.007 106.259,243.049 105.848,242.048 103.513 C 241.167 101.456,236.952 97.417,234.310 96.098 C 233.333 95.610,232.189 94.825,231.767 94.353 C 231.345 93.882,230.247 93.171,229.326 92.773 C 228.405 92.376,227.344 91.581,226.968 91.007 C 226.592 90.433,225.005 89.137,223.442 88.127 C 219.313 85.457,214.907 81.398,214.594 79.974 C 214.452 79.328,213.710 78.049,212.944 77.133 C 212.178 76.216,211.300 74.979,210.992 74.385 C 210.593 73.612,209.930 73.177,208.673 72.860 C 207.280 72.509,206.183 71.700,203.407 68.973 C 201.214 66.819,199.207 65.234,198.050 64.741 C 195.950 63.848,192.064 60.063,190.854 57.733 C 189.591 55.301,186.979 53.506,184.000 53.024 C 176.662 51.837,176.515 43.551,183.800 41.760 C 184.900 41.489,185.837 41.253,185.882 41.234 C 185.927 41.215,186.582 41.605,187.337 42.100 M280.000 42.200 C 280.674 42.585,282.303 42.779,285.000 42.794 C 293.710 42.844,298.142 44.542,297.935 47.749 C 297.822 49.488,298.016 50.238,299.101 52.274 C 300.507 54.913,300.796 55.129,303.776 55.773 C 305.964 56.246,307.194 57.815,308.855 62.254 C 310.117 65.629,313.970 67.350,316.872 65.836 C 318.268 65.107,318.645 65.516,320.713 70.002 C 322.402 73.664,331.827 83.921,335.843 86.468 C 336.790 87.069,338.001 88.244,338.534 89.080 C 340.752 92.555,345.461 95.404,348.336 95.009 L 350.322 94.736 350.610 96.047 C 350.792 96.873,351.780 98.253,353.282 99.779 C 358.747 105.329,358.896 105.520,359.454 107.670 C 360.705 112.493,359.569 116.800,357.045 116.800 C 356.705 116.800,355.831 117.324,355.102 117.964 C 352.131 120.572,349.065 119.666,349.507 116.311 C 349.708 114.779,347.695 107.678,346.684 106.354 C 346.413 105.998,345.023 105.125,343.595 104.412 C 342.168 103.700,340.441 102.585,339.757 101.936 C 338.137 100.395,334.566 99.437,331.754 99.788 C 329.145 100.114,328.565 99.100,329.513 95.866 L 330.086 93.912 328.008 91.808 C 326.112 89.888,325.736 89.685,323.702 89.475 C 320.908 89.186,320.488 88.757,319.804 85.485 C 318.817 80.768,317.527 79.994,310.746 80.047 C 305.266 80.090,304.339 79.386,305.227 75.857 C 305.808 73.551,304.226 71.386,299.751 68.367 C 297.559 66.888,296.530 65.860,295.433 64.055 C 293.839 61.430,293.846 61.433,288.304 60.591 C 283.617 59.879,282.546 59.111,282.183 56.200 C 281.877 53.753,278.376 49.600,276.619 49.600 C 274.131 49.600,272.900 46.626,274.391 44.214 C 275.968 41.664,277.868 40.981,280.000 42.200 M81.022 45.400 C 82.529 46.390,83.882 47.200,84.028 47.200 C 84.174 47.200,84.751 47.892,85.311 48.737 C 86.172 50.039,86.717 50.383,88.864 50.983 C 92.510 52.002,93.896 52.827,96.600 55.587 L 99.000 58.037 98.000 58.831 C 95.938 60.469,94.566 60.902,89.941 61.375 C 86.311 61.746,85.023 62.035,84.364 62.628 C 80.631 65.991,80.000 66.933,80.000 69.141 C 80.000 72.104,76.132 73.852,75.171 71.323 C 74.156 68.655,74.689 65.940,76.610 63.990 C 79.353 61.205,79.484 59.109,77.131 55.669 C 75.157 52.782,73.481 49.986,72.603 48.113 C 70.460 43.540,75.646 41.869,81.022 45.400 M154.744 44.631 C 155.332 44.978,156.205 45.861,156.686 46.594 C 157.336 47.586,157.999 48.026,159.280 48.314 C 160.226 48.528,161.291 48.824,161.646 48.973 C 162.132 49.177,162.496 48.808,163.120 47.481 C 165.368 42.698,168.580 44.205,168.166 49.849 L 167.887 53.650 169.324 55.125 C 171.062 56.909,171.812 58.641,172.185 61.732 C 172.439 63.848,172.575 64.103,173.641 64.474 C 174.288 64.700,175.002 65.230,175.228 65.652 C 175.454 66.074,176.772 66.955,178.157 67.609 C 179.542 68.263,181.001 69.159,181.399 69.599 C 181.798 70.040,182.429 70.400,182.802 70.400 C 185.722 70.400,187.129 72.201,187.480 76.387 C 187.817 80.409,186.673 80.765,180.400 78.589 C 178.970 78.093,177.260 77.564,176.600 77.413 C 174.215 76.866,173.326 75.087,172.398 69.000 C 171.717 64.537,171.958 64.800,168.555 64.800 C 165.308 64.800,165.416 64.861,162.731 61.500 C 162.086 60.692,160.331 59.502,158.300 58.496 C 154.870 56.796,152.543 54.104,151.741 50.907 C 151.613 50.396,150.734 49.344,149.789 48.570 C 147.595 46.772,147.354 46.114,148.458 44.938 C 149.538 43.789,153.031 43.618,154.744 44.631 M57.100 45.641 C 58.174 46.046,58.162 45.953,57.349 47.581 C 56.437 49.411,56.766 53.922,57.919 55.388 C 58.376 55.969,59.127 57.223,59.588 58.175 C 60.048 59.126,61.601 61.231,63.038 62.852 C 67.324 67.688,65.728 71.138,59.994 69.435 C 57.124 68.583,54.973 69.352,55.602 71.005 C 56.723 73.953,55.372 76.975,52.110 78.816 C 48.411 80.904,48.383 82.329,52.000 84.498 C 55.694 86.715,56.509 94.393,53.051 94.402 C 49.512 94.412,47.612 96.721,46.788 102.014 C 46.566 103.436,46.180 105.812,45.929 107.293 C 45.540 109.599,45.573 110.290,46.162 112.093 C 47.122 115.035,47.437 119.263,46.808 120.781 C 46.331 121.932,45.600 122.443,45.600 121.625 C 45.600 121.419,44.767 120.654,43.750 119.925 C 39.655 116.993,37.755 112.357,38.945 108.200 C 39.259 107.100,40.002 104.490,40.595 102.400 C 41.189 100.310,41.925 98.150,42.232 97.600 C 42.538 97.050,43.240 95.610,43.791 94.400 C 44.343 93.190,45.055 91.709,45.374 91.108 C 45.939 90.044,45.908 89.978,44.210 88.587 C 38.122 83.598,37.704 76.572,43.450 75.803 C 46.531 75.391,47.484 74.851,48.827 72.757 C 49.518 71.681,50.313 70.800,50.593 70.800 C 51.683 70.800,52.036 69.756,51.201 69.001 C 50.275 68.163,46.620 60.684,45.950 58.256 C 44.757 53.933,44.753 54.004,46.192 52.651 C 46.924 51.963,47.893 50.656,48.346 49.746 C 49.101 48.230,50.989 46.414,53.000 45.269 C 53.782 44.824,55.297 44.961,57.100 45.641 M343.119 45.302 C 343.348 45.578,343.661 46.306,343.815 46.918 C 343.969 47.530,344.703 48.496,345.447 49.063 C 346.419 49.804,346.800 50.412,346.800 51.219 C 346.800 52.678,347.753 53.600,349.262 53.600 C 350.050 53.600,350.408 53.773,350.296 54.100 C 349.994 54.982,346.766 54.440,341.881 52.689 C 339.603 51.872,338.619 46.733,340.489 45.423 C 341.564 44.670,342.556 44.624,343.119 45.302 M220.073 48.930 L 221.146 49.711 219.473 51.405 C 217.257 53.650,215.533 51.187,217.427 48.482 C 218.075 47.557,218.221 47.582,220.073 48.930 M328.631 53.215 C 333.600 55.621,331.076 60.236,324.411 60.932 C 321.887 61.196,321.601 60.955,321.637 58.600 C 321.716 53.436,324.562 51.245,328.631 53.215 M230.991 61.190 C 232.383 62.729,230.274 64.734,228.731 63.338 C 227.779 62.476,227.809 62.088,228.900 61.177 C 230.034 60.231,230.124 60.232,230.991 61.190 M250.318 63.879 L 250.435 66.294 248.328 68.189 C 245.546 70.690,242.780 70.718,240.534 68.267 C 238.604 66.161,239.188 64.765,242.400 63.807 C 242.950 63.642,244.030 63.169,244.800 62.754 C 246.211 61.995,249.059 61.209,249.800 61.374 C 250.020 61.423,250.253 62.550,250.318 63.879 M347.916 68.777 C 352.736 71.299,355.814 77.421,352.941 78.770 C 351.007 79.678,346.084 79.831,344.636 79.027 C 340.137 76.528,339.457 69.659,343.600 68.557 C 346.095 67.894,346.243 67.901,347.916 68.777 M116.535 74.181 C 117.891 74.940,120.080 76.473,121.400 77.586 C 122.720 78.699,124.626 80.157,125.636 80.825 C 127.589 82.117,129.122 84.763,130.026 88.400 C 130.618 90.783,133.381 94.376,134.846 94.669 C 137.169 95.134,137.720 96.737,136.647 99.904 C 136.164 101.326,135.895 103.528,135.813 106.704 C 135.707 110.877,135.537 111.845,134.286 115.400 C 133.512 117.600,132.649 120.993,132.369 122.939 C 131.896 126.227,131.763 126.553,130.502 127.539 C 128.717 128.933,123.567 133.989,120.800 137.064 C 118.691 139.407,118.490 139.527,115.934 139.960 C 114.467 140.208,112.539 140.669,111.648 140.983 C 110.263 141.472,109.608 141.476,107.114 141.010 C 97.078 139.137,93.439 139.358,91.176 141.981 L 89.752 143.631 88.999 142.799 C 88.406 142.143,88.200 141.107,88.023 137.884 L 87.800 133.800 86.246 133.041 C 85.391 132.624,83.006 132.067,80.946 131.803 C 76.243 131.201,75.409 130.599,75.758 128.057 C 76.132 125.322,75.043 122.141,72.996 120.000 C 70.443 117.328,69.875 114.941,71.081 111.955 C 71.846 110.059,72.053 108.468,72.405 101.754 L 72.822 93.800 74.379 90.600 C 75.235 88.840,76.222 86.715,76.572 85.878 C 77.026 84.793,77.620 84.184,78.642 83.756 C 79.431 83.427,81.005 82.550,82.138 81.807 C 83.272 81.064,84.983 80.252,85.939 80.002 C 86.896 79.753,88.786 78.985,90.139 78.297 C 92.153 77.273,93.291 76.993,96.400 76.755 C 100.874 76.413,103.641 75.715,107.200 74.031 C 110.859 72.299,113.245 72.338,116.535 74.181 M251.559 79.814 C 253.010 81.467,253.044 81.764,252.055 84.073 C 250.647 87.356,249.635 87.480,248.367 84.523 C 247.371 82.200,247.393 81.911,248.700 80.021 C 250.048 78.073,250.031 78.074,251.559 79.814 M202.822 83.062 C 203.439 87.614,204.311 90.058,206.022 92.025 C 206.852 92.980,207.634 94.270,207.758 94.891 C 207.882 95.512,208.438 96.474,208.992 97.028 C 210.273 98.309,210.280 98.285,208.500 98.779 C 206.267 99.399,205.026 99.293,203.869 98.383 C 203.297 97.933,201.759 97.377,200.450 97.146 C 197.454 96.618,196.487 95.639,195.731 92.367 C 195.264 90.345,194.838 89.577,193.424 88.202 C 192.450 87.256,191.568 85.967,191.414 85.263 C 191.260 84.562,190.591 83.581,189.894 83.036 C 188.151 81.671,188.893 80.800,191.799 80.800 C 192.954 80.800,194.687 80.511,195.650 80.158 C 201.108 78.157,202.219 78.607,202.822 83.062 M170.600 90.386 C 170.820 90.555,171.920 90.994,173.044 91.361 C 174.168 91.727,175.788 92.622,176.644 93.350 C 177.500 94.078,178.705 94.798,179.321 94.950 C 180.007 95.119,180.761 95.767,181.265 96.620 C 182.312 98.395,188.957 102.972,191.968 103.992 L 194.200 104.749 195.400 103.686 C 196.060 103.102,196.914 102.285,197.297 101.871 C 198.767 100.285,203.194 103.251,203.199 105.825 C 203.201 107.088,201.860 108.250,199.521 109.014 C 198.354 109.395,197.280 109.774,197.134 109.856 C 196.987 109.938,197.392 110.531,198.034 111.172 C 198.675 111.814,199.200 112.661,199.200 113.055 C 199.200 113.450,200.033 114.618,201.050 115.651 C 203.441 118.078,204.893 121.850,203.756 122.682 C 202.647 123.493,201.737 123.299,200.729 122.037 C 200.218 121.397,199.136 120.600,198.323 120.267 C 197.506 119.931,196.440 119.040,195.936 118.271 C 195.432 117.502,194.126 116.409,193.012 115.825 C 189.764 114.121,187.552 112.421,183.743 108.699 C 180.376 105.410,176.480 102.498,173.146 100.780 C 170.406 99.368,168.000 95.451,168.000 92.403 C 168.000 90.920,167.897 90.759,166.800 90.540 C 166.140 90.408,165.600 90.122,165.600 89.904 C 165.600 89.459,169.941 89.877,170.600 90.386 M143.462 92.952 L 144.569 93.904 143.584 95.346 C 142.390 97.095,141.965 97.285,140.440 96.754 C 138.754 96.166,138.091 94.209,139.320 93.445 C 142.060 91.741,142.055 91.742,143.462 92.952 M262.772 101.651 C 262.804 102.848,261.846 103.922,261.396 103.193 C 261.119 102.745,261.473 100.130,261.905 99.430 C 262.206 98.942,262.736 100.299,262.772 101.651 M221.139 103.419 C 223.592 104.147,224.788 105.572,227.186 110.619 C 228.707 113.820,229.287 114.455,232.988 116.966 C 233.928 117.604,234.741 118.557,234.987 119.309 C 235.315 120.316,235.730 120.669,237.000 121.025 C 239.042 121.596,239.384 123.124,237.400 122.811 C 236.740 122.706,235.120 122.658,233.800 122.704 C 225.267 122.997,224.929 122.917,226.319 120.939 C 227.755 118.897,227.767 117.767,226.366 116.303 C 225.680 115.587,224.874 114.527,224.574 113.948 C 224.115 113.062,223.459 112.756,220.399 112.000 C 216.037 110.922,215.224 110.343,214.923 108.103 C 214.365 103.945,216.780 102.125,221.139 103.419 M157.199 105.400 C 157.971 105.799,158.759 106.835,159.557 108.500 C 160.835 111.166,164.876 115.198,166.273 115.202 C 166.673 115.203,167.837 114.904,168.861 114.537 C 171.494 113.593,173.026 114.240,173.622 116.547 C 175.139 122.419,175.832 123.333,181.800 127.327 C 182.900 128.064,184.055 129.145,184.366 129.730 C 184.678 130.316,185.340 131.062,185.838 131.388 C 186.336 131.714,187.326 133.075,188.039 134.413 C 188.752 135.750,189.665 137.020,190.067 137.236 C 191.672 138.095,189.985 139.261,184.985 140.747 L 182.171 141.583 178.990 140.396 C 177.241 139.744,175.358 138.876,174.805 138.468 C 174.252 138.060,172.869 137.503,171.732 137.231 C 170.028 136.823,169.469 136.454,168.554 135.133 C 167.943 134.252,166.699 133.019,165.791 132.393 C 164.882 131.768,163.648 130.614,163.049 129.828 C 162.269 128.806,161.649 128.400,160.869 128.400 C 159.701 128.400,158.000 127.419,158.000 126.746 C 158.000 126.521,157.208 125.545,156.240 124.576 C 153.425 121.762,152.649 119.746,152.398 114.600 C 151.971 105.852,153.268 103.367,157.199 105.400 M340.006 116.300 L 341.581 117.800 340.791 120.600 C 339.594 124.838,339.009 125.427,336.145 125.278 C 330.940 125.007,330.375 124.517,329.769 119.742 C 329.480 117.461,329.427 117.512,332.600 117.001 C 333.480 116.859,335.010 116.314,336.000 115.790 C 338.312 114.565,338.164 114.546,340.006 116.300 M48.593 124.178 C 53.369 124.894,51.404 135.135,46.293 136.169 C 41.512 137.136,40.404 136.344,40.401 131.954 C 40.400 129.245,41.238 127.975,43.763 126.858 C 45.314 126.171,45.510 125.926,45.765 124.349 C 45.984 122.997,46.132 122.748,46.418 123.254 C 46.628 123.625,47.568 124.024,48.593 124.178 M246.600 127.927 C 247.480 128.365,248.510 129.255,248.888 129.904 C 249.380 130.746,250.250 131.330,251.925 131.941 C 253.216 132.411,254.541 133.112,254.867 133.498 C 257.691 136.831,255.470 140.817,252.327 138.058 C 251.591 137.412,249.461 136.294,247.594 135.574 C 242.875 133.754,240.473 131.470,239.800 128.164 C 238.911 123.793,240.654 122.461,243.400 125.411 C 244.280 126.357,245.720 127.489,246.600 127.927 M214.612 126.243 C 217.245 127.762,220.800 132.576,220.800 134.621 C 220.800 135.547,221.986 135.883,224.089 135.550 C 227.250 135.051,227.743 135.594,228.580 140.498 C 228.921 142.496,226.761 143.842,225.125 142.651 C 224.616 142.280,223.496 141.468,222.636 140.846 C 221.775 140.223,220.695 139.051,220.236 138.240 C 219.507 136.955,218.982 136.623,216.122 135.637 C 209.443 133.335,206.989 131.018,207.908 127.882 C 208.875 124.584,210.886 124.092,214.612 126.243 M350.070 130.047 C 350.879 130.453,352.499 131.901,353.670 133.263 C 354.842 134.626,356.531 136.564,357.424 137.570 C 361.900 142.612,361.447 144.000,355.329 144.000 C 351.810 144.000,351.208 144.436,350.613 147.414 C 349.780 151.586,349.033 150.739,349.326 145.954 C 349.640 140.827,349.200 138.964,346.470 133.854 C 343.767 128.796,344.995 127.497,350.070 130.047 M202.393 136.983 C 203.209 139.128,199.974 145.200,198.016 145.200 C 197.016 145.200,195.908 142.320,196.085 140.182 C 196.309 137.478,197.135 136.492,199.343 136.291 C 200.254 136.208,201.229 136.108,201.510 136.070 C 201.790 136.031,202.188 136.442,202.393 136.983 M307.793 140.900 C 309.080 142.016,309.493 147.079,308.387 148.184 C 307.003 149.569,302.063 149.426,299.600 147.931 C 296.367 145.968,295.893 140.859,298.890 140.284 C 302.012 139.684,306.772 140.014,307.793 140.900 M323.600 146.794 C 323.600 147.182,323.706 148.032,323.837 148.683 C 324.034 149.672,323.797 150.185,322.397 151.804 C 320.661 153.809,320.386 155.937,321.663 157.475 C 322.119 158.026,321.966 158.122,319.934 158.566 C 319.249 158.715,318.723 159.193,318.465 159.899 L 318.063 161.000 318.032 159.654 C 318.011 158.787,317.514 157.644,316.636 156.449 C 315.886 155.427,315.150 153.873,315.001 152.996 C 314.852 152.118,314.649 151.101,314.550 150.737 C 314.417 150.250,315.149 149.643,317.293 148.459 C 318.900 147.572,320.645 146.265,321.170 145.555 L 322.124 144.265 322.862 145.177 C 323.268 145.678,323.600 146.406,323.600 146.794 M214.502 149.300 C 214.733 149.988,214.384 151.200,213.953 151.200 C 213.759 151.200,213.600 150.660,213.600 150.000 C 213.600 148.803,214.182 148.351,214.502 149.300 M50.592 153.163 C 50.862 154.394,49.929 157.200,49.249 157.200 C 49.034 157.200,48.488 158.186,48.037 159.392 L 47.217 161.584 48.067 163.024 C 48.902 164.440,49.228 170.793,48.572 172.881 C 48.454 173.256,49.003 174.886,49.791 176.503 C 52.179 181.400,51.987 183.988,49.189 184.602 C 48.556 184.741,47.588 185.209,47.039 185.641 C 45.738 186.664,42.334 187.694,41.850 187.210 C 41.183 186.543,41.569 181.654,42.414 180.078 C 43.843 177.413,43.524 174.291,41.600 172.105 C 40.720 171.105,40.000 169.874,40.000 169.370 C 40.000 168.865,39.815 167.965,39.589 167.370 C 39.071 166.008,39.726 165.202,42.339 163.985 C 45.347 162.584,45.600 162.219,45.600 159.285 C 45.600 154.772,49.811 149.607,50.592 153.163 M254.726 155.983 C 256.417 155.973,258.610 155.796,259.600 155.590 C 260.973 155.304,262.646 155.421,266.652 156.080 C 271.805 156.929,271.989 156.932,276.452 156.255 C 286.805 154.685,293.649 156.105,294.944 160.090 C 295.777 162.654,298.857 165.752,302.619 167.809 C 303.709 168.404,304.960 169.237,305.400 169.659 C 305.840 170.080,307.938 170.962,310.062 171.618 C 313.797 172.772,313.964 172.874,315.166 174.748 C 315.850 175.813,317.109 177.386,317.963 178.242 C 318.818 179.099,319.964 180.469,320.511 181.286 C 321.058 182.103,322.041 183.223,322.696 183.774 C 324.013 184.882,325.804 188.371,327.163 192.476 C 327.651 193.948,328.558 195.792,329.179 196.573 C 330.492 198.226,330.973 200.679,330.588 203.761 C 330.415 205.146,330.541 206.926,330.950 208.846 C 332.124 214.367,332.549 219.768,332.473 228.200 C 332.414 234.676,332.551 237.408,333.072 240.129 C 333.682 243.316,333.695 244.303,333.208 250.329 C 332.911 253.998,332.731 257.810,332.807 258.800 C 332.883 259.790,332.938 261.410,332.929 262.400 C 332.920 263.390,332.916 267.080,332.919 270.600 C 332.926 278.794,332.915 279.709,332.743 285.000 C 332.606 289.224,332.647 289.492,333.781 291.695 L 334.962 293.989 334.092 297.495 C 332.265 304.861,331.997 309.274,333.214 311.956 L 334.011 313.712 337.306 313.477 C 339.117 313.347,340.980 313.127,341.445 312.988 C 342.033 312.812,342.369 312.943,342.552 313.418 C 343.016 314.628,342.056 315.200,339.560 315.200 C 336.761 315.200,336.454 315.535,335.248 319.909 C 333.523 326.165,329.392 329.521,324.800 328.397 C 323.703 328.128,304.591 328.188,293.600 328.495 C 292.610 328.523,289.460 328.404,286.600 328.232 C 283.354 328.036,280.753 328.070,279.678 328.321 C 276.063 329.168,275.280 327.222,275.002 316.697 C 274.810 309.437,274.704 309.034,272.439 306.987 C 270.246 305.006,269.292 302.707,269.983 301.067 C 270.277 300.370,271.006 298.370,271.604 296.621 C 272.213 294.841,273.264 292.759,273.994 291.890 C 276.069 289.418,276.320 287.951,276.132 279.400 C 275.928 270.111,275.871 269.724,274.407 267.546 C 273.014 265.473,272.555 262.624,273.175 259.890 C 273.570 258.146,273.487 257.618,272.211 253.806 C 270.651 249.143,270.692 247.348,272.437 243.928 C 273.268 242.298,273.275 242.174,272.642 240.168 C 271.561 236.736,271.860 230.100,273.233 227.088 C 273.794 225.855,273.474 225.236,270.601 222.001 C 269.614 220.890,268.432 219.247,267.975 218.350 C 266.881 216.206,264.192 213.320,262.418 212.386 C 260.941 211.608,257.789 208.485,255.869 205.896 C 255.256 205.069,253.999 204.013,253.077 203.550 C 252.155 203.086,251.096 202.440,250.725 202.114 C 250.125 201.587,249.788 201.610,247.725 202.313 C 246.446 202.749,244.200 203.309,242.734 203.559 C 237.528 204.443,233.318 206.722,231.200 209.800 C 230.519 210.790,229.798 211.600,229.598 211.600 C 229.397 211.600,228.780 212.375,228.225 213.322 C 227.643 214.315,226.541 215.423,225.623 215.939 C 224.746 216.432,223.528 217.571,222.915 218.470 C 222.082 219.693,221.274 220.300,219.721 220.873 C 218.577 221.295,217.553 221.946,217.444 222.320 C 216.563 225.365,216.294 227.128,216.181 230.600 C 216.109 232.800,215.926 236.139,215.774 238.021 C 215.567 240.572,215.652 241.995,216.108 243.621 C 216.558 245.226,216.664 246.918,216.509 250.048 C 216.385 252.561,216.496 255.420,216.779 257.048 C 217.421 260.734,217.361 264.874,216.621 268.017 C 215.808 271.466,215.820 280.163,216.646 285.794 C 217.202 289.582,217.220 290.677,216.777 293.600 C 216.490 295.497,216.218 301.421,216.163 307.000 C 215.942 329.429,215.701 330.895,212.205 331.124 C 210.744 331.219,209.978 331.030,208.856 330.296 C 206.275 328.608,206.089 328.617,202.208 330.583 C 199.219 332.098,197.880 332.519,194.400 333.037 C 192.090 333.381,189.242 334.011,188.070 334.437 C 185.455 335.387,183.673 334.785,180.119 331.748 C 178.186 330.097,177.895 329.968,177.282 330.488 C 175.168 332.286,165.565 332.882,162.600 331.400 L 161.000 330.600 160.768 327.000 C 160.640 325.020,160.291 321.903,159.991 320.073 C 159.551 317.381,159.540 316.234,159.935 314.073 C 161.289 306.663,161.299 306.505,160.577 304.330 C 160.028 302.677,159.945 301.537,160.163 298.632 C 160.861 289.309,160.819 282.305,160.039 278.200 C 159.341 274.523,159.312 273.401,159.692 264.314 C 160.070 255.242,160.046 254.271,159.399 252.514 C 158.557 250.229,158.569 248.196,159.440 245.211 C 160.182 242.670,160.011 239.587,159.011 237.480 L 158.359 236.105 154.350 235.912 C 149.390 235.673,148.395 235.040,149.190 232.629 C 150.023 230.105,153.102 229.015,156.287 230.115 C 159.521 231.232,160.149 228.871,159.749 217.115 C 159.339 205.085,159.443 196.903,160.178 183.400 C 160.480 177.855,160.472 177.781,159.441 175.879 C 158.290 173.754,158.126 171.719,158.838 168.398 C 159.360 165.963,159.137 164.862,157.800 163.273 C 156.520 161.751,156.422 161.981,159.161 160.060 L 161.523 158.403 165.129 158.659 C 168.634 158.908,168.803 158.880,171.182 157.641 C 176.109 155.077,180.279 155.161,183.789 157.896 L 185.619 159.322 189.465 158.598 C 193.170 157.901,193.411 157.901,196.085 158.594 C 200.951 159.856,206.793 159.181,209.088 157.091 C 211.446 154.945,215.125 163.544,213.812 168.132 C 213.408 169.545,213.313 170.834,213.514 172.200 L 213.807 174.200 216.604 174.435 C 218.142 174.564,220.634 175.059,222.142 175.535 C 225.720 176.664,226.163 176.632,227.270 175.174 C 227.781 174.499,228.849 173.194,229.643 172.274 C 230.436 171.353,231.762 169.070,232.588 167.200 C 234.290 163.350,234.803 162.800,236.695 162.800 C 237.746 162.800,238.428 162.415,239.837 161.026 C 240.956 159.923,242.385 159.004,243.616 158.595 C 244.705 158.233,245.732 157.692,245.900 157.393 C 246.459 156.395,249.630 155.231,250.692 155.635 C 251.220 155.836,253.035 155.992,254.726 155.983 M91.760 158.659 C 95.481 159.965,106.443 160.061,108.784 158.809 C 109.651 158.344,119.201 158.849,123.802 159.603 C 125.121 159.819,127.201 159.996,128.425 159.998 C 131.836 160.001,132.943 161.325,132.845 165.283 C 132.589 175.640,132.729 183.197,133.243 186.831 C 133.638 189.626,133.587 190.184,132.586 193.981 C 131.339 198.709,131.452 199.265,134.376 202.785 C 137.767 206.869,137.806 212.105,134.466 215.027 L 133.064 216.254 132.748 221.627 C 132.574 224.582,132.352 227.675,132.254 228.500 C 132.043 230.279,132.949 234.065,134.030 235.923 C 135.239 238.000,135.097 241.778,133.734 243.783 C 132.204 246.035,131.688 250.598,132.371 255.848 C 132.766 258.891,132.783 260.693,132.442 263.684 C 131.449 272.405,132.088 281.603,133.974 285.743 C 134.428 286.740,134.800 288.115,134.800 288.798 C 134.800 289.481,135.071 290.564,135.402 291.204 C 137.361 294.991,137.670 301.000,135.990 302.610 C 133.156 305.325,132.278 313.395,134.217 318.908 C 135.501 322.556,135.294 325.122,133.558 327.105 C 132.929 327.823,132.145 328.933,131.814 329.572 C 130.745 331.640,123.656 332.669,118.942 331.440 C 115.664 330.586,113.895 330.633,111.949 331.626 C 109.905 332.669,106.015 332.995,101.580 332.496 C 99.503 332.262,97.147 332.251,95.580 332.467 C 94.002 332.686,89.295 332.659,83.456 332.398 C 72.302 331.899,71.045 331.558,70.566 328.901 C 70.417 328.076,70.142 327.104,69.956 326.743 C 69.745 326.334,69.837 325.648,70.200 324.920 C 71.544 322.225,71.796 317.771,70.723 315.692 L 69.745 313.800 70.896 310.000 C 72.006 306.334,72.038 305.996,71.803 300.400 C 71.478 292.688,71.478 290.519,71.796 283.200 C 72.152 275.033,71.311 270.878,68.738 268.086 C 66.803 265.987,66.767 263.617,68.617 259.967 C 69.335 258.549,69.515 257.789,69.251 257.293 C 67.168 253.390,66.438 248.339,67.370 244.282 C 67.908 241.939,68.862 237.068,69.657 232.600 C 69.853 231.500,69.902 229.501,69.766 228.158 C 69.623 226.740,69.726 224.727,70.013 223.358 C 70.900 219.119,70.652 214.867,69.372 212.370 C 67.802 209.311,67.549 204.429,68.753 200.463 C 69.490 198.039,69.541 197.407,69.145 195.689 C 68.772 194.074,68.799 193.381,69.293 191.933 C 69.851 190.294,69.837 189.926,69.107 187.178 C 67.858 182.470,68.016 179.784,69.750 176.275 C 70.698 174.356,71.200 172.777,71.200 171.713 C 71.200 169.614,72.330 164.116,73.050 162.712 C 73.787 161.275,74.420 160.977,78.733 160.036 C 80.737 159.599,83.146 158.883,84.088 158.446 C 85.985 157.564,88.869 157.645,91.760 158.659 M332.554 161.355 C 333.896 161.916,334.400 163.035,334.400 165.450 C 334.400 167.196,331.137 166.155,328.260 163.490 L 326.319 161.694 327.460 161.278 C 329.090 160.685,331.019 160.714,332.554 161.355 M344.528 174.782 C 348.102 175.696,349.032 176.138,349.596 177.193 C 349.824 177.619,350.779 178.307,351.719 178.723 C 353.720 179.608,355.158 181.195,356.386 183.872 C 356.872 184.933,357.718 186.730,358.266 187.868 C 359.790 191.031,358.898 192.383,355.280 192.394 C 352.198 192.403,349.666 190.641,346.864 186.540 C 346.203 185.573,345.514 185.166,343.901 184.787 C 340.611 184.013,339.683 183.393,339.215 181.656 C 338.043 177.305,338.434 174.905,340.403 174.357 C 340.951 174.205,341.416 174.062,341.436 174.040 C 341.456 174.018,342.847 174.352,344.528 174.782 M366.304 201.075 C 367.377 202.542,362.770 204.196,360.943 202.999 C 359.956 202.353,359.987 202.022,361.161 200.657 C 361.976 199.709,365.515 199.996,366.304 201.075 M49.600 204.923 C 51.924 206.056,52.645 208.323,51.950 212.317 C 51.377 215.612,51.794 218.784,53.041 220.623 C 54.220 222.360,54.062 223.112,52.167 224.775 C 50.046 226.637,47.201 225.688,47.200 223.118 C 47.199 220.230,44.032 216.050,40.915 214.822 C 39.716 214.349,37.716 212.220,37.153 210.816 C 36.996 210.427,37.475 209.578,38.453 208.509 C 39.304 207.579,40.000 206.575,40.000 206.279 C 40.000 203.776,45.619 202.982,49.600 204.923 M355.306 210.796 C 358.901 210.801,359.710 211.853,359.515 216.265 C 359.331 220.418,358.794 220.913,355.470 219.991 C 348.577 218.080,346.716 215.794,348.894 211.917 C 349.730 210.431,349.881 210.341,351.194 210.559 C 351.968 210.687,353.818 210.793,355.306 210.796 M35.388 213.580 C 35.737 214.146,34.008 214.968,33.512 214.472 C 33.291 214.251,33.231 213.874,33.378 213.635 C 33.710 213.099,35.068 213.062,35.388 213.580 M248.415 224.900 C 249.939 225.668,250.405 226.221,251.600 228.672 C 252.370 230.252,253.308 231.879,253.685 232.287 C 255.530 234.287,256.452 239.695,255.626 243.673 C 254.952 246.921,254.785 246.994,249.918 246.171 C 243.361 245.063,241.344 243.440,242.237 239.995 C 242.721 238.128,242.697 237.828,241.949 236.392 C 238.226 229.249,242.384 221.859,248.415 224.900 M352.143 238.445 C 353.797 239.611,354.213 239.709,358.655 239.978 C 365.245 240.377,367.685 241.466,365.375 242.979 C 361.844 245.293,359.537 251.614,360.404 256.600 C 361.084 260.511,361.137 260.643,362.213 261.133 C 363.537 261.736,363.130 262.400,361.436 262.400 C 359.022 262.400,357.717 261.653,356.321 259.472 C 355.595 258.336,354.325 256.730,353.500 255.903 C 352.069 254.469,351.999 254.276,351.982 251.700 C 351.958 248.002,351.207 246.116,349.017 244.258 C 346.947 242.502,346.880 242.202,348.048 239.884 C 349.636 236.732,349.687 236.714,352.143 238.445 M50.123 244.345 C 51.055 245.277,51.581 247.535,51.581 250.600 C 51.581 251.920,51.970 256.071,52.447 259.825 C 53.466 267.848,53.324 269.535,51.450 271.735 L 50.141 273.270 48.648 272.646 C 45.207 271.208,44.947 270.822,44.656 266.715 C 44.510 264.672,44.217 260.930,44.003 258.400 C 42.938 245.808,42.978 245.187,44.955 243.757 C 46.043 242.970,49.095 243.317,50.123 244.345 M239.330 257.059 C 239.809 257.641,240.893 258.856,241.739 259.759 C 242.586 260.662,243.536 261.896,243.851 262.502 C 244.165 263.108,245.183 264.082,246.111 264.666 C 247.040 265.250,248.038 266.062,248.328 266.471 C 248.618 266.880,249.698 267.673,250.728 268.233 C 256.695 271.480,256.727 271.532,255.803 276.600 C 255.482 278.360,255.044 281.582,254.829 283.761 C 254.353 288.590,254.164 288.834,251.789 287.680 C 248.779 286.217,246.105 286.433,245.780 288.165 C 245.442 289.966,245.795 290.955,247.007 291.604 C 247.553 291.896,248.000 292.251,248.000 292.392 C 248.000 293.465,249.774 294.400,251.807 294.400 C 255.231 294.400,255.789 295.766,255.834 304.250 C 255.868 310.872,256.722 315.424,258.269 317.239 C 258.837 317.905,255.238 320.800,253.842 320.800 C 252.814 320.800,251.270 318.462,250.799 316.193 C 250.447 314.501,250.087 313.822,249.269 313.316 C 248.681 312.952,247.712 312.210,247.115 311.667 L 246.031 310.680 244.115 311.437 C 241.596 312.434,241.882 312.560,239.968 309.600 C 236.843 304.767,236.097 301.839,235.177 290.800 C 234.861 287.006,234.528 285.290,233.795 283.685 C 232.075 279.913,232.995 278.545,237.761 277.789 C 238.927 277.603,239.912 276.977,241.664 275.307 C 246.841 270.368,245.357 267.905,236.800 267.235 L 233.800 267.000 233.118 265.000 C 232.097 262.009,232.171 258.096,233.270 256.926 C 234.600 255.510,238.122 255.588,239.330 257.059 M155.182 277.638 C 155.218 278.908,153.943 279.548,152.424 279.022 C 150.799 278.459,150.433 277.770,151.568 277.410 C 152.014 277.269,152.780 276.590,153.270 275.901 L 154.161 274.650 154.663 275.825 C 154.938 276.471,155.172 277.287,155.182 277.638 M354.793 278.484 C 355.222 279.190,355.677 280.240,355.804 280.817 C 355.931 281.395,356.903 282.687,357.966 283.690 C 360.083 285.689,360.775 288.127,360.172 291.466 C 359.498 295.194,358.454 295.664,355.497 293.566 C 352.789 291.645,352.199 290.295,351.603 284.650 C 351.158 280.444,351.108 280.275,349.899 278.930 C 348.783 277.688,349.328 277.200,351.829 277.200 C 353.857 277.200,354.067 277.291,354.793 278.484 M47.871 288.495 C 48.151 290.313,48.569 293.191,48.801 294.890 C 49.239 298.099,51.476 303.040,53.197 304.597 C 54.299 305.594,57.092 304.537,59.683 302.141 C 63.175 298.912,64.689 301.705,62.768 307.834 C 61.908 310.577,59.169 312.137,56.070 311.647 C 54.252 311.359,49.187 312.270,46.327 313.399 C 45.840 313.591,45.481 313.330,45.027 312.452 C 44.144 310.746,44.217 310.201,45.836 306.385 C 47.849 301.642,47.831 301.871,46.287 300.693 C 45.505 300.097,44.446 298.651,43.822 297.324 C 43.219 296.046,42.484 294.727,42.186 294.394 C 41.889 294.061,41.462 292.981,41.237 291.994 L 40.827 290.200 42.788 288.400 C 43.867 287.410,45.047 285.993,45.411 285.250 C 46.394 283.244,47.232 284.349,47.871 288.495 M355.549 316.940 C 355.969 317.633,356.430 318.753,356.573 319.430 C 356.716 320.106,357.633 321.726,358.612 323.030 C 359.591 324.333,360.394 325.580,360.397 325.800 C 360.400 326.020,360.749 326.767,361.172 327.461 L 361.940 328.721 363.870 327.739 L 365.800 326.756 366.900 328.063 C 368.892 330.429,367.615 332.183,364.105 331.902 C 362.097 331.742,361.953 331.799,360.636 333.266 C 359.880 334.107,358.775 334.981,358.180 335.208 C 352.814 337.248,352.403 336.713,351.968 327.121 C 351.785 323.094,351.527 319.435,351.394 318.988 C 350.491 315.950,353.922 314.259,355.549 316.940 M62.959 321.254 C 63.967 321.713,65.200 324.112,65.200 325.614 C 65.200 327.725,60.241 328.619,57.700 326.967 C 56.453 326.156,56.563 325.760,58.352 324.631 C 59.205 324.092,60.300 323.010,60.784 322.226 C 61.791 320.597,61.652 320.659,62.959 321.254 M238.723 326.030 C 238.645 326.267,238.409 326.460,238.200 326.460 C 237.991 326.460,237.755 326.267,237.677 326.030 C 237.598 325.793,237.833 325.600,238.200 325.600 C 238.567 325.600,238.802 325.793,238.723 326.030 M50.170 329.067 C 50.544 330.042,49.991 330.391,47.634 330.671 C 45.585 330.913,45.532 330.894,45.664 329.963 C 45.863 328.559,49.684 327.799,50.170 329.067 M242.300 330.233 C 241.919 330.615,241.155 329.997,241.439 329.538 C 241.607 329.264,241.831 329.271,242.118 329.558 C 242.354 329.794,242.436 330.098,242.300 330.233 M253.429 336.956 C 253.812 337.103,254.000 337.797,254.000 339.067 C 254.000 340.539,253.893 340.853,253.520 340.480 C 253.256 340.216,252.360 340.000,251.529 340.000 C 249.488 340.000,248.668 338.797,249.042 336.351 C 249.540 333.092,249.869 332.901,251.458 334.940 C 252.228 335.928,253.115 336.835,253.429 336.956 M59.444 341.161 C 61.220 342.244,60.902 344.930,58.975 345.119 C 56.737 345.339,55.133 342.253,56.857 341.045 C 57.998 340.246,57.938 340.243,59.444 341.161 M337.802 344.972 L 341.667 348.744 344.250 349.020 C 345.671 349.172,347.551 349.182,348.427 349.042 C 350.444 348.720,350.754 349.343,349.625 351.448 C 349.171 352.295,348.800 353.293,348.800 353.665 C 348.800 356.408,343.368 356.705,338.508 354.228 C 335.320 352.603,332.686 352.000,328.774 352.000 C 321.680 352.000,323.189 343.376,330.612 341.493 C 333.286 340.814,333.794 341.060,337.802 344.972 M291.716 344.454 C 292.642 344.923,293.966 345.801,294.657 346.404 C 295.531 347.166,296.874 347.710,299.057 348.188 C 300.786 348.565,302.988 349.308,303.950 349.837 C 306.241 351.097,308.373 351.068,311.514 349.735 C 313.847 348.745,314.117 348.710,315.261 349.252 L 316.494 349.836 316.601 354.018 C 316.772 360.688,315.798 361.692,310.200 360.615 C 308.440 360.277,305.650 359.996,304.000 359.991 C 298.443 359.973,296.926 359.185,295.933 355.800 C 295.032 352.726,291.674 351.102,287.574 351.758 C 285.380 352.109,283.020 350.793,283.448 349.459 C 283.599 348.986,283.862 347.990,284.032 347.244 C 284.443 345.438,285.103 344.851,287.441 344.209 C 290.038 343.496,289.801 343.483,291.716 344.454 M196.802 347.383 C 199.348 348.079,202.158 349.375,203.738 350.580 C 204.482 351.147,205.939 351.900,206.977 352.254 C 209.147 352.994,213.200 356.681,213.200 357.916 C 213.200 360.311,201.600 361.065,198.746 358.855 C 198.226 358.452,196.540 357.742,195.000 357.277 C 191.677 356.273,189.603 354.602,189.595 352.923 C 189.592 352.305,189.487 351.418,189.361 350.951 C 189.087 349.929,193.378 346.276,194.400 346.663 C 194.730 346.788,195.811 347.112,196.802 347.383 M132.458 347.606 C 135.833 348.675,137.804 350.116,139.707 352.908 C 140.573 354.177,141.668 355.413,142.141 355.654 C 142.613 355.895,143.654 356.792,144.454 357.646 C 145.828 359.115,146.038 359.200,148.294 359.200 C 151.311 359.200,152.968 359.773,153.533 361.012 C 154.655 363.475,143.672 364.310,140.800 361.981 C 140.250 361.535,139.275 360.862,138.634 360.485 C 137.993 360.108,136.814 359.227,136.014 358.526 C 134.978 357.618,133.099 356.775,129.480 355.595 L 124.400 353.938 124.400 351.991 L 124.400 350.044 127.100 348.424 C 128.585 347.533,129.826 346.803,129.858 346.802 C 129.890 346.801,131.060 347.162,132.458 347.606 M99.511 348.560 C 102.017 351.414,100.146 353.269,95.867 352.173 C 90.512 350.802,90.374 349.204,95.489 347.797 C 98.190 347.054,98.189 347.054,99.511 348.560 M240.000 350.182 C 242.460 355.070,245.544 356.504,248.592 354.179 C 252.098 351.505,256.022 355.101,254.243 359.358 C 253.351 361.493,250.764 362.552,248.273 361.802 C 243.984 360.511,241.408 360.814,237.369 363.083 C 233.853 365.058,233.676 365.111,231.788 364.758 C 227.721 363.998,226.819 361.630,230.129 360.401 C 233.876 359.010,235.223 358.238,234.976 357.625 C 234.838 357.281,234.500 356.280,234.226 355.400 C 233.951 354.520,233.248 353.100,232.663 352.244 C 231.049 349.882,231.919 348.208,235.091 347.576 C 238.128 346.971,238.477 347.156,240.000 350.182 M163.996 349.759 C 170.292 355.898,169.881 355.600,172.042 355.600 C 175.026 355.600,180.507 360.180,179.890 362.158 C 179.431 363.632,175.268 364.389,171.800 363.630 C 170.920 363.437,169.175 363.160,167.922 363.014 C 166.243 362.818,165.245 362.429,164.122 361.533 C 163.285 360.865,161.555 359.789,160.278 359.142 L 157.956 357.966 158.215 356.083 C 158.662 352.826,159.692 349.834,160.686 348.900 C 161.938 347.725,161.899 347.715,163.996 349.759 M117.310 353.660 C 118.664 353.997,118.757 354.100,118.211 354.646 C 117.876 354.982,117.502 355.738,117.381 356.328 C 115.926 363.399,113.621 364.974,107.571 363.031 C 106.597 362.718,105.170 362.359,104.400 362.232 L 103.000 362.002 103.138 358.457 C 103.267 355.138,103.222 354.899,102.438 354.694 C 101.977 354.573,101.600 354.257,101.600 353.991 C 101.600 353.673,101.910 353.602,102.500 353.783 C 106.139 354.902,110.002 354.965,112.096 353.939 C 113.240 353.379,114.541 353.003,114.988 353.103 C 115.435 353.203,116.480 353.454,117.310 353.660 M79.377 355.689 C 81.140 358.205,79.164 361.593,75.931 361.597 C 73.266 361.601,71.421 362.819,70.883 364.933 C 70.437 366.683,66.824 368.722,65.355 368.052 C 63.616 367.260,63.374 365.967,64.503 363.500 L 65.499 361.324 68.049 360.826 C 70.734 360.302,72.000 359.525,72.000 358.400 C 72.000 356.189,78.146 353.931,79.377 355.689 M50.400 357.624 C 50.400 359.310,49.824 359.736,49.391 358.371 C 49.056 357.317,49.499 355.490,50.012 355.807 C 50.225 355.939,50.400 356.757,50.400 357.624 M130.400 369.824 C 130.400 370.412,129.546 370.613,129.070 370.137 C 128.708 369.775,129.605 368.756,130.045 369.028 C 130.240 369.149,130.400 369.507,130.400 369.824 " stroke="none" fill="#262626" fill-rule="evenodd"></path></g></svg>