<?xml version="1.0" standalone="no"?>
<!DOCTYPE svg PUBLIC "-//W3C//DTD SVG 20010904//EN"
 "http://www.w3.org/TR/2001/REC-SVG-20010904/DTD/svg10.dtd">
<svg version="1.0" xmlns="http://www.w3.org/2000/svg"
 width="500.000000pt" height="500.000000pt" viewBox="0 0 500.000000 500.000000"
 preserveAspectRatio="xMidYMid meet">

<g transform="translate(0.000000,500.000000) scale(0.100000,-0.100000)"
fill="#000000" stroke="none">
<path d="M470 4910 c-62 -5 -94 -12 -119 -28 -19 -11 -38 -19 -43 -16 -13 8
-87 -50 -130 -102 -60 -73 -98 -174 -65 -174 8 0 8 -3 -2 -9 -8 -5 -11 -16 -8
-26 4 -9 0 -29 -8 -46 -14 -27 -14 -29 2 -29 15 0 15 -1 -1 -13 -17 -13 -19
-36 -20 -306 0 -161 2 -295 7 -298 4 -2 4 -9 1 -15 -4 -6 -6 -209 -6 -452 2
-578 2 -607 -5 -633 -4 -18 -1 -23 13 -23 15 0 16 -2 5 -9 -12 -8 -14 -121
-14 -768 0 -417 2 -762 3 -768 1 -5 1 -12 0 -15 -7 -18 -6 -57 2 -67 5 -6 5
-14 0 -17 -5 -3 -8 -120 -7 -268 2 -145 -1 -271 -6 -280 -6 -11 -5 -18 4 -21
9 -4 8 -8 -3 -16 -13 -9 -12 -11 4 -11 15 0 17 -3 9 -11 -9 -9 -6 -21 11 -48
13 -20 26 -54 29 -76 4 -22 11 -41 17 -43 5 -2 10 -8 10 -14 0 -14 49 -61 97
-91 23 -14 44 -31 47 -36 4 -6 14 -7 23 -4 12 5 15 2 10 -10 -4 -11 1 -21 16
-29 27 -14 93 -30 130 -30 15 -1 27 -4 27 -7 0 -3 217 -5 482 -3 266 2 872 3
1348 3 571 1 869 5 878 11 6 6 12 6 12 2 0 -5 89 -9 197 -8 183 0 197 2 203
19 6 18 7 18 12 -1 5 -18 14 -19 189 -18 599 5 707 3 719 -15 11 -18 82 13
152 66 60 45 128 122 128 143 0 6 5 10 11 10 14 0 61 110 56 131 -3 10 2 20
10 23 11 5 12 10 4 19 -7 10 -7 17 0 24 8 8 11 82 11 225 -1 231 -1 801 -1
833 1 11 1 202 0 425 0 223 0 414 0 425 2 896 -2 1355 -14 1355 -9 0 -9 2 -1
8 15 9 18 752 4 752 -6 0 -10 10 -10 22 0 19 -21 66 -66 151 -8 15 -19 27 -25
27 -5 0 -9 6 -9 13 0 15 -119 117 -137 117 -7 0 -21 4 -31 9 -29 16 -56 24
-82 26 -14 0 -35 4 -47 9 -16 5 -28 1 -42 -13 -14 -14 -21 -16 -21 -8 0 11
-109 13 -587 14 -384 1 -592 -3 -600 -9 -8 -6 -13 -6 -13 -1 0 14 -500 15
-518 1 -10 -9 -15 -9 -21 0 -10 17 -391 15 -391 -2 0 -8 -2 -8 -8 1 -6 9 -204
11 -845 10 -595 -1 -837 1 -837 9 0 12 -13 12 -140 4z m4275 -200 c-3 -5 -11
-10 -16 -10 -6 0 -7 5 -4 10 3 6 11 10 16 10 6 0 7 -4 4 -10z m-2028 -116 c-3
-3 -12 -4 -19 -1 -8 3 -5 6 6 6 11 1 17 -2 13 -5z m1973 -15 c0 -18 -2 -20
-15 -9 -13 11 -13 15 -3 21 18 12 18 12 18 -12z m-4416 -164 c-4 -8 -10 -13
-15 -10 -4 3 -6 12 -3 20 4 8 10 13 15 10 4 -3 6 -12 3 -20z m946 11 c0 -3 -4
-8 -10 -11 -5 -3 -10 -1 -10 4 0 6 5 11 10 11 6 0 10 -2 10 -4z m96 -47 c24
-6 44 -15 44 -20 0 -5 5 -9 11 -9 5 0 34 -11 62 -24 85 -40 227 -190 227 -241
0 -8 4 -15 9 -15 10 0 21 -65 24 -142 1 -27 4 -48 8 -48 7 0 4 -56 -7 -124
-10 -62 -52 -145 -96 -188 -16 -15 -28 -32 -28 -37 0 -17 -48 -63 -52 -50 -2
7 -22 0 -54 -19 -105 -62 -142 -80 -175 -87 -19 -4 -38 -10 -44 -13 -13 -8
-104 -8 -99 0 2 4 -17 10 -43 14 -27 3 -56 11 -65 16 -14 7 -18 5 -19 -9 -1
-14 -2 -14 -5 -3 -4 15 -67 40 -99 40 -9 0 -13 5 -10 10 3 6 -2 13 -12 17 -26
9 -85 55 -103 78 -19 25 -42 84 -42 107 1 10 -3 20 -9 23 -5 4 -9 14 -9 24 0
10 -14 46 -32 81 -29 59 -31 71 -29 153 2 80 5 94 37 150 19 34 42 79 52 99
10 23 24 38 34 38 10 0 35 15 55 33 21 18 58 48 83 67 25 19 47 38 48 42 2 5
8 5 13 2 6 -3 16 -1 23 5 37 31 223 50 302 30z m3329 -39 c-3 -5 -11 -10 -16
-10 -6 0 -7 5 -4 10 3 6 11 10 16 10 6 0 7 -4 4 -10z m-3915 -44 c0 -3 -4 -8
-10 -11 -5 -3 -10 -1 -10 4 0 6 5 11 10 11 6 0 10 -2 10 -4z m2320 -131 c11
-13 10 -14 -4 -9 -9 3 -16 10 -16 15 0 13 6 11 20 -6z m51 -42 c13 -16 12 -17
-3 -4 -17 13 -22 21 -14 21 2 0 10 -8 17 -17z m669 -28 c11 -13 10 -14 -4 -9
-9 3 -16 10 -16 15 0 13 6 11 20 -6z m-620 -15 c0 -5 -4 -10 -10 -10 -5 0 -10
5 -10 10 0 6 5 10 10 10 6 0 10 -4 10 -10z m764 -93 c-3 -8 -12 -14 -21 -14
-13 0 -13 2 3 14 10 7 19 13 21 13 1 0 0 -6 -3 -13z m-3614 -117 c0 -5 -5 -10
-11 -10 -5 0 -7 5 -4 10 3 6 8 10 11 10 2 0 4 -4 4 -10z m3750 0 c0 -5 -2 -10
-4 -10 -3 0 -8 5 -11 10 -3 6 -1 10 4 10 6 0 11 -4 11 -10z m90 -70 c0 -5 -2
-10 -4 -10 -3 0 -8 5 -11 10 -3 6 -1 10 4 10 6 0 11 -4 11 -10z m100 -80 c0
-5 -2 -10 -4 -10 -3 0 -8 5 -11 10 -3 6 -1 10 4 10 6 0 11 -4 11 -10z m50 -36
c0 -2 -9 0 -20 6 -11 6 -20 13 -20 16 0 2 9 0 20 -6 11 -6 20 -13 20 -16z
m-1710 -30 c0 -8 -5 -12 -10 -9 -6 4 -8 11 -5 16 9 14 15 11 15 -7z m1745 6
c3 -5 -1 -10 -9 -10 -9 0 -16 5 -16 10 0 6 4 10 9 10 6 0 13 -4 16 -10z m84
-69 l26 -24 -33 19 c-18 10 -41 28 -50 38 -16 18 -16 18 7 5 13 -8 36 -25 50
-38z m-1219 29 c0 -15 -26 -18 -43 -5 -15 10 -13 12 13 13 17 0 30 -3 30 -8z
m-520 -26 c0 -2 -12 -4 -26 -4 -14 0 -23 4 -20 9 6 8 46 4 46 -5z m-2382 -106
c-6 -18 -28 -21 -28 -4 0 9 7 16 16 16 9 0 14 -5 12 -12z m2432 -173 c0 -11
-31 -11 -39 -1 -9 10 -6 12 14 8 14 -2 25 -6 25 -7z m-2084 -93 c-13 -13 -18
-14 -28 -4 -10 10 -10 15 1 21 8 5 21 7 28 4 12 -5 12 -8 -1 -21z m2981 -47
c40 -3 84 -10 99 -15 14 -6 36 -7 48 -4 14 3 29 -1 39 -10 8 -9 22 -13 30 -10
9 3 25 -4 37 -16 11 -11 31 -25 43 -31 54 -23 185 -119 195 -141 2 -5 8 -8 14
-8 13 0 46 -39 58 -68 6 -13 14 -20 20 -17 5 3 10 -1 10 -9 0 -9 11 -39 24
-66 14 -28 28 -64 31 -80 4 -17 12 -33 18 -37 7 -5 12 -19 12 -33 0 -15 5 -24
13 -23 6 2 12 -1 12 -6 0 -5 -6 -12 -12 -15 -10 -3 -8 -8 4 -16 9 -6 15 -17
12 -24 -3 -8 1 -25 9 -38 13 -21 32 -101 42 -183 2 -16 4 -32 4 -34 1 -2 9 3
18 10 14 12 14 10 -1 -14 -14 -20 -16 -30 -7 -40 7 -10 11 -222 12 -716 1
-624 0 -703 -14 -714 -19 -15 -12 -67 9 -67 8 0 14 -4 14 -10 0 -5 -4 -10 -9
-10 -5 0 -12 -8 -15 -17 -15 -41 -32 -64 -50 -69 -33 -11 -333 -20 -342 -11
-3 3 -18 1 -32 -4 -15 -6 -29 -6 -34 -1 -5 5 -64 7 -131 5 -121 -5 -122 -5
-146 21 -14 14 -30 26 -37 26 -33 0 -37 216 -8 410 11 72 14 369 4 375 -7 4
-7 13 0 25 9 17 11 105 9 409 0 36 -3 69 -6 74 -3 4 -7 23 -10 40 -3 18 -8 34
-11 37 -4 3 -8 34 -9 68 -2 66 -31 146 -61 168 -8 6 -12 16 -8 23 4 6 0 14 -8
17 -8 3 -18 15 -22 26 -3 11 -12 17 -20 14 -9 -3 -14 1 -14 12 0 21 -34 44
-55 36 -9 -4 -15 -1 -15 7 -1 20 -131 82 -144 69 -12 -12 -39 -13 -32 -1 8 12
-18 21 -56 21 -48 0 -141 -30 -165 -54 -12 -11 -36 -32 -53 -46 -16 -13 -30
-31 -30 -39 0 -8 -3 -11 -7 -8 -8 9 -43 -22 -43 -38 0 -7 -9 -20 -20 -30 -10
-9 -24 -34 -31 -54 -6 -20 -18 -46 -25 -58 -27 -43 -43 -137 -43 -258 0 -66
-3 -356 -6 -645 -5 -444 -8 -526 -20 -533 -8 -4 -15 -18 -15 -31 0 -25 -21
-76 -32 -76 -5 0 -8 4 -8 9 0 11 -383 11 -423 0 -15 -4 -25 -4 -22 1 3 4 -33
6 -80 4 -76 -4 -87 -2 -102 16 -10 11 -23 20 -30 20 -7 0 -13 6 -13 14 0 8 -6
16 -12 18 -10 4 -13 115 -15 504 -1 274 -2 540 -3 591 0 78 -2 91 -15 87 -8
-4 -15 -1 -15 5 0 6 8 11 18 11 16 0 18 6 12 53 -4 28 -4 61 0 72 4 11 5 54 3
95 -3 70 -3 117 0 348 1 50 -1 92 -5 92 -4 0 -5 12 -2 28 10 51 9 462 -1 462
-5 0 2 12 17 27 l27 26 333 -1 c183 -1 342 -1 353 -2 11 0 31 -17 45 -38 26
-37 26 -38 13 -112 -8 -41 -16 -87 -19 -101 -5 -23 -3 -26 20 -26 16 0 26 5
26 14 0 7 7 16 15 19 8 4 15 12 15 19 0 8 14 29 30 47 17 18 30 36 30 40 0 4
13 14 30 23 16 8 36 28 44 43 9 15 15 21 16 15 0 -15 20 -18 20 -3 0 14 38 51
42 40 4 -12 100 21 115 40 7 8 13 12 13 8 0 -3 24 1 53 9 90 26 245 32 434 18z
m-2093 -65 c40 -33 47 -76 47 -300 0 -119 -3 -228 -7 -244 -4 -19 -2 -31 7
-36 10 -7 10 -11 0 -24 -10 -12 -10 -16 -2 -16 8 0 10 -8 5 -22 -11 -33 -11
-182 0 -189 5 -4 5 -13 0 -20 -13 -21 -17 -1426 -4 -1434 6 -3 7 -12 3 -18 -4
-7 -9 -30 -10 -52 -4 -63 -21 -95 -52 -97 -14 0 -30 -2 -36 -3 -5 -1 -41 -5
-80 -9 -38 -5 -81 -15 -94 -23 -15 -10 -26 -11 -30 -5 -4 6 -69 11 -161 12
-85 1 -173 2 -196 3 -39 2 -74 20 -74 38 0 5 -14 22 -31 38 -29 29 -30 32 -28
112 1 57 -2 84 -10 87 -8 3 -9 8 -2 16 5 6 10 52 10 101 1 129 1 123 6 550 3
215 6 450 8 523 2 73 -1 136 -5 138 -4 3 -4 13 1 22 5 9 9 189 9 400 l1 383
46 42 45 43 309 -1 c247 -1 312 -4 325 -15z m256 11 c0 -5 -7 -12 -16 -15 -14
-5 -15 -4 -4 9 14 17 20 19 20 6z m-1505 -41 c3 -5 1 -10 -4 -10 -6 0 -11 5
-11 10 0 6 2 10 4 10 3 0 8 -4 11 -10z m10 -330 c0 -7 -6 -15 -12 -17 -8 -3
-13 4 -13 17 0 13 5 20 13 18 6 -3 12 -11 12 -18z m330 -230 c3 -5 1 -10 -4
-10 -6 0 -11 5 -11 10 0 6 2 10 4 10 3 0 8 -4 11 -10z m-505 -89 c0 -6 -4 -13
-10 -16 -5 -3 -10 1 -10 9 0 9 5 16 10 16 6 0 10 -4 10 -9z m3105 -221 c3 -5
1 -10 -4 -10 -6 0 -11 5 -11 10 0 6 2 10 4 10 3 0 8 -4 11 -10z m65 -4 c0 -3
-4 -8 -10 -11 -5 -3 -10 -1 -10 4 0 6 5 11 10 11 6 0 10 -2 10 -4z m7 -58 c34
-33 44 -62 18 -52 -8 4 -15 11 -15 17 0 6 -15 23 -32 38 -20 17 -27 28 -18 29
8 0 29 -14 47 -32z m1323 -108 c0 -5 -7 -7 -15 -4 -8 4 -15 8 -15 10 0 2 7 4
15 4 8 0 15 -4 15 -10z m-1265 -160 c10 -11 16 -20 13 -20 -3 0 -13 9 -23 20
-10 11 -16 20 -13 20 3 0 13 -9 23 -20z m45 -40 c0 -5 -2 -10 -4 -10 -3 0 -8
5 -11 10 -3 6 -1 10 4 10 6 0 11 -4 11 -10z m-3110 -165 c0 -8 -4 -15 -10 -15
-5 0 -10 7 -10 15 0 8 5 15 10 15 6 0 10 -7 10 -15z m324 -29 c5 -37 -10 -41
-22 -7 -8 22 -7 31 1 34 16 6 18 3 21 -27z m4010 -205 c9 -12 8 -12 -11 0 -23
14 -29 30 -15 43 4 4 9 0 11 -11 2 -10 8 -24 15 -32z m-1574 -18 c0 -6 8 -18
18 -25 10 -7 34 -31 53 -53 l34 -40 -33 25 c-71 54 -125 108 -118 118 9 14 46
-6 46 -25z m1578 -161 c2 -7 -2 -10 -12 -6 -9 3 -16 11 -16 16 0 13 23 5 28
-10z m-4068 -22 c0 -5 -2 -10 -4 -10 -3 0 -8 5 -11 10 -3 6 -1 10 4 10 6 0 11
-4 11 -10z m1052 -142 c-7 -7 -12 -8 -12 -2 0 14 12 26 19 19 2 -3 -1 -11 -7
-17z m3008 -38 c0 -5 -2 -10 -4 -10 -3 0 -8 5 -11 10 -3 6 -1 10 4 10 6 0 11
-4 11 -10z m-3000 -54 c0 -2 -7 -7 -16 -10 -8 -3 -12 -2 -9 4 6 10 25 14 25 6z
m-1472 -72 c-7 -15 -14 -21 -16 -15 -2 7 2 18 8 26 18 22 21 18 8 -11z m2802
-69 c0 -2 -9 -9 -20 -15 -16 -9 -18 -8 -14 5 5 13 34 22 34 10z m255 -175 c3
-5 -1 -10 -9 -10 -9 0 -16 5 -16 10 0 6 4 10 9 10 6 0 13 -4 16 -10z m-660
-120 c-3 -5 -11 -10 -16 -10 -6 0 -7 5 -4 10 3 6 11 10 16 10 6 0 7 -4 4 -10z
m-875 -79 c0 -6 -4 -13 -10 -16 -5 -3 -10 1 -10 9 0 9 5 16 10 16 6 0 10 -4
10 -9z m885 -21 c8 -13 -5 -13 -25 0 -13 8 -13 10 2 10 9 0 20 -4 23 -10z
m-668 -56 c-8 -8 -37 26 -37 43 0 11 7 7 21 -11 12 -15 19 -29 16 -32z m-212
26 c3 -5 1 -10 -4 -10 -6 0 -11 5 -11 10 0 6 2 10 4 10 3 0 8 -4 11 -10z
m-162 -7 c-7 -2 -19 -2 -25 0 -7 3 -2 5 12 5 14 0 19 -2 13 -5z m-183 -21 c23
-27 23 -48 -1 -49 -12 -1 -19 3 -16 10 2 7 -10 22 -27 35 l-30 22 30 0 c16 0
36 -8 44 -18z m845 -2 c3 -5 2 -10 -4 -10 -5 0 -13 5 -16 10 -3 6 -2 10 4 10
5 0 13 -4 16 -10z m78 -43 c16 -10 26 -21 24 -24 -7 -6 -77 40 -77 50 0 9 10
4 53 -26z m211 18 c-4 -8 -10 -15 -15 -15 -5 0 -9 7 -9 15 0 8 7 15 15 15 9 0
12 -6 9 -15z m2211 5 c-3 -5 -10 -10 -16 -10 -5 0 -9 5 -9 10 0 6 7 10 16 10
8 0 12 -4 9 -10z m-2928 -62 c-3 -8 -6 -5 -6 6 -1 11 2 17 5 13 3 -3 4 -12 1
-19z m-631 -38 c8 0 13 -4 10 -9 -3 -5 -21 -1 -40 8 -25 12 -31 19 -23 29 8
10 13 8 24 -8 8 -11 21 -20 29 -20z m2494 15 c11 -13 10 -14 -4 -9 -9 3 -16
10 -16 15 0 13 6 11 20 -6z m473 1 c17 -13 16 -14 -2 -19 -22 -5 -31 0 -31 20
0 16 10 16 33 -1z m-1933 -21 c0 -8 -4 -15 -10 -15 -5 0 -10 7 -10 15 0 8 5
15 10 15 6 0 10 -7 10 -15z m-1463 -1 c-3 -3 -12 -4 -19 -1 -8 3 -5 6 6 6 11
1 17 -2 13 -5z m43 2 c0 -11 -19 -15 -25 -6 -3 5 1 10 9 10 9 0 16 -2 16 -4z"/>
</g>
</svg>
