<?xml version="1.0" standalone="no"?>
<!DOCTYPE svg PUBLIC "-//W3C//DTD SVG 20010904//EN"
 "http://www.w3.org/TR/2001/REC-SVG-20010904/DTD/svg10.dtd">
<svg version="1.0" xmlns="http://www.w3.org/2000/svg"
 width="800.000000pt" height="420.000000pt" viewBox="0 0 800.000000 420.000000"
 preserveAspectRatio="xMidYMid meet">
<metadata>
Created by potrace 1.16, written by Peter Selinger 2001-2019
</metadata>
<g transform="translate(0.000000,420.000000) scale(0.100000,-0.100000)"
fill="#000000" stroke="none">
<path d="M0 3883 c0 -281 2 -315 15 -297 8 10 15 24 15 31 0 6 19 24 42 38 24
15 33 24 21 20 -32 -9 -37 10 -7 30 14 9 30 30 36 46 5 16 14 29 19 29 16 0
49 34 49 52 0 9 5 20 12 24 8 5 9 2 5 -9 -4 -11 -1 -17 8 -17 7 0 16 8 19 18
4 11 18 30 33 43 14 13 23 18 19 12 -4 -7 -2 -13 3 -13 6 0 11 5 11 10 0 6 13
10 29 10 17 0 33 5 37 12 5 7 11 5 21 -7 12 -17 13 -17 13 -1 0 10 12 21 30
27 17 6 30 17 30 25 0 8 7 14 15 14 8 0 15 -5 15 -12 0 -7 5 -5 13 4 9 13 92
48 112 48 3 0 5 -8 5 -17 0 -15 2 -16 10 -3 5 8 21 16 35 17 14 1 38 11 54 23
27 19 30 19 34 3 3 -15 6 -13 17 10 7 15 19 27 26 27 6 0 14 7 18 15 3 8 15
15 26 15 12 0 20 7 21 18 0 14 2 14 7 2 7 -14 32 -20 42 -10 3 3 15 11 27 17
19 11 24 10 31 -3 6 -11 11 -13 16 -5 4 6 19 11 33 11 21 0 24 -2 13 -15 -8
-10 -9 -15 -2 -15 6 0 16 9 22 21 9 16 14 18 26 9 11 -10 15 -9 20 4 8 20 24
21 24 1 0 -8 7 -15 15 -15 8 0 15 5 15 10 0 6 -5 10 -11 10 -7 0 0 11 15 25
l27 25 -590 0 -591 0 0 -317z"/>
<path d="M1273 4193 c11 -10 160 -12 177 -2 9 5 -23 9 -84 9 -55 0 -96 -3 -93
-7z"/>
<path d="M1490 4190 c0 -5 5 -10 10 -10 6 0 10 5 10 10 0 6 -4 10 -10 10 -5 0
-10 -4 -10 -10z"/>
<path d="M1598 4193 c7 -3 16 -2 19 1 4 3 -2 6 -13 5 -11 0 -14 -3 -6 -6z"/>
<path d="M1698 4193 c7 -3 16 -2 19 1 4 3 -2 6 -13 5 -11 0 -14 -3 -6 -6z"/>
<path d="M2188 4191 c12 -7 62 -4 62 5 0 2 -17 4 -37 4 -24 0 -33 -3 -25 -9z"/>
<path d="M2272 4183 c2 -11 11 -17 21 -15 9 2 17 -2 17 -8 0 -6 -4 -8 -10 -5
-5 3 -10 2 -10 -4 0 -16 21 -24 33 -12 16 16 30 14 24 -4 -8 -20 11 -29 28
-15 12 10 15 10 15 0 0 -8 8 -10 22 -7 12 4 28 1 35 -5 7 -6 22 -8 33 -5 10 3
24 -1 29 -7 12 -14 71 -9 71 6 0 6 8 7 17 4 9 -4 20 -1 25 6 6 10 8 10 8 1 0
-15 36 -17 45 -3 10 16 25 1 18 -17 -5 -13 -1 -15 25 -11 18 2 32 0 32 -5 0
-5 7 -6 15 -3 9 3 18 -1 21 -9 3 -7 12 -11 19 -9 7 3 16 0 20 -5 3 -6 12 -8
18 -4 7 4 6 0 -2 -10 -12 -15 -10 -17 17 -17 16 0 35 -6 41 -13 6 -8 29 -20
50 -27 22 -7 39 -18 38 -24 -1 -6 15 -12 36 -14 24 -2 37 -8 37 -18 0 -8 7
-14 15 -14 8 0 15 -6 15 -14 0 -8 9 -16 20 -18 12 -2 19 -7 18 -12 -2 -5 7
-13 20 -17 13 -5 22 -14 21 -21 -1 -7 -1 -22 0 -33 1 -18 2 -18 18 -3 15 16
17 14 35 -18 10 -18 18 -41 18 -49 0 -8 7 -15 16 -15 11 0 14 -6 9 -20 -4 -12
-2 -20 6 -20 16 0 61 -49 54 -60 -3 -5 3 -11 14 -15 14 -4 17 -12 13 -28 -5
-20 -4 -20 11 -8 15 12 17 11 17 -8 0 -11 5 -21 10 -21 6 0 10 -14 10 -31 0
-20 -4 -28 -11 -23 -12 7 -8 -20 8 -62 5 -13 3 -16 -10 -11 -21 8 -21 3 -1
-18 12 -12 14 -19 6 -27 -8 -8 -6 -18 5 -34 14 -22 14 -24 -1 -30 -20 -8 -21
-34 -2 -34 25 0 26 -15 5 -57 -18 -36 -18 -42 -5 -75 9 -20 13 -38 9 -41 -11
-12 -12 -62 0 -69 8 -6 9 -10 1 -15 -6 -5 -10 -25 -9 -46 1 -21 -1 -40 -4 -42
-6 -3 -5 -69 2 -215 2 -25 6 -50 10 -57 4 -6 1 -14 -5 -16 -10 -4 -10 -8 1
-15 11 -8 10 -14 -5 -38 -19 -27 -19 -28 4 -22 26 7 29 -7 5 -21 -12 -6 -14
-13 -7 -23 16 -20 15 -55 -2 -69 -8 -6 -14 -19 -14 -28 0 -13 2 -14 9 -2 10
16 41 24 41 11 0 -5 -4 -10 -9 -12 -4 -1 -12 -13 -15 -25 -6 -18 -3 -23 10
-23 15 0 15 -2 2 -17 -8 -10 -13 -29 -12 -43 9 -86 8 -122 -3 -132 -17 -14
-16 -28 2 -28 18 0 18 -1 6 -34 -7 -16 -6 -35 2 -56 11 -29 10 -33 -13 -50
l-25 -20 28 0 c25 0 27 -2 17 -20 -6 -11 -18 -20 -28 -21 -13 0 -11 -3 6 -9
22 -9 29 -25 15 -33 -10 -6 -9 -79 1 -95 4 -7 4 -12 0 -12 -3 0 -1 -6 5 -14 8
-10 9 -16 1 -21 -14 -9 -13 -95 1 -95 7 0 9 -11 6 -30 -4 -17 -2 -30 3 -30 18
0 11 -18 -9 -25 -17 -5 -18 -10 -10 -34 5 -15 8 -55 6 -89 -2 -35 1 -62 6 -62
5 0 4 -7 -3 -15 -17 -21 -19 -75 -3 -75 15 0 17 -16 4 -25 -6 -3 -10 -13 -10
-23 0 -9 -2 -33 -4 -52 -2 -19 0 -40 5 -47 5 -7 5 -14 -2 -18 -13 -8 -13 -45
0 -45 5 0 7 -14 5 -32 -2 -18 0 -37 6 -44 6 -8 5 -14 -6 -17 -10 -5 -13 -13
-7 -29 11 -32 5 -89 -11 -116 -5 -7 -2 -14 7 -18 11 -4 12 -11 4 -35 -6 -16
-8 -40 -6 -53 3 -15 -2 -27 -14 -35 -11 -7 -17 -18 -15 -25 7 -17 -49 -86 -69
-86 -10 0 -13 -6 -9 -18 5 -17 -7 -38 -54 -94 -8 -9 -21 -14 -29 -10 -12 4
-14 0 -10 -16 4 -12 2 -22 -4 -22 -5 0 -6 -5 -3 -10 3 -6 0 -10 -8 -10 -7 0
-24 -11 -37 -25 -13 -14 -29 -25 -36 -25 -7 0 -14 -10 -16 -22 -2 -15 -11 -24
-25 -26 -12 -2 -25 -11 -28 -20 -3 -10 -20 -26 -37 -37 -18 -10 -37 -24 -41
-32 -4 -7 -13 -13 -18 -13 -6 0 -7 4 -4 10 11 18 -7 10 -23 -11 -12 -14 -31
-21 -63 -23 -26 -2 -53 -7 -60 -12 -8 -5 -30 -9 -49 -10 -62 -1 -150 -16 -150
-25 0 -5 -8 -9 -18 -9 -19 0 -72 -22 -72 -30 0 -7 -75 -4 -88 4 -14 8 -102
-13 -102 -25 0 -12 -47 -12 -54 0 -7 10 -44 3 -63 -12 -9 -6 -13 -6 -13 2 0 6
-5 11 -12 11 -6 0 -8 -3 -5 -7 4 -3 -5 -12 -19 -20 -31 -15 -37 -16 -30 -4 3
5 -7 11 -24 13 -19 3 -31 0 -35 -10 -3 -9 -11 -11 -23 -7 -9 4 -21 7 -27 7
-91 -4 -214 -14 -230 -19 -17 -5 -18 -4 -6 11 8 10 9 16 3 16 -6 0 -16 -10
-23 -21 -7 -14 -14 -18 -18 -11 -7 12 -99 11 -120 -2 -8 -5 -16 -4 -21 4 -7
11 -12 10 -24 -3 -12 -12 -23 -14 -40 -7 -13 5 -33 6 -45 3 -12 -3 -21 -1 -21
6 0 7 -9 9 -25 5 -17 -4 -25 -2 -25 7 0 10 -3 10 -12 1 -9 -9 -14 -7 -24 5
-10 15 -14 15 -28 4 -14 -12 -19 -11 -35 3 -13 12 -27 15 -45 10 -16 -4 -32
-1 -41 6 -8 7 -39 13 -68 14 -28 2 -62 8 -75 15 -19 10 -26 10 -39 0 -13 -11
-19 -9 -36 11 -13 16 -21 21 -24 13 -3 -7 -9 -13 -15 -13 -6 0 -8 7 -4 15 3 8
1 15 -3 15 -5 0 -11 -7 -15 -15 -7 -20 -26 -19 -26 0 0 24 -44 35 -109 29 -54
-6 -59 -5 -66 15 -5 16 -12 20 -26 16 -11 -4 -19 -2 -19 4 0 6 -4 11 -10 11
-5 0 -7 -7 -4 -15 4 -10 0 -15 -10 -15 -11 0 -16 7 -14 17 2 13 -4 18 -19 18
-11 0 -25 3 -29 7 -4 5 -18 8 -30 8 -13 0 -28 8 -33 18 -7 14 -19 18 -45 16
-22 -2 -35 1 -33 8 1 6 -11 13 -28 15 -16 2 -33 9 -36 15 -4 6 -18 8 -33 4
-16 -4 -26 -2 -26 4 0 6 -4 8 -10 5 -5 -3 -16 -3 -22 2 -7 4 -20 8 -28 8 -8 0
-14 8 -14 18 1 10 -5 17 -17 17 -12 0 -21 9 -25 25 -4 16 -13 25 -25 25 -12 0
-19 7 -19 20 0 12 -7 20 -16 20 -9 0 -14 6 -12 12 3 7 -5 17 -16 23 -12 6 -22
21 -24 33 -2 12 -8 20 -13 16 -11 -6 -40 57 -32 70 4 5 1 6 -4 3 -6 -4 -13 2
-16 13 -3 11 -16 24 -29 29 -12 6 -17 10 -10 10 6 1 12 13 12 29 -1 25 -1 25
-12 7 -11 -19 -11 -19 -19 0 -4 11 -8 -141 -8 -337 l-1 -358 4000 0 4000 0 0
2100 0 2100 -2866 0 c-2724 0 -2865 -1 -2862 -17z m3958 -1219 c0 -4 -8 -13
-17 -20 -15 -12 -16 -13 -2 -8 10 3 20 1 23 -5 4 -6 13 -8 21 -4 8 3 23 2 33
-3 9 -4 43 -6 75 -5 51 3 58 1 55 -15 -2 -9 3 -19 10 -21 6 -3 12 4 13 14 0
15 2 14 11 -5 6 -13 17 -21 24 -18 8 3 18 -2 22 -11 6 -10 17 -14 31 -10 25 6
27 -5 5 -28 -9 -9 -14 -18 -11 -21 2 -3 12 2 20 11 26 25 44 17 38 -18 -1 -4
7 -3 18 2 16 9 21 6 29 -18 8 -23 15 -28 31 -24 15 4 21 1 21 -11 0 -9 7 -16
15 -16 8 0 15 -7 15 -14 0 -8 16 -27 35 -42 19 -14 35 -31 35 -36 0 -13 26
-38 39 -38 6 0 10 -3 9 -7 -3 -18 16 -69 31 -80 9 -6 13 -15 8 -19 -4 -4 1
-16 10 -26 15 -17 15 -20 3 -28 -11 -7 -8 -10 13 -10 23 0 27 -3 22 -19 -3
-11 -1 -22 5 -26 6 -4 10 -19 9 -33 -1 -15 3 -39 9 -53 6 -14 10 -32 10 -40
-3 -42 2 -51 23 -46 19 5 20 4 5 -12 -22 -24 -20 -31 7 -31 20 0 20 -2 -8 -21
-16 -12 -22 -19 -13 -16 20 7 28 -18 17 -50 -5 -14 -4 -23 4 -26 8 -3 6 -10
-6 -25 -10 -11 -14 -23 -9 -26 5 -3 8 -29 5 -58 -5 -56 -10 -103 -13 -103 -1
0 -11 -69 -12 -92 -1 -7 -4 -11 -6 -8 -5 5 -22 -20 -40 -60 -6 -11 -21 -32
-35 -47 -14 -15 -23 -29 -21 -31 3 -2 -2 -10 -11 -17 -8 -7 -15 -16 -15 -21 0
-4 -14 -28 -31 -53 -17 -25 -28 -50 -24 -56 3 -5 0 -7 -9 -4 -11 4 -16 -3 -18
-28 -4 -33 -4 -33 -15 -8 -10 24 -11 24 -19 5 -8 -21 -62 -75 -76 -75 -4 0 -8
-6 -8 -12 0 -13 -69 -64 -81 -61 -3 1 -39 -7 -80 -18 -41 -11 -84 -21 -96 -21
-20 0 -23 -5 -23 -39 0 -21 4 -39 9 -39 11 0 -5 -56 -21 -76 -5 -7 -3 -14 6
-17 13 -5 13 -10 0 -36 -9 -17 -23 -31 -32 -32 -9 0 -26 -2 -37 -5 -11 -2 -74
-7 -140 -11 -108 -6 -119 -5 -107 9 13 17 1 35 -17 24 -14 -9 -21 35 -9 57 8
15 7 22 -5 28 -14 8 -13 59 2 59 11 0 3 72 -9 80 -7 5 -9 22 -5 49 4 30 3 41
-7 41 -9 0 -10 3 -2 8 13 8 6 75 -7 67 -4 -3 -2 7 6 21 8 15 12 31 9 36 -3 5
-2 14 3 21 13 19 10 72 -4 73 -7 1 -16 2 -20 3 -3 0 2 10 12 21 18 19 14 57
-5 45 -5 -3 -10 -1 -10 5 0 6 6 13 14 16 8 3 12 12 9 20 -3 8 1 21 8 30 11 13
9 14 -17 9 -16 -4 -24 -3 -18 2 18 14 25 45 13 59 -8 10 -8 14 0 14 6 0 10 10
8 23 l-2 22 167 0 c108 0 167 -4 165 -10 -2 -5 2 -14 8 -20 7 -5 15 -29 19
-52 5 -35 3 -43 -9 -43 -8 0 -15 -4 -15 -10 0 -5 7 -10 15 -10 18 0 19 -25 4
-69 -13 -38 -8 -48 15 -26 9 9 16 13 16 8 0 -4 7 1 16 12 12 16 16 17 23 6 7
-11 12 -10 28 6 10 10 33 25 51 32 18 8 31 16 28 18 -2 3 -13 0 -25 -6 -13 -7
-22 -8 -26 -1 -3 5 1 10 10 10 8 0 20 11 26 24 7 14 17 22 25 19 8 -3 14 0 14
6 0 6 -5 11 -11 11 -6 0 -9 6 -6 13 2 6 10 12 18 12 8 0 14 7 15 15 1 8 2 25
2 37 1 12 14 36 29 53 21 26 24 33 12 40 -10 7 -8 11 11 18 21 9 22 11 8 17
-16 6 -15 9 5 37 16 22 18 32 9 35 -6 3 -9 10 -5 16 20 32 23 146 5 156 -8 5
-13 15 -10 23 3 7 0 22 -8 32 -12 17 -11 21 4 32 10 8 12 13 5 14 -7 0 -13 8
-13 18 -1 25 -25 53 -36 42 -5 -5 -14 1 -21 16 -8 18 -8 24 0 25 7 0 2 4 -11
9 -12 5 -26 20 -32 34 -5 13 -13 27 -19 30 -6 4 -8 13 -5 20 4 10 -8 15 -39
20 -38 6 -45 11 -56 42 -9 25 -17 34 -28 30 -18 -7 -45 12 -37 25 3 5 0 9 -6
9 -7 0 -10 -7 -6 -15 3 -10 -1 -15 -12 -16 -9 0 -34 -2 -54 -3 -20 -1 -35 2
-32 6 3 4 13 8 22 9 10 0 5 5 -11 11 -23 8 -31 7 -41 -7 -9 -13 -15 -15 -20
-6 -4 6 -13 8 -19 4 -7 -4 -31 -8 -54 -8 -26 0 -49 -7 -62 -19 -12 -11 -21
-14 -21 -9 0 17 -37 22 -78 10 -43 -13 -67 -33 -81 -67 -7 -18 -10 -20 -10 -7
-1 29 -28 19 -50 -18 -11 -19 -25 -35 -31 -35 -5 0 -10 -4 -10 -9 0 -5 10 -7
22 -3 18 4 15 -4 -24 -59 -24 -35 -45 -75 -46 -89 -1 -13 -9 -30 -18 -37 -9
-6 -13 -16 -10 -22 4 -5 2 -12 -3 -16 -5 -3 -10 -13 -10 -23 0 -9 -2 -36 -5
-59 -4 -31 -2 -42 9 -45 13 -3 13 -7 1 -30 -10 -18 -11 -29 -3 -37 7 -7 6 -22
-5 -49 -15 -39 -15 -39 13 -56 24 -14 27 -21 19 -36 -15 -27 -12 -32 11 -25
18 6 20 4 14 -14 -5 -15 -2 -21 10 -21 8 0 20 -11 25 -25 6 -15 17 -25 30 -25
17 0 19 -4 14 -25 -6 -24 5 -31 39 -26 12 2 8 -17 -5 -22 -7 -2 2 -7 20 -11
18 -4 30 -12 26 -17 -3 -5 2 -9 10 -9 9 0 16 -5 16 -10 0 -6 9 -30 20 -53 14
-28 20 -58 19 -89 -2 -26 -1 -50 2 -53 10 -10 -9 -126 -25 -150 -14 -21 -24
-25 -66 -25 -27 0 -52 5 -55 10 -3 6 -16 10 -28 10 -13 0 -29 9 -37 20 -8 11
-20 20 -26 20 -7 0 -15 11 -18 25 -6 24 -26 36 -26 15 0 -5 -4 -10 -10 -10 -5
0 -10 8 -10 18 0 9 -13 23 -29 30 -21 9 -28 18 -24 32 4 15 0 20 -13 20 -13 0
-25 14 -37 40 -16 38 -37 54 -37 28 0 -6 -3 -8 -6 -5 -4 4 -1 13 6 22 10 12
10 15 -3 15 -8 0 -17 10 -21 23 -5 18 -8 19 -16 7 -8 -13 -11 -12 -24 5 -9 11
-16 27 -16 36 0 22 -29 33 -46 18 -20 -16 -18 6 2 26 19 19 11 47 -11 39 -11
-5 -15 1 -17 22 -1 16 -2 37 -2 47 -1 10 -7 21 -13 25 -7 5 -9 13 -4 21 5 8 2
25 -8 42 -14 26 -14 31 -1 39 8 5 10 10 3 10 -6 0 -9 9 -6 20 3 11 1 20 -5 20
-7 0 -9 19 -7 48 2 26 -1 65 -6 86 -9 34 -8 42 6 52 12 9 13 13 3 16 -11 4
-10 8 1 21 12 15 11 17 -3 17 -20 0 -20 7 0 27 12 12 14 27 10 55 -4 22 -3 45
1 51 4 7 9 22 11 34 1 12 14 41 27 65 14 24 25 50 25 59 0 8 9 25 21 37 11 12
18 26 15 30 -3 5 22 36 55 71 33 34 57 66 54 72 -4 5 -3 9 2 8 27 -5 45 2 39
16 -7 18 45 48 68 39 11 -4 16 0 16 13 0 13 15 27 45 42 25 12 45 29 45 37 0
9 11 14 35 14 23 0 41 7 52 20 10 11 27 20 39 20 12 0 33 9 48 21 21 17 26 18
26 5 0 -17 16 -22 22 -6 2 5 28 11 59 12 34 1 55 6 53 13 -2 5 7 11 21 11 15
1 25 -3 25 -12 0 -19 17 -17 30 4 7 11 13 13 16 5 4 -9 13 -8 37 2 36 16 47
18 47 9z m-1298 -47 c21 13 132 4 148 -13 11 -11 14 -43 15 -142 0 -156 -2
-163 -48 -152 -27 6 -39 4 -52 -9 -13 -12 -19 -13 -22 -3 -4 9 -19 11 -55 6
-37 -5 -49 -4 -44 5 4 6 2 11 -3 11 -6 0 -11 -4 -11 -10 0 -5 -4 -10 -10 -10
-5 0 -10 7 -10 17 0 15 -1 15 -18 0 -20 -18 -92 -24 -92 -7 0 11 -32 1 -42
-14 -6 -8 -8 -8 -8 0 0 7 -15 8 -47 3 -66 -11 -75 -11 -68 1 9 15 -22 12 -57
-6 -30 -16 -77 -62 -78 -76 0 -5 6 -8 14 -8 8 0 22 -10 31 -22 8 -13 19 -23
23 -23 5 0 23 -17 41 -37 18 -21 39 -38 47 -38 8 0 14 -5 14 -11 0 -5 -4 -8
-9 -4 -5 3 -12 1 -16 -5 -3 -5 3 -10 13 -10 11 0 25 -7 32 -15 7 -8 19 -15 26
-15 8 0 14 -7 14 -15 0 -8 7 -15 15 -15 8 0 20 -9 27 -20 7 -11 17 -20 23 -20
6 0 17 -9 25 -20 8 -11 21 -20 28 -20 8 0 12 -6 10 -12 -5 -13 13 -26 60 -47
12 -6 27 -22 32 -36 5 -14 20 -27 35 -31 14 -3 25 -12 25 -19 0 -8 12 -23 27
-35 15 -12 35 -38 44 -58 10 -20 21 -36 26 -35 4 1 8 -11 8 -27 0 -17 3 -30 7
-30 5 0 8 5 8 10 0 20 15 9 31 -23 9 -18 15 -51 14 -74 -2 -28 1 -40 9 -37 15
6 13 -91 -3 -159 -6 -27 -9 -52 -6 -57 3 -4 -2 -10 -10 -14 -9 -3 -15 -18 -15
-36 0 -18 -4 -29 -10 -25 -5 3 -10 0 -10 -7 0 -7 -18 -33 -40 -58 -22 -25 -37
-37 -34 -27 10 28 -14 19 -33 -13 -9 -16 -21 -30 -26 -30 -5 0 -25 -14 -44
-30 -18 -16 -44 -30 -57 -30 -13 0 -29 -6 -36 -14 -6 -8 -17 -13 -25 -10 -7 3
-16 1 -19 -5 -5 -7 -54 -9 -147 -5 -102 4 -144 3 -154 -6 -11 -9 -15 -9 -15
-1 0 7 -20 11 -50 11 -38 0 -50 4 -50 15 0 8 -3 15 -6 15 -10 0 -49 -23 -55
-32 -3 -5 -23 -11 -45 -13 -21 -2 -43 -4 -49 -5 -21 -4 -55 13 -55 27 0 9 -6
13 -14 10 -31 -12 -38 19 -34 158 2 84 7 138 14 143 6 4 14 14 17 22 4 12 6
11 6 -2 1 -19 21 -26 21 -8 0 6 11 10 24 10 14 0 36 4 51 10 20 8 27 7 32 -5
4 -11 9 -13 18 -5 7 6 29 8 49 4 23 -3 43 -1 52 7 11 9 14 8 14 -5 0 -14 3
-15 23 -4 12 7 26 11 31 10 4 -2 14 3 22 9 11 9 14 8 14 -7 0 -15 7 -19 38
-18 20 1 42 2 47 4 6 1 45 2 88 0 68 -2 81 1 98 19 20 21 26 61 9 61 -5 0 -10
8 -10 18 -1 18 -26 57 -38 57 -4 0 -21 14 -38 30 -16 17 -51 49 -77 73 -26 23
-47 47 -47 52 0 6 -7 10 -15 10 -8 0 -15 7 -15 15 0 8 -4 15 -8 15 -8 0 -163
150 -208 201 -11 13 -27 39 -35 57 -8 17 -20 32 -26 32 -7 0 -13 7 -13 15 0 9
-7 18 -15 21 -8 4 -12 10 -9 16 3 5 -4 12 -15 15 -16 4 -20 11 -16 24 4 12 2
19 -7 19 -7 0 -14 12 -15 27 0 14 -9 30 -18 36 -14 7 -15 11 -4 17 10 7 10 12
1 23 -7 7 -10 16 -7 19 8 8 -16 68 -27 68 -6 0 -4 7 3 17 11 13 11 17 2 20
-15 5 -17 33 -3 33 6 0 10 9 10 21 0 11 -4 17 -10 14 -5 -3 -10 -1 -10 4 0 6
5 11 10 11 6 0 10 6 10 14 0 7 9 16 20 19 11 3 20 11 20 17 0 10 -4 10 -15 0
-29 -24 -28 0 1 33 16 17 32 33 37 35 4 2 7 8 7 14 0 15 71 78 81 72 5 -3 9 2
9 10 0 9 8 16 19 16 10 0 24 7 31 15 11 14 14 14 24 0 10 -13 14 -13 41 1 16
8 41 14 55 13 14 -1 33 2 43 6 10 4 21 5 24 1 3 -3 12 -1 20 6 11 8 12 7 7 -6
-8 -21 19 -22 36 -1 16 20 37 19 49 -2 7 -14 12 -15 24 -4 12 10 20 10 37 -1
15 -9 23 -10 28 -2 9 14 61 24 68 13 3 -5 14 -5 24 1 13 7 20 6 22 -2 3 -8 9
-8 24 0 16 8 24 8 33 -1 10 -9 16 -7 29 9 17 21 17 21 24 2 5 -12 12 -16 20
-11z m2545 -5 c27 -32 30 -54 20 -166 -5 -64 -4 -92 4 -97 8 -4 5 -10 -7 -17
-16 -9 -19 -24 -21 -95 -1 -47 -7 -95 -13 -108 -11 -19 -10 -21 4 -16 17 7 32
-8 17 -18 -6 -3 -8 -12 -5 -19 3 -8 1 -17 -5 -21 -15 -9 -14 -25 2 -25 16 0
20 -51 7 -86 -7 -18 -6 -22 5 -17 11 4 14 -2 11 -25 -1 -16 -6 -34 -9 -40 -4
-5 0 -12 8 -16 18 -7 19 -23 2 -56 -11 -21 -11 -27 1 -36 12 -9 12 -13 -3 -27
-14 -15 -15 -18 -1 -23 12 -4 13 -10 4 -23 -8 -13 -8 -27 0 -51 7 -18 9 -37 5
-43 -3 -6 -8 -22 -9 -36 -14 -119 -14 -117 1 -97 20 27 25 17 16 -27 -5 -21
-5 -37 0 -37 5 0 9 7 9 15 0 25 17 17 25 -12 5 -21 8 -24 16 -12 6 9 9 10 9 2
0 -7 9 -13 20 -13 11 0 20 -4 20 -8 0 -5 10 -8 23 -8 14 1 21 -4 19 -13 -2 -8
3 -11 13 -8 8 4 15 1 15 -5 0 -6 8 -4 18 5 23 21 43 22 36 2 -4 -9 0 -15 10
-15 25 0 19 -20 -6 -21 -21 0 -22 -1 -3 -8 15 -6 24 -1 40 22 21 31 45 46 45
29 0 -6 -7 -17 -15 -25 -12 -13 -11 -15 16 -19 16 -3 32 -1 34 3 3 4 17 4 33
0 l27 -7 2 -185 c1 -105 -1 -178 -6 -170 -6 9 -18 12 -36 7 -17 -4 -24 -3 -20
4 12 20 -44 10 -65 -12 -18 -19 -23 -21 -41 -10 -18 11 -24 11 -39 -3 -13 -12
-19 -13 -22 -4 -3 8 -27 12 -71 11 -53 -1 -67 2 -67 13 0 19 -19 19 -26 0 -4
-9 -16 -13 -35 -11 -16 2 -32 0 -35 -5 -3 -5 -15 -2 -27 6 -12 7 -39 13 -59
11 -31 -3 -37 0 -43 21 -5 20 -10 22 -33 16 -24 -6 -26 -5 -13 11 17 21 7 33
-14 16 -12 -10 -15 -10 -15 4 0 9 -7 16 -15 16 -9 0 -12 6 -9 15 4 8 1 15 -5
15 -6 0 -11 11 -11 24 0 13 -4 26 -10 28 -5 2 -12 23 -14 48 -3 25 -5 47 -5
50 -1 2 -6 -1 -13 -8 -7 -7 -15 -12 -19 -12 -14 0 -20 59 -9 79 7 14 7 21 0
21 -16 0 -11 32 8 46 16 13 16 13 0 14 -10 0 -18 5 -18 11 0 5 4 8 8 5 4 -2 8
12 8 32 0 20 4 45 8 55 6 12 4 17 -8 17 -12 0 -16 10 -16 39 0 22 4 42 9 45
15 10 19 66 4 66 -15 0 -17 16 -3 25 14 9 12 45 -2 45 -8 1 -6 6 5 14 16 12
16 14 2 20 -15 5 -15 8 1 23 16 16 16 18 1 21 -14 3 -14 7 -1 44 11 31 11 43
3 49 -7 4 -8 12 -3 20 5 8 9 49 9 92 1 57 -2 77 -12 77 -7 0 -13 7 -13 15 0 8
4 15 10 15 6 0 6 9 0 26 -6 14 -7 36 -4 50 5 19 3 23 -9 18 -15 -5 -18 41 -22
306 -1 107 31 150 116 156 28 2 54 5 56 8 3 2 44 2 91 -1 79 -4 89 -7 109 -31z
m-2802 18 c3 -5 1 -10 -4 -10 -6 0 -11 5 -11 10 0 6 2 10 4 10 3 0 8 -4 11
-10z m-315 -20 c0 -5 -5 -10 -11 -10 -5 0 -7 5 -4 10 3 6 8 10 11 10 2 0 4 -4
4 -10z m2780 -620 c0 -5 -5 -10 -11 -10 -5 0 -7 5 -4 10 3 6 8 10 11 10 2 0 4
-4 4 -10z m-10 -540 c0 -5 -5 -10 -11 -10 -5 0 -7 5 -4 10 3 6 8 10 11 10 2 0
4 -4 4 -10z m-3685 -210 c-3 -5 -11 -10 -16 -10 -6 0 -7 5 -4 10 3 6 11 10 16
10 6 0 7 -4 4 -10z"/>
<path d="M6255 2590 c-3 -5 1 -10 10 -10 9 0 13 5 10 10 -3 6 -8 10 -10 10 -2
0 -7 -4 -10 -10z"/>
<path d="M6390 2531 c0 -5 5 -13 10 -16 6 -3 10 -2 10 4 0 5 -4 13 -10 16 -5
3 -10 2 -10 -4z"/>
<path d="M6885 2320 c-3 -5 -1 -10 4 -10 6 0 11 5 11 10 0 6 -2 10 -4 10 -3 0
-8 -4 -11 -10z"/>
<path d="M6286 1023 c-6 -14 -5 -15 5 -6 7 7 10 15 7 18 -3 3 -9 -2 -12 -12z"/>
<path d="M1428 3883 c6 -2 18 -2 25 0 6 3 1 5 -13 5 -14 0 -19 -2 -12 -5z"/>
<path d="M1465 3871 c-22 -4 -47 -11 -55 -16 -8 -5 -28 -8 -44 -6 -21 2 -26 0
-20 -11 6 -11 5 -11 -8 0 -11 9 -18 10 -23 2 -3 -5 -14 -10 -23 -10 -15 0 -15
2 -2 10 8 5 10 10 4 10 -6 0 -17 -7 -25 -16 -9 -11 -22 -14 -46 -9 -18 3 -42
1 -52 -5 -14 -7 -22 -7 -26 1 -5 7 -14 4 -27 -7 -16 -16 -21 -16 -29 -4 -6 11
-11 12 -16 4 -11 -16 -50 -27 -57 -15 -9 13 -46 1 -46 -15 0 -16 -37 -19 -42
-3 -2 6 -14 2 -30 -10 -14 -12 -33 -21 -41 -21 -9 0 -19 -5 -22 -10 -4 -6 -10
-8 -14 -5 -5 2 -24 -3 -42 -12 -19 -9 -44 -18 -56 -20 -13 -2 -34 -5 -48 -6
-14 -2 -34 -12 -45 -22 -11 -10 -20 -15 -20 -12 0 3 -12 0 -27 -8 -15 -8 -30
-12 -35 -9 -4 3 -8 -1 -8 -10 0 -8 -15 -20 -34 -26 -19 -6 -46 -22 -61 -35
-14 -14 -30 -25 -35 -25 -11 0 -72 -61 -67 -66 2 -3 17 0 32 6 26 10 27 9 23
-15 -4 -17 0 -29 11 -35 11 -7 13 -12 5 -17 -8 -6 -5 -14 7 -27 17 -18 19 -18
19 -2 0 9 5 14 10 11 6 -3 7 -17 4 -31 -5 -18 -2 -24 10 -24 9 0 16 -8 16 -20
0 -12 7 -20 18 -20 21 0 52 -33 52 -56 0 -11 6 -13 20 -9 16 5 20 2 20 -15 0
-17 4 -20 20 -15 15 5 18 3 14 -8 -5 -13 19 -27 51 -31 6 -1 18 -10 28 -20 9
-10 17 -15 17 -10 0 5 6 2 13 -6 7 -9 33 -16 62 -18 27 -2 53 -8 56 -14 4 -6
18 -8 32 -4 15 3 29 1 33 -5 4 -8 9 -7 16 2 7 10 8 8 5 -8 -6 -29 19 -31 28
-3 3 11 10 20 15 20 5 0 7 -7 3 -16 -5 -14 -3 -15 15 -5 15 8 23 8 28 0 3 -6
17 -9 30 -6 14 2 27 0 30 -5 3 -5 14 -6 25 -3 12 4 19 2 19 -6 0 -10 3 -10 12
-1 17 17 31 15 24 -4 -5 -14 -4 -15 8 -5 10 8 21 9 42 1 23 -9 31 -8 39 4 10
13 13 12 22 -3 9 -14 22 -18 52 -15 22 1 45 5 51 9 5 3 17 -1 26 -9 9 -10 33
-16 60 -16 34 0 44 -4 44 -16 0 -12 5 -11 19 7 18 22 20 22 26 7 4 -10 12 -18
17 -18 6 0 8 7 5 15 -4 8 -2 17 3 20 6 4 10 -1 10 -10 0 -14 10 -16 70 -13 39
2 70 0 70 -4 0 -10 63 3 70 13 6 9 71 6 87 -4 6 -4 13 -3 17 0 4 4 13 8 20 9
7 1 28 5 45 9 25 5 31 3 31 -10 0 -15 2 -15 16 -4 13 10 17 10 24 -2 8 -12 16
-12 55 2 25 9 48 13 51 8 3 -5 0 -9 -7 -9 -7 0 -10 -2 -8 -5 3 -2 28 2 57 9
29 8 52 10 52 6 0 -5 -8 -11 -17 -13 -10 -3 0 -4 22 -3 22 1 51 9 65 19 17 12
26 14 31 5 6 -9 11 -8 23 1 15 12 20 8 17 -12 -1 -4 7 -3 16 2 10 4 32 13 49
18 29 10 31 9 26 -10 -5 -21 -5 -21 23 1 15 12 33 22 39 22 6 0 19 8 28 18 31
33 97 64 166 79 12 3 22 12 22 20 0 8 6 13 13 10 6 -2 26 8 42 23 30 28 112
59 99 38 -4 -5 5 -2 19 7 14 9 34 14 44 11 29 -8 66 29 59 59 -4 17 -2 25 6
25 8 1 5 7 -6 15 -19 14 -19 15 -2 15 15 0 16 3 7 14 -8 10 -9 21 -1 41 12 31
0 47 -29 38 -9 -3 -5 5 9 16 21 18 23 22 10 31 -8 5 -23 7 -32 4 -10 -3 -18 0
-18 6 0 6 -4 9 -9 5 -5 -3 -16 2 -24 10 -9 8 -22 12 -30 9 -9 -3 -16 3 -20 16
-3 12 -11 20 -19 19 -23 -3 -38 1 -36 9 1 4 -3 17 -10 28 -8 15 -18 20 -34 17
-17 -3 -27 3 -40 27 -17 30 -41 39 -53 20 -4 -6 -11 -8 -16 -4 -6 4 -6 11 2
20 6 8 8 18 4 22 -4 4 -10 2 -12 -5 -2 -7 -11 -9 -19 -6 -7 3 -17 -2 -20 -11
-3 -9 -10 -16 -16 -16 -5 0 -7 4 -3 10 3 5 0 18 -7 30 -10 16 -19 19 -42 14
-18 -4 -26 -2 -22 4 4 6 -15 11 -51 11 -105 3 -110 4 -105 26 5 17 3 18 -10 7
-9 -7 -19 -9 -22 -4 -3 5 -22 9 -41 9 -20 -1 -39 4 -43 10 -11 16 -49 25 -57
13 -5 -8 -10 -7 -18 3 -14 17 -47 30 -47 18 0 -10 -48 -2 -56 10 -7 12 -61 11
-69 -1 -3 -5 -14 -10 -23 -9 -11 0 -12 3 -4 6 6 2 12 9 12 14 0 16 -18 10 -39
-12 -11 -12 -26 -19 -34 -16 -8 3 -24 -3 -35 -14 -21 -19 -62 -26 -62 -11 0 4
-16 6 -37 4 -30 -4 -35 -2 -30 12 8 20 8 20 -33 0 -31 -16 -34 -16 -46 1 -11
15 -16 16 -29 5 -8 -7 -15 -8 -15 -3 0 5 -16 7 -36 5 -34 -4 -36 -3 -31 17 6
24 6 24 -27 11 -17 -6 -26 -6 -26 0 0 11 -5 11 -65 1z m1555 -551 c0 -5 -6
-10 -14 -10 -8 0 -16 -6 -19 -12 -2 -7 -8 -10 -12 -5 -5 4 0 14 11 22 23 17
34 19 34 5z"/>
<path d="M1795 3840 c-3 -5 -1 -10 4 -10 6 0 11 5 11 10 0 6 -2 10 -4 10 -3 0
-8 -4 -11 -10z"/>
<path d="M20 3389 c0 -5 5 -7 10 -4 6 3 10 8 10 11 0 2 -4 4 -10 4 -5 0 -10
-5 -10 -11z"/>
<path d="M3340 3389 c0 -5 5 -7 10 -4 6 3 10 8 10 11 0 2 -4 4 -10 4 -5 0 -10
-5 -10 -11z"/>
<path d="M4 3335 c-9 -22 1 -29 15 -11 8 10 9 16 1 21 -5 3 -13 -1 -16 -10z"/>
<path d="M0 3271 c0 -17 2 -31 4 -31 8 0 13 51 5 56 -5 3 -9 -9 -9 -25z"/>
<path d="M2850 3230 c-8 -5 -11 -12 -7 -16 4 -4 13 -2 19 4 15 15 7 24 -12 12z"/>
<path d="M0 3194 c0 -14 4 -23 10 -19 13 8 13 45 0 45 -5 0 -10 -12 -10 -26z"/>
<path d="M0 3135 c0 -8 2 -15 4 -15 2 0 6 7 10 15 3 8 1 15 -4 15 -6 0 -10 -7
-10 -15z"/>
<path d="M2627 3103 c-4 -3 -7 -11 -7 -17 0 -6 5 -5 12 2 6 6 9 14 7 17 -3 3
-9 2 -12 -2z"/>
<path d="M1 2855 c0 -174 4 -245 12 -245 8 0 7 -4 -1 -12 -15 -15 -17 -312 -3
-303 6 3 8 38 5 82 -4 56 -3 78 7 84 8 4 12 23 11 43 -2 20 2 36 7 36 5 0 12
8 16 18 5 14 4 15 -6 5 -7 -7 -16 -13 -19 -13 -9 0 -6 93 4 108 4 7 1 15 -8
18 -21 8 -20 30 2 39 16 6 16 7 -2 20 -17 13 -17 19 -7 67 19 85 20 88 11 83
-17 -10 -20 14 -8 60 8 29 9 49 3 53 -14 10 -17 53 -4 68 6 7 8 18 4 24 -21
33 -25 -9 -24 -235z"/>
<path d="M387 2926 c-3 -8 -3 -24 0 -36 4 -13 0 -26 -8 -31 -12 -8 -11 -11 4
-20 14 -8 15 -14 7 -24 -6 -7 -8 -24 -5 -38 4 -14 2 -34 -4 -45 -7 -14 -8 -23
-1 -27 6 -4 8 -11 4 -16 -3 -5 -1 -16 5 -23 8 -10 7 -17 -4 -26 -16 -13 -21
-45 -6 -35 6 3 9 -28 6 -81 -3 -81 -2 -86 16 -81 12 3 23 -2 29 -13 5 -10 23
-21 39 -25 16 -3 31 -14 34 -24 3 -13 18 -20 51 -25 27 -4 50 -14 53 -22 3 -8
12 -13 19 -10 8 3 14 -1 14 -10 0 -9 6 -14 13 -11 17 6 69 -22 62 -33 -3 -6 1
-7 10 -4 8 4 27 -2 42 -11 15 -10 45 -19 66 -21 46 -4 57 -11 38 -23 -23 -15
24 -23 65 -12 33 9 36 8 31 -9 -3 -13 -1 -17 10 -13 8 3 25 0 39 -7 19 -11 27
-11 36 -2 17 17 31 15 24 -4 -5 -14 -1 -16 33 -11 22 3 41 1 43 -4 5 -15 100
-20 117 -6 12 10 14 9 8 -6 -6 -15 -2 -16 36 -10 38 6 41 5 28 -10 -12 -15
-11 -17 8 -17 11 0 21 5 21 11 0 8 16 10 53 5 28 -4 71 -9 94 -11 24 -2 52 -6
63 -10 12 -4 20 -2 20 5 0 6 5 8 10 5 6 -4 17 -1 25 5 12 10 15 9 15 -3 0 -13
6 -14 30 -7 36 10 66 6 63 -9 -2 -6 2 -11 7 -11 6 0 10 5 10 11 0 6 9 8 21 4
15 -5 19 -4 15 4 -4 6 -1 11 8 11 10 0 13 -6 10 -15 -8 -19 10 -19 26 0 11 14
14 14 24 0 10 -13 17 -13 58 0 31 9 50 10 54 4 3 -6 13 -7 23 -3 9 3 30 8 46
9 70 7 90 14 110 38 11 13 31 28 45 32 14 4 33 14 42 23 16 14 18 14 18 -1 0
-13 6 -15 32 -10 22 4 29 3 24 -5 -4 -7 -2 -12 3 -12 6 0 11 7 11 15 0 17 17
20 22 4 2 -7 12 -7 30 2 20 9 31 9 41 1 10 -9 17 -8 25 0 7 7 12 8 12 4 0 -5
7 -3 15 4 10 9 15 9 15 1 0 -16 25 -14 40 4 16 19 30 19 30 -1 0 -11 10 -7 37
15 21 17 40 26 42 20 2 -6 10 -1 18 11 10 14 21 19 34 15 12 -4 21 -1 25 9 3
9 12 16 20 16 7 0 28 8 46 18 18 10 39 17 46 14 8 -2 22 5 33 16 10 12 36 24
56 28 20 4 46 15 57 25 11 11 23 19 27 19 4 0 14 12 24 26 13 20 14 28 5 34
-9 6 -9 13 -1 28 17 31 31 72 26 72 -3 0 -11 -12 -17 -27 -9 -23 -12 -25 -15
-10 -7 29 6 67 22 67 18 0 18 1 3 37 -6 15 -10 34 -9 41 1 6 -3 12 -8 12 -16
0 -10 78 6 84 19 8 16 27 -4 24 -13 -2 -17 3 -16 17 10 86 11 104 6 109 -6 5
-39 -12 -61 -31 -7 -7 -21 -13 -31 -13 -10 0 -30 -13 -44 -30 -17 -18 -37 -30
-52 -30 -14 0 -25 -5 -25 -11 0 -8 -4 -8 -12 -1 -9 7 -24 5 -50 -8 -30 -14
-41 -15 -60 -6 -32 16 -65 9 -71 -15 -3 -10 -10 -19 -17 -19 -7 0 -9 8 -5 20
9 29 -10 25 -23 -5 -10 -22 -14 -23 -35 -14 -19 9 -31 7 -58 -6 -27 -14 -87
-23 -109 -15 -27 9 -48 6 -62 -7 -10 -9 -32 -18 -50 -20 -17 -2 -37 -8 -44
-14 -8 -7 -14 -6 -19 2 -6 8 -10 8 -15 -2 -7 -10 -12 -10 -23 -1 -7 7 -17 9
-21 5 -3 -4 -29 -8 -57 -9 -37 -2 -52 2 -56 13 -3 8 -8 10 -12 5 -3 -6 -24
-11 -46 -13 -22 -1 -46 -7 -52 -12 -9 -7 -13 -4 -13 7 0 12 -6 15 -25 10 -21
-5 -25 -3 -26 17 l0 24 -11 -22 c-6 -12 -24 -26 -39 -32 -32 -11 -40 2 -11 18
15 9 15 10 -5 11 -12 0 -26 -8 -32 -17 -9 -17 -10 -17 -17 0 -6 16 -9 16 -29
3 -22 -14 -54 -16 -85 -4 -37 15 -60 16 -60 2 0 -7 -6 -11 -13 -8 -7 2 -22 -4
-32 -16 -24 -26 -35 -25 -36 3 0 21 -1 21 -11 -3 -11 -24 -12 -24 -15 -3 -4
21 -6 21 -43 8 -31 -11 -41 -11 -49 -1 -6 7 -7 16 -3 21 4 4 -5 6 -20 3 -16
-3 -29 0 -32 8 -3 9 -15 10 -43 4 -20 -5 -40 -5 -43 -1 -7 11 -42 10 -56 -1
-7 -5 -14 -3 -17 6 -4 9 -14 12 -27 9 -13 -4 -26 1 -34 12 -9 13 -15 15 -20 7
-10 -16 -37 -15 -34 1 2 7 -10 12 -32 13 -57 1 -70 4 -69 12 3 19 -2 23 -16
12 -8 -7 -15 -9 -15 -6 0 4 -10 2 -21 -5 -17 -9 -23 -8 -30 2 -6 11 -13 11
-26 3 -10 -6 -27 -8 -38 -3 -11 4 -15 8 -10 9 6 0 -4 7 -21 14 -17 8 -43 12
-57 11 -21 -3 -27 1 -27 16 0 10 -4 19 -10 19 -5 0 -10 -4 -10 -9 0 -5 -13 -4
-29 2 -17 6 -27 16 -24 24 6 15 -13 18 -22 3 -10 -16 -35 8 -28 26 4 10 0 12
-11 8 -9 -3 -16 -12 -16 -20 0 -24 -19 -15 -26 12 -6 22 -11 25 -35 20 -22 -4
-29 -2 -29 9 0 19 -36 20 -43 1z m33 -41 c0 -8 -4 -15 -10 -15 -5 0 -10 7 -10
15 0 8 5 15 10 15 6 0 10 -7 10 -15z m2620 -255 c0 -5 -4 -10 -10 -10 -5 0
-10 5 -10 10 0 6 5 10 10 10 6 0 10 -4 10 -10z"/>
<path d="M2850 2850 c0 -5 5 -10 10 -10 6 0 10 5 10 10 0 6 -4 10 -10 10 -5 0
-10 -4 -10 -10z"/>
<path d="M25 2760 c-3 -5 -1 -10 4 -10 6 0 11 5 11 10 0 6 -2 10 -4 10 -3 0
-8 -4 -11 -10z"/>
<path d="M3055 2680 c-3 -5 -1 -10 4 -10 6 0 11 5 11 10 0 6 -2 10 -4 10 -3 0
-8 -4 -11 -10z"/>
<path d="M0 2260 c0 -5 7 -10 15 -10 8 0 15 5 15 10 0 6 -7 10 -15 10 -8 0
-15 -4 -15 -10z"/>
<path d="M0 2184 c0 -29 4 -43 11 -39 6 4 7 19 4 36 -4 18 -3 29 4 29 6 0 11
5 11 10 0 6 -7 10 -15 10 -11 0 -15 -12 -15 -46z"/>
<path d="M0 2103 c0 -18 2 -33 4 -33 9 0 13 39 5 51 -6 10 -9 4 -9 -18z"/>
<path d="M3050 2099 c0 -5 5 -7 10 -4 6 3 10 8 10 11 0 2 -4 4 -10 4 -5 0 -10
-5 -10 -11z"/>
<path d="M3000 2053 c0 -8 5 -13 12 -11 18 6 21 25 3 25 -8 0 -15 -7 -15 -14z"/>
<path d="M25 2050 c-3 -5 -1 -10 4 -10 6 0 11 5 11 10 0 6 -2 10 -4 10 -3 0
-8 -4 -11 -10z"/>
<path d="M387 2054 c-3 -3 -1 -17 4 -31 6 -17 6 -30 -2 -39 -9 -11 -8 -15 5
-20 9 -3 16 -10 16 -15 0 -4 -7 -6 -15 -3 -11 5 -13 2 -9 -10 3 -9 2 -16 -3
-16 -5 0 -10 -6 -10 -14 0 -9 6 -12 16 -8 14 5 13 2 -2 -21 -15 -24 -16 -27
-2 -27 10 0 13 -5 9 -11 -13 -22 -11 -211 2 -216 7 -3 10 -11 8 -18 -7 -18 14
-29 30 -16 10 9 16 5 25 -17 9 -21 27 -35 67 -51 29 -13 52 -27 49 -31 -3 -5
8 -11 25 -15 16 -4 30 -11 30 -17 0 -6 9 -8 21 -5 15 4 23 0 26 -14 4 -14 13
-19 32 -17 20 2 25 -1 23 -15 -3 -15 1 -17 17 -12 16 5 21 2 21 -12 0 -15 2
-16 11 -3 8 12 12 12 16 2 6 -16 39 -30 118 -51 43 -12 59 -21 57 -31 -3 -12
-1 -13 9 -2 16 15 44 15 69 0 16 -11 22 -9 34 7 15 19 15 19 9 -3 -5 -22 -4
-23 46 -19 28 1 51 -1 51 -6 0 -4 9 -5 20 -2 14 5 20 2 20 -10 0 -13 4 -14 21
-5 15 9 24 8 35 -1 8 -6 27 -9 44 -5 17 3 30 2 30 -2 0 -5 21 -8 48 -8 41 1
47 -2 45 -19 -1 -17 1 -17 18 5 10 14 19 19 19 13 0 -13 22 -12 89 3 24 5 36
3 42 -7 7 -10 11 -11 17 -2 4 6 20 15 36 19 25 6 28 4 23 -9 -10 -27 7 -27 33
0 l25 26 5 -24 6 -24 12 23 c15 26 52 30 52 5 0 -15 1 -15 13 2 10 12 16 14
21 7 9 -15 51 -15 77 -2 15 8 19 7 19 -4 0 -15 11 -15 43 -1 9 4 28 4 41 1 14
-3 27 -2 31 4 3 5 12 7 20 4 8 -3 27 1 43 8 23 12 30 12 40 2 7 -8 18 -11 25
-8 7 2 38 6 68 7 33 2 72 12 97 25 51 26 52 26 52 7 0 -8 7 -15 15 -15 8 0 15
7 15 16 0 12 7 15 27 11 17 -3 33 1 45 13 18 17 51 23 171 35 55 5 114 30 140
60 10 11 16 14 12 8 -4 -8 1 -13 14 -13 12 0 19 5 16 13 -3 7 13 20 38 30 81
36 107 52 107 65 0 9 6 12 18 7 13 -5 14 -3 5 5 -7 8 -8 22 -3 41 6 20 5 29
-3 29 -7 0 -12 14 -13 30 -1 26 3 30 25 31 l26 1 -24 7 c-23 6 -25 12 -25 63
-1 43 3 59 17 67 9 6 17 16 17 22 0 8 -5 7 -15 -1 -15 -12 -20 -4 -16 23 0 4
-4 7 -10 7 -8 0 -8 4 1 15 6 8 10 22 8 32 -2 10 3 23 12 30 13 11 13 12 -2 13
-18 0 -23 11 -11 23 3 4 7 18 9 31 2 20 -3 25 -33 29 -32 5 -45 2 -93 -24 -49
-27 -78 -40 -86 -38 -9 3 -48 -12 -96 -36 -25 -12 -28 -12 -28 2 0 14 -2 14
-19 -1 -11 -10 -25 -15 -31 -11 -6 4 -17 2 -24 -4 -7 -6 -21 -9 -30 -5 -9 3
-16 1 -16 -5 0 -7 -10 -16 -22 -20 -17 -7 -26 -5 -35 7 -8 9 -13 11 -13 4 0
-7 -7 -12 -15 -12 -8 0 -15 -4 -15 -10 0 -5 -7 -10 -15 -10 -10 0 -15 -10 -15
-26 0 -23 -2 -25 -15 -14 -9 7 -18 10 -22 6 -3 -3 0 -6 7 -6 9 0 7 -5 -5 -14
-22 -16 -39 -11 -28 7 3 7 -3 3 -15 -7 -12 -11 -25 -17 -28 -13 -3 3 -17 2
-30 -3 -15 -6 -24 -6 -24 0 0 12 -37 13 -42 2 -5 -14 -58 -24 -58 -11 0 8 -4
8 -12 1 -17 -13 -90 -33 -83 -22 3 4 -11 10 -31 12 -19 2 -37 1 -40 -4 -3 -4
-21 -1 -40 7 -37 15 -68 11 -58 -9 3 -6 -1 -3 -9 7 -14 17 -17 17 -45 3 -21
-11 -32 -12 -34 -5 -5 16 -60 20 -76 7 -10 -9 -15 -9 -21 1 -8 13 -47 11 -68
-2 -12 -8 -17 -2 -14 16 2 11 -17 9 -24 -3 -5 -8 -11 -7 -21 1 -11 9 -16 6
-23 -12 -7 -18 -10 -19 -10 -6 -1 12 -9 17 -31 17 -16 0 -30 -4 -30 -10 0 -14
-54 -12 -68 2 -9 9 -12 9 -12 0 0 -7 -16 -12 -40 -12 -22 0 -40 3 -40 8 0 13
-93 13 -102 0 -6 -10 -8 -9 -8 3 0 29 -27 43 -63 33 -41 -12 -87 -6 -87 10 0
10 -10 11 -42 6 -33 -6 -45 -5 -51 6 -4 8 -13 14 -18 14 -6 0 -7 -4 -4 -10 11
-18 -14 -10 -34 11 -12 13 -21 17 -25 10 -5 -7 -16 -4 -34 9 -17 13 -46 21
-79 22 -29 1 -53 6 -53 10 0 4 -9 8 -19 8 -11 0 -22 6 -25 13 -5 10 -7 10 -12
0 -3 -7 -12 -13 -19 -13 -7 0 -15 6 -18 13 -3 9 -7 9 -20 -2 -14 -11 -20 -11
-34 0 -9 8 -25 13 -36 11 -10 -2 -16 1 -13 6 7 12 -20 36 -33 28 -5 -3 -12 1
-15 10 -5 12 -10 14 -20 5 -15 -13 -26 -5 -26 20 0 12 -5 16 -15 13 -8 -4 -15
-1 -15 5 0 6 -7 8 -15 5 -9 -4 -15 0 -15 10 0 16 -11 21 -23 10z"/>
<path d="M0 1979 c0 -18 2 -19 15 -9 8 7 15 16 15 21 0 5 -7 9 -15 9 -9 0 -15
-9 -15 -21z"/>
<path d="M0 1929 c0 -18 2 -19 15 -9 8 7 15 16 15 21 0 5 -7 9 -15 9 -9 0 -15
-9 -15 -21z"/>
<path d="M2395 1880 c-3 -5 1 -10 10 -10 9 0 13 5 10 10 -3 6 -8 10 -10 10 -2
0 -7 -4 -10 -10z"/>
<path d="M7 1863 c-4 -3 -6 -25 -6 -47 1 -26 3 -32 6 -17 3 13 11 31 19 38 8
8 14 19 14 24 0 10 -23 12 -33 2z"/>
<path d="M13 1754 c-15 -15 -17 -34 -4 -34 15 0 30 25 23 37 -5 8 -11 7 -19
-3z"/>
<path d="M0 1694 c0 -8 5 -12 10 -9 6 3 10 10 10 16 0 5 -4 9 -10 9 -5 0 -10
-7 -10 -16z"/>
<path d="M12 1634 c-20 -22 -10 -40 11 -20 18 18 23 36 10 36 -5 -1 -14 -7
-21 -16z"/>
<path d="M3040 1634 c0 -8 5 -12 10 -9 6 4 8 11 5 16 -9 14 -15 11 -15 -7z"/>
<path d="M90 1629 c0 -5 5 -7 10 -4 6 3 10 8 10 11 0 2 -4 4 -10 4 -5 0 -10
-5 -10 -11z"/>
<path d="M6 1574 c-10 -25 -7 -79 3 -68 14 14 25 84 13 84 -5 0 -13 -7 -16
-16z"/>
<path d="M0 1470 c0 -19 3 -21 12 -12 9 9 9 15 0 24 -9 9 -12 7 -12 -12z"/>
<path d="M3 1395 c-9 -25 2 -27 22 -5 17 18 17 20 1 20 -9 0 -19 -7 -23 -15z"/>
<path d="M7 1353 c-4 -3 -7 -20 -7 -36 0 -38 12 -28 17 13 3 31 1 35 -10 23z"/>
<path d="M7 1263 c-4 -3 -7 -11 -7 -17 0 -6 5 -5 12 2 6 6 9 14 7 17 -3 3 -9
2 -12 -2z"/>
<path d="M2410 1249 c0 -5 5 -7 10 -4 6 3 10 8 10 11 0 2 -4 4 -10 4 -5 0 -10
-5 -10 -11z"/>
<path d="M7 1224 c-4 -4 -7 -14 -7 -23 0 -11 3 -12 11 -4 6 6 10 16 7 23 -2 6
-7 8 -11 4z"/>
<path d="M2980 1160 c0 -15 -10 -23 -44 -32 -31 -8 -46 -18 -50 -32 -4 -16 -8
-18 -18 -8 -17 17 -36 15 -59 -7 -12 -11 -36 -22 -55 -26 -19 -3 -34 -11 -34
-17 0 -6 -13 -8 -30 -6 -16 3 -30 1 -30 -3 0 -5 -8 -5 -17 -2 -13 5 -15 2 -10
-11 6 -15 2 -16 -31 -11 -34 6 -36 5 -18 -9 17 -14 17 -16 3 -22 -10 -3 -24
-3 -32 0 -9 3 -18 -1 -21 -9 -4 -8 -11 -12 -16 -9 -6 4 -14 1 -18 -7 -9 -14
-128 -30 -136 -18 -2 4 -19 5 -37 2 -17 -2 -49 -4 -70 -3 -21 0 -43 -2 -49 -6
-15 -9 -76 -15 -148 -15 -30 1 -62 1 -70 1 -8 -1 -44 -1 -80 -1 -35 0 -70 -5
-77 -11 -8 -6 -16 -8 -20 -4 -3 3 -1 6 5 6 7 0 12 7 12 16 0 13 -5 12 -30 -6
l-30 -21 0 21 0 21 -22 -21 c-22 -20 -44 -28 -33 -11 3 5 1 12 -5 16 -5 3 -10
-1 -10 -9 0 -22 -41 -58 -54 -47 -6 5 -22 7 -36 6 -14 -1 -28 3 -32 9 -5 8
-13 8 -27 -1 -15 -10 -20 -10 -24 0 -2 8 -10 6 -23 -7 -19 -19 -19 -19 -22 3
-3 20 -7 21 -47 16 -24 -4 -45 -3 -49 3 -3 5 -18 8 -33 6 -15 -1 -30 1 -33 6
-3 4 -25 10 -50 13 -25 3 -57 10 -72 16 -18 6 -28 7 -28 1 0 -17 -25 -11 -37
9 -10 15 -18 17 -52 11 -44 -8 -52 -5 -45 15 3 7 1 16 -5 20 -6 3 -11 -1 -11
-10 0 -14 -4 -13 -27 5 -18 14 -30 17 -37 10 -14 -14 -26 -12 -26 4 0 18 -28
25 -57 15 -16 -6 -25 -4 -32 9 -10 16 -10 16 -11 0 0 -22 -29 -23 -95 -3 -27
8 -52 12 -57 9 -4 -3 -8 2 -8 10 0 19 -40 22 -40 4 0 -8 -7 -4 -15 7 -12 15
-25 18 -60 16 -25 -1 -45 2 -45 7 0 6 -15 14 -33 18 -17 4 -26 9 -19 11 6 3
12 11 12 19 0 8 -6 11 -15 8 -8 -4 -15 -2 -15 4 0 14 -27 23 -46 15 -11 -4
-15 -15 -12 -35 3 -19 0 -32 -9 -35 -19 -7 -16 -20 6 -26 14 -3 17 -11 14 -31
-3 -14 -9 -26 -14 -26 -5 0 -9 -4 -9 -10 0 -5 7 -10 16 -10 10 0 12 -4 7 -12
-4 -7 -6 -21 -5 -30 2 -10 -2 -18 -8 -18 -7 0 -9 -7 -6 -17 4 -9 2 -19 -4 -23
-8 -5 -7 -12 4 -23 14 -13 14 -19 1 -43 -8 -16 -11 -31 -7 -34 4 -3 13 -17 19
-32 8 -17 20 -28 33 -28 13 0 20 -7 20 -19 0 -13 8 -21 22 -23 16 -2 22 -9 20
-21 -2 -11 2 -17 10 -16 21 4 67 -23 62 -36 -5 -12 36 -25 82 -25 14 0 24 -6
24 -14 0 -18 31 -29 55 -20 13 5 16 4 11 -4 -7 -12 -2 -13 76 -16 15 -1 33 -7
40 -14 7 -7 22 -12 35 -12 13 0 23 -6 23 -13 0 -8 14 -11 45 -9 27 3 45 0 45
-6 0 -6 10 -12 23 -14 16 -2 21 -9 19 -23 -2 -14 0 -16 6 -7 5 8 27 11 60 10
50 -3 65 -11 40 -21 -7 -3 -1 -6 14 -6 14 -1 29 5 31 12 4 9 6 9 6 0 1 -15 37
-18 45 -4 7 11 86 19 86 9 0 -3 11 -5 25 -2 15 2 31 1 38 -3 7 -4 17 -8 22 -9
6 -1 22 -5 38 -9 17 -5 27 -3 27 4 0 6 5 11 10 11 6 0 10 -7 10 -16 0 -14 3
-14 16 -3 12 10 17 10 23 0 9 -14 62 -11 74 4 4 7 10 6 15 -1 4 -5 25 -11 47
-12 22 -1 57 -5 78 -8 29 -4 43 -2 58 12 20 18 22 15 20 -26 -1 -15 1 -20 6
-14 4 6 18 16 30 23 18 9 24 8 32 -6 9 -17 10 -17 16 0 6 13 11 15 20 7 20
-17 65 -15 109 4 21 9 50 16 65 16 15 0 32 5 39 12 9 9 12 9 12 -1 0 -8 7 -10
21 -6 12 4 27 8 33 9 6 1 16 5 23 9 6 4 21 3 33 -1 29 -11 130 1 139 17 7 10
12 10 30 -1 18 -11 23 -11 31 2 9 13 11 13 20 0 8 -13 10 -12 10 4 0 12 5 16
15 13 8 -4 17 -2 20 3 4 6 15 10 26 10 11 0 38 9 61 20 22 11 45 17 49 14 5
-3 9 2 9 10 0 8 5 18 11 22 8 4 9 0 4 -15 -9 -28 2 -26 49 9 21 16 51 32 67
35 16 4 29 11 29 16 0 5 9 9 20 9 13 0 20 7 20 20 0 11 4 20 8 20 13 0 48 32
55 50 3 9 6 10 6 3 1 -7 7 -13 14 -13 16 0 67 57 67 75 0 27 12 46 24 36 8 -7
11 32 11 149 0 87 -3 156 -7 153 -5 -2 -8 2 -8 11 0 8 6 17 13 19 7 4 3 8 -10
12 -13 4 -23 12 -23 17 0 6 6 8 14 5 8 -3 18 5 25 19 8 19 8 24 -2 24 -7 0
-18 -5 -24 -11 -8 -8 -17 -8 -32 0 -18 10 -21 9 -21 -9z m-1855 -230 c-3 -5
-10 -10 -16 -10 -5 0 -9 5 -9 10 0 6 7 10 16 10 8 0 12 -4 9 -10z m982 -526
c-3 -3 -12 -4 -19 -1 -8 3 -5 6 6 6 11 1 17 -2 13 -5z m-87 -8 c0 -3 -4 -8
-10 -11 -5 -3 -10 -1 -10 4 0 6 5 11 10 11 6 0 10 -2 10 -4z"/>
<path d="M11 1151 c-7 -5 -11 -19 -9 -32 4 -24 5 -24 16 5 14 32 12 39 -7 27z"/>
<path d="M1920 1109 c0 -5 5 -7 10 -4 6 3 10 8 10 11 0 2 -4 4 -10 4 -5 0 -10
-5 -10 -11z"/>
<path d="M0 1016 c0 -37 4 -65 8 -62 9 5 7 114 -2 124 -3 3 -6 -25 -6 -62z"/>
<path d="M620 1070 c0 -5 5 -10 10 -10 6 0 10 5 10 10 0 6 -4 10 -10 10 -5 0
-10 -4 -10 -10z"/>
<path d="M3370 750 c0 -5 5 -10 11 -10 5 0 7 5 4 10 -3 6 -8 10 -11 10 -2 0
-4 -4 -4 -10z"/>
<path d="M1595 310 c-3 -5 -1 -10 4 -10 6 0 11 5 11 10 0 6 -2 10 -4 10 -3 0
-8 -4 -11 -10z"/>
</g>
</svg>
