<svg id="SvgjsSvg1011" width="288" height="288" xmlns="http://www.w3.org/2000/svg" version="1.1" xmlns:xlink="http://www.w3.org/1999/xlink" xmlns:svgjs="http://svgjs.com/svgjs"><defs id="SvgjsDefs1012"></defs><g id="SvgjsG1013"><svg xmlns="http://www.w3.org/2000/svg" width="288" height="288" version="1.0" viewBox="0 0 800 420"><g transform="matrix(.1 0 0 -.1 0 420)" fill="#ffffff" class="color000 svgShape"><path d="M1455 4187 c-11 -7 -23 -16 -27 -22 -5 -6 -8 -5 -8 3 0 10 -16 13-57 12 -32 -2 -65 1 -74 4 -9 4 -33 0 -54 -8 -46 -20 -49 -20 -41 -1 3 8 2 15
-2 15 -14 0 -32 -23 -32 -41 0 -9 -7 -20 -16 -23 -22 -9 -24 -8 -24 9 0 20
-19 19 -26 0 -5 -11 -10 -13 -19 -5 -9 8 -14 6 -19 -5 -3 -8 -15 -15 -27 -15
-18 0 -19 2 -9 15 10 13 9 15 -8 15 -12 0 -25 -7 -30 -16 -8 -15 -10 -15 -16
1 -4 12 -10 14 -19 7 -6 -6 -28 -14 -47 -19 -27 -7 -35 -15 -34 -31 0 -16 -5
-22 -21 -22 -11 0 -26 -5 -33 -12 -9 -9 -12 -8 -12 5 0 9 6 17 14 17 17 0 41
28 32 38 -4 4 -13 -1 -20 -11 -7 -9 -18 -17 -23 -17 -6 0 -18 -12 -28 -26 -10
-15 -22 -23 -31 -20 -8 3 -14 0 -14 -6 0 -6 -3 -8 -6 -5 -4 3 -16 0 -26 -8
-11 -7 -27 -11 -36 -8 -8 4 -21 -2 -28 -12 -13 -17 -14 -17 -23 6 -10 24 -10
24 -10 2 -1 -13 -6 -23 -12 -23 -5 0 -8 4 -4 9 3 5 1 12 -5 16 -5 3 -10 1 -10
-4 0 -6 -11 -11 -25 -11 -14 0 -28 -7 -31 -15 -7 -18 -34 -20 -34 -2 0 8 -3 7
-10 -3 -6 -9 -5 -20 3 -29 10 -12 9 -14 -6 -8 -31 12 -67 -3 -67 -27 -1 -19
-2 -19 -11 -3 -12 21 -29 22 -29 2 0 -8 -6 -16 -12 -16 -67 -6 -83 -12 -116
-45 -63 -61 -74 -69 -83 -66 -5 1 -14 -10 -19 -24 -6 -15 -22 -35 -35 -46 -31
-24 -33 -43 -4 -28 11 7 24 8 27 4 4 -4 1 -9 -6 -11 -21 -8 -72 -53 -83 -75
-9 -17 -8 -19 10 -13 12 4 21 2 21 -4 0 -11 -13 -15 -39 -12 -7 2 -11 -4 -8
-11 2 -7 10 -12 16 -11 20 5 12 -7 -11 -17 -18 -7 -19 -9 -5 -9 21 -1 22 -14
2 -31 -8 -7 -15 -16 -15 -21 0 -5 7 -9 15 -9 19 0 19 -14 0 -34 -8 -8 -14 -25
-14 -38 1 -17 3 -18 6 -5 5 18 33 24 33 7 0 -5 -5 -10 -11 -10 -7 0 -8 -11 -4
-29 3 -17 2 -32 -4 -36 -6 -3 -8 -17 -5 -30 3 -13 0 -33 -6 -45 -8 -15 -8 -20
-1 -16 7 5 11 -7 12 -33 1 -23 3 -56 5 -73 5 -52 5 -71 -1 -95 -3 -14 -1 -23
6 -23 8 0 10 -12 6 -34 -3 -22 -1 -37 6 -40 7 -2 2 -5 -11 -5 -14 -1 -22 -6
-19 -13 2 -7 11 -12 21 -10 19 3 20 -2 5 -29 -7 -15 -7 -24 1 -33 8 -10 7 -15
-3 -19 -20 -8 -29 -47 -11 -47 18 0 19 -56 2 -64 -11 -5 -11 -7 0 -12 14 -7
16 -36 3 -49 -4 -6 -6 -27 -4 -47 4 -26 9 -35 19 -31 8 3 14 2 14 -2 0 -17
-24 -91 -34 -104 -12 -16 -15 -110 -4 -117 14 -9 9 -44 -7 -50 -8 -4 -15 -10
-15 -15 0 -4 6 -6 14 -3 20 8 26 -57 7 -72 -11 -9 -11 -13 3 -26 11 -12 12
-18 4 -20 -8 -3 -13 -25 -14 -56 -1 -44 1 -50 14 -40 12 10 14 9 10 -7 -2 -11
-9 -19 -15 -18 -20 4 -22 -35 -2 -40 19 -5 27 -27 10 -27 -4 0 -6 -11 -3 -25
2 -14 0 -25 -6 -25 -5 0 -12 -9 -15 -20 -5 -21 8 -29 15 -8 9 25 24 -3 20 -36
-3 -25 -9 -36 -21 -36 -14 0 -14 -2 -1 -10 13 -9 13 -11 1 -19 -12 -8 -9 -11
12 -16 25 -7 26 -8 10 -32 -13 -19 -14 -29 -6 -42 9 -14 7 -17 -10 -17 -28 1
-33 -22 -5 -26 14 -2 22 -9 19 -18 -9 -37 -29 -215 -25 -219 3 -3 9 1 14 9 5
8 12 11 16 8 4 -4 -1 -19 -10 -33 -11 -17 -15 -36 -12 -53 4 -15 0 -39 -9 -55
-8 -15 -10 -25 -5 -22 15 9 23 -15 10 -30 -9 -11 -9 -15 -1 -15 16 0 13 -30
-4 -36 -22 -9 -18 -34 5 -34 17 0 19 -3 10 -19 -24 -45 -19 -130 5 -91 3 6 11
10 17 10 6 0 1 -12 -13 -26 -16 -17 -23 -34 -21 -55 2 -19 -1 -29 -10 -29 -10
0 -10 -2 1 -9 13 -8 13 -12 1 -26 -8 -10 -10 -19 -4 -23 11 -8 15 -42 5 -42
-4 0 -7 -16 -8 -35 -1 -40 -1 -40 31 -19 14 8 27 11 30 6 3 -5 -4 -12 -15 -15
-16 -4 -20 -11 -16 -27 3 -13 0 -23 -9 -27 -8 -3 -14 -12 -14 -20 0 -8 5 -11
11 -7 16 10 29 -17 18 -38 -8 -14 -6 -18 7 -18 9 0 18 -9 21 -20 7 -25 20 -26
26 -2 3 9 4 -1 3 -23 -1 -27 3 -39 11 -38 8 2 10 -4 6 -14 -5 -12 -2 -15 10
-10 9 3 19 2 22 -3 4 -6 1 -10 -5 -10 -7 0 -10 -5 -8 -11 2 -6 6 -9 9 -7 7 4
39 -28 39 -40 0 -10 29 -26 42 -24 17 4 7 -17 -10 -21 -13 -3 -9 -7 14 -16 20
-7 31 -19 30 -29 -1 -10 6 -16 17 -16 10 1 17 -5 17 -17 0 -10 5 -19 10 -19 6
0 10 5 10 10 0 6 7 10 15 10 8 0 15 -4 15 -10 0 -5 9 -10 21 -10 11 0 17 -4
14 -10 -8 -13 28 0 37 14 4 6 8 1 8 -13 0 -16 4 -21 15 -17 8 3 15 1 15 -4 0
-6 9 -10 21 -10 11 0 27 -7 36 -15 8 -9 23 -13 33 -10 13 4 22 -1 30 -15 6
-12 21 -20 35 -20 14 0 25 -5 25 -10 0 -7 6 -7 19 0 14 7 22 7 27 -1 3 -6 15
-9 25 -6 11 3 19 2 19 -3 0 -4 10 -11 23 -15 27 -9 27 -9 57 0 20 6 23 5 13
-6 -22 -22 -15 -27 31 -22 63 8 96 -2 97 -30 1 -17 2 -18 6 -4 7 27 57 22 73
-8 l13 -24 30 21 c17 12 27 17 24 11 -10 -17 8 -25 67 -30 28 -2 66 -9 83 -14
18 -6 37 -7 43 -4 6 4 18 1 26 -6 13 -10 17 -10 26 2 7 11 9 9 5 -8 -3 -13 -3
-23 0 -23 8 0 29 24 36 42 3 10 12 18 18 18 8 0 8 -4 -1 -15 -14 -17 -4 -39
16 -31 8 3 14 -1 14 -9 0 -18 12 -19 29 -3 10 11 15 9 26 -5 9 -12 15 -14 20
-7 4 6 12 7 18 3 14 -10 35 -9 60 2 10 4 23 2 31 -4 11 -9 15 -9 18 0 2 7 30
12 70 13 37 0 70 4 74 8 12 13 52 9 56 -4 4 -10 10 -10 32 0 19 9 33 9 47 2
13 -7 25 -7 38 0 11 5 29 10 41 10 12 0 29 8 38 17 16 16 17 15 20 -5 4 -24
32 -31 32 -7 0 11 5 12 24 5 13 -5 27 -6 32 -2 4 4 4 -1 1 -10 -9 -24 -3 -23
29 7 17 16 30 21 34 15 4 -7 16 -7 38 1 23 8 36 8 46 0 9 -8 18 -7 31 3 11 8
25 12 31 9 7 -2 15 0 19 6 3 6 17 11 30 11 13 0 26 6 28 13 3 7 6 4 6 -6 1
-16 7 -17 39 -11 20 3 46 7 57 7 11 1 25 8 31 16 6 8 18 11 27 8 9 -3 19 -2
21 2 5 8 55 23 81 25 6 1 16 8 22 16 11 13 14 13 23 0 6 -10 10 -11 10 -2 0 6
10 12 23 11 21 0 21 -1 2 -9 -18 -8 -17 -9 7 -9 20 -1 26 3 22 14 -5 12 0 14
24 9 23 -5 38 0 65 20 18 14 39 26 45 26 6 0 12 5 14 11 2 5 18 11 35 11 22 1
33 7 36 20 3 11 11 18 19 17 23 -5 80 31 74 47 -4 9 3 18 17 23 13 5 29 16 36
25 7 9 20 16 28 16 8 0 12 4 8 9 -3 5 -1 12 5 16 5 3 10 15 10 26 0 21 20 27
21 7 0 -7 7 3 14 22 7 19 14 31 14 26 2 -19 41 28 41 49 0 14 10 26 26 34 26
11 26 12 8 27 -18 14 -18 15 5 8 19 -5 23 -3 18 10 -4 10 -1 16 8 16 8 0 15 8
15 18 0 10 5 23 12 30 17 17 1 27 -19 11 -15 -12 -16 -12 -10 4 4 10 7 21 7
23 0 2 7 4 15 4 8 0 15 1 15 3 0 1 4 17 10 36 9 32 8 33 -9 17 -23 -21 -37
-21 -17 0 9 8 14 19 11 24 -3 5 -1 11 4 15 6 3 8 12 4 20 -3 8 0 15 5 15 6 0
10 13 10 30 -1 35 -15 39 -28 8 -7 -19 -9 -20 -9 -5 -1 10 10 33 25 52 15 20
21 36 15 39 -6 4 -8 13 -4 21 3 9 -1 23 -8 32 -10 12 -10 15 -1 9 6 -4 12 -2
12 3 0 6 -4 11 -9 11 -14 0 -8 34 9 47 13 11 13 12 -2 13 -17 0 -20 33 -4 58
4 7 5 24 2 38 -4 14 -2 24 4 24 5 0 10 7 10 16 0 9 -5 12 -12 8 -8 -5 -9 0 -6
14 4 15 2 22 -8 22 -18 0 -18 10 1 24 16 12 23 84 11 104 -4 7 -3 12 3 12 10
0 10 51 0 60 -4 3 -9 15 -13 28 -6 19 -4 22 21 23 20 1 22 3 9 6 -27 7 -49 31
-41 43 5 8 11 7 21 -1 11 -9 14 -7 14 10 0 13 -6 21 -16 21 -13 0 -14 3 -4 14
6 8 10 28 9 43 -2 15 0 33 4 40 4 6 3 14 -1 17 -12 7 -13 126 -1 126 6 0 7 5
4 10 -3 6 -15 10 -26 10 -28 0 -24 18 6 26 30 7 34 34 5 34 -11 0 -20 4 -20 9
0 5 9 13 20 16 23 7 27 33 5 41 -19 8 -17 74 2 74 24 0 13 19 -13 22 l-25 3
20 22 c24 26 28 48 7 40 -10 -4 -13 -1 -10 8 3 7 12 16 19 19 8 3 11 13 8 24
-3 14 -11 18 -26 15 -21 -4 -21 -4 -3 11 10 8 16 22 13 30 -4 9 1 20 11 25 16
10 16 10 0 11 -21 0 -23 11 -6 28 10 10 8 14 -10 18 -25 7 -29 26 -8 43 17 14
27 59 13 64 -15 5 -16 64 -2 84 11 14 10 19 -4 30 -12 9 -13 12 -2 13 11 0 11
3 1 15 -10 12 -10 18 0 30 14 17 5 35 -18 35 -16 1 -16 2 1 14 19 15 23 36 7
36 -7 0 -7 6 0 19 12 23 14 71 3 71 -5 0 -8 14 -9 30 -1 17 3 30 9 30 5 0 7
11 5 25 -3 14 -2 28 3 31 4 2 6 11 2 19 -3 9 1 15 8 15 10 1 10 4 -3 13 -14
11 -15 20 -6 59 9 39 8 49 -5 63 -13 12 -14 21 -6 42 7 19 6 28 -1 33 -7 5 -4
9 9 13 27 7 27 23 -1 30 -20 6 -20 7 -5 31 17 25 14 56 -6 56 -6 0 -3 6 7 13
16 12 16 14 -2 31 -13 11 -22 14 -27 7 -3 -6 -12 -11 -18 -11 -7 0 -1 9 12 19
16 12 25 30 27 57 1 21 7 40 13 42 16 5 13 22 -4 22 -16 0 -41 38 -37 58 2 6
-1 12 -7 12 -5 0 -12 -6 -14 -12 -3 -8 -6 -6 -6 5 -1 9 -5 17 -10 17 -5 0 -7
10 -3 22 4 15 2 19 -7 14 -8 -5 -14 0 -18 13 -7 26 -12 26 -30 4 -13 -16 -13
-16 -7 7 4 14 11 27 15 28 16 6 10 20 -7 18 -10 0 -21 11 -27 29 -14 44 -27
57 -43 44 -10 -8 -14 -3 -19 25 -5 22 -14 38 -26 41 -11 4 -16 12 -12 21 4 10
-1 13 -18 12 -18 -2 -24 2 -23 15 1 10 -5 17 -17 17 -10 0 -19 5 -19 10 0 6
-9 10 -20 10 -11 0 -29 9 -40 20 -12 12 -20 15 -20 8 0 -8 -7 -5 -15 6 -8 11
-17 17 -21 14 -3 -4 -14 2 -25 13 -10 10 -25 16 -34 13 -8 -4 -15 -1 -15 6 0
7 -8 10 -20 7 -15 -4 -20 -1 -18 11 2 10 -5 18 -17 20 -11 3 -22 8 -25 13 -3
4 -27 9 -53 11 -42 3 -46 5 -40 23 5 17 4 18 -11 6 -9 -7 -16 -20 -16 -28 0
-9 -6 -13 -14 -10 -7 3 -18 1 -24 -5 -7 -7 -16 -7 -29 1 -16 9 -16 10 -1 11 9
0 19 4 22 8 7 12 -67 12 -81 1 -8 -7 -14 -5 -21 7 -7 12 -18 15 -36 12 -18 -4
-29 -1 -33 8 -4 11 -9 12 -19 3 -10 -8 -18 -8 -27 -1 -7 6 -23 8 -36 5 -20 -5
-22 -3 -16 16 7 24 0 27 -21 7 -14 -15 -26 -11 -83 21 -2 2 2 9 9 18 10 12 10
15 -3 15 -9 0 -21 -8 -26 -17 -7 -12 -10 -13 -11 -4 0 8 -6 11 -16 7 -8 -3
-22 1 -30 9 -17 17 -44 20 -44 5 0 -5 -8 -10 -17 -10 -16 0 -16 2 -3 11 10 7
-45 9 -180 8 -107 -1 -200 -6 -207 -11 -7 -6 -17 -7 -22 -4 -5 4 -12 2 -16 -4
-9 -15 -35 -12 -29 4 4 11 -7 13 -57 10 -35 -2 -67 -8 -73 -14 -16 -16 -39
-12 -32 5 6 18 -2 18 -29 2z m-181 -42 c-4 -8 -8 -15 -10 -15 -2 0 -4 7 -4 15
0 8 4 15 10 15 5 0 7 -7 4 -15z m-64 -5 c0 -5 -7 -10 -16 -10 -8 0 -12 5 -9
10 3 6 10 10 16 10 5 0 9 -4 9 -10z m-83 -36 c-3 -3 -12 -4 -19 -1 -8 3 -5 6
6 6 11 1 17 -2 13 -5z m1629 -91 c-10 -10 -19 5 -10 18 6 11 8 11 12 0 2 -7 1
-15 -2 -18z m-2251 -73 c3 -5 1 -10 -4 -10 -6 0 -11 5 -11 10 0 6 2 10 4 10 3
0 8 -4 11 -10z m-65 -24 c0 -3 -4 -8 -10 -11 -5 -3 -10 -1 -10 4 0 6 5 11 10
11 6 0 10 -2 10 -4z m1505 -20 c13 5 16 4 11 -4 -11 -19 -46 -14 -46 6 0 12 2
14 8 4 5 -8 16 -10 27 -6z m-194 -19 c-13 -13 -26 -3 -16 12 3 6 11 8 17 5 6
-4 6 -10 -1 -17z m-223 0 c6 -5 12 -5 12 0 0 4 14 8 31 9 21 1 29 -3 25 -12
-3 -8 1 -14 9 -14 8 0 15 -5 15 -11 0 -5 4 -8 10 -4 5 3 7 12 4 19 -3 7 2 16
11 20 13 4 15 1 10 -14 -5 -17 -2 -18 29 -13 33 5 34 4 29 -18 -6 -24 -6 -24
15 -5 13 11 30 16 42 13 12 -3 24 1 30 11 8 15 9 14 10 -5 0 -25 7 -27 44 -13
17 6 27 6 32 -1 4 -6 14 -2 26 11 11 12 26 19 34 16 8 -3 14 -1 14 5 0 6 6 9
14 6 7 -3 19 0 25 6 8 8 11 6 11 -7 0 -11 4 -14 12 -10 16 10 61 12 73 3 20
-14 50 -14 62 1 11 13 12 13 13 -2 0 -11 14 -19 47 -26 26 -6 51 -8 55 -6 4 3
8 -2 8 -10 0 -14 16 -17 97 -17 23 0 30 -4 27 -14 -6 -16 67 -30 116 -23 21 3
30 0 30 -9 0 -9 8 -11 23 -8 27 7 52 -16 43 -40 -3 -8 -1 -15 4 -15 6 0 10 7
10 15 0 8 9 15 20 15 11 0 20 5 20 10 0 6 5 10 11 10 6 0 9 -10 7 -23 -4 -20
-1 -23 18 -19 31 6 65 -14 57 -34 -4 -12 0 -15 18 -13 34 4 69 -18 69 -43 0
-16 5 -19 26 -15 23 4 25 2 20 -19 -8 -30 -2 -30 24 -2 16 17 23 19 32 10 9
-9 9 -12 0 -12 -25 0 -11 -18 20 -24 17 -3 37 -11 45 -17 19 -16 16 -39 -4
-40 -12 0 -8 -4 10 -11 28 -10 34 -22 17 -33 -13 -8 -13 -55 -1 -55 5 0 12 6
14 13 3 7 6 5 6 -5 1 -10 -3 -18 -9 -18 -5 0 -10 -7 -10 -15 0 -8 -4 -15 -9
-15 -4 0 -6 -11 -3 -25 6 -34 -23 -65 -60 -65 -17 0 -27 -5 -25 -12 1 -7 -5
-12 -14 -10 -9 1 -19 -5 -23 -13 -3 -9 -11 -13 -17 -10 -5 4 -19 -1 -30 -11
-21 -19 -40 -11 -21 8 7 7 12 16 12 22 0 5 -15 -4 -33 -22 -18 -18 -41 -32
-50 -32 -9 0 -17 -7 -17 -16 0 -10 -6 -14 -14 -11 -7 3 -34 -5 -59 -18 -25
-12 -48 -20 -51 -18 -3 3 -25 -11 -49 -31 -24 -20 -50 -36 -57 -36 -7 0 -22
-7 -32 -17 -10 -9 -18 -11 -18 -5 0 14 -62 12 -73 -2 -6 -8 -10 -7 -14 2 -4
10 -8 10 -19 1 -8 -6 -14 -8 -14 -3 0 4 -7 -1 -16 -12 -15 -18 -15 -18 -9 4 7
25 -12 31 -22 6 -3 -9 -13 -14 -24 -11 -11 3 -22 1 -25 -4 -3 -5 -10 -6 -16
-3 -6 4 -14 0 -19 -7 -7 -11 -9 -10 -9 4 0 9 7 17 17 17 9 0 14 3 10 6 -3 4
-28 1 -54 -5 -35 -9 -49 -9 -51 -1 -3 7 -8 7 -15 2 -7 -5 -27 -12 -44 -15 -25
-5 -33 -3 -33 8 0 22 -21 18 -27 -5 -3 -11 -10 -20 -15 -20 -5 0 -7 4 -4 9 4
5 3 16 0 24 -5 15 -16 14 -84 -10 -8 -3 -28 -7 -43 -8 -16 -2 -35 -11 -42 -21
-13 -17 -13 -16 -5 13 8 31 7 32 -11 23 -10 -6 -19 -15 -19 -20 0 -5 -17 -7
-37 -4 -21 3 -72 7 -113 7 -41 1 -80 5 -87 10 -6 4 -18 0 -26 -8 -20 -19 -28
-19 -21 0 7 18 -26 21 -44 3 -9 -9 -12 -9 -12 0 0 7 -13 12 -30 12 -16 0 -30
3 -30 8 0 9 -69 7 -92 -3 -13 -5 -18 -2 -18 9 0 13 -6 15 -27 10 -16 -4 -34
-11 -40 -17 -10 -7 -13 -3 -13 13 0 22 -1 23 -20 5 -19 -18 -20 -17 -20 6 l-1
24 -14 -25 c-8 -14 -15 -22 -16 -17 -1 4 -3 12 -4 17 -1 6 -3 13 -4 16 0 4 -7
2 -14 -5 -9 -7 -17 -7 -24 0 -6 6 -18 6 -36 0 -22 -9 -27 -8 -27 4 0 12 -7 14
-27 9 -16 -4 -33 -11 -40 -16 -14 -11 -36 -1 -28 12 11 18 -45 23 -64 6 -17
-16 -18 -15 -14 8 4 19 1 25 -13 25 -15 -1 -87 7 -101 10 -2 1 -6 1 -9 0 -4 0
-14 11 -24 26 -10 15 -19 22 -21 16 -3 -7 -13 -6 -29 4 -14 8 -36 19 -49 25
-15 7 -21 16 -17 26 5 13 2 15 -14 11 -15 -4 -20 0 -20 13 0 10 -7 21 -16 24
-8 3 -12 10 -9 16 3 5 -1 11 -9 11 -9 1 -22 2 -28 3 -7 0 -14 8 -14 16 -1 8
-2 19 -3 24 0 5 -8 3 -16 -4 -13 -11 -15 -8 -11 26 3 22 2 31 0 22 -7 -22 -24
-24 -24 -3 0 8 -5 15 -11 15 -6 0 -8 9 -4 20 5 14 2 20 -9 20 -19 0 -21 11 -4
28 17 17 4 24 -25 13 -20 -8 -25 -15 -20 -28 6 -16 5 -17 -11 -3 -11 8 -14 16
-7 18 6 2 11 12 11 23 0 10 7 19 15 19 8 0 20 9 27 20 7 11 18 20 25 20 7 0
13 5 13 10 0 6 11 15 25 20 14 5 25 14 25 19 0 5 14 12 31 16 17 4 33 13 36
21 3 8 10 14 17 14 6 0 38 14 71 30 33 16 68 27 77 24 10 -3 18 0 18 6 0 7 8
9 20 5 11 -4 20 -2 20 4 0 5 16 13 36 17 58 11 124 52 117 72 -6 16 -5 15 11
0 9 -10 20 -18 24 -18 15 0 72 25 72 32 0 4 5 8 10 8 6 0 10 -7 10 -15 0 -8 7
-15 15 -15 8 0 15 7 15 15 0 12 4 14 16 7 11 -6 26 -5 42 4 14 7 30 10 36 7
22 -14 86 -5 116 17 l32 23 -7 -24 c-7 -21 -6 -22 8 -10 9 7 32 13 52 14 20 1
35 6 35 13 0 7 6 14 13 17 18 7 100 3 115 -6z m-843 -147 c3 -5 1 -10 -4 -10
-6 0 -11 5 -11 10 0 6 2 10 4 10 3 0 8 -4 11 -10z m2130 -30 c-3 -5 -10 -10
-16 -10 -5 0 -9 5 -9 10 0 6 7 10 16 10 8 0 12 -4 9 -10z m-2663 -272 c-7 -7
-12 -8 -12 -2 0 14 12 26 19 19 2 -3 -1 -11 -7 -17z m2488 -327 c0 -6 -4 -13
-10 -16 -5 -3 -10 1 -10 9 0 9 5 16 10 16 6 0 10 -4 10 -9z m-2440 -11 c0 -5
-5 -10 -11 -10 -5 0 -7 5 -4 10 3 6 8 10 11 10 2 0 4 -4 4 -10z m194 -114 c-6
-15 -34 -31 -34 -19 0 5 30 32 37 33 1 0 0 -6 -3 -14z m2870 -1 c-4 -8 -11
-15 -16 -15 -6 0 -5 6 2 15 7 8 14 15 16 15 2 0 1 -7 -2 -15z m-244 -25 c0 -5
-5 -10 -11 -10 -5 0 -7 5 -4 10 3 6 8 10 11 10 2 0 4 -4 4 -10z m-2580 -16 c0
-17 40 -19 41 -1 1 6 4 1 8 -13 8 -25 12 -27 42 -15 11 4 18 -1 22 -16 4 -15
11 -20 22 -15 25 9 65 -4 59 -19 -3 -7 -1 -16 5 -20 6 -3 11 -1 11 4 0 6 5 11
10 11 6 0 10 -7 10 -15 0 -8 8 -15 18 -16 9 -1 26 -2 37 -3 11 -1 32 -3 47 -4
16 -1 27 -5 27 -9 -3 -19 3 -22 26 -13 20 8 25 6 25 -6 0 -12 4 -13 23 -3 33
19 67 20 67 3 0 -10 12 -14 39 -14 46 0 73 -9 65 -21 -3 -5 0 -9 5 -9 6 0 11
5 11 10 0 16 22 12 36 -7 10 -15 15 -16 25 -5 18 17 29 15 29 -4 0 -12 4 -14
13 -7 6 5 26 8 42 5 17 -2 46 -4 65 -4 19 0 38 -5 42 -11 5 -8 18 -8 47 -1 23
6 41 8 41 4 0 -4 -9 -10 -21 -13 -38 -10 -11 -25 28 -16 23 5 39 4 41 -1 2 -6
11 -2 20 7 16 15 17 15 20 0 4 -21 6 -21 45 0 39 20 50 21 102 7 34 -10 44 -9
66 7 23 16 28 17 33 4 5 -14 8 -14 31 1 14 9 32 13 42 10 9 -4 20 -1 25 6 6
10 11 9 19 -5 7 -12 17 -16 30 -12 11 4 19 2 19 -4 0 -16 45 -13 87 4 44 19
47 19 39 -1 -5 -14 -1 -16 24 -11 17 4 30 2 30 -3 0 -6 5 -10 11 -10 7 0 9 10
5 26 -5 17 -3 23 4 19 5 -3 10 -13 10 -21 0 -17 16 -19 26 -3 4 8 9 8 17 0 16
-16 27 -13 28 7 1 15 2 15 6 -1 3 -13 10 -16 21 -11 10 4 32 9 50 12 21 3 32
10 32 21 0 14 2 14 10 1 8 -12 10 -12 16 3 3 9 9 15 14 12 23 -14 96 -13 142
2 40 13 55 14 69 4 17 -10 21 -8 29 15 7 17 15 24 25 20 8 -3 29 0 46 6 24 8
33 8 40 -3 6 -11 9 -10 15 4 7 19 44 24 44 5 0 -9 3 -9 12 0 7 7 27 12 46 12
25 0 35 5 39 20 4 13 14 20 29 20 14 0 27 7 30 15 4 8 15 15 25 15 11 0 19 7
20 18 0 14 2 14 9 -3 l9 -20 6 20 c4 14 16 21 37 22 31 2 31 2 25 -42 -3 -34
-1 -45 9 -45 8 0 14 -4 14 -10 0 -5 -7 -7 -15 -4 -9 4 -15 0 -15 -10 0 -9 7
-16 15 -16 8 0 15 -7 15 -15 0 -8 -4 -15 -9 -15 -17 0 -19 -64 -2 -77 9 -6 19
-9 23 -7 5 3 8 -2 8 -10 0 -8 -4 -17 -9 -20 -4 -3 -6 -16 -4 -29 3 -14 -3 -29
-16 -41 -12 -11 -21 -29 -20 -40 0 -20 1 -20 9 2 5 12 16 22 25 22 14 0 14 -4
0 -36 -8 -20 -12 -40 -9 -45 3 -5 -3 -9 -13 -9 -14 0 -15 -2 -4 -9 11 -7 10
-14 -7 -39 -24 -33 -64 -62 -87 -62 -8 0 -15 -5 -15 -10 0 -6 -6 -10 -12 -9
-30 4 -48 -2 -48 -15 0 -16 -24 -28 -44 -20 -7 3 -16 -3 -20 -13 -6 -15 -8
-15 -16 -3 -7 10 -10 11 -10 3 0 -7 -9 -13 -20 -13 -11 0 -23 -7 -26 -15 -4
-8 -15 -15 -25 -15 -11 0 -19 -7 -20 -17 0 -13 -2 -14 -6 -4 -5 11 -7 11 -14
0 -7 -11 -11 -11 -17 -2 -6 9 -18 4 -45 -18 -29 -24 -37 -27 -37 -14 0 15 -3
14 -27 -3 -43 -29 -61 -33 -72 -15 -7 14 -10 14 -20 -5 -15 -28 -27 -28 -34
-1 -5 18 -8 19 -27 7 -17 -11 -22 -11 -30 2 -8 13 -10 13 -10 -1 0 -19 -50
-33 -64 -18 -13 12 -49 12 -41 -1 11 -17 -5 -32 -21 -19 -11 9 -14 9 -14 -1 0
-7 -7 -10 -15 -6 -9 3 -18 -1 -21 -9 -4 -8 -14 -15 -23 -15 -9 0 -22 -5 -29
-12 -9 -9 -12 -9 -12 0 0 9 -7 8 -25 -4 -13 -8 -29 -13 -35 -9 -6 4 -19 4 -28
0 -27 -11 -152 -11 -152 -1 0 6 -5 5 -12 -2 -15 -15 -55 -16 -63 -1 -5 7 -14
4 -26 -7 -18 -16 -19 -16 -19 0 0 14 -8 17 -47 14 -38 -2 -47 0 -45 12 2 13 0
13 -10 -1 -9 -10 -27 -15 -55 -13 -24 1 -43 -2 -43 -7 0 -5 -4 -9 -10 -9 -5 0
-6 7 -3 17 4 10 2 14 -4 10 -18 -11 -73 -17 -73 -8 0 18 -63 22 -81 5 -21 -19
-51 -12 -43 11 7 17 -16 21 -32 5 -6 -6 -28 -4 -63 5 -30 8 -67 11 -82 8 -18
-3 -29 -1 -29 6 0 6 -10 11 -22 11 -13 1 -35 1 -50 1 -16 1 -28 5 -28 10 0 5
-14 9 -31 9 -24 0 -30 4 -25 15 6 17 -29 22 -38 6 -6 -9 -31 -6 -66 6 -12 4
-11 7 5 13 17 6 15 8 -13 15 -21 4 -38 3 -45 -4 -6 -6 -15 -11 -21 -11 -5 0
-6 3 -3 7 15 14 -27 43 -62 43 -24 0 -31 3 -22 9 17 11 4 19 -57 35 -36 9 -46
16 -44 29 3 17 -18 23 -75 19 -21 -1 -29 12 -24 41 0 4 -11 7 -25 7 -14 0 -37
9 -51 20 -14 11 -31 20 -37 20 -8 0 -10 20 -6 68 5 50 3 69 -7 75 -17 11 -16
27 3 48 18 20 10 43 -12 35 -8 -3 -14 1 -14 10 0 10 6 14 15 10 17 -6 21 9 5
19 -6 4 -4 15 6 30 9 13 12 30 8 36 -5 9 -10 7 -15 -7 -7 -18 -8 -18 -8 2 -1
12 6 27 14 34 17 15 20 40 4 40 -7 0 -8 7 -4 18 4 9 7 28 6 41 0 13 3 29 8 35
14 17 51 17 51 0z m2620 12 c0 -3 -4 -8 -10 -11 -5 -3 -10 -1 -10 4 0 6 5 11
10 11 6 0 10 -2 10 -4z m250 -60 c0 -3 -4 -8 -10 -11 -5 -3 -10 -1 -10 4 0 6
5 11 10 11 6 0 10 -2 10 -4z m-493 -42 c-3 -3 -12 -4 -19 -1 -8 3 -5 6 6 6 11
1 17 -2 13 -5z m-2487 -54 c0 -5 -4 -10 -10 -10 -5 0 -10 5 -10 10 0 6 5 10
10 10 6 0 10 -4 10 -10z m1810 -40 c0 -5 -5 -10 -11 -10 -5 0 -7 5 -4 10 3 6
8 10 11 10 2 0 4 -4 4 -10z m-200 -30 c0 -5 -7 -10 -15 -10 -8 0 -15 5 -15 10
0 6 7 10 15 10 8 0 15 -4 15 -10z m1130 0 c0 -5 -5 -10 -11 -10 -5 0 -7 5 -4
10 3 6 8 10 11 10 2 0 4 -4 4 -10z m-2780 -30 c0 -5 -5 -10 -11 -10 -5 0 -7 5
-4 10 3 6 8 10 11 10 2 0 4 -4 4 -10z m3010 -84 c0 -3 -4 -8 -10 -11 -5 -3
-10 -1 -10 4 0 6 5 11 10 11 6 0 10 -2 10 -4z m-2935 -116 c3 -5 2 -10 -4 -10
-5 0 -13 5 -16 10 -3 6 -2 10 4 10 5 0 13 -4 16 -10z m-225 -44 c0 -3 -4 -8
-10 -11 -5 -3 -10 -1 -10 4 0 6 5 11 10 11 6 0 10 -2 10 -4z m160 0 c0 -3 -4
-8 -10 -11 -5 -3 -10 -1 -10 4 0 6 5 11 10 11 6 0 10 -2 10 -4z m-227 -43 c-7
-2 -19 -2 -25 0 -7 3 -2 5 12 5 14 0 19 -2 13 -5z m0 -138 c-3 -9 -8 -14 -10
-11 -3 3 -2 9 2 15 9 16 15 13 8 -4z m2207 -114 c0 -12 -20 -25 -27 -18 -7 7
6 27 18 27 5 0 9 -4 9 -9z m1080 -21 c0 -5 -4 -10 -10 -10 -5 0 -10 5 -10 10
0 6 5 10 10 10 6 0 10 -4 10 -10z m-3310 -4 c0 -3 -4 -8 -10 -11 -5 -3 -10 -1
-10 4 0 6 5 11 10 11 6 0 10 -2 10 -4z m3020 -26 c0 -5 -4 -10 -10 -10 -5 0
-10 5 -10 10 0 6 5 10 10 10 6 0 10 -4 10 -10z m-2641 -55 c6 3 11 -1 11 -9 0
-9 6 -13 14 -10 8 3 16 -3 19 -15 3 -14 11 -19 20 -15 8 3 18 1 22 -5 3 -6 15
-11 27 -11 12 0 22 -8 25 -20 5 -19 6 -19 18 -4 15 21 50 11 41 -11 -6 -18 5
-20 22 -3 8 8 15 8 26 -1 13 -11 19 -10 33 5 17 17 18 17 21 -4 2 -12 8 -19
14 -16 6 4 13 2 17 -5 4 -6 35 -15 70 -19 35 -5 66 -14 70 -21 4 -6 15 -9 24
-5 11 4 24 -2 38 -17 13 -16 19 -18 16 -7 -4 10 1 18 14 21 10 3 17 1 14 -3
-3 -5 -1 -11 5 -15 6 -4 7 -11 4 -17 -4 -6 2 -6 15 1 11 7 21 9 21 7 0 -3 11
-1 25 4 19 7 26 6 33 -7 9 -15 56 -20 106 -11 12 2 24 -5 31 -18 8 -17 15 -19
33 -13 12 5 22 14 22 21 0 7 7 3 15 -9 17 -25 41 -21 50 8 4 10 11 19 16 19 5
0 4 -9 -3 -20 -11 -17 -10 -22 2 -30 9 -6 17 -5 22 3 6 9 8 9 8 0 0 -7 6 -13
14 -13 8 0 17 6 19 13 4 8 8 8 14 2 12 -15 50 -16 62 -1 13 15 61 9 61 -8 0
-6 5 -4 10 5 5 9 23 16 40 17 17 0 28 -3 26 -6 -2 -4 40 -7 95 -6 59 2 97 -1
94 -7 -4 -5 1 -9 9 -9 8 0 17 4 20 9 7 10 86 9 103 -2 7 -4 37 -5 67 -2 34 4
57 2 61 -5 4 -7 11 -5 20 4 8 8 24 12 35 9 12 -3 20 0 20 7 0 10 3 10 14 1 11
-9 23 -8 52 4 24 10 41 12 48 5 16 -13 58 -1 74 22 7 10 20 18 29 18 12 0 13
3 4 14 -9 11 -9 16 0 22 7 4 15 2 17 -4 6 -20 48 -13 76 13 31 28 41 32 33 10
-9 -23 11 -28 23 -5 6 11 15 18 20 15 5 -3 12 -1 15 5 5 8 11 8 20 0 9 -8 14
-7 18 4 3 8 16 20 29 27 21 11 22 11 9 -5 -21 -26 -4 -32 22 -8 26 25 46 30
27 7 -12 -15 0 -22 14 -8 8 8 75 34 98 37 9 1 24 8 32 16 9 7 19 10 22 7 4 -3
15 3 27 13 11 11 23 17 27 15 4 -3 24 6 44 20 41 28 71 33 63 11 -3 -7 0 -19
6 -26 9 -10 9 -14 0 -17 -21 -8 -15 -23 10 -23 19 -1 19 -2 -8 -15 -20 -9 -24
-14 -12 -14 18 -1 25 -31 7 -31 -5 0 -10 -4 -10 -10 0 -5 8 -10 18 -10 14 0
15 -2 2 -10 -8 -5 -16 -23 -18 -40 -3 -29 -1 -31 18 -25 20 6 21 5 11 -14 -7
-12 -16 -21 -21 -21 -6 0 -10 -4 -10 -10 0 -5 7 -10 15 -10 8 0 15 -7 15 -15
0 -8 -6 -12 -14 -9 -10 4 -14 -4 -14 -30 0 -20 4 -39 9 -42 5 -3 9 3 9 13 0
15 2 16 10 3 15 -22 12 -30 -12 -40 -19 -7 -20 -9 -5 -9 15 -1 17 -6 12 -30
-3 -16 -7 -43 -7 -60 -1 -18 -6 -31 -13 -31 -7 0 -15 -7 -19 -15 -3 -8 -12
-15 -21 -15 -8 0 -15 -4 -15 -10 0 -5 -5 -10 -12 -10 -17 0 -87 -34 -88 -42 0
-4 7 -4 17 -1 10 4 14 2 10 -4 -9 -15 -67 -22 -67 -9 0 6 -7 0 -16 -12 -8 -12
-19 -22 -24 -22 -5 0 -21 -5 -37 -12 -15 -6 -32 -12 -38 -13 -5 -1 -12 -3 -15
-4 -10 -4 -105 -13 -133 -12 -15 0 -37 -9 -48 -20 -14 -14 -29 -19 -45 -16
-16 3 -24 0 -24 -9 0 -8 -3 -14 -7 -15 -5 0 -21 -2 -38 -4 -27 -3 -28 -2 -12
9 9 7 17 16 17 19 0 11 -34 -5 -47 -21 -7 -9 -13 -13 -13 -9 0 4 -8 3 -19 -2
-18 -10 -139 -21 -271 -25 -52 -2 -66 -6 -68 -19 -3 -16 -6 -16 -31 2 -20 14
-31 17 -45 9 -10 -5 -33 -7 -51 -4 -21 4 -36 2 -41 -5 -5 -9 -11 -7 -20 5 -14
20 -34 14 -34 -10 0 -21 -18 -17 -25 6 -6 20 -6 20 -28 0 -25 -24 -37 -25 -37
-5 0 18 -14 19 -42 4 -16 -8 -22 -8 -29 2 -6 10 -15 10 -46 1 -51 -15 -116
-32 -127 -32 -5 0 -3 7 4 15 10 13 9 15 -9 15 -12 0 -20 -3 -17 -8 2 -4 -7
-13 -21 -19 -24 -12 -25 -11 -9 6 9 10 16 19 16 22 0 10 -120 5 -121 -5 0 -6
-4 -1 -9 12 -9 22 -11 22 -35 6 -21 -13 -25 -14 -25 -2 0 10 -10 13 -30 12
-16 -1 -30 2 -30 7 0 5 -7 9 -15 9 -8 0 -15 -6 -15 -12 0 -10 -2 -10 -8 -1 -7
12 -68 25 -124 27 -16 1 -28 7 -28 14 0 9 -7 11 -19 7 -11 -3 -22 -2 -25 4 -3
5 -30 15 -58 21 -29 7 -58 17 -64 21 -6 5 -19 7 -28 3 -11 -4 -16 -1 -16 10 0
10 -6 13 -15 10 -10 -4 -15 0 -15 14 0 16 -6 20 -35 19 -19 -1 -35 -5 -35 -9
0 -4 -8 -8 -17 -8 -15 1 -15 3 5 19 22 19 29 32 15 30 -23 -4 -43 2 -38 11 4
6 -8 10 -29 10 -26 0 -34 4 -30 14 4 9 -13 21 -50 37 -31 12 -56 29 -56 36 0
7 -6 14 -12 15 -7 0 -17 2 -23 2 -5 1 -19 7 -30 14 -16 9 -17 13 -7 20 11 8
11 10 -1 15 -11 4 -12 17 -5 73 6 43 6 70 0 72 -6 2 -7 17 -2 37 8 38 5 46
-16 38 -8 -3 -14 -1 -14 5 0 5 9 12 20 15 11 3 20 10 20 17 0 6 -4 8 -10 5 -5
-3 -15 -3 -21 1 -8 4 -7 9 2 15 7 4 14 31 16 61 3 49 8 96 12 108 1 3 8 -3 16
-14 7 -10 18 -15 24 -11z m2971 -15 c0 -5 -10 -10 -22 -9 -22 0 -22 1 -3 9 11
5 21 9 23 9 1 1 2 -3 2 -9z m-3285 -90 c-3 -5 -14 -10 -23 -9 -14 0 -13 2 3 9
27 11 27 11 20 0z m2975 6 c0 -3 -4 -8 -10 -11 -5 -3 -10 -1 -10 4 0 6 5 11
10 11 6 0 10 -2 10 -4z m-2040 -70 c0 -3 -4 -8 -10 -11 -5 -3 -10 -1 -10 4 0
6 5 11 10 11 6 0 10 -2 10 -4z m1306 -33 c-10 -10 -19 5 -10 18 6 11 8 11 12
0 2 -7 1 -15 -2 -18z m884 3 c0 -3 -4 -8 -10 -11 -5 -3 -10 -1 -10 4 0 6 5 11
10 11 6 0 10 -2 10 -4z m-925 -16 c3 -5 -1 -10 -9 -10 -9 0 -16 5 -16 10 0 6
4 10 9 10 6 0 13 -4 16 -10z m-85 -10 c0 -5 -4 -10 -10 -10 -5 0 -10 5 -10 10
0 6 5 10 10 10 6 0 10 -4 10 -10z m-2150 -4 c0 -2 -8 -10 -17 -17 -16 -13 -17
-12 -4 4 13 16 21 21 21 13z m3145 -126 c-3 -5 -11 -10 -16 -10 -6 0 -7 5 -4
10 3 6 11 10 16 10 6 0 7 -4 4 -10z m-3115 -59 c0 -6 -4 -13 -10 -16 -5 -3
-10 1 -10 9 0 9 5 16 10 16 6 0 10 -4 10 -9z m3170 -225 c0 -3 -4 -8 -10 -11
-5 -3 -10 -1 -10 4 0 6 5 11 10 11 6 0 10 -2 10 -4z m-858 -158 c-7 -7 -12 -8
-12 -2 0 14 12 26 19 19 2 -3 -1 -11 -7 -17z m-470 -30 c-7 -7 -12 -8 -12 -2
0 14 12 26 19 19 2 -3 -1 -11 -7 -17z m-342 2 c0 -5 -4 -10 -10 -10 -5 0 -10
5 -10 10 0 6 5 10 10 10 6 0 10 -4 10 -10z m1465 -9 c-3 -6 -11 -8 -17 -5 -6
4 -5 9 3 15 16 10 23 4 14 -10z m-2778 -13 c-3 -8 -6 -5 -6 6 -1 11 2 17 5 13
3 -3 4 -12 1 -19z m121 -46 c6 -2 12 2 13 10 0 7 4 3 9 -9 6 -15 15 -21 25
-16 11 4 16 1 15 -8 -6 -37 0 -41 38 -35 29 5 33 4 20 -4 -10 -6 -18 -15 -18
-20 0 -11 41 -9 58 3 8 6 17 5 27 -3 10 -9 15 -9 15 -1 0 6 5 11 10 11 6 0 10
-7 10 -16 0 -10 6 -14 14 -11 9 4 17 -1 19 -11 4 -14 6 -13 12 6 10 30 27 28
19 -3 -5 -20 -3 -24 9 -19 8 3 18 1 21 -4 9 -15 44 -3 49 17 3 11 7 7 16 -14
11 -26 14 -28 22 -12 6 9 17 17 25 17 8 0 12 -5 9 -11 -5 -7 4 -8 27 -4 26 5
39 2 51 -10 9 -9 21 -14 27 -10 5 3 19 1 31 -6 17 -9 23 -8 30 2 5 9 10 5 14
-14 6 -23 12 -27 37 -25 16 1 32 6 34 10 3 4 13 4 22 -1 29 -14 87 -31 110
-31 11 0 24 -5 27 -11 4 -6 19 -7 36 -4 16 4 29 2 29 -3 0 -14 68 -20 80 -8 7
7 10 4 10 -7 0 -15 3 -16 21 -7 26 14 53 5 45 -15 -3 -9 0 -15 9 -15 8 0 14 3
14 8 -1 4 -1 15 0 25 1 24 21 21 21 -3 0 -18 3 -19 20 -10 11 6 25 8 30 5 5
-3 13 2 19 12 7 14 22 18 70 18 47 0 61 3 62 15 1 10 3 9 6 -3 4 -14 8 -15 18
-7 10 8 19 8 33 1 16 -8 21 -7 26 5 3 8 10 13 15 10 5 -4 16 1 24 9 9 8 19 15
23 15 5 0 3 -5 -4 -12 -21 -21 -14 -41 13 -36 14 3 28 1 31 -4 3 -4 11 -5 17
-1 10 6 92 12 183 14 22 0 35 7 43 22 11 22 11 22 7 -1 -4 -23 -3 -24 32 -17
20 4 60 8 87 10 28 1 58 5 68 10 12 5 17 3 17 -10 0 -10 4 -13 13 -8 12 8 17
9 75 12 25 1 35 6 39 22 4 15 8 17 14 8 5 -9 16 -4 39 19 17 18 36 30 41 27 4
-3 20 1 33 10 28 19 76 27 76 14 0 -5 5 -9 10 -9 6 0 10 6 10 14 0 8 10 14 24
14 31 -1 86 38 87 60 0 14 2 14 6 2 11 -27 53 -42 53 -19 0 6 -7 9 -15 5 -8
-3 -15 -1 -15 4 0 6 14 10 30 10 17 0 39 9 50 20 22 22 35 27 24 8 -4 -7 -3
-8 4 -4 7 4 12 13 12 20 0 7 12 18 28 25 24 10 25 10 9 -3 -12 -10 -15 -16 -7
-21 6 -4 20 1 31 11 25 22 32 14 19 -22 -9 -23 -8 -31 5 -40 11 -8 12 -14 5
-19 -5 -3 -8 -10 -5 -15 3 -5 1 -12 -5 -15 -7 -4 -8 -21 -4 -43 4 -20 7 -41 7
-47 -1 -5 -3 -34 -6 -62 -2 -29 0 -53 5 -53 5 0 4 -9 -2 -20 -7 -12 -7 -27 -2
-37 12 -24 0 -68 -18 -68 -8 0 -15 -5 -15 -12 0 -13 -60 -67 -69 -61 -3 1 -13
-7 -21 -20 -9 -12 -20 -22 -25 -22 -12 0 -60 -49 -60 -61 0 -6 -10 -9 -22 -8
-13 2 -29 0 -37 -5 -11 -7 -11 -10 0 -18 10 -7 8 -8 -8 -5 -19 4 -74 -17 -123
-48 -8 -5 -24 -8 -34 -6 -25 4 -106 -19 -106 -30 0 -5 -7 -9 -15 -9 -8 0 -15
-5 -15 -11 0 -8 -4 -8 -13 -1 -8 7 -18 7 -27 2 -22 -14 -30 -12 -30 7 0 15 -2
15 -17 1 -17 -15 -55 -24 -138 -33 -22 -2 -41 -9 -43 -15 -2 -5 -8 -10 -13
-10 -4 0 -6 7 -2 16 5 13 0 14 -33 8 -47 -8 -53 -12 -34 -24 13 -8 12 -10 -2
-10 -10 0 -18 7 -18 15 0 18 -30 15 -99 -10 -24 -8 -56 -13 -72 -10 -18 3 -39
-1 -54 -11 -14 -9 -25 -12 -25 -6 0 6 6 12 13 15 8 3 6 7 -6 12 -12 5 -24 1
-38 -14 -27 -28 -32 -27 -24 9 4 19 3 30 -4 30 -6 0 -11 -4 -11 -9 0 -5 -13
-11 -30 -13 -16 -3 -30 -2 -30 2 0 11 -75 7 -82 -4 -5 -7 -8 -3 -8 8 0 15 -3
16 -14 7 -11 -10 -15 -8 -19 6 -4 14 -5 13 -6 -4 -1 -22 -21 -34 -21 -12 0 6
-12 10 -27 9 -16 -1 -32 -1 -38 0 -5 1 -24 1 -42 0 -17 -1 -42 4 -54 11 -17 9
-24 9 -27 0 -2 -6 -11 -11 -19 -11 -9 0 -13 6 -9 15 3 8 1 15 -4 15 -6 0 -10
-4 -10 -8 0 -5 -13 -7 -30 -4 -23 3 -30 0 -30 -12 0 -21 -14 -20 -31 1 -10 11
-10 14 -1 9 6 -4 12 -2 12 3 0 10 -103 6 -137 -5 -7 -2 -13 3 -13 11 0 8 -8
15 -17 16 -10 0 -28 2 -40 3 -13 2 -23 -1 -23 -6 0 -4 -4 -8 -10 -8 -5 0 -10
9 -10 20 0 17 -4 19 -26 14 -18 -5 -25 -3 -20 4 9 15 -29 25 -65 17 -22 -5
-29 -3 -27 6 2 8 -8 15 -21 17 -14 2 -35 10 -47 18 -13 9 -25 11 -28 5 -6 -9
-33 -6 -66 6 -8 4 -26 8 -40 10 -14 2 -31 11 -37 20 -7 9 -13 13 -13 9 0 -4
-6 -4 -12 1 -14 8 -32 13 -63 16 -11 1 -19 9 -19 18 1 10 -12 22 -32 30 -21 8
-33 19 -32 28 2 10 -4 16 -17 16 -11 0 -21 8 -23 18 -2 11 -9 16 -18 13 -7 -3
-22 8 -34 24 -12 17 -19 30 -15 30 3 0 3 5 -1 12 -12 18 -13 119 -2 112 6 -4
5 3 -1 14 -15 27 -14 32 5 32 8 0 12 5 9 10 -4 6 -11 8 -16 5 -5 -4 -9 1 -9 9
0 10 6 13 18 10 14 -5 14 -3 -3 11 -16 13 -17 17 -6 24 20 12 24 61 5 61 -17
0 -19 16 -3 26 6 3 9 17 6 30 -3 16 1 28 11 33 13 8 14 12 3 25 -7 8 -9 21 -5
28 6 9 10 6 14 -11 3 -14 11 -26 18 -29z m-75 -17 c-3 -9 -8 -14 -10 -11 -3 3
-2 9 2 15 9 16 15 13 8 -4z m172 -15 c-3 -5 -12 -10 -18 -10 -7 0 -6 4 3 10
19 12 23 12 15 0z m1425 -4 c0 -3 -4 -8 -10 -11 -5 -3 -10 -1 -10 4 0 6 5 11
10 11 6 0 10 -2 10 -4z m-540 -70 c0 -3 -4 -8 -10 -11 -5 -3 -10 -1 -10 4 0 6
5 11 10 11 6 0 10 -2 10 -4z m-1066 -21 c-6 -16 -24 -21 -24 -7 0 11 11 22 21
22 5 0 6 -7 3 -15z m2141 -54 c3 -5 1 -12 -5 -16 -5 -3 -10 1 -10 9 0 18 6 21
15 7z m725 -75 c0 -3 -4 -8 -10 -11 -5 -3 -10 -1 -10 4 0 6 5 11 10 11 6 0 10
-2 10 -4z m-100 -26 c0 -5 -5 -10 -11 -10 -5 0 -7 5 -4 10 3 6 8 10 11 10 2 0
4 -4 4 -10z m-3030 -30 c0 -5 -5 -10 -11 -10 -5 0 -7 5 -4 10 3 6 8 10 11 10
2 0 4 -4 4 -10z m3220 -4 c0 -3 -4 -8 -10 -11 -5 -3 -10 -1 -10 4 0 6 5 11 10
11 6 0 10 -2 10 -4z m-730 -401 c0 -8 -4 -15 -10 -15 -5 0 -7 7 -4 15 4 8 8
15 10 15 2 0 4 -7 4 -15z m-2290 -15 c0 -5 -5 -10 -11 -10 -5 0 -7 5 -4 10 3
6 8 10 11 10 2 0 4 -4 4 -10z m2797 -52 c-3 -8 -6 -5 -6 6 -1 11 2 17 5 13 3
-3 4 -12 1 -19z m-1277 -28 c0 -5 -2 -10 -4 -10 -3 0 -8 5 -11 10 -3 6 -1 10
4 10 6 0 11 -4 11 -10z m-180 -30 c0 -5 -5 -10 -11 -10 -5 0 -7 5 -4 10 3 6 8
10 11 10 2 0 4 -4 4 -10z m970 -140 c0 -5 -7 -10 -15 -10 -8 0 -15 5 -15 10 0
6 7 10 15 10 8 0 15 -4 15 -10z m-100 -24 c0 -3 -4 -8 -10 -11 -5 -3 -10 -1
-10 4 0 6 5 11 10 11 6 0 10 -2 10 -4z" fill="#ffffff" class="color000 svgShape"></path><path d="M600 2860c0-5 5-10 11-10 5 0 7 5 4 10-3 6-8 10-11 10-2 0-4-4-4-10zM2590 2770c0-5 4-10 9-10 6 0 13 5 16 10 3 6-1 10-9 10-9 0-16-4-16-10zM1790 2700c0-5 4-10 9-10 6 0 13 5 16 10 3 6-1 10-9 10-9 0-16-4-16-10zM1800 2099c0-5 5-7 10-4 6 3 10 8 10 11 0 2-4 4-10 4-5 0-10-5-10-11zM1835 920c-3-5-1-10 4-10 6 0 11 5 11 10 0 6-2 10-4 10-3 0-8-4-11-10zM1770 899c0-5 5-7 10-4 6 3 10 8 10 11 0 2-4 4-10 4-5 0-10-5-10-11zM6177 2949c-40-23-78-29-84-13-4 10-8 12-12 5-4-6-35-13-70-16-44-3-68-10-77-22-8-11-13-13-14-5 0 13-42 17-54 5-7-8-11-9-38-12-9-1-8-4 2-11 12-8 9-10-12-10-16 0-28-4-28-9 0-5-12-8-26-8-15 0-30-6-34-13-8-12-44-35-72-46-9-3-18-14-21-25-3-11-14-19-26-19-11 0-30-13-43-30-12-16-26-30-31-30-4 0-15-6-23-14-7-8-24-23-36-33-27-22-48-56-48-78 0-8-9-20-20-27-11-7-20-21-20-30 0-10-4-18-10-18-5 0-19-22-32-50-13-27-26-50-29-50-3 0-5-13-4-30 1-16-4-31-12-34-20-8-16-37 5-29 14 5 15 3 5-8-7-7-13-25-13-40 0-15-4-31-10-34-15-9-12-25 6-25 10 0 12-4 7-12-4-7-6-21-5-30 2-10-2-18-7-18-14 0-14-57-1-65 6-3 10-1 10 4 0 6 5 11 11 11 8 0 8-4-1-15-7-8-14-38-17-66-3-44-2-51 12-46 13 6 14 3 4-14-9-17-8-23 2-30 10-6 11-9 2-9-15 0-13-41 2-52 5-4 13-2 17 5 5 8 8 9 8 1 0-6-7-17-15-24-21-17-19-26 8-35 19-6 19-8 5-12-25-6-22-29 5-38 19-6 19-8 5-12-10-2-18-11-18-19 0-11 6-13 20-9 16 5 20 2 20-18 0-14-6-28-12-30-7-3-3-6 9-6 16-1 28-13 42-43 15-34 21-39 26-26 9 22 25 13 25-13 0-16 5-19 20-14 15 5 18 3 14-9-4-10-1-16 10-16 9 0 13-6 10-14-7-19 16-32 27-15 6 9 9 10 9 2 0-6-4-15-10-18-18-11-11-24 16-31 19-5 24-12 21-25-5-20 15-43 27-31 4 4 13 0 20-8 20-26 54-41 60-27 3 7 3 0 0-15-5-21-2-28 10-28 8 0 20-9 26-21 7-12 17-18 26-15 8 3 21 9 31 13 11 4 14 3 9-5-15-24 5-32 42-16 24 10 38 11 40 4 5-14 22-13 22 3 0 6 7 25 15 41 32 61-5 318-44 309-6-2-11 4-11 12 0 10-10 15-29 15-21 0-28 5-27 18 0 10-5 16-13 14-10-2-12 5-8 27 6 27 4 30-15 28-15-1-26 6-35 23-7 14-18 25-25 25-7 0-12 8-10 18 2 10-4 17-14 17-12 0-15 6-11 26 4 22-1 28-25 39-19 7-26 15-19 19 6 4 11 17 11 30 0 12 6 28 13 35 10 10 8 15-7 27-11 8-15 14-9 14 17 0 23 40 7 47-13 5-15 46-3 68 3 6 6 26 8 45 1 19 11 44 21 55 11 12 20 33 20 47 0 14 9 33 20 43 16 14 17 20 8 27-10 6-10 10 2 17 8 5 17 8 20 6 3-2 11 8 17 22 10 21 10 23-3 12-29-24-26 1 5 33 17 17 31 38 31 45 0 12 18 18 48 14 6-1 12 4 12 11 0 12 36 42 52 43 14 0 21 15 7 15-11 0-11 2 1 10 22 14 33 12 26-5-7-18 5-20 23-2 13 13 71 17 71 5 0-4 12-5 28-3 15 3 45 6 67 8 22 2 45 6 51 9 5 4 40 6 77 5 47-1 68-5 72-15 3-10 13-12 30-8 14 4 25 3 24-1-4-23 3-33 21-33 11 0 20-6 20-14 0-10 7-12 23-8 20 5 21 4 8-11-12-15-11-17 7-17 11 0 22-8 25-21 3-11 15-23 26-26 16-4 19-11 15-30-6-22-4-24 14-19 16 5 21 2 24-16 2-15 9-22 21-21 12 0 16-4 13-13-3-7-1-16 5-19 5-4 7-10 4-15-3-5-1-11 3-14 5-3 9-26 10-51 0-34 6-51 21-64 25-22 27-31 5-31-13 0-14-3-5-14 6-7 9-21 5-30-4-10-1-16 7-16 10-1 9-5-3-14-13-9-17-23-14-47 3-21-2-40-11-51-18-20-10-53 9-42 9 5 9 3-1-9-7-9-20-17-27-17-8 0-11-6-7-16 3-9-5-26-21-43-15-15-27-40-27-56-2-45-22-96-34-91-6 2-17-5-23-15-10-16-9-19 3-19 24 0 17-17-9-24-14-3-38-17-55-31-28-24-30-24-40-8-8 14-10 15-11 3 0-15-49-44-58-35-3 3 0 24 7 47 11 36 11 43-3 54-20 14-20 24-1 24 8 0 15 7 15 15 0 8-5 15-11 15-5 0-8 4-4 10 3 5 3 21-1 35-5 20-9 23-15 13-6-9-9-7-9 8 0 27-33 32-200 30l-115-1-1-40c0-22-6-51-13-63-12-22-11-23 8-17 22 7 29-9 10-20-6-4-8-13-5-20 3-8 0-16-7-19-9-5-9-7 1-12 17-8 15-34-5-56-15-17-15-18 6-18 19 0 21-5 18-35-2-19-6-38-10-41-3-3-2-16 2-28 10-25 7-163-5-190-6-15-4-18 8-13 14 5 16-1 13-31-2-20 1-42 6-48 6-7 4-16-6-24-19-16-20-51-1-44 10 4 14-2 12-20 0-14-4-26-8-26-18 0-6-17 24-35 18-10 27-20 20-23-7-2-12-8-12-13 0-6 43-8 113-4 97 5 114 9 130 26 9 12 17 27 17 35 0 8 7 14 16 14 10 0 14-6 11-14-4-10-1-13 9-9 17 6 18 20 3 25-8 3-5 19 9 50 11 26 16 48 12 50-5 2-12 21-16 44-5 33-3 42 10 47 10 4 15 3 11-3-8-13 21-13 44-1 10 6 39 12 66 16 27 3 52 10 55 16 4 5 14 7 23 3 11-4 19 0 23 10 3 9 10 16 16 16 5 0 38 29 73 65 36 36 66 65 69 65 2 0 6-6 9-12 2-7 3-5 1 5-1 10 9 30 22 44 13 15 27 37 30 50 4 13 10 23 15 23 5 0 9 6 9 14 0 8 10 22 22 30 15 11 18 16 8 17-9 0-6 4 6 9 11 4 29 25 39 47 10 21 21 40 25 43 9 7 46 103 42 112-1 4 3 31 10 60 6 29 10 58 10 63-1 6-4 24-6 40-3 17 1 40 10 53 8 12 10 22 5 22-6 0-7 16-4 37 5 31 4 35-10 30-22-8-22 1 0 25 9 11 11 18 5 18-7 0-12 9-12 20 0 11-6 23-13 25-8 4-11 21-8 51l3 46-35-4c-26-3-33 0-29 10 2 7 13 11 23 9 10-3 20 0 22 7 7 21-5 46-24 46-11 0-19 5-19 10 0 6 7 10 15 10 8 0 15 5 15 10 0 6-11 10-25 10-26 0-34 15-12 23 10 4 10 7 0 18-7 7-13 21-13 30 0 9-7 20-16 23-8 3-12 10-9 16 3 5-1 10-11 10-12 0-14 3-6 13 15 18-14 61-35 53-12-5-14-1-10 16 4 18-3 29-34 51-22 15-44 27-49 27-6 0-10 14-10 30 0 27-3 30-24 24-19-4-25-1-30 19-5 20-11 23-31 19-20-3-24-1-19 12 7 19-16 22-34 4-20-20-26 1-6 23l19 22-32-6c-24-5-33-3-33 7 0 15-45 30-60 21-6-3-17-2-26 3-11 6-13 11-5 16 16 10 14 26-4 26-9 0-18-7-21-15-4-8-12-15-20-15-8 0-14 7-14 15 0 17-16 20-25 5-4-6-14-5-28 3-12 8-41 13-64 12-41-1-42 0-26 17 18 20 8 23-20 7zm-287-79c-8-5-18-6-24-3-5 4-1 10 10 13 24 9 34 2 14-10zm155-240c-3-5-12-10-18-10-7 0-6 4 3 10 19 12 23 12 15 0zm-365-44c0-3-4-8-10-11-5-3-10-1-10 4 0 6 5 11 10 11 6 0 10-2 10-4zm995-376c3-5 1-10-4-10-6 0-11 5-11 10 0 6 2 10 4 10 3 0 8-4 11-10zm277-122c-7-7-12-8-12-2 0 14 12 26 19 19 2-3-1-11-7-17zm-1317-98c3-5 1-10-4-10-6 0-11 5-11 10 0 6 2 10 4 10 3 0 8-4 11-10zm-85-64c0-2-7-7-16-10-8-3-12-2-9 4 6 10 25 14 25 6zm1033-113c-7-3-13-12-14-21 0-11-2-13-6-4-6 15 17 46 26 36 3-4 0-9-6-11zm-833-477c0-3-4-8-10-11-5-3-10-1-10 4 0 6 5 11 10 11 6 0 10-2 10-4zm283-297c-6-6-9-1-7 13 3 33 6 36 11 14 3-10 1-22-4-27zM7278 2936c-11-11-18-12-27-3-8 8-11 8-11-1 0-9-5-10-17-4-25 15-65-4-90-42-18-28-21-47-21-134l0-102 32-1 31-1-27-10c-29-10-37-33-15-41 9-3 7-9-5-24-24-26-23-43 2-38 21 4 36-10 21-20-7-4-7-15 0-32 7-19 6-28-2-34-7-4-9-19-5-42 5-24 3-37-6-40-8-4-5-8 9-12 14-4 20-12 16-19-4-6-6-41-4-77 1-40-2-70-8-74-16-10-13-25 5-25 11 0 14-5 10-16-4-9-1-24 6-32 11-13 11-14-1-8-19 12-32-13-18-36 10-15 9-21-3-28-8-5-10-10-4-10 12 0 12-69 0-88-3-6-1-12 6-14 8-3 7-18-5-55-23-71-22-103 2-103 11 0 23-4 26-10 3-5 0-10-8-10-8 0-17-9-20-20-4-15 0-20 16-21 20-1 20-2-3-8-24-7-24-7-5-19 11-6 14-12 7-12-8 0-11-7-7-19 3-10-1-24-10-31-19-16-19-31 0-24 18 7 19 0 3-26-14-22-2-42 13-20 7 11 8 7 3-12-5-22-3-28 11-28 10 0 15-7 14-17-1-10 1-26 4-35 4-10 10-26 14-35 9-24 10-31 12-48 0-8 8-15 16-15 8 0 15-9 15-19 0-11 5-23 10-26 6-3 10-1 10 4 0 6 5 11 11 11 7 0 9-10 5-26-6-23-5-24 15-14 17 9 24 8 40-6 10-9 19-23 19-31 0-15 16-17 25-3 3 6 1 10-6 10-7 0-10 2-8 5 7 7 69-18 69-27 0-5 11-1 25 8 20 13 24 13 20 2-4-9 2-14 14-15 11-1 22 5 25 13 7 19 36 18 36-1 0-17 4-18 47-6 20 6 35 5 42-2 7-7 16-5 30 7 19 17 19 17 14-3-6-22 11-29 23-10 3 6 15 9 25 6 10-3 17 0 16 5-1 6 14 12 33 14 19 2 46 6 58 9 15 4 21 2 17-5-8-12 15-13 34-1 21 13 29 210 10 222-11 7-11 11-1 17 10 7 11 32 3 84-1 10-75 5-82-6-4-5-17 1-30 12-19 19-24 19-33 7-15-20-80-14-84 8-2 9-9 14-17 11-8-3-16 3-20 16-5 16-10 19-20 10-10-8-15-6-20 9-4 12-12 18-21 14-7-3-14 0-14 6 0 6-7 8-15 5-10-4-15 0-15 14 0 12-4 24-10 27-5 3-10-1-10-9 0-8-5-18-11-21-11-7-7 34 6 68 4 10 3 17-4 17-6 0-11-7-11-15 0-8-4-15-9-15-10 0-8 77 4 104 7 15 5 18-7 13-10-3-18 1-21 12-3 14 0 17 13 14 24-6 37 17 17 32-12 9-14 19-7 48 4 21 4 37-1 37-14 0-11 28 4 33 9 3 9 8-2 21-10 12-11 20-4 24 11 7 16 32 14 61-1 11-5 10-17-5-15-18-15-18-9 11 3 17 8 38 11 48 4 11 0 17-10 17-14 0-15 4-3 33 15 38 11 76-9 84-13 5-13 8-1 22 19 22 19 61 1 61-12 0-13 8-7 38 4 20 7 52 7 70 0 17 3 32 8 32 4 0 8 7 8 16 0 8-4 12-10 9-19-11-10 35 10 55 11 11 15 20 9 20-7 0-8 7-4 18 10 25 17 173 9 191-4 9-8 22-10 30-4 20-26 32-46 25-13-4-16-1-12 9 4 13-5 14-57 11-37-2-66 1-70 7-4 7-11 5-21-5zm-88-25c0-5-7-12-16-15-14-5-15-4-4 9 14 17 20 19 20 6zm252-923c-6-6-15-8-19-4-4 4-1 11 7 16 19 12 27 3 12-12zm-242-28c0-5-5-10-11-10-5 0-7 5-4 10 3 6 8 10 11 10 2 0 4-4 4-10zm-15-130c-3-5-13-10-21-10-8 0-14 5-14 10 0 6 9 10 21 10 11 0 17-4 14-10zm52-432c-3-8-6-5-6 6-1 11 2 17 5 13 3-3 4-12 1-19zm323-98c0-5-5-10-11-10-5 0-7 5-4 10 3 6 8 10 11 10 2 0 4-4 4-10zM4887 2920c-12-14-22-18-30-13-7 5-33 8-59 7-27-1-48 2-48 6 0 12-42-1-64-19-14-11-20-13-23-4-3 8-20 10-55 6-37-5-49-3-44 5 4 7 4 12 1 12-9 0-40-32-40-41 0-4-3-11-7-15-5-4-8 2-8 14 0 25-35 39-55 22-11-9-15-9-15-1 0 6-8 9-17 7-42-8-79-19-90-29-10-7-13-3-13 13 0 23 0 23-24-3-16-17-26-22-29-14-3 7-6 4-6-5-1-10-9-18-18-18-19-1-53-23-53-34 0-4-13-21-30-39-16-18-30-38-30-44 0-7-7-13-15-13-8 0-15-4-15-10 0-5 7-7 15-4 9 4 15 0 15-10 0-9-6-16-14-16-19 0-24-22-21-95 3-80 15-145 28-145 5 0 5-6-2-14-9-10-8-15 4-19 8-4 12-13 9-20-3-8 2-22 11-31 9-9 14-24 11-32-4-10 1-18 14-21 11-3 25-20 32-39 7-19 18-34 25-34 7 0 13-4 13-10 0-17 54-89 68-90 6 0 12-5 12-12 0-16 168-178 185-178 9 0 12-6 9-15-4-9 0-15 10-15 9 0 16-3 16-7 0-12 78-93 89-93 5 0 18-13 28-30 9-16 25-30 33-30 16 0 31-22 44-63 4-14 12-17 28-11 22 6 22 5 7-12-8-11-20-31-27-46-6-16-20-28-29-28-148-4-201-8-213-15-9-5-11-4-6 3 4 7 1 12-8 12-8 0-18-4-21-10-12-20-26-10-15 10 7 14 7 20 0 20-5 0-10-4-10-10 0-5-8-6-17-3-12 5-15 2-10-10 7-18-8-33-18-17-4 6-10 8-15 5-5-3-11-2-14 3-2 4-32 7-65 6-35-2-61 2-61 7 0 12-90 1-104-12-6-5-18-9-28-9-11 0-18-7-18-19 0-11-4-23-10-26-11-7-12-171-1-219 4-22 14-32 34-37 16-4 34-15 40-24 11-14 16-13 52 5 47 24 51 25 35 5-10-12-10-15 3-15 9 0 20 6 24 13 13 22 60 30 67 11 5-13 15-15 51-10 25 4 45 4 45-1 0-4 67-8 150-7 130 1 152 3 170 19 11 10 20 13 20 6 0-8 6-8 18-2 9 5 26 12 37 16 16 5 17 8 5 16-10 6-5 7 16 3 33-6 57 12 30 22-20 8-21 24-1 24 8 0 15-4 15-10 0-19 17-10 56 30 21 22 44 38 51 35 15-5 53 41 53 65 0 10 6 20 14 23 7 3 16 18 19 34 3 15 9 36 13 47 6 16 4 17-16 11-15-5-20-4-16 4 4 6 13 11 19 11 7 0 17 12 24 28 15 34 13 132-3 132-7 0-9 10-6 25 9 47-7 94-33 101-20 5-24 11-19 30 4 17 1 26-10 30-9 3-16 11-16 16 0 23-41 67-57 61-12-5-15-2-10 9 3 10 0 19-8 22-8 3-12 12-9 21 5 11-1 15-21 15-21 0-29 7-38 30-10 26-24 35-49 31-5 0-8 6-8 14 0 8-9 15-20 15-11 0-20 7-20 15 0 8-6 15-13 15-7 0-26 18-43 39-16 22-37 42-46 44-10 3-18 11-18 19 0 7-20 22-45 33-25 11-43 25-41 32 6 14-58 65-68 55-4-3-4 2 0 12 6 15 3 17-14 12-17-6-21-4-16 8 4 11 1 16-10 16-9 0-16 6-16 14 0 8-7 16-15 18-28 6 55 84 103 95 32 8 42 8 42-1 0-10 13-10 63-1 34 7 71 16 81 21 13 5 17 4 13-3-4-6 0-14 9-17 28-11 62-6 68 9 7 20 26 19 26-2 0-14 2-14 20 2 18 16 24 14 21-7 0-3 12-4 27-2 58 10 67 9 64-6-3-11 1-10 17 4 12 11 27 15 40 11 17-5 20-3 15 12-5 17-5 17 10-1 8-10 19-15 24-12 6 3 11 67 11 142 1 95-1 134-9 129-6-4-23 1-37 10-35 23-103 30-103 10 0-24-15-17-26 11l-9 25-18-21zm-152-20c3-5 1-10-4-10-6 0-11 5-11 10 0 6 2 10 4 10 3 0 8-4 11-10zm-500-80c-3-5-10-10-16-10-5 0-9 5-9 10 0 6 7 10 16 10 8 0 12-4 9-10zm380-180c-3-5-11-10-16-10-6 0-7 5-4 10 3 6 11 10 16 10 6 0 7-4 4-10zm-105-224c0-3-4-8-10-11-5-3-10-1-10 4 0 6 5 11 10 11 6 0 10-2 10-4zm115-516c-3-5-12-10-18-10-7 0-6 4 3 10 19 12 23 12 15 0zm25-60c0-5-4-10-10-10-5 0-10 5-10 10 0 6 5 10 10 10 6 0 10-4 10-10zm-343-282c-3-8-6-5-6 6-1 11 2 17 5 13 3-3 4-12 1-19zm-177-18c0-5-4-10-10-10-5 0-10 5-10 10 0 6 5 10 10 10 6 0 10-4 10-10zm0-250c0-5-2-10-4-10-3 0-8 5-11 10-3 6-1 10 4 10 6 0 11-4 11-10zM5 1760c3-5 8-10 11-10 2 0 4 5 4 10 0 6-5 10-11 10-5 0-7-4-4-10z" fill="#ffffff" class="color000 svgShape"></path><path d="M7706 1621c-4-7-5-15-2-18 9-9 19 4 14 18-4 11-6 11-12 0zM7330 1266c0-9 5-16 10-16 6 0 10 4 10 9 0 6-4 13-10 16-5 3-10-1-10-9zM2900 219c0-5 5-7 10-4 6 3 10 8 10 11 0 2-4 4-10 4-5 0-10-5-10-11z" fill="#ffffff" class="color000 svgShape"></path></g></svg></g></svg>